%TF.GenerationSoftware,KiCad,Pcbnew,(7.0.0)*%
%TF.CreationDate,2023-04-14T17:54:00+02:00*%
%TF.ProjectId,multi-tool-midi-board,6d756c74-692d-4746-9f6f-6c2d6d696469,rev?*%
%TF.SameCoordinates,Original*%
%TF.FileFunction,Soldermask,Top*%
%TF.FilePolarity,Negative*%
%FSLAX46Y46*%
G04 Gerber Fmt 4.6, Leading zero omitted, Abs format (unit mm)*
G04 Created by KiCad (PCBNEW (7.0.0)) date 2023-04-14 17:54:00*
%MOMM*%
%LPD*%
G01*
G04 APERTURE LIST*
G04 Aperture macros list*
%AMRoundRect*
0 Rectangle with rounded corners*
0 $1 Rounding radius*
0 $2 $3 $4 $5 $6 $7 $8 $9 X,Y pos of 4 corners*
0 Add a 4 corners polygon primitive as box body*
4,1,4,$2,$3,$4,$5,$6,$7,$8,$9,$2,$3,0*
0 Add four circle primitives for the rounded corners*
1,1,$1+$1,$2,$3*
1,1,$1+$1,$4,$5*
1,1,$1+$1,$6,$7*
1,1,$1+$1,$8,$9*
0 Add four rect primitives between the rounded corners*
20,1,$1+$1,$2,$3,$4,$5,0*
20,1,$1+$1,$4,$5,$6,$7,0*
20,1,$1+$1,$6,$7,$8,$9,0*
20,1,$1+$1,$8,$9,$2,$3,0*%
%AMFreePoly0*
4,1,6,1.000000,0.000000,0.500000,-0.750000,-0.500000,-0.750000,-0.500000,0.750000,0.500000,0.750000,1.000000,0.000000,1.000000,0.000000,$1*%
%AMFreePoly1*
4,1,6,0.500000,-0.750000,-0.650000,-0.750000,-0.150000,0.000000,-0.650000,0.750000,0.500000,0.750000,0.500000,-0.750000,0.500000,-0.750000,$1*%
G04 Aperture macros list end*
%ADD10R,1.075000X0.300000*%
%ADD11RoundRect,0.250000X-1.500000X-0.550000X1.500000X-0.550000X1.500000X0.550000X-1.500000X0.550000X0*%
%ADD12RoundRect,0.225000X-0.225000X-0.250000X0.225000X-0.250000X0.225000X0.250000X-0.225000X0.250000X0*%
%ADD13RoundRect,0.200000X0.200000X0.275000X-0.200000X0.275000X-0.200000X-0.275000X0.200000X-0.275000X0*%
%ADD14RoundRect,0.200000X-0.200000X-0.275000X0.200000X-0.275000X0.200000X0.275000X-0.200000X0.275000X0*%
%ADD15O,1.508000X3.016000*%
%ADD16O,3.016000X1.508000*%
%ADD17RoundRect,0.200000X-0.275000X0.200000X-0.275000X-0.200000X0.275000X-0.200000X0.275000X0.200000X0*%
%ADD18RoundRect,0.200000X0.275000X-0.200000X0.275000X0.200000X-0.275000X0.200000X-0.275000X-0.200000X0*%
%ADD19R,1.700000X1.700000*%
%ADD20O,1.700000X1.700000*%
%ADD21RoundRect,0.225000X0.225000X0.250000X-0.225000X0.250000X-0.225000X-0.250000X0.225000X-0.250000X0*%
%ADD22R,1.800000X2.500000*%
%ADD23C,3.200000*%
%ADD24FreePoly0,180.000000*%
%ADD25FreePoly1,180.000000*%
%ADD26RoundRect,0.225000X0.250000X-0.225000X0.250000X0.225000X-0.250000X0.225000X-0.250000X-0.225000X0*%
%ADD27RoundRect,0.150000X0.150000X-0.512500X0.150000X0.512500X-0.150000X0.512500X-0.150000X-0.512500X0*%
%ADD28RoundRect,0.218750X-0.218750X-0.381250X0.218750X-0.381250X0.218750X0.381250X-0.218750X0.381250X0*%
%ADD29R,0.300000X1.075000*%
%ADD30RoundRect,0.218750X-0.381250X0.218750X-0.381250X-0.218750X0.381250X-0.218750X0.381250X0.218750X0*%
%ADD31R,2.100000X2.100000*%
%ADD32C,2.100000*%
%ADD33R,2.500000X1.800000*%
%ADD34RoundRect,0.225000X-0.250000X0.225000X-0.250000X-0.225000X0.250000X-0.225000X0.250000X0.225000X0*%
%ADD35RoundRect,0.250000X-0.262500X-0.450000X0.262500X-0.450000X0.262500X0.450000X-0.262500X0.450000X0*%
%ADD36R,2.450000X1.600000*%
%ADD37O,3.240000X2.720000*%
%ADD38R,1.800000X1.800000*%
%ADD39C,1.800000*%
%ADD40FreePoly0,270.000000*%
%ADD41FreePoly1,270.000000*%
%ADD42R,1.780000X2.000000*%
%ADD43C,1.600000*%
%ADD44R,2.400000X3.100000*%
%ADD45RoundRect,0.070000X1.100000X0.250000X-1.100000X0.250000X-1.100000X-0.250000X1.100000X-0.250000X0*%
%ADD46C,0.770000*%
%ADD47C,1.700000*%
%ADD48R,2.300000X1.600000*%
%ADD49RoundRect,0.218750X-0.218750X-0.256250X0.218750X-0.256250X0.218750X0.256250X-0.218750X0.256250X0*%
%ADD50RoundRect,0.150000X-0.150000X0.825000X-0.150000X-0.825000X0.150000X-0.825000X0.150000X0.825000X0*%
%ADD51RoundRect,0.250000X0.550000X-1.500000X0.550000X1.500000X-0.550000X1.500000X-0.550000X-1.500000X0*%
%ADD52R,1.300000X1.300000*%
%ADD53R,1.300000X2.000000*%
%ADD54RoundRect,0.250000X-0.550000X1.500000X-0.550000X-1.500000X0.550000X-1.500000X0.550000X1.500000X0*%
%ADD55R,0.900000X1.200000*%
%ADD56R,1.850000X1.850000*%
%ADD57C,1.850000*%
%ADD58O,1.800000X1.800000*%
%ADD59O,1.500000X1.500000*%
G04 APERTURE END LIST*
D10*
%TO.C,U17*%
X93461999Y-59124999D03*
X93461999Y-59624999D03*
X93461999Y-60124999D03*
X93461999Y-60624999D03*
X93461999Y-61124999D03*
X93461999Y-61624999D03*
X93461999Y-62124999D03*
X96537999Y-62124999D03*
X96537999Y-61624999D03*
X96537999Y-61124999D03*
X96537999Y-60624999D03*
X96537999Y-60124999D03*
X96537999Y-59624999D03*
X96537999Y-59124999D03*
%TD*%
D11*
%TO.C,C46*%
X128510000Y-110200000D03*
X134110000Y-110200000D03*
%TD*%
D12*
%TO.C,C59*%
X181225000Y-96000000D03*
X182775000Y-96000000D03*
%TD*%
D13*
%TO.C,R66*%
X182200000Y-113250000D03*
X180550000Y-113250000D03*
%TD*%
D14*
%TO.C,R14*%
X83675000Y-59625000D03*
X85325000Y-59625000D03*
%TD*%
D15*
%TO.C,J11*%
X172549999Y-45149999D03*
D16*
X168999999Y-41949999D03*
D15*
X165449999Y-45149999D03*
D16*
X168999999Y-50049999D03*
%TD*%
D17*
%TO.C,R24*%
X106000000Y-56300000D03*
X106000000Y-57950000D03*
%TD*%
D18*
%TO.C,R11*%
X138000000Y-64950000D03*
X138000000Y-63300000D03*
%TD*%
D19*
%TO.C,J1*%
X115919999Y-79249999D03*
D20*
X118459999Y-79249999D03*
X120999999Y-79249999D03*
X123539999Y-79249999D03*
X126079999Y-79249999D03*
X128619999Y-79249999D03*
X131159999Y-79249999D03*
%TD*%
D21*
%TO.C,C1*%
X78785000Y-71625000D03*
X77235000Y-71625000D03*
%TD*%
D18*
%TO.C,R59*%
X177000000Y-93325000D03*
X177000000Y-91675000D03*
%TD*%
D22*
%TO.C,D4*%
X63749999Y-107499999D03*
X63749999Y-103499999D03*
%TD*%
D23*
%TO.C,REF\u002A\u002A*%
X62000000Y-29000000D03*
%TD*%
D10*
%TO.C,U12*%
X108461999Y-59124999D03*
X108461999Y-59624999D03*
X108461999Y-60124999D03*
X108461999Y-60624999D03*
X108461999Y-61124999D03*
X108461999Y-61624999D03*
X108461999Y-62124999D03*
X111537999Y-62124999D03*
X111537999Y-61624999D03*
X111537999Y-61124999D03*
X111537999Y-60624999D03*
X111537999Y-60124999D03*
X111537999Y-59624999D03*
X111537999Y-59124999D03*
%TD*%
D21*
%TO.C,C68*%
X175150000Y-111750000D03*
X173600000Y-111750000D03*
%TD*%
%TO.C,C8*%
X136839464Y-73625000D03*
X135289464Y-73625000D03*
%TD*%
D24*
%TO.C,JP2*%
X61225000Y-103000000D03*
D25*
X59775000Y-103000000D03*
%TD*%
D26*
%TO.C,C71*%
X181990000Y-57775000D03*
X181990000Y-56225000D03*
%TD*%
D27*
%TO.C,U3*%
X81124464Y-69762500D03*
X82074464Y-69762500D03*
X83024464Y-69762500D03*
X83024464Y-67487500D03*
X82074464Y-67487500D03*
X81124464Y-67487500D03*
%TD*%
D21*
%TO.C,C5*%
X78785000Y-73625000D03*
X77235000Y-73625000D03*
%TD*%
%TO.C,C60*%
X182775000Y-98000000D03*
X181225000Y-98000000D03*
%TD*%
D17*
%TO.C,R49*%
X145550000Y-56300000D03*
X145550000Y-57950000D03*
%TD*%
D19*
%TO.C,J18*%
X129779999Y-123999999D03*
D20*
X132319999Y-123999999D03*
X134859999Y-123999999D03*
X137399999Y-123999999D03*
X139939999Y-123999999D03*
%TD*%
D21*
%TO.C,C62*%
X175275000Y-102500000D03*
X173725000Y-102500000D03*
%TD*%
D26*
%TO.C,C79*%
X53250000Y-115275000D03*
X53250000Y-113725000D03*
%TD*%
D27*
%TO.C,U7*%
X111239464Y-69762500D03*
X112189464Y-69762500D03*
X113139464Y-69762500D03*
X113139464Y-67487500D03*
X112189464Y-67487500D03*
X111239464Y-67487500D03*
%TD*%
D21*
%TO.C,C66*%
X182650000Y-118250000D03*
X181100000Y-118250000D03*
%TD*%
D11*
%TO.C,C44*%
X141510000Y-110200000D03*
X147110000Y-110200000D03*
%TD*%
D13*
%TO.C,R28*%
X106325000Y-61625000D03*
X104675000Y-61625000D03*
%TD*%
D21*
%TO.C,C2*%
X82849464Y-71625000D03*
X81299464Y-71625000D03*
%TD*%
D28*
%TO.C,FB1*%
X39937500Y-120750000D03*
X42062500Y-120750000D03*
%TD*%
D18*
%TO.C,R90*%
X177500000Y-65325000D03*
X177500000Y-63675000D03*
%TD*%
D17*
%TO.C,R41*%
X91000000Y-56300000D03*
X91000000Y-57950000D03*
%TD*%
D13*
%TO.C,R65*%
X174700000Y-116250000D03*
X173050000Y-116250000D03*
%TD*%
D12*
%TO.C,C64*%
X180725000Y-102500000D03*
X182275000Y-102500000D03*
%TD*%
D23*
%TO.C,REF\u002A\u002A*%
X31000000Y-94000000D03*
%TD*%
D21*
%TO.C,C43*%
X129310000Y-115200000D03*
X127760000Y-115200000D03*
%TD*%
D26*
%TO.C,C19*%
X133000000Y-57400000D03*
X133000000Y-55850000D03*
%TD*%
D21*
%TO.C,C13*%
X108850000Y-73587500D03*
X107300000Y-73587500D03*
%TD*%
D29*
%TO.C,U20*%
X179374999Y-115711999D03*
X178874999Y-115711999D03*
X178374999Y-115711999D03*
X177874999Y-115711999D03*
X177374999Y-115711999D03*
X176874999Y-115711999D03*
X176374999Y-115711999D03*
X176374999Y-118787999D03*
X176874999Y-118787999D03*
X177374999Y-118787999D03*
X177874999Y-118787999D03*
X178374999Y-118787999D03*
X178874999Y-118787999D03*
X179374999Y-118787999D03*
%TD*%
D13*
%TO.C,R64*%
X174700000Y-117750000D03*
X173050000Y-117750000D03*
%TD*%
D26*
%TO.C,C58*%
X155050000Y-57900000D03*
X155050000Y-56350000D03*
%TD*%
D14*
%TO.C,R44*%
X98675000Y-59625000D03*
X100325000Y-59625000D03*
%TD*%
D30*
%TO.C,FB2*%
X75750000Y-94687500D03*
X75750000Y-96812500D03*
%TD*%
D31*
%TO.C,J27*%
X54499999Y-93999999D03*
D32*
X49000000Y-99500000D03*
X43500000Y-94000000D03*
X52890000Y-97890000D03*
X45110000Y-97890000D03*
X49000000Y-89500000D03*
%TD*%
D13*
%TO.C,R22*%
X161325000Y-59625000D03*
X159675000Y-59625000D03*
%TD*%
D14*
%TO.C,R61*%
X173675000Y-93000000D03*
X175325000Y-93000000D03*
%TD*%
D18*
%TO.C,R63*%
X178875000Y-113575000D03*
X178875000Y-111925000D03*
%TD*%
D15*
%TO.C,J12*%
X162549999Y-45149999D03*
D16*
X158999999Y-41949999D03*
D15*
X155449999Y-45149999D03*
D16*
X158999999Y-50049999D03*
%TD*%
D26*
%TO.C,C29*%
X109000000Y-57400000D03*
X109000000Y-55850000D03*
%TD*%
D16*
%TO.C,J15*%
X191749999Y-108649999D03*
D15*
X194949999Y-105099999D03*
D16*
X191749999Y-101549999D03*
D15*
X186849999Y-105099999D03*
%TD*%
D33*
%TO.C,D2*%
X41999999Y-124249999D03*
X45999999Y-124249999D03*
%TD*%
D12*
%TO.C,C61*%
X180725000Y-91500000D03*
X182275000Y-91500000D03*
%TD*%
D10*
%TO.C,U18*%
X148011999Y-59124999D03*
X148011999Y-59624999D03*
X148011999Y-60124999D03*
X148011999Y-60624999D03*
X148011999Y-61124999D03*
X148011999Y-61624999D03*
X148011999Y-62124999D03*
X151087999Y-62124999D03*
X151087999Y-61624999D03*
X151087999Y-61124999D03*
X151087999Y-60624999D03*
X151087999Y-60124999D03*
X151087999Y-59624999D03*
X151087999Y-59124999D03*
%TD*%
D34*
%TO.C,C72*%
X183990000Y-56225000D03*
X183990000Y-57775000D03*
%TD*%
D17*
%TO.C,R91*%
X187500000Y-56675000D03*
X187500000Y-58325000D03*
%TD*%
D22*
%TO.C,D3*%
X76499999Y-104499999D03*
X76499999Y-100499999D03*
%TD*%
D15*
%TO.C,J5*%
X123549999Y-45149999D03*
D16*
X119999999Y-41949999D03*
D15*
X116449999Y-45149999D03*
D16*
X119999999Y-50049999D03*
%TD*%
D17*
%TO.C,R9*%
X130000000Y-56300000D03*
X130000000Y-57950000D03*
%TD*%
D18*
%TO.C,R86*%
X184720000Y-74825000D03*
X184720000Y-73175000D03*
%TD*%
D16*
%TO.C,J16*%
X191749999Y-121649999D03*
D15*
X194949999Y-118099999D03*
D16*
X191749999Y-114549999D03*
D15*
X186849999Y-118099999D03*
%TD*%
D16*
%TO.C,J22*%
X191849999Y-81549999D03*
D15*
X195049999Y-77999999D03*
D16*
X191849999Y-74449999D03*
D15*
X186949999Y-77999999D03*
%TD*%
D34*
%TO.C,C54*%
X150550000Y-55575000D03*
X150550000Y-57125000D03*
%TD*%
D10*
%TO.C,U11*%
X132461999Y-59124999D03*
X132461999Y-59624999D03*
X132461999Y-60124999D03*
X132461999Y-60624999D03*
X132461999Y-61124999D03*
X132461999Y-61624999D03*
X132461999Y-62124999D03*
X135537999Y-62124999D03*
X135537999Y-61624999D03*
X135537999Y-61124999D03*
X135537999Y-60624999D03*
X135537999Y-60124999D03*
X135537999Y-59624999D03*
X135537999Y-59124999D03*
%TD*%
D34*
%TO.C,C26*%
X128500000Y-63350000D03*
X128500000Y-64900000D03*
%TD*%
D17*
%TO.C,R26*%
X161000000Y-56300000D03*
X161000000Y-57950000D03*
%TD*%
D26*
%TO.C,C52*%
X100500000Y-57900000D03*
X100500000Y-56350000D03*
%TD*%
D35*
%TO.C,R92*%
X101587500Y-126000000D03*
X103412500Y-126000000D03*
%TD*%
D21*
%TO.C,C6*%
X82849464Y-73625000D03*
X81299464Y-73625000D03*
%TD*%
D14*
%TO.C,R52*%
X153225000Y-59625000D03*
X154875000Y-59625000D03*
%TD*%
D36*
%TO.C,U24*%
X64674999Y-113379999D03*
X64674999Y-115919999D03*
X64674999Y-126079999D03*
X64674999Y-128619999D03*
X80824999Y-128619999D03*
X80824999Y-126079999D03*
X80824999Y-113379999D03*
%TD*%
D12*
%TO.C,C67*%
X180600000Y-111750000D03*
X182150000Y-111750000D03*
%TD*%
D16*
%TO.C,J14*%
X191849999Y-95549999D03*
D15*
X195049999Y-91999999D03*
D16*
X191849999Y-88449999D03*
D15*
X186949999Y-91999999D03*
%TD*%
D21*
%TO.C,C16*%
X167839464Y-73625000D03*
X166289464Y-73625000D03*
%TD*%
D37*
%TO.C,RV5*%
X164774999Y-113532499D03*
X164774999Y-123132499D03*
D38*
X157274999Y-115832499D03*
D39*
X157275000Y-118332500D03*
X157275000Y-120832500D03*
%TD*%
D21*
%TO.C,C10*%
X112964464Y-71625000D03*
X111414464Y-71625000D03*
%TD*%
D26*
%TO.C,C69*%
X69615000Y-88410000D03*
X69615000Y-86860000D03*
%TD*%
D31*
%TO.C,J23*%
X50499999Y-34999999D03*
D32*
X45000000Y-40500000D03*
X39500000Y-35000000D03*
X48890000Y-38890000D03*
X41110000Y-38890000D03*
X45000000Y-30500000D03*
%TD*%
D34*
%TO.C,C51*%
X89500000Y-63350000D03*
X89500000Y-64900000D03*
%TD*%
D40*
%TO.C,JP1*%
X76500000Y-108775000D03*
D41*
X76500000Y-110225000D03*
%TD*%
D13*
%TO.C,R51*%
X145875000Y-61625000D03*
X144225000Y-61625000D03*
%TD*%
D15*
%TO.C,J10*%
X127549999Y-31149999D03*
D16*
X123999999Y-27949999D03*
D15*
X120449999Y-31149999D03*
D16*
X123999999Y-36049999D03*
%TD*%
D15*
%TO.C,J13*%
X152549999Y-45149999D03*
D16*
X148999999Y-41949999D03*
D15*
X145449999Y-45149999D03*
D16*
X148999999Y-50049999D03*
%TD*%
D18*
%TO.C,R27*%
X169000000Y-64950000D03*
X169000000Y-63300000D03*
%TD*%
%TO.C,R85*%
X187250000Y-65325000D03*
X187250000Y-63675000D03*
%TD*%
%TO.C,R42*%
X99000000Y-64950000D03*
X99000000Y-63300000D03*
%TD*%
D13*
%TO.C,R80*%
X60825000Y-99750000D03*
X59175000Y-99750000D03*
%TD*%
D34*
%TO.C,C32*%
X166000000Y-55850000D03*
X166000000Y-57400000D03*
%TD*%
D18*
%TO.C,R10*%
X84000000Y-64950000D03*
X84000000Y-63300000D03*
%TD*%
D42*
%TO.C,U22*%
X67809999Y-69484999D03*
X65269999Y-69484999D03*
X62729999Y-69484999D03*
X60189999Y-69484999D03*
X60189999Y-79014999D03*
X62729999Y-79014999D03*
X65269999Y-79014999D03*
X67809999Y-79014999D03*
%TD*%
D15*
%TO.C,J3*%
X88539999Y-31149999D03*
D16*
X84989999Y-27949999D03*
D15*
X81439999Y-31149999D03*
D16*
X84989999Y-36049999D03*
%TD*%
D34*
%TO.C,C74*%
X188750000Y-63725000D03*
X188750000Y-65275000D03*
%TD*%
D26*
%TO.C,C55*%
X144050000Y-57900000D03*
X144050000Y-56350000D03*
%TD*%
%TO.C,C40*%
X170490000Y-57900000D03*
X170490000Y-56350000D03*
%TD*%
D38*
%TO.C,D5*%
X100999999Y-119999999D03*
D39*
X103540000Y-120000000D03*
%TD*%
D26*
%TO.C,C21*%
X74500000Y-57900000D03*
X74500000Y-56350000D03*
%TD*%
D13*
%TO.C,R69*%
X65575000Y-64250000D03*
X63925000Y-64250000D03*
%TD*%
D15*
%TO.C,J8*%
X147549999Y-31149999D03*
D16*
X143999999Y-27949999D03*
D15*
X140449999Y-31149999D03*
D16*
X143999999Y-36049999D03*
%TD*%
D18*
%TO.C,R55*%
X179000000Y-93325000D03*
X179000000Y-91675000D03*
%TD*%
D26*
%TO.C,C49*%
X89500000Y-57900000D03*
X89500000Y-56350000D03*
%TD*%
D10*
%TO.C,U13*%
X163461999Y-59124999D03*
X163461999Y-59624999D03*
X163461999Y-60124999D03*
X163461999Y-60624999D03*
X163461999Y-61124999D03*
X163461999Y-61624999D03*
X163461999Y-62124999D03*
X166537999Y-62124999D03*
X166537999Y-61624999D03*
X166537999Y-61124999D03*
X166537999Y-60624999D03*
X166537999Y-60124999D03*
X166537999Y-59624999D03*
X166537999Y-59124999D03*
%TD*%
D17*
%TO.C,R19*%
X137977500Y-56300000D03*
X137977500Y-57950000D03*
%TD*%
D15*
%TO.C,J20*%
X197549999Y-32149999D03*
D16*
X193999999Y-28949999D03*
D15*
X190449999Y-32149999D03*
D16*
X193999999Y-37049999D03*
%TD*%
D34*
%TO.C,C48*%
X95950000Y-55850000D03*
X95950000Y-57400000D03*
%TD*%
D14*
%TO.C,R89*%
X186675000Y-60000000D03*
X188325000Y-60000000D03*
%TD*%
D15*
%TO.C,J21*%
X187549999Y-32149999D03*
D16*
X183999999Y-28949999D03*
D15*
X180449999Y-32149999D03*
D16*
X183999999Y-37049999D03*
%TD*%
D26*
%TO.C,C31*%
X164000000Y-57400000D03*
X164000000Y-55850000D03*
%TD*%
D27*
%TO.C,U5*%
X135114464Y-69762500D03*
X136064464Y-69762500D03*
X137014464Y-69762500D03*
X137014464Y-67487500D03*
X136064464Y-67487500D03*
X135114464Y-67487500D03*
%TD*%
D26*
%TO.C,C35*%
X159500000Y-57900000D03*
X159500000Y-56350000D03*
%TD*%
D18*
%TO.C,R50*%
X153550000Y-64950000D03*
X153550000Y-63300000D03*
%TD*%
D26*
%TO.C,C33*%
X104500000Y-57900000D03*
X104500000Y-56350000D03*
%TD*%
D14*
%TO.C,R74*%
X59175000Y-97750000D03*
X60825000Y-97750000D03*
%TD*%
D15*
%TO.C,J7*%
X103549999Y-45149999D03*
D16*
X99999999Y-41949999D03*
D15*
X96449999Y-45149999D03*
D16*
X99999999Y-50049999D03*
%TD*%
D13*
%TO.C,R62*%
X182325000Y-101000000D03*
X180675000Y-101000000D03*
%TD*%
D18*
%TO.C,R16*%
X76000000Y-64950000D03*
X76000000Y-63300000D03*
%TD*%
D34*
%TO.C,C56*%
X155050000Y-63350000D03*
X155050000Y-64900000D03*
%TD*%
D43*
%TO.C,R1*%
X192000000Y-69700000D03*
X192000000Y-66300000D03*
%TD*%
D21*
%TO.C,C12*%
X167839464Y-71625000D03*
X166289464Y-71625000D03*
%TD*%
D13*
%TO.C,R38*%
X151135000Y-113200000D03*
X149485000Y-113200000D03*
%TD*%
%TO.C,R47*%
X145875000Y-59625000D03*
X144225000Y-59625000D03*
%TD*%
D44*
%TO.C,U14*%
X121309999Y-117199999D03*
D45*
X124185000Y-119105000D03*
X124185000Y-117835000D03*
X124185000Y-116565000D03*
X124185000Y-115295000D03*
X118435000Y-115295000D03*
X118435000Y-116565000D03*
X118435000Y-117835000D03*
X118435000Y-119105000D03*
D46*
X121960000Y-115900000D03*
X121960000Y-118500000D03*
X121960000Y-117200000D03*
X120660000Y-117200000D03*
X120660000Y-118500000D03*
X120660000Y-115900000D03*
%TD*%
D21*
%TO.C,C7*%
X132775000Y-73625000D03*
X131225000Y-73625000D03*
%TD*%
D17*
%TO.C,R46*%
X99000000Y-56300000D03*
X99000000Y-57950000D03*
%TD*%
%TO.C,R60*%
X179000000Y-100500000D03*
X179000000Y-102150000D03*
%TD*%
D27*
%TO.C,U6*%
X107125000Y-69725000D03*
X108075000Y-69725000D03*
X109025000Y-69725000D03*
X109025000Y-67450000D03*
X108075000Y-67450000D03*
X107125000Y-67450000D03*
%TD*%
%TO.C,U2*%
X77060000Y-69762500D03*
X78010000Y-69762500D03*
X78960000Y-69762500D03*
X78960000Y-67487500D03*
X78010000Y-67487500D03*
X77060000Y-67487500D03*
%TD*%
D31*
%TO.C,J24*%
X55499999Y-67999999D03*
D32*
X50000000Y-73500000D03*
X44500000Y-68000000D03*
X53890000Y-71890000D03*
X46110000Y-71890000D03*
X50000000Y-63500000D03*
%TD*%
D13*
%TO.C,R78*%
X56075000Y-86250000D03*
X54425000Y-86250000D03*
%TD*%
%TO.C,R79*%
X60750000Y-96000000D03*
X59100000Y-96000000D03*
%TD*%
D14*
%TO.C,R6*%
X83675000Y-61625000D03*
X85325000Y-61625000D03*
%TD*%
%TO.C,R7*%
X137675000Y-61625000D03*
X139325000Y-61625000D03*
%TD*%
D21*
%TO.C,C15*%
X163775000Y-73625000D03*
X162225000Y-73625000D03*
%TD*%
D27*
%TO.C,U4*%
X131050000Y-69762500D03*
X132000000Y-69762500D03*
X132950000Y-69762500D03*
X132950000Y-67487500D03*
X132000000Y-67487500D03*
X131050000Y-67487500D03*
%TD*%
D14*
%TO.C,R40*%
X98625000Y-61625000D03*
X100275000Y-61625000D03*
%TD*%
D47*
%TO.C,S1*%
X86000000Y-88056425D03*
D48*
X80499999Y-84556424D03*
X80499999Y-87056424D03*
X80499999Y-89556424D03*
X91499999Y-89556424D03*
X91499999Y-87056424D03*
X91499999Y-84556424D03*
%TD*%
D21*
%TO.C,C11*%
X163775000Y-71625000D03*
X162225000Y-71625000D03*
%TD*%
D19*
%TO.C,J19*%
X144319999Y-123999999D03*
D20*
X146859999Y-123999999D03*
X149399999Y-123999999D03*
X151939999Y-123999999D03*
X154479999Y-123999999D03*
%TD*%
D15*
%TO.C,J4*%
X78549999Y-31149999D03*
D16*
X74999999Y-27949999D03*
D15*
X71449999Y-31149999D03*
D16*
X74999999Y-36049999D03*
%TD*%
D14*
%TO.C,R29*%
X113675000Y-59625000D03*
X115325000Y-59625000D03*
%TD*%
D17*
%TO.C,R33*%
X113990000Y-56300000D03*
X113990000Y-57950000D03*
%TD*%
D34*
%TO.C,C20*%
X135000000Y-55850000D03*
X135000000Y-57400000D03*
%TD*%
D14*
%TO.C,R72*%
X54425000Y-84250000D03*
X56075000Y-84250000D03*
%TD*%
D13*
%TO.C,R57*%
X182325000Y-93000000D03*
X180675000Y-93000000D03*
%TD*%
D44*
%TO.C,U15*%
X134309999Y-117199999D03*
D45*
X137185000Y-119105000D03*
X137185000Y-117835000D03*
X137185000Y-116565000D03*
X137185000Y-115295000D03*
X131435000Y-115295000D03*
X131435000Y-116565000D03*
X131435000Y-117835000D03*
X131435000Y-119105000D03*
D46*
X134960000Y-117200000D03*
X133660000Y-117200000D03*
X133660000Y-118500000D03*
X133660000Y-115900000D03*
X134960000Y-115900000D03*
X134960000Y-118500000D03*
%TD*%
D34*
%TO.C,C36*%
X170500000Y-63350000D03*
X170500000Y-64900000D03*
%TD*%
D21*
%TO.C,C63*%
X175275000Y-91500000D03*
X173725000Y-91500000D03*
%TD*%
D49*
%TO.C,D6*%
X101675000Y-124000000D03*
X103250000Y-124000000D03*
%TD*%
D26*
%TO.C,C47*%
X93950000Y-57400000D03*
X93950000Y-55850000D03*
%TD*%
D47*
%TO.C,S3*%
X110000000Y-95000000D03*
D48*
X104499999Y-91499999D03*
X104499999Y-93999999D03*
X104499999Y-96499999D03*
X115499999Y-96499999D03*
X115499999Y-93999999D03*
X115499999Y-91499999D03*
%TD*%
D17*
%TO.C,R8*%
X76000000Y-56300000D03*
X76000000Y-57950000D03*
%TD*%
D21*
%TO.C,C45*%
X142310000Y-115200000D03*
X140760000Y-115200000D03*
%TD*%
D11*
%TO.C,C42*%
X115510000Y-110200000D03*
X121110000Y-110200000D03*
%TD*%
D26*
%TO.C,C22*%
X128500000Y-57900000D03*
X128500000Y-56350000D03*
%TD*%
D13*
%TO.C,R37*%
X138135000Y-113200000D03*
X136485000Y-113200000D03*
%TD*%
%TO.C,R43*%
X91325000Y-61625000D03*
X89675000Y-61625000D03*
%TD*%
D34*
%TO.C,C18*%
X81000000Y-55850000D03*
X81000000Y-57400000D03*
%TD*%
D26*
%TO.C,C76*%
X189000000Y-58275000D03*
X189000000Y-56725000D03*
%TD*%
D30*
%TO.C,FB3*%
X66500000Y-105937500D03*
X66500000Y-108062500D03*
%TD*%
D14*
%TO.C,R58*%
X173675000Y-101000000D03*
X175325000Y-101000000D03*
%TD*%
D13*
%TO.C,R76*%
X56075000Y-78250000D03*
X54425000Y-78250000D03*
%TD*%
D14*
%TO.C,R75*%
X64532500Y-81250000D03*
X66182500Y-81250000D03*
%TD*%
D34*
%TO.C,C23*%
X85500000Y-63350000D03*
X85500000Y-64900000D03*
%TD*%
D10*
%TO.C,U23*%
X181461999Y-59499999D03*
X181461999Y-59999999D03*
X181461999Y-60499999D03*
X181461999Y-60999999D03*
X181461999Y-61499999D03*
X181461999Y-61999999D03*
X181461999Y-62499999D03*
X184537999Y-62499999D03*
X184537999Y-61999999D03*
X184537999Y-61499999D03*
X184537999Y-60999999D03*
X184537999Y-60499999D03*
X184537999Y-59999999D03*
X184537999Y-59499999D03*
%TD*%
D13*
%TO.C,R12*%
X76325000Y-61625000D03*
X74675000Y-61625000D03*
%TD*%
D18*
%TO.C,R17*%
X130000000Y-64950000D03*
X130000000Y-63300000D03*
%TD*%
D14*
%TO.C,R73*%
X59100000Y-94000000D03*
X60750000Y-94000000D03*
%TD*%
D34*
%TO.C,C77*%
X41000000Y-127225000D03*
X41000000Y-128775000D03*
%TD*%
D26*
%TO.C,C38*%
X115490000Y-57900000D03*
X115490000Y-56350000D03*
%TD*%
D34*
%TO.C,C57*%
X144050000Y-63350000D03*
X144050000Y-64900000D03*
%TD*%
D14*
%TO.C,R23*%
X168675000Y-61625000D03*
X170325000Y-61625000D03*
%TD*%
D10*
%TO.C,U10*%
X78461999Y-59124999D03*
X78461999Y-59624999D03*
X78461999Y-60124999D03*
X78461999Y-60624999D03*
X78461999Y-61124999D03*
X78461999Y-61624999D03*
X78461999Y-62124999D03*
X81537999Y-62124999D03*
X81537999Y-61624999D03*
X81537999Y-61124999D03*
X81537999Y-60624999D03*
X81537999Y-60124999D03*
X81537999Y-59624999D03*
X81537999Y-59124999D03*
%TD*%
D34*
%TO.C,C78*%
X47000000Y-127225000D03*
X47000000Y-128775000D03*
%TD*%
D14*
%TO.C,R15*%
X137675000Y-59625000D03*
X139325000Y-59625000D03*
%TD*%
%TO.C,R21*%
X113675000Y-61625000D03*
X115325000Y-61625000D03*
%TD*%
D21*
%TO.C,C41*%
X116310000Y-115200000D03*
X114760000Y-115200000D03*
%TD*%
D14*
%TO.C,R71*%
X54425000Y-80250000D03*
X56075000Y-80250000D03*
%TD*%
D27*
%TO.C,U8*%
X162050000Y-69762500D03*
X163000000Y-69762500D03*
X163950000Y-69762500D03*
X163950000Y-67487500D03*
X163000000Y-67487500D03*
X162050000Y-67487500D03*
%TD*%
D34*
%TO.C,C80*%
X53250000Y-110725000D03*
X53250000Y-112275000D03*
%TD*%
%TO.C,C25*%
X74500000Y-63350000D03*
X74500000Y-64900000D03*
%TD*%
D14*
%TO.C,R83*%
X186675000Y-62000000D03*
X188325000Y-62000000D03*
%TD*%
D26*
%TO.C,C73*%
X177500000Y-58275000D03*
X177500000Y-56725000D03*
%TD*%
D12*
%TO.C,C70*%
X68475000Y-81250000D03*
X70025000Y-81250000D03*
%TD*%
D34*
%TO.C,C50*%
X100500000Y-63350000D03*
X100500000Y-64900000D03*
%TD*%
D13*
%TO.C,R77*%
X56075000Y-82250000D03*
X54425000Y-82250000D03*
%TD*%
D17*
%TO.C,R84*%
X179000000Y-56675000D03*
X179000000Y-58325000D03*
%TD*%
D14*
%TO.C,R81*%
X190000000Y-62000000D03*
X191650000Y-62000000D03*
%TD*%
D21*
%TO.C,C14*%
X112964464Y-73625000D03*
X111414464Y-73625000D03*
%TD*%
D34*
%TO.C,C37*%
X104500000Y-63350000D03*
X104500000Y-64900000D03*
%TD*%
D14*
%TO.C,R48*%
X153225000Y-61625000D03*
X154875000Y-61625000D03*
%TD*%
D13*
%TO.C,R82*%
X179325000Y-60000000D03*
X177675000Y-60000000D03*
%TD*%
D17*
%TO.C,R54*%
X153550000Y-56300000D03*
X153550000Y-57950000D03*
%TD*%
D18*
%TO.C,R45*%
X91000000Y-64950000D03*
X91000000Y-63300000D03*
%TD*%
D19*
%TO.C,J17*%
X114784999Y-123999999D03*
D20*
X117324999Y-123999999D03*
X119864999Y-123999999D03*
X122404999Y-123999999D03*
X124944999Y-123999999D03*
%TD*%
D31*
%TO.C,J26*%
X39499999Y-80999999D03*
D32*
X34000000Y-86500000D03*
X28500000Y-81000000D03*
X37890000Y-84890000D03*
X30110000Y-84890000D03*
X34000000Y-76500000D03*
%TD*%
D13*
%TO.C,R5*%
X130325000Y-59625000D03*
X128675000Y-59625000D03*
%TD*%
D47*
%TO.C,S2*%
X86000000Y-104056425D03*
D48*
X80499999Y-100556424D03*
X80499999Y-103056424D03*
X80499999Y-105556424D03*
X91499999Y-105556424D03*
X91499999Y-103056424D03*
X91499999Y-100556424D03*
%TD*%
D17*
%TO.C,R18*%
X83962000Y-56300000D03*
X83962000Y-57950000D03*
%TD*%
D21*
%TO.C,C3*%
X132775000Y-71625000D03*
X131225000Y-71625000D03*
%TD*%
D18*
%TO.C,R87*%
X182500000Y-74825000D03*
X182500000Y-73175000D03*
%TD*%
D23*
%TO.C,REF\u002A\u002A*%
X194000000Y-44000000D03*
%TD*%
D18*
%TO.C,R34*%
X161000000Y-64950000D03*
X161000000Y-63300000D03*
%TD*%
D13*
%TO.C,R88*%
X179325000Y-62000000D03*
X177675000Y-62000000D03*
%TD*%
D12*
%TO.C,C65*%
X181100000Y-116250000D03*
X182650000Y-116250000D03*
%TD*%
D50*
%TO.C,U21*%
X67675000Y-84910000D03*
X66405000Y-84910000D03*
X65135000Y-84910000D03*
X63865000Y-84910000D03*
X62595000Y-84910000D03*
X61325000Y-84910000D03*
X60055000Y-84910000D03*
X60055000Y-89860000D03*
X61325000Y-89860000D03*
X62595000Y-89860000D03*
X63865000Y-89860000D03*
X65135000Y-89860000D03*
X66405000Y-89860000D03*
X67675000Y-89860000D03*
%TD*%
D14*
%TO.C,R70*%
X54425000Y-76250000D03*
X56075000Y-76250000D03*
%TD*%
D15*
%TO.C,J2*%
X98549999Y-31149999D03*
D16*
X94999999Y-27949999D03*
D15*
X91449999Y-31149999D03*
D16*
X94999999Y-36049999D03*
%TD*%
D37*
%TO.C,RV3*%
X164774999Y-97032499D03*
X164774999Y-87432499D03*
D38*
X157274999Y-89732499D03*
D39*
X157275000Y-92232500D03*
X157275000Y-94732500D03*
%TD*%
D31*
%TO.C,J25*%
X39508357Y-54999999D03*
D32*
X34008358Y-60500000D03*
X28508358Y-55000000D03*
X37898358Y-58890000D03*
X30118358Y-58890000D03*
X34008358Y-50500000D03*
%TD*%
D29*
%TO.C,U19*%
X179499999Y-95461999D03*
X178999999Y-95461999D03*
X178499999Y-95461999D03*
X177999999Y-95461999D03*
X177499999Y-95461999D03*
X176999999Y-95461999D03*
X176499999Y-95461999D03*
X176499999Y-98537999D03*
X176999999Y-98537999D03*
X177499999Y-98537999D03*
X177999999Y-98537999D03*
X178499999Y-98537999D03*
X178999999Y-98537999D03*
X179499999Y-98537999D03*
%TD*%
D26*
%TO.C,C53*%
X148550000Y-57125000D03*
X148550000Y-55575000D03*
%TD*%
D18*
%TO.C,R67*%
X176875000Y-113575000D03*
X176875000Y-111925000D03*
%TD*%
D13*
%TO.C,R30*%
X161325000Y-61625000D03*
X159675000Y-61625000D03*
%TD*%
%TO.C,R13*%
X130325000Y-61625000D03*
X128675000Y-61625000D03*
%TD*%
D27*
%TO.C,U9*%
X166114464Y-69762500D03*
X167064464Y-69762500D03*
X168014464Y-69762500D03*
X168014464Y-67487500D03*
X167064464Y-67487500D03*
X166114464Y-67487500D03*
%TD*%
D26*
%TO.C,C17*%
X79000000Y-57400000D03*
X79000000Y-55850000D03*
%TD*%
%TO.C,C83*%
X83750000Y-127775000D03*
X83750000Y-126225000D03*
%TD*%
D51*
%TO.C,C84*%
X89000000Y-128800000D03*
X89000000Y-123200000D03*
%TD*%
D14*
%TO.C,R31*%
X168675000Y-59625000D03*
X170325000Y-59625000D03*
%TD*%
D34*
%TO.C,C75*%
X179000000Y-63725000D03*
X179000000Y-65275000D03*
%TD*%
D18*
%TO.C,R32*%
X106000000Y-64950000D03*
X106000000Y-63300000D03*
%TD*%
D44*
%TO.C,U16*%
X147309999Y-117199999D03*
D45*
X150185000Y-119105000D03*
X150185000Y-117835000D03*
X150185000Y-116565000D03*
X150185000Y-115295000D03*
X144435000Y-115295000D03*
X144435000Y-116565000D03*
X144435000Y-117835000D03*
X144435000Y-119105000D03*
D46*
X146660000Y-115900000D03*
X147960000Y-115900000D03*
X147960000Y-118500000D03*
X146660000Y-117200000D03*
X147960000Y-117200000D03*
X146660000Y-118500000D03*
%TD*%
D15*
%TO.C,J9*%
X137549999Y-31149999D03*
D16*
X133999999Y-27949999D03*
D15*
X130449999Y-31149999D03*
D16*
X133999999Y-36049999D03*
%TD*%
D18*
%TO.C,R25*%
X114000000Y-64950000D03*
X114000000Y-63300000D03*
%TD*%
D17*
%TO.C,R35*%
X168990000Y-56300000D03*
X168990000Y-57950000D03*
%TD*%
D15*
%TO.C,J6*%
X113549999Y-45149999D03*
D16*
X109999999Y-41949999D03*
D15*
X106449999Y-45149999D03*
D16*
X109999999Y-50049999D03*
%TD*%
D52*
%TO.C,RV1*%
X184649999Y-71249999D03*
D53*
X183499999Y-65749999D03*
D52*
X182349999Y-71249999D03*
%TD*%
D26*
%TO.C,C28*%
X139477500Y-57900000D03*
X139477500Y-56350000D03*
%TD*%
D54*
%TO.C,C82*%
X57750000Y-105200000D03*
X57750000Y-110800000D03*
%TD*%
D34*
%TO.C,C34*%
X115500000Y-63350000D03*
X115500000Y-64900000D03*
%TD*%
%TO.C,C39*%
X159500000Y-63350000D03*
X159500000Y-64900000D03*
%TD*%
D17*
%TO.C,R56*%
X177000000Y-100500000D03*
X177000000Y-102150000D03*
%TD*%
D13*
%TO.C,R39*%
X91325000Y-59625000D03*
X89675000Y-59625000D03*
%TD*%
D34*
%TO.C,C30*%
X111000000Y-55850000D03*
X111000000Y-57400000D03*
%TD*%
D55*
%TO.C,D1*%
X65649999Y-66249999D03*
X62349999Y-66249999D03*
%TD*%
D23*
%TO.C,REF\u002A\u002A*%
X175000000Y-125000000D03*
%TD*%
D31*
%TO.C,J28*%
X39499999Y-106999999D03*
D32*
X34000000Y-112500000D03*
X28500000Y-107000000D03*
X37890000Y-110890000D03*
X30110000Y-110890000D03*
X34000000Y-102500000D03*
%TD*%
D34*
%TO.C,C24*%
X139500000Y-63350000D03*
X139500000Y-64900000D03*
%TD*%
D14*
%TO.C,R68*%
X173550000Y-113250000D03*
X175200000Y-113250000D03*
%TD*%
D17*
%TO.C,R2*%
X74750000Y-72425000D03*
X74750000Y-74075000D03*
%TD*%
D51*
%TO.C,C81*%
X57750000Y-120550000D03*
X57750000Y-114950000D03*
%TD*%
D52*
%TO.C,RV2*%
X192349999Y-54249999D03*
D53*
X193499999Y-59749999D03*
D52*
X194649999Y-54249999D03*
%TD*%
D17*
%TO.C,R3*%
X73000000Y-72425000D03*
X73000000Y-74075000D03*
%TD*%
D26*
%TO.C,C27*%
X85462000Y-57900000D03*
X85462000Y-56350000D03*
%TD*%
D18*
%TO.C,R53*%
X145550000Y-64950000D03*
X145550000Y-63300000D03*
%TD*%
D13*
%TO.C,R20*%
X106325000Y-59625000D03*
X104675000Y-59625000D03*
%TD*%
D21*
%TO.C,C4*%
X136839464Y-71625000D03*
X135289464Y-71625000D03*
%TD*%
D47*
%TO.C,S4*%
X127000000Y-95000000D03*
D48*
X121499999Y-91499999D03*
X121499999Y-93999999D03*
X121499999Y-96499999D03*
X132499999Y-96499999D03*
X132499999Y-93999999D03*
X132499999Y-91499999D03*
%TD*%
D37*
%TO.C,RV4*%
X164774999Y-100532499D03*
X164774999Y-110132499D03*
D38*
X157274999Y-102832499D03*
D39*
X157275000Y-105332500D03*
X157275000Y-107832500D03*
%TD*%
D21*
%TO.C,C9*%
X108850000Y-71587500D03*
X107300000Y-71587500D03*
%TD*%
D13*
%TO.C,R4*%
X76325000Y-59625000D03*
X74675000Y-59625000D03*
%TD*%
%TO.C,R36*%
X125135000Y-113200000D03*
X123485000Y-113200000D03*
%TD*%
D28*
%TO.C,L1*%
X42937500Y-127000000D03*
X45062500Y-127000000D03*
%TD*%
D19*
%TO.C,J29*%
X69474999Y-104574999D03*
D20*
X72014999Y-104574999D03*
X69474999Y-102034999D03*
X72014999Y-102034999D03*
X69474999Y-99494999D03*
X72014999Y-99494999D03*
X69474999Y-96954999D03*
X72014999Y-96954999D03*
X69474999Y-94414999D03*
X72014999Y-94414999D03*
%TD*%
D56*
%TO.C,PS1*%
X49749999Y-128249999D03*
D57*
X49750000Y-125710000D03*
X49750000Y-123170000D03*
X49750000Y-118090000D03*
X49750000Y-115550000D03*
X49750000Y-113010000D03*
X49750000Y-110470000D03*
%TD*%
D58*
%TO.C,U1*%
X95999999Y-95724999D03*
D59*
X99029999Y-90574999D03*
X99029999Y-95424999D03*
D58*
X95999999Y-90274999D03*
D20*
X95869999Y-84109999D03*
X98409999Y-84109999D03*
D19*
X100949999Y-84109999D03*
D20*
X103489999Y-84109999D03*
X106029999Y-84109999D03*
X108569999Y-84109999D03*
X111109999Y-84109999D03*
D19*
X113649999Y-84109999D03*
D20*
X116189999Y-84109999D03*
X118729999Y-84109999D03*
X121269999Y-84109999D03*
X123809999Y-84109999D03*
D19*
X126349999Y-84109999D03*
D20*
X128889999Y-84109999D03*
X131429999Y-84109999D03*
X133969999Y-84109999D03*
X136509999Y-84109999D03*
D19*
X139049999Y-84109999D03*
D20*
X141589999Y-84109999D03*
X144129999Y-84109999D03*
X144129999Y-101889999D03*
X141589999Y-101889999D03*
D19*
X139049999Y-101889999D03*
D20*
X136509999Y-101889999D03*
X133969999Y-101889999D03*
X131429999Y-101889999D03*
X128889999Y-101889999D03*
D19*
X126349999Y-101889999D03*
D20*
X123809999Y-101889999D03*
X121269999Y-101889999D03*
X118729999Y-101889999D03*
X116189999Y-101889999D03*
D19*
X113649999Y-101889999D03*
D20*
X111109999Y-101889999D03*
X108569999Y-101889999D03*
X106029999Y-101889999D03*
X103489999Y-101889999D03*
D19*
X100949999Y-101889999D03*
D20*
X98409999Y-101889999D03*
X95869999Y-101889999D03*
X143899999Y-90459999D03*
D19*
X143899999Y-92999999D03*
D20*
X143899999Y-95539999D03*
%TD*%
M02*
