M48
; DRILL file {KiCad (7.0.0)} date Fri Apr 14 17:54:04 2023
; FORMAT={-:-/ absolute / inch / decimal}
; #@! TF.CreationDate,2023-04-14T17:54:04+02:00
; #@! TF.GenerationSoftware,Kicad,Pcbnew,(7.0.0)
; #@! TF.FileFunction,Plated,1,2,PTH
FMAT,2
INCH
; #@! TA.AperFunction,Plated,PTH,ComponentDrill
T1C0.0130
; #@! TA.AperFunction,Plated,PTH,ViaDrill
T2C0.0157
; #@! TA.AperFunction,Plated,PTH,ComponentDrill
T3C0.0315
; #@! TA.AperFunction,Plated,PTH,ComponentDrill
T4C0.0335
; #@! TA.AperFunction,Plated,PTH,ComponentDrill
T5C0.0354
; #@! TA.AperFunction,Plated,PTH,ComponentDrill
T6C0.0394
; #@! TA.AperFunction,Plated,PTH,ComponentDrill
T7C0.0402
; #@! TA.AperFunction,Plated,PTH,ComponentDrill
T8C0.0433
; #@! TA.AperFunction,Plated,PTH,ComponentDrill
T9C0.0551
%
G90
G05
T1
X4.7504Y-4.563
X4.7504Y-4.6142
X4.7504Y-4.6654
X4.8016Y-4.563
X4.8016Y-4.6142
X4.8016Y-4.6654
X5.2622Y-4.563
X5.2622Y-4.6142
X5.2622Y-4.6654
X5.3134Y-4.563
X5.3134Y-4.6142
X5.3134Y-4.6654
X5.774Y-4.563
X5.774Y-4.6142
X5.774Y-4.6654
X5.8252Y-4.563
X5.8252Y-4.6142
X5.8252Y-4.6654
T2
X1.2402Y-4.7165
X1.2402Y-4.7559
X1.2402Y-4.7953
X1.2795Y-4.7165
X1.2795Y-4.7559
X1.2795Y-4.7953
X1.3189Y-4.7165
X1.3189Y-4.7559
X1.3189Y-4.7953
X1.3583Y-4.7165
X1.3583Y-4.7559
X1.3583Y-4.7953
X1.7717Y-5.0787
X1.8292Y-4.5477
X2.0472Y-4.4488
X2.0866Y-5.0787
X2.1654Y-4.4488
X2.1654Y-4.9606
X2.2835Y-4.9606
X2.2835Y-5.0787
X2.313Y-3.1102
X2.3622Y-4.3307
X2.3622Y-4.5669
X2.3628Y-3.2691
X2.4409Y-4.4488
X2.4409Y-4.9606
X2.4409Y-5.0787
X2.5197Y-4.3307
X2.6378Y-4.4488
X2.6772Y-4.3307
X2.6772Y-4.5669
X2.6772Y-4.9606
X2.6772Y-5.0787
X2.7407Y-3.3596
X2.8051Y-3.1988
X2.8346Y-1.9882
X2.8346Y-2.126
X2.8346Y-4.9606
X2.8346Y-5.0787
X2.8731Y-2.5591
X2.9035Y-2.7461
X2.9921Y-2.7461
X2.9921Y-4.9606
X2.9921Y-5.0787
X3.0354Y-2.5571
X3.0407Y-2.8648
X3.0433Y-2.3858
X3.0709Y-2.6579
X3.0709Y-3.3268
X3.0709Y-4.9606
X3.0807Y-2.9626
X3.1102Y-2.1535
X3.1426Y-2.8834
X3.1693Y-3.878
X3.189Y-2.1535
X3.2008Y-2.8721
X3.2323Y-2.6559
X3.248Y-2.0472
X3.248Y-2.126
X3.2549Y-2.3858
X3.2677Y-4.8425
X3.2677Y-4.9606
X3.3465Y-2.9134
X3.3465Y-3.002
X3.3661Y-2.0079
X3.3661Y-2.126
X3.3858Y-4.7835
X3.4252Y-2.0079
X3.4252Y-2.126
X3.4252Y-4.8819
X3.4744Y-2.4705
X3.4744Y-2.5984
X3.5827Y-3.622
X3.5827Y-3.7303
X3.6348Y-2.3898
X3.6969Y-2.1535
X3.7008Y-3.622
X3.7008Y-3.7303
X3.7402Y-2.9035
X3.7402Y-3.0906
X3.7795Y-2.1535
X3.7795Y-4.5768
X3.7795Y-4.8031
X3.8386Y-2.0472
X3.8386Y-2.126
X3.8455Y-2.3858
X3.937Y-2.126
X4.0256Y-2.8937
X4.0256Y-3.0906
X4.0453Y-2.0079
X4.0453Y-2.126
X4.0542Y-2.5591
X4.1343Y-3.5044
X4.2126Y-2.5591
X4.2224Y-4.2323
X4.2224Y-4.4488
X4.2244Y-2.3858
X4.2244Y-2.8622
X4.2551Y-2.6559
X4.2618Y-3.0906
X4.2913Y-2.1535
X4.2913Y-2.9626
X4.2913Y-3.002
X4.311Y-3.0906
X4.3209Y-4.2323
X4.3209Y-4.4488
X4.3209Y-4.9311
X4.3209Y-5.0591
X4.3307Y-2.8937
X4.3701Y-2.1535
X4.3799Y-2.9626
X4.3799Y-3.002
X4.3864Y-2.8675
X4.4165Y-2.6539
X4.4291Y-2.0472
X4.4291Y-2.126
X4.4291Y-4.2323
X4.4291Y-4.4488
X4.4291Y-4.9311
X4.4291Y-5.0984
X4.436Y-2.3858
X4.5177Y-4.5965
X4.5335Y-2.9134
X4.7244Y-2.1151
X4.7638Y-3.5433
X4.8567Y-4.1831
X4.8567Y-4.2815
X4.9157Y-4.1831
X4.9157Y-4.2815
X4.9606Y-2.0079
X4.9606Y-2.1161
X4.999Y-2.5591
X5.0339Y-4.5965
X5.1077Y-5.0541
X5.1629Y-2.5571
X5.1663Y-2.8652
X5.1703Y-2.3855
X5.1969Y-2.6555
X5.2362Y-2.1535
X5.2362Y-2.9626
X5.2362Y-3.002
X5.2756Y-2.9035
X5.315Y-2.1535
X5.3248Y-2.9626
X5.3248Y-3.002
X5.3264Y-2.8626
X5.3583Y-2.6535
X5.374Y-2.0472
X5.374Y-2.126
X5.3809Y-2.3858
X5.398Y-4.2022
X5.398Y-4.3012
X5.4669Y-4.1929
X5.4669Y-4.3012
X5.4724Y-2.9134
X5.4921Y-1.998
X5.4921Y-2.126
X5.5457Y-4.5965
X5.5512Y-3.8189
X5.5906Y-1.998
X5.5906Y-2.126
X5.6201Y-2.5
X5.6201Y-2.6181
X5.6201Y-2.9134
X5.6201Y-3.1004
X5.6819Y-5.0575
X5.7283Y-2.9134
X5.7283Y-3.1004
X5.7825Y-2.3858
X5.8504Y-2.1417
X5.9291Y-2.1417
X5.9843Y-2.0472
X5.9843Y-2.126
X5.9931Y-2.3858
X6.1024Y-1.998
X6.1043Y-2.126
X6.2195Y-2.5591
X6.2598Y-2.126
X6.3386Y-3.6319
X6.3484Y-4.1437
X6.3484Y-4.6555
X6.3833Y-2.5571
X6.3868Y-2.8652
X6.3907Y-2.3858
X6.4173Y-2.6587
X6.4567Y-2.1535
X6.4567Y-2.9626
X6.4567Y-3.002
X6.4961Y-2.9035
X6.5354Y-2.1535
X6.5453Y-2.9626
X6.5453Y-3.002
X6.5468Y-2.8626
X6.5787Y-2.6567
X6.5945Y-2.0472
X6.5945Y-2.126
X6.6014Y-2.3858
X6.6535Y-2.126
X6.8071Y-4.5285
X6.8509Y-4.5241
X6.8602Y-2.3622
X6.9291Y-2.0079
X6.9291Y-2.126
X6.9449Y-4.6073
X6.9488Y-2.3622
X7.0039Y-4.499
X7.0039Y-4.7215
X7.0079Y-3.7136
X7.0079Y-3.9242
X7.0433Y-4.2726
X7.0433Y-4.3415
X7.0472Y-3.4547
X7.0472Y-3.5335
X7.0994Y-2.4016
X7.1654Y-2.1693
X7.2362Y-4.5758
X7.2362Y-4.6545
X7.2402Y-2.1693
X7.2402Y-3.7795
X7.2402Y-3.8583
X7.3031Y-2.0472
X7.3031Y-2.126
X7.311Y-2.4016
X7.5886Y-2.4409
X7.6575Y-2.1949
X7.7362Y-3.3465
X7.7461Y-3.8484
X7.8248Y-3.3465
X7.8248Y-3.8484
T3
X7.5591Y-2.6102
X7.5591Y-2.7441
T4
X1.9587Y-4.3492
X1.9587Y-4.4492
X1.9587Y-4.5492
X1.9587Y-4.6492
X1.9587Y-4.8492
X1.9587Y-4.9492
X1.9587Y-5.0492
T5
X3.9764Y-4.7244
X4.0764Y-4.7244
T6
X2.7352Y-3.7171
X2.7352Y-3.8171
X2.7352Y-3.9171
X2.7352Y-4.0171
X2.7352Y-4.1171
X2.8352Y-3.7171
X2.8352Y-3.8171
X2.8352Y-3.9171
X2.8352Y-4.0171
X2.8352Y-4.1171
X4.5191Y-4.8819
X4.5638Y-3.1201
X4.6191Y-4.8819
X4.6638Y-3.1201
X4.7191Y-4.8819
X4.7638Y-3.1201
X4.8191Y-4.8819
X4.8638Y-3.1201
X4.9191Y-4.8819
X4.9638Y-3.1201
X5.0638Y-3.1201
X5.1094Y-4.8819
X5.1638Y-3.1201
X5.2094Y-4.8819
X5.3094Y-4.8819
X5.4094Y-4.8819
X5.5094Y-4.8819
X5.6819Y-4.8819
X5.7819Y-4.8819
X5.8819Y-4.8819
X5.9819Y-4.8819
X6.0819Y-4.8819
X6.1919Y-3.5328
X6.1919Y-3.6312
X6.1919Y-3.7296
X6.1919Y-4.0485
X6.1919Y-4.1469
X6.1919Y-4.2454
X6.1919Y-4.5603
X6.1919Y-4.6588
X6.1919Y-4.7572
T7
X3.7744Y-3.3114
X3.7744Y-4.0114
X3.8744Y-3.3114
X3.8744Y-4.0114
X3.9744Y-3.3114
X3.9744Y-4.0114
X4.0744Y-3.3114
X4.0744Y-4.0114
X4.1744Y-3.3114
X4.1744Y-4.0114
X4.2744Y-3.3114
X4.2744Y-4.0114
X4.3744Y-3.3114
X4.3744Y-4.0114
X4.4744Y-3.3114
X4.4744Y-4.0114
X4.5744Y-3.3114
X4.5744Y-4.0114
X4.6744Y-3.3114
X4.6744Y-4.0114
X4.7744Y-3.3114
X4.7744Y-4.0114
X4.8744Y-3.3114
X4.8744Y-4.0114
X4.9744Y-3.3114
X4.9744Y-4.0114
X5.0744Y-3.3114
X5.0744Y-4.0114
X5.1744Y-3.3114
X5.1744Y-4.0114
X5.2744Y-3.3114
X5.2744Y-4.0114
X5.3744Y-3.3114
X5.3744Y-4.0114
X5.4744Y-3.3114
X5.4744Y-4.0114
X5.5744Y-3.3114
X5.5744Y-4.0114
X5.6654Y-3.5614
X5.6654Y-3.6614
X5.6654Y-3.7614
X5.6744Y-3.3114
X5.6744Y-4.0114
T9
X1.122Y-3.189
X1.122Y-4.2126
X1.1224Y-2.1654
X1.1854Y-3.3421
X1.1854Y-4.3657
X1.1858Y-2.3185
X1.3386Y-3.0118
X1.3386Y-3.4055
X1.3386Y-4.0354
X1.3386Y-4.4291
X1.3389Y-1.9882
X1.3389Y-2.3819
X1.4917Y-3.3421
X1.4917Y-4.3657
X1.4921Y-2.3185
X1.5551Y-1.378
X1.5551Y-3.189
X1.5551Y-4.2126
X1.5554Y-2.1654
X1.6185Y-1.5311
X1.7126Y-3.7008
X1.752Y-2.6772
X1.7717Y-1.2008
X1.7717Y-1.5945
X1.776Y-3.8539
X1.8154Y-2.8303
X1.9248Y-1.5311
X1.9291Y-3.5236
X1.9291Y-3.9173
X1.9685Y-2.5
X1.9685Y-2.8937
X1.9882Y-1.378
X2.0823Y-3.8539
X2.1217Y-2.8303
X2.1457Y-3.7008
X2.185Y-2.6772
T6
G00X2.813Y-1.2067
M15
G01X2.813Y-1.2461
M16
G05
G00X2.9331Y-1.1004
M15
G01X2.9724Y-1.1004
M16
G05
G00X2.9331Y-1.4193
M15
G01X2.9724Y-1.4193
M16
G05
G00X3.0925Y-1.2067
M15
G01X3.0925Y-1.2461
M16
G05
G00X3.2063Y-1.2067
M15
G01X3.2063Y-1.2461
M16
G05
G00X3.3264Y-1.1004
M15
G01X3.3657Y-1.1004
M16
G05
G00X3.3264Y-1.4193
M15
G01X3.3657Y-1.4193
M16
G05
G00X3.4858Y-1.2067
M15
G01X3.4858Y-1.2461
M16
G05
G00X3.6004Y-1.2067
M15
G01X3.6004Y-1.2461
M16
G05
G00X3.7205Y-1.1004
M15
G01X3.7598Y-1.1004
M16
G05
G00X3.7205Y-1.4193
M15
G01X3.7598Y-1.4193
M16
G05
G00X3.7972Y-1.7579
M15
G01X3.7972Y-1.7972
M16
G05
G00X3.8799Y-1.2067
M15
G01X3.8799Y-1.2461
M16
G05
G00X3.9173Y-1.6516
M15
G01X3.9567Y-1.6516
M16
G05
G00X3.9173Y-1.9705
M15
G01X3.9567Y-1.9705
M16
G05
G00X4.0768Y-1.7579
M15
G01X4.0768Y-1.7972
M16
G05
G00X4.1909Y-1.7579
M15
G01X4.1909Y-1.7972
M16
G05
G00X4.311Y-1.6516
M15
G01X4.3504Y-1.6516
M16
G05
G00X4.311Y-1.9705
M15
G01X4.3504Y-1.9705
M16
G05
G00X4.4705Y-1.7579
M15
G01X4.4705Y-1.7972
M16
G05
G00X4.5846Y-1.7579
M15
G01X4.5846Y-1.7972
M16
G05
G00X4.7047Y-1.6516
M15
G01X4.7441Y-1.6516
M16
G05
G00X4.7047Y-1.9705
M15
G01X4.7441Y-1.9705
M16
G05
G00X4.7421Y-1.2067
M15
G01X4.7421Y-1.2461
M16
G05
G00X4.8642Y-1.7579
M15
G01X4.8642Y-1.7972
M16
G05
G00X4.8622Y-1.1004
M15
G01X4.9016Y-1.1004
M16
G05
G00X4.8622Y-1.4193
M15
G01X4.9016Y-1.4193
M16
G05
G00X5.0217Y-1.2067
M15
G01X5.0217Y-1.2461
M16
G05
G00X5.1358Y-1.2067
M15
G01X5.1358Y-1.2461
M16
G05
G00X5.2559Y-1.1004
M15
G01X5.2953Y-1.1004
M16
G05
G00X5.2559Y-1.4193
M15
G01X5.2953Y-1.4193
M16
G05
G00X5.4154Y-1.2067
M15
G01X5.4154Y-1.2461
M16
G05
G00X5.5295Y-1.2067
M15
G01X5.5295Y-1.2461
M16
G05
G00X5.6496Y-1.1004
M15
G01X5.689Y-1.1004
M16
G05
G00X5.6496Y-1.4193
M15
G01X5.689Y-1.4193
M16
G05
G00X5.7264Y-1.7579
M15
G01X5.7264Y-1.7972
M16
G05
G00X5.8091Y-1.2067
M15
G01X5.8091Y-1.2461
M16
G05
G00X5.8465Y-1.6516
M15
G01X5.8858Y-1.6516
M16
G05
G00X5.8465Y-1.9705
M15
G01X5.8858Y-1.9705
M16
G05
G00X6.0059Y-1.7579
M15
G01X6.0059Y-1.7972
M16
G05
G00X6.1201Y-1.7579
M15
G01X6.1201Y-1.7972
M16
G05
G00X6.2402Y-1.6516
M15
G01X6.2795Y-1.6516
M16
G05
G00X6.2402Y-1.9705
M15
G01X6.2795Y-1.9705
M16
G05
G00X6.3996Y-1.7579
M15
G01X6.3996Y-1.7972
M16
G05
G00X6.5138Y-1.7579
M15
G01X6.5138Y-1.7972
M16
G05
G00X6.6339Y-1.6516
M15
G01X6.6732Y-1.6516
M16
G05
G00X6.6339Y-1.9705
M15
G01X6.6732Y-1.9705
M16
G05
G00X6.7933Y-1.7579
M15
G01X6.7933Y-1.7972
M16
G05
G00X7.1043Y-1.2461
M15
G01X7.1043Y-1.2854
M16
G05
G00X7.2244Y-1.1398
M15
G01X7.2638Y-1.1398
M16
G05
G00X7.2244Y-1.4587
M15
G01X7.2638Y-1.4587
M16
G05
G00X7.3563Y-4.1181
M15
G01X7.3563Y-4.1575
M16
G05
G00X7.3563Y-4.6299
M15
G01X7.3563Y-4.6693
M16
G05
G00X7.3602Y-3.0512
M15
G01X7.3602Y-3.0906
M16
G05
G00X7.3602Y-3.6024
M15
G01X7.3602Y-3.6417
M16
G05
G00X7.3839Y-1.2461
M15
G01X7.3839Y-1.2854
M16
G05
G00X7.498Y-1.2461
M15
G01X7.498Y-1.2854
M16
G05
G00X7.5689Y-3.998
M15
G01X7.5295Y-3.998
M16
G05
G00X7.5689Y-4.2776
M15
G01X7.5295Y-4.2776
M16
G05
G00X7.5689Y-4.5098
M15
G01X7.5295Y-4.5098
M16
G05
G00X7.5689Y-4.7894
M15
G01X7.5295Y-4.7894
M16
G05
G00X7.5728Y-2.9311
M15
G01X7.5335Y-2.9311
M16
G05
G00X7.5728Y-3.2106
M15
G01X7.5335Y-3.2106
M16
G05
G00X7.5728Y-3.4823
M15
G01X7.5335Y-3.4823
M16
G05
G00X7.5728Y-3.7618
M15
G01X7.5335Y-3.7618
M16
G05
G00X7.6181Y-1.1398
M15
G01X7.6575Y-1.1398
M16
G05
G00X7.6181Y-1.4587
M15
G01X7.6575Y-1.4587
M16
G05
G00X7.6752Y-4.1181
M15
G01X7.6752Y-4.1575
M16
G05
G00X7.6752Y-4.6299
M15
G01X7.6752Y-4.6693
M16
G05
G00X7.6791Y-3.0512
M15
G01X7.6791Y-3.0906
M16
G05
G00X7.6791Y-3.6024
M15
G01X7.6791Y-3.6417
M16
G05
G00X7.7776Y-1.2461
M15
G01X7.7776Y-1.2854
M16
G05
T8
G00X6.4734Y-3.4422
M15
G01X6.501Y-3.4422
M16
G05
G00X6.4734Y-3.8202
M15
G01X6.501Y-3.8202
M16
G05
G00X6.4734Y-3.958
M15
G01X6.501Y-3.958
M16
G05
G00X6.4734Y-4.3359
M15
G01X6.501Y-4.3359
M16
G05
G00X6.4734Y-4.4698
M15
G01X6.501Y-4.4698
M16
G05
G00X6.4734Y-4.8477
M15
G01X6.501Y-4.8477
M16
G05
T0
M30
