%TF.GenerationSoftware,KiCad,Pcbnew,(7.0.0)*%
%TF.CreationDate,2023-04-14T17:54:09+02:00*%
%TF.ProjectId,multi-tool-midi-board,6d756c74-692d-4746-9f6f-6c2d6d696469,rev?*%
%TF.SameCoordinates,Original*%
%TF.FileFunction,Drillmap*%
%TF.FilePolarity,Positive*%
%FSLAX45Y45*%
G04 Gerber Fmt 4.5, Leading zero omitted, Abs format (unit mm)*
G04 Created by KiCad (PCBNEW (7.0.0)) date 2023-04-14 17:54:09*
%MOMM*%
%LPD*%
G01*
G04 APERTURE LIST*
%ADD10C,0.100000*%
%ADD11C,0.200000*%
%ADD12C,0.150000*%
%ADD13C,0.170000*%
%ADD14C,0.180000*%
%ADD15C,0.320000*%
G04 APERTURE END LIST*
D10*
X2000000Y-2300000D02*
X20000000Y-2300000D01*
X20000000Y-2300000D02*
X20000000Y-13100000D01*
X20000000Y-13100000D02*
X2000000Y-13100000D01*
X2000000Y-13100000D02*
X2000000Y-2300000D01*
D11*
D12*
X9828000Y-8982500D02*
X9978000Y-9132500D01*
X9978000Y-8982500D02*
X9828000Y-9132500D01*
X9828000Y-9467500D02*
X9978000Y-9617500D01*
X9978000Y-9467500D02*
X9828000Y-9617500D01*
D13*
X8685000Y-8805643D02*
G75*
G03*
X8685000Y-8805643I-85000J0D01*
G01*
X8685000Y-10405643D02*
G75*
G03*
X8685000Y-10405643I-85000J0D01*
G01*
X11085000Y-9500000D02*
G75*
G03*
X11085000Y-9500000I-85000J0D01*
G01*
X12785000Y-9500000D02*
G75*
G03*
X12785000Y-9500000I-85000J0D01*
G01*
D14*
X9600000Y-8937500D02*
X9600000Y-9117500D01*
X9510000Y-9027500D02*
X9690000Y-9027500D01*
X9600000Y-9482500D02*
X9600000Y-9662500D01*
X9510000Y-9572500D02*
X9690000Y-9572500D01*
D15*
X3213138Y-9513138D02*
X3213138Y-9286862D01*
X2986862Y-9286862D01*
X2986862Y-9513138D01*
X3213138Y-9513138D01*
X6313138Y-3013138D02*
X6313138Y-2786862D01*
X6086862Y-2786862D01*
X6086862Y-3013138D01*
X6313138Y-3013138D01*
X17613138Y-12613138D02*
X17613138Y-12386862D01*
X17386862Y-12386862D01*
X17386862Y-12613138D01*
X17613138Y-12613138D01*
X19513138Y-4513138D02*
X19513138Y-4286862D01*
X19286862Y-4286862D01*
X19286862Y-4513138D01*
X19513138Y-4513138D01*
D11*
X2242619Y-13398476D02*
X2242619Y-13198476D01*
X2242619Y-13198476D02*
X2290238Y-13198476D01*
X2290238Y-13198476D02*
X2318810Y-13208000D01*
X2318810Y-13208000D02*
X2337857Y-13227048D01*
X2337857Y-13227048D02*
X2347381Y-13246095D01*
X2347381Y-13246095D02*
X2356905Y-13284190D01*
X2356905Y-13284190D02*
X2356905Y-13312762D01*
X2356905Y-13312762D02*
X2347381Y-13350857D01*
X2347381Y-13350857D02*
X2337857Y-13369905D01*
X2337857Y-13369905D02*
X2318810Y-13388952D01*
X2318810Y-13388952D02*
X2290238Y-13398476D01*
X2290238Y-13398476D02*
X2242619Y-13398476D01*
X2442619Y-13398476D02*
X2442619Y-13265143D01*
X2442619Y-13303238D02*
X2452143Y-13284190D01*
X2452143Y-13284190D02*
X2461667Y-13274667D01*
X2461667Y-13274667D02*
X2480714Y-13265143D01*
X2480714Y-13265143D02*
X2499762Y-13265143D01*
X2566429Y-13398476D02*
X2566429Y-13265143D01*
X2566429Y-13198476D02*
X2556905Y-13208000D01*
X2556905Y-13208000D02*
X2566429Y-13217524D01*
X2566429Y-13217524D02*
X2575952Y-13208000D01*
X2575952Y-13208000D02*
X2566429Y-13198476D01*
X2566429Y-13198476D02*
X2566429Y-13217524D01*
X2690238Y-13398476D02*
X2671190Y-13388952D01*
X2671190Y-13388952D02*
X2661667Y-13369905D01*
X2661667Y-13369905D02*
X2661667Y-13198476D01*
X2795000Y-13398476D02*
X2775952Y-13388952D01*
X2775952Y-13388952D02*
X2766429Y-13369905D01*
X2766429Y-13369905D02*
X2766429Y-13198476D01*
X2991190Y-13398476D02*
X2991190Y-13198476D01*
X2991190Y-13198476D02*
X3057857Y-13341333D01*
X3057857Y-13341333D02*
X3124524Y-13198476D01*
X3124524Y-13198476D02*
X3124524Y-13398476D01*
X3305476Y-13398476D02*
X3305476Y-13293714D01*
X3305476Y-13293714D02*
X3295952Y-13274667D01*
X3295952Y-13274667D02*
X3276905Y-13265143D01*
X3276905Y-13265143D02*
X3238809Y-13265143D01*
X3238809Y-13265143D02*
X3219762Y-13274667D01*
X3305476Y-13388952D02*
X3286428Y-13398476D01*
X3286428Y-13398476D02*
X3238809Y-13398476D01*
X3238809Y-13398476D02*
X3219762Y-13388952D01*
X3219762Y-13388952D02*
X3210238Y-13369905D01*
X3210238Y-13369905D02*
X3210238Y-13350857D01*
X3210238Y-13350857D02*
X3219762Y-13331809D01*
X3219762Y-13331809D02*
X3238809Y-13322286D01*
X3238809Y-13322286D02*
X3286428Y-13322286D01*
X3286428Y-13322286D02*
X3305476Y-13312762D01*
X3400714Y-13265143D02*
X3400714Y-13465143D01*
X3400714Y-13274667D02*
X3419762Y-13265143D01*
X3419762Y-13265143D02*
X3457857Y-13265143D01*
X3457857Y-13265143D02*
X3476905Y-13274667D01*
X3476905Y-13274667D02*
X3486428Y-13284190D01*
X3486428Y-13284190D02*
X3495952Y-13303238D01*
X3495952Y-13303238D02*
X3495952Y-13360381D01*
X3495952Y-13360381D02*
X3486428Y-13379428D01*
X3486428Y-13379428D02*
X3476905Y-13388952D01*
X3476905Y-13388952D02*
X3457857Y-13398476D01*
X3457857Y-13398476D02*
X3419762Y-13398476D01*
X3419762Y-13398476D02*
X3400714Y-13388952D01*
X3581667Y-13379428D02*
X3591190Y-13388952D01*
X3591190Y-13388952D02*
X3581667Y-13398476D01*
X3581667Y-13398476D02*
X3572143Y-13388952D01*
X3572143Y-13388952D02*
X3581667Y-13379428D01*
X3581667Y-13379428D02*
X3581667Y-13398476D01*
X3581667Y-13274667D02*
X3591190Y-13284190D01*
X3591190Y-13284190D02*
X3581667Y-13293714D01*
X3581667Y-13293714D02*
X3572143Y-13284190D01*
X3572143Y-13284190D02*
X3581667Y-13274667D01*
X3581667Y-13274667D02*
X3581667Y-13293714D01*
D12*
X1845000Y-13670000D02*
X1995000Y-13820000D01*
X1995000Y-13670000D02*
X1845000Y-13820000D01*
D11*
X2347381Y-13818476D02*
X2233095Y-13818476D01*
X2290238Y-13818476D02*
X2290238Y-13618476D01*
X2290238Y-13618476D02*
X2271190Y-13647048D01*
X2271190Y-13647048D02*
X2252143Y-13666095D01*
X2252143Y-13666095D02*
X2233095Y-13675619D01*
X2433095Y-13799428D02*
X2442619Y-13808952D01*
X2442619Y-13808952D02*
X2433095Y-13818476D01*
X2433095Y-13818476D02*
X2423571Y-13808952D01*
X2423571Y-13808952D02*
X2433095Y-13799428D01*
X2433095Y-13799428D02*
X2433095Y-13818476D01*
X2623571Y-13618476D02*
X2528333Y-13618476D01*
X2528333Y-13618476D02*
X2518810Y-13713714D01*
X2518810Y-13713714D02*
X2528333Y-13704190D01*
X2528333Y-13704190D02*
X2547381Y-13694667D01*
X2547381Y-13694667D02*
X2595000Y-13694667D01*
X2595000Y-13694667D02*
X2614048Y-13704190D01*
X2614048Y-13704190D02*
X2623571Y-13713714D01*
X2623571Y-13713714D02*
X2633095Y-13732762D01*
X2633095Y-13732762D02*
X2633095Y-13780381D01*
X2633095Y-13780381D02*
X2623571Y-13799428D01*
X2623571Y-13799428D02*
X2614048Y-13808952D01*
X2614048Y-13808952D02*
X2595000Y-13818476D01*
X2595000Y-13818476D02*
X2547381Y-13818476D01*
X2547381Y-13818476D02*
X2528333Y-13808952D01*
X2528333Y-13808952D02*
X2518810Y-13799428D01*
X2756905Y-13618476D02*
X2775952Y-13618476D01*
X2775952Y-13618476D02*
X2795000Y-13628000D01*
X2795000Y-13628000D02*
X2804524Y-13637524D01*
X2804524Y-13637524D02*
X2814048Y-13656571D01*
X2814048Y-13656571D02*
X2823571Y-13694667D01*
X2823571Y-13694667D02*
X2823571Y-13742286D01*
X2823571Y-13742286D02*
X2814048Y-13780381D01*
X2814048Y-13780381D02*
X2804524Y-13799428D01*
X2804524Y-13799428D02*
X2795000Y-13808952D01*
X2795000Y-13808952D02*
X2775952Y-13818476D01*
X2775952Y-13818476D02*
X2756905Y-13818476D01*
X2756905Y-13818476D02*
X2737857Y-13808952D01*
X2737857Y-13808952D02*
X2728333Y-13799428D01*
X2728333Y-13799428D02*
X2718810Y-13780381D01*
X2718810Y-13780381D02*
X2709286Y-13742286D01*
X2709286Y-13742286D02*
X2709286Y-13694667D01*
X2709286Y-13694667D02*
X2718810Y-13656571D01*
X2718810Y-13656571D02*
X2728333Y-13637524D01*
X2728333Y-13637524D02*
X2737857Y-13628000D01*
X2737857Y-13628000D02*
X2756905Y-13618476D01*
X2947381Y-13618476D02*
X2966429Y-13618476D01*
X2966429Y-13618476D02*
X2985476Y-13628000D01*
X2985476Y-13628000D02*
X2995000Y-13637524D01*
X2995000Y-13637524D02*
X3004524Y-13656571D01*
X3004524Y-13656571D02*
X3014048Y-13694667D01*
X3014048Y-13694667D02*
X3014048Y-13742286D01*
X3014048Y-13742286D02*
X3004524Y-13780381D01*
X3004524Y-13780381D02*
X2995000Y-13799428D01*
X2995000Y-13799428D02*
X2985476Y-13808952D01*
X2985476Y-13808952D02*
X2966429Y-13818476D01*
X2966429Y-13818476D02*
X2947381Y-13818476D01*
X2947381Y-13818476D02*
X2928333Y-13808952D01*
X2928333Y-13808952D02*
X2918809Y-13799428D01*
X2918809Y-13799428D02*
X2909286Y-13780381D01*
X2909286Y-13780381D02*
X2899762Y-13742286D01*
X2899762Y-13742286D02*
X2899762Y-13694667D01*
X2899762Y-13694667D02*
X2909286Y-13656571D01*
X2909286Y-13656571D02*
X2918809Y-13637524D01*
X2918809Y-13637524D02*
X2928333Y-13628000D01*
X2928333Y-13628000D02*
X2947381Y-13618476D01*
X3099762Y-13818476D02*
X3099762Y-13685143D01*
X3099762Y-13704190D02*
X3109286Y-13694667D01*
X3109286Y-13694667D02*
X3128333Y-13685143D01*
X3128333Y-13685143D02*
X3156905Y-13685143D01*
X3156905Y-13685143D02*
X3175952Y-13694667D01*
X3175952Y-13694667D02*
X3185476Y-13713714D01*
X3185476Y-13713714D02*
X3185476Y-13818476D01*
X3185476Y-13713714D02*
X3195000Y-13694667D01*
X3195000Y-13694667D02*
X3214048Y-13685143D01*
X3214048Y-13685143D02*
X3242619Y-13685143D01*
X3242619Y-13685143D02*
X3261667Y-13694667D01*
X3261667Y-13694667D02*
X3271190Y-13713714D01*
X3271190Y-13713714D02*
X3271190Y-13818476D01*
X3366429Y-13818476D02*
X3366429Y-13685143D01*
X3366429Y-13704190D02*
X3375952Y-13694667D01*
X3375952Y-13694667D02*
X3395000Y-13685143D01*
X3395000Y-13685143D02*
X3423571Y-13685143D01*
X3423571Y-13685143D02*
X3442619Y-13694667D01*
X3442619Y-13694667D02*
X3452143Y-13713714D01*
X3452143Y-13713714D02*
X3452143Y-13818476D01*
X3452143Y-13713714D02*
X3461667Y-13694667D01*
X3461667Y-13694667D02*
X3480714Y-13685143D01*
X3480714Y-13685143D02*
X3509286Y-13685143D01*
X3509286Y-13685143D02*
X3528333Y-13694667D01*
X3528333Y-13694667D02*
X3537857Y-13713714D01*
X3537857Y-13713714D02*
X3537857Y-13818476D01*
X3895952Y-13608952D02*
X3724524Y-13866095D01*
X4120714Y-13618476D02*
X4139762Y-13618476D01*
X4139762Y-13618476D02*
X4158810Y-13628000D01*
X4158810Y-13628000D02*
X4168333Y-13637524D01*
X4168333Y-13637524D02*
X4177857Y-13656571D01*
X4177857Y-13656571D02*
X4187381Y-13694667D01*
X4187381Y-13694667D02*
X4187381Y-13742286D01*
X4187381Y-13742286D02*
X4177857Y-13780381D01*
X4177857Y-13780381D02*
X4168333Y-13799428D01*
X4168333Y-13799428D02*
X4158810Y-13808952D01*
X4158810Y-13808952D02*
X4139762Y-13818476D01*
X4139762Y-13818476D02*
X4120714Y-13818476D01*
X4120714Y-13818476D02*
X4101667Y-13808952D01*
X4101667Y-13808952D02*
X4092143Y-13799428D01*
X4092143Y-13799428D02*
X4082619Y-13780381D01*
X4082619Y-13780381D02*
X4073095Y-13742286D01*
X4073095Y-13742286D02*
X4073095Y-13694667D01*
X4073095Y-13694667D02*
X4082619Y-13656571D01*
X4082619Y-13656571D02*
X4092143Y-13637524D01*
X4092143Y-13637524D02*
X4101667Y-13628000D01*
X4101667Y-13628000D02*
X4120714Y-13618476D01*
X4273095Y-13799428D02*
X4282619Y-13808952D01*
X4282619Y-13808952D02*
X4273095Y-13818476D01*
X4273095Y-13818476D02*
X4263572Y-13808952D01*
X4263572Y-13808952D02*
X4273095Y-13799428D01*
X4273095Y-13799428D02*
X4273095Y-13818476D01*
X4406429Y-13618476D02*
X4425476Y-13618476D01*
X4425476Y-13618476D02*
X4444524Y-13628000D01*
X4444524Y-13628000D02*
X4454048Y-13637524D01*
X4454048Y-13637524D02*
X4463572Y-13656571D01*
X4463572Y-13656571D02*
X4473095Y-13694667D01*
X4473095Y-13694667D02*
X4473095Y-13742286D01*
X4473095Y-13742286D02*
X4463572Y-13780381D01*
X4463572Y-13780381D02*
X4454048Y-13799428D01*
X4454048Y-13799428D02*
X4444524Y-13808952D01*
X4444524Y-13808952D02*
X4425476Y-13818476D01*
X4425476Y-13818476D02*
X4406429Y-13818476D01*
X4406429Y-13818476D02*
X4387381Y-13808952D01*
X4387381Y-13808952D02*
X4377857Y-13799428D01*
X4377857Y-13799428D02*
X4368333Y-13780381D01*
X4368333Y-13780381D02*
X4358810Y-13742286D01*
X4358810Y-13742286D02*
X4358810Y-13694667D01*
X4358810Y-13694667D02*
X4368333Y-13656571D01*
X4368333Y-13656571D02*
X4377857Y-13637524D01*
X4377857Y-13637524D02*
X4387381Y-13628000D01*
X4387381Y-13628000D02*
X4406429Y-13618476D01*
X4654048Y-13618476D02*
X4558810Y-13618476D01*
X4558810Y-13618476D02*
X4549286Y-13713714D01*
X4549286Y-13713714D02*
X4558810Y-13704190D01*
X4558810Y-13704190D02*
X4577857Y-13694667D01*
X4577857Y-13694667D02*
X4625476Y-13694667D01*
X4625476Y-13694667D02*
X4644524Y-13704190D01*
X4644524Y-13704190D02*
X4654048Y-13713714D01*
X4654048Y-13713714D02*
X4663572Y-13732762D01*
X4663572Y-13732762D02*
X4663572Y-13780381D01*
X4663572Y-13780381D02*
X4654048Y-13799428D01*
X4654048Y-13799428D02*
X4644524Y-13808952D01*
X4644524Y-13808952D02*
X4625476Y-13818476D01*
X4625476Y-13818476D02*
X4577857Y-13818476D01*
X4577857Y-13818476D02*
X4558810Y-13808952D01*
X4558810Y-13808952D02*
X4549286Y-13799428D01*
X4758810Y-13818476D02*
X4796905Y-13818476D01*
X4796905Y-13818476D02*
X4815953Y-13808952D01*
X4815953Y-13808952D02*
X4825476Y-13799428D01*
X4825476Y-13799428D02*
X4844524Y-13770857D01*
X4844524Y-13770857D02*
X4854048Y-13732762D01*
X4854048Y-13732762D02*
X4854048Y-13656571D01*
X4854048Y-13656571D02*
X4844524Y-13637524D01*
X4844524Y-13637524D02*
X4835000Y-13628000D01*
X4835000Y-13628000D02*
X4815953Y-13618476D01*
X4815953Y-13618476D02*
X4777857Y-13618476D01*
X4777857Y-13618476D02*
X4758810Y-13628000D01*
X4758810Y-13628000D02*
X4749286Y-13637524D01*
X4749286Y-13637524D02*
X4739762Y-13656571D01*
X4739762Y-13656571D02*
X4739762Y-13704190D01*
X4739762Y-13704190D02*
X4749286Y-13723238D01*
X4749286Y-13723238D02*
X4758810Y-13732762D01*
X4758810Y-13732762D02*
X4777857Y-13742286D01*
X4777857Y-13742286D02*
X4815953Y-13742286D01*
X4815953Y-13742286D02*
X4835000Y-13732762D01*
X4835000Y-13732762D02*
X4844524Y-13723238D01*
X4844524Y-13723238D02*
X4854048Y-13704190D01*
X5044524Y-13818476D02*
X4930238Y-13818476D01*
X4987381Y-13818476D02*
X4987381Y-13618476D01*
X4987381Y-13618476D02*
X4968333Y-13647048D01*
X4968333Y-13647048D02*
X4949286Y-13666095D01*
X4949286Y-13666095D02*
X4930238Y-13675619D01*
X5120714Y-13618476D02*
X5120714Y-13656571D01*
X5196905Y-13618476D02*
X5196905Y-13656571D01*
X5459762Y-13894667D02*
X5450238Y-13885143D01*
X5450238Y-13885143D02*
X5431191Y-13856571D01*
X5431191Y-13856571D02*
X5421667Y-13837524D01*
X5421667Y-13837524D02*
X5412143Y-13808952D01*
X5412143Y-13808952D02*
X5402619Y-13761333D01*
X5402619Y-13761333D02*
X5402619Y-13723238D01*
X5402619Y-13723238D02*
X5412143Y-13675619D01*
X5412143Y-13675619D02*
X5421667Y-13647048D01*
X5421667Y-13647048D02*
X5431191Y-13628000D01*
X5431191Y-13628000D02*
X5450238Y-13599428D01*
X5450238Y-13599428D02*
X5459762Y-13589905D01*
X5526429Y-13637524D02*
X5535953Y-13628000D01*
X5535953Y-13628000D02*
X5555000Y-13618476D01*
X5555000Y-13618476D02*
X5602619Y-13618476D01*
X5602619Y-13618476D02*
X5621667Y-13628000D01*
X5621667Y-13628000D02*
X5631191Y-13637524D01*
X5631191Y-13637524D02*
X5640714Y-13656571D01*
X5640714Y-13656571D02*
X5640714Y-13675619D01*
X5640714Y-13675619D02*
X5631191Y-13704190D01*
X5631191Y-13704190D02*
X5516905Y-13818476D01*
X5516905Y-13818476D02*
X5640714Y-13818476D01*
X5846429Y-13818476D02*
X5846429Y-13618476D01*
X5932143Y-13818476D02*
X5932143Y-13713714D01*
X5932143Y-13713714D02*
X5922619Y-13694667D01*
X5922619Y-13694667D02*
X5903572Y-13685143D01*
X5903572Y-13685143D02*
X5875000Y-13685143D01*
X5875000Y-13685143D02*
X5855952Y-13694667D01*
X5855952Y-13694667D02*
X5846429Y-13704190D01*
X6055952Y-13818476D02*
X6036905Y-13808952D01*
X6036905Y-13808952D02*
X6027381Y-13799428D01*
X6027381Y-13799428D02*
X6017857Y-13780381D01*
X6017857Y-13780381D02*
X6017857Y-13723238D01*
X6017857Y-13723238D02*
X6027381Y-13704190D01*
X6027381Y-13704190D02*
X6036905Y-13694667D01*
X6036905Y-13694667D02*
X6055952Y-13685143D01*
X6055952Y-13685143D02*
X6084524Y-13685143D01*
X6084524Y-13685143D02*
X6103572Y-13694667D01*
X6103572Y-13694667D02*
X6113095Y-13704190D01*
X6113095Y-13704190D02*
X6122619Y-13723238D01*
X6122619Y-13723238D02*
X6122619Y-13780381D01*
X6122619Y-13780381D02*
X6113095Y-13799428D01*
X6113095Y-13799428D02*
X6103572Y-13808952D01*
X6103572Y-13808952D02*
X6084524Y-13818476D01*
X6084524Y-13818476D02*
X6055952Y-13818476D01*
X6236905Y-13818476D02*
X6217857Y-13808952D01*
X6217857Y-13808952D02*
X6208333Y-13789905D01*
X6208333Y-13789905D02*
X6208333Y-13618476D01*
X6389286Y-13808952D02*
X6370238Y-13818476D01*
X6370238Y-13818476D02*
X6332143Y-13818476D01*
X6332143Y-13818476D02*
X6313095Y-13808952D01*
X6313095Y-13808952D02*
X6303572Y-13789905D01*
X6303572Y-13789905D02*
X6303572Y-13713714D01*
X6303572Y-13713714D02*
X6313095Y-13694667D01*
X6313095Y-13694667D02*
X6332143Y-13685143D01*
X6332143Y-13685143D02*
X6370238Y-13685143D01*
X6370238Y-13685143D02*
X6389286Y-13694667D01*
X6389286Y-13694667D02*
X6398810Y-13713714D01*
X6398810Y-13713714D02*
X6398810Y-13732762D01*
X6398810Y-13732762D02*
X6303572Y-13751809D01*
X6475000Y-13808952D02*
X6494048Y-13818476D01*
X6494048Y-13818476D02*
X6532143Y-13818476D01*
X6532143Y-13818476D02*
X6551191Y-13808952D01*
X6551191Y-13808952D02*
X6560714Y-13789905D01*
X6560714Y-13789905D02*
X6560714Y-13780381D01*
X6560714Y-13780381D02*
X6551191Y-13761333D01*
X6551191Y-13761333D02*
X6532143Y-13751809D01*
X6532143Y-13751809D02*
X6503572Y-13751809D01*
X6503572Y-13751809D02*
X6484524Y-13742286D01*
X6484524Y-13742286D02*
X6475000Y-13723238D01*
X6475000Y-13723238D02*
X6475000Y-13713714D01*
X6475000Y-13713714D02*
X6484524Y-13694667D01*
X6484524Y-13694667D02*
X6503572Y-13685143D01*
X6503572Y-13685143D02*
X6532143Y-13685143D01*
X6532143Y-13685143D02*
X6551191Y-13694667D01*
X6627381Y-13894667D02*
X6636905Y-13885143D01*
X6636905Y-13885143D02*
X6655953Y-13856571D01*
X6655953Y-13856571D02*
X6665476Y-13837524D01*
X6665476Y-13837524D02*
X6675000Y-13808952D01*
X6675000Y-13808952D02*
X6684524Y-13761333D01*
X6684524Y-13761333D02*
X6684524Y-13723238D01*
X6684524Y-13723238D02*
X6675000Y-13675619D01*
X6675000Y-13675619D02*
X6665476Y-13647048D01*
X6665476Y-13647048D02*
X6655953Y-13628000D01*
X6655953Y-13628000D02*
X6636905Y-13599428D01*
X6636905Y-13599428D02*
X6627381Y-13589905D01*
X6956905Y-13894667D02*
X6947381Y-13885143D01*
X6947381Y-13885143D02*
X6928333Y-13856571D01*
X6928333Y-13856571D02*
X6918810Y-13837524D01*
X6918810Y-13837524D02*
X6909286Y-13808952D01*
X6909286Y-13808952D02*
X6899762Y-13761333D01*
X6899762Y-13761333D02*
X6899762Y-13723238D01*
X6899762Y-13723238D02*
X6909286Y-13675619D01*
X6909286Y-13675619D02*
X6918810Y-13647048D01*
X6918810Y-13647048D02*
X6928333Y-13628000D01*
X6928333Y-13628000D02*
X6947381Y-13599428D01*
X6947381Y-13599428D02*
X6956905Y-13589905D01*
X7033095Y-13685143D02*
X7033095Y-13818476D01*
X7033095Y-13704190D02*
X7042619Y-13694667D01*
X7042619Y-13694667D02*
X7061667Y-13685143D01*
X7061667Y-13685143D02*
X7090238Y-13685143D01*
X7090238Y-13685143D02*
X7109286Y-13694667D01*
X7109286Y-13694667D02*
X7118810Y-13713714D01*
X7118810Y-13713714D02*
X7118810Y-13818476D01*
X7242619Y-13818476D02*
X7223572Y-13808952D01*
X7223572Y-13808952D02*
X7214048Y-13799428D01*
X7214048Y-13799428D02*
X7204524Y-13780381D01*
X7204524Y-13780381D02*
X7204524Y-13723238D01*
X7204524Y-13723238D02*
X7214048Y-13704190D01*
X7214048Y-13704190D02*
X7223572Y-13694667D01*
X7223572Y-13694667D02*
X7242619Y-13685143D01*
X7242619Y-13685143D02*
X7271191Y-13685143D01*
X7271191Y-13685143D02*
X7290238Y-13694667D01*
X7290238Y-13694667D02*
X7299762Y-13704190D01*
X7299762Y-13704190D02*
X7309286Y-13723238D01*
X7309286Y-13723238D02*
X7309286Y-13780381D01*
X7309286Y-13780381D02*
X7299762Y-13799428D01*
X7299762Y-13799428D02*
X7290238Y-13808952D01*
X7290238Y-13808952D02*
X7271191Y-13818476D01*
X7271191Y-13818476D02*
X7242619Y-13818476D01*
X7366429Y-13685143D02*
X7442619Y-13685143D01*
X7395000Y-13618476D02*
X7395000Y-13789905D01*
X7395000Y-13789905D02*
X7404524Y-13808952D01*
X7404524Y-13808952D02*
X7423572Y-13818476D01*
X7423572Y-13818476D02*
X7442619Y-13818476D01*
X7629286Y-13685143D02*
X7629286Y-13885143D01*
X7629286Y-13694667D02*
X7648333Y-13685143D01*
X7648333Y-13685143D02*
X7686429Y-13685143D01*
X7686429Y-13685143D02*
X7705476Y-13694667D01*
X7705476Y-13694667D02*
X7715000Y-13704190D01*
X7715000Y-13704190D02*
X7724524Y-13723238D01*
X7724524Y-13723238D02*
X7724524Y-13780381D01*
X7724524Y-13780381D02*
X7715000Y-13799428D01*
X7715000Y-13799428D02*
X7705476Y-13808952D01*
X7705476Y-13808952D02*
X7686429Y-13818476D01*
X7686429Y-13818476D02*
X7648333Y-13818476D01*
X7648333Y-13818476D02*
X7629286Y-13808952D01*
X7838810Y-13818476D02*
X7819762Y-13808952D01*
X7819762Y-13808952D02*
X7810238Y-13789905D01*
X7810238Y-13789905D02*
X7810238Y-13618476D01*
X8000714Y-13818476D02*
X8000714Y-13713714D01*
X8000714Y-13713714D02*
X7991191Y-13694667D01*
X7991191Y-13694667D02*
X7972143Y-13685143D01*
X7972143Y-13685143D02*
X7934048Y-13685143D01*
X7934048Y-13685143D02*
X7915000Y-13694667D01*
X8000714Y-13808952D02*
X7981667Y-13818476D01*
X7981667Y-13818476D02*
X7934048Y-13818476D01*
X7934048Y-13818476D02*
X7915000Y-13808952D01*
X7915000Y-13808952D02*
X7905476Y-13789905D01*
X7905476Y-13789905D02*
X7905476Y-13770857D01*
X7905476Y-13770857D02*
X7915000Y-13751809D01*
X7915000Y-13751809D02*
X7934048Y-13742286D01*
X7934048Y-13742286D02*
X7981667Y-13742286D01*
X7981667Y-13742286D02*
X8000714Y-13732762D01*
X8067381Y-13685143D02*
X8143572Y-13685143D01*
X8095953Y-13618476D02*
X8095953Y-13789905D01*
X8095953Y-13789905D02*
X8105476Y-13808952D01*
X8105476Y-13808952D02*
X8124524Y-13818476D01*
X8124524Y-13818476D02*
X8143572Y-13818476D01*
X8286429Y-13808952D02*
X8267381Y-13818476D01*
X8267381Y-13818476D02*
X8229286Y-13818476D01*
X8229286Y-13818476D02*
X8210238Y-13808952D01*
X8210238Y-13808952D02*
X8200714Y-13789905D01*
X8200714Y-13789905D02*
X8200714Y-13713714D01*
X8200714Y-13713714D02*
X8210238Y-13694667D01*
X8210238Y-13694667D02*
X8229286Y-13685143D01*
X8229286Y-13685143D02*
X8267381Y-13685143D01*
X8267381Y-13685143D02*
X8286429Y-13694667D01*
X8286429Y-13694667D02*
X8295953Y-13713714D01*
X8295953Y-13713714D02*
X8295953Y-13732762D01*
X8295953Y-13732762D02*
X8200714Y-13751809D01*
X8467381Y-13818476D02*
X8467381Y-13618476D01*
X8467381Y-13808952D02*
X8448334Y-13818476D01*
X8448334Y-13818476D02*
X8410238Y-13818476D01*
X8410238Y-13818476D02*
X8391191Y-13808952D01*
X8391191Y-13808952D02*
X8381667Y-13799428D01*
X8381667Y-13799428D02*
X8372143Y-13780381D01*
X8372143Y-13780381D02*
X8372143Y-13723238D01*
X8372143Y-13723238D02*
X8381667Y-13704190D01*
X8381667Y-13704190D02*
X8391191Y-13694667D01*
X8391191Y-13694667D02*
X8410238Y-13685143D01*
X8410238Y-13685143D02*
X8448334Y-13685143D01*
X8448334Y-13685143D02*
X8467381Y-13694667D01*
X8543572Y-13894667D02*
X8553096Y-13885143D01*
X8553096Y-13885143D02*
X8572143Y-13856571D01*
X8572143Y-13856571D02*
X8581667Y-13837524D01*
X8581667Y-13837524D02*
X8591191Y-13808952D01*
X8591191Y-13808952D02*
X8600715Y-13761333D01*
X8600715Y-13761333D02*
X8600715Y-13723238D01*
X8600715Y-13723238D02*
X8591191Y-13675619D01*
X8591191Y-13675619D02*
X8581667Y-13647048D01*
X8581667Y-13647048D02*
X8572143Y-13628000D01*
X8572143Y-13628000D02*
X8553096Y-13599428D01*
X8553096Y-13599428D02*
X8543572Y-13589905D01*
D13*
X1995000Y-14015000D02*
G75*
G03*
X1995000Y-14015000I-85000J0D01*
G01*
D11*
X2347381Y-14088476D02*
X2233095Y-14088476D01*
X2290238Y-14088476D02*
X2290238Y-13888476D01*
X2290238Y-13888476D02*
X2271190Y-13917048D01*
X2271190Y-13917048D02*
X2252143Y-13936095D01*
X2252143Y-13936095D02*
X2233095Y-13945619D01*
X2433095Y-14069428D02*
X2442619Y-14078952D01*
X2442619Y-14078952D02*
X2433095Y-14088476D01*
X2433095Y-14088476D02*
X2423571Y-14078952D01*
X2423571Y-14078952D02*
X2433095Y-14069428D01*
X2433095Y-14069428D02*
X2433095Y-14088476D01*
X2509286Y-13888476D02*
X2642619Y-13888476D01*
X2642619Y-13888476D02*
X2556905Y-14088476D01*
X2756905Y-13888476D02*
X2775952Y-13888476D01*
X2775952Y-13888476D02*
X2795000Y-13898000D01*
X2795000Y-13898000D02*
X2804524Y-13907524D01*
X2804524Y-13907524D02*
X2814048Y-13926571D01*
X2814048Y-13926571D02*
X2823571Y-13964667D01*
X2823571Y-13964667D02*
X2823571Y-14012286D01*
X2823571Y-14012286D02*
X2814048Y-14050381D01*
X2814048Y-14050381D02*
X2804524Y-14069428D01*
X2804524Y-14069428D02*
X2795000Y-14078952D01*
X2795000Y-14078952D02*
X2775952Y-14088476D01*
X2775952Y-14088476D02*
X2756905Y-14088476D01*
X2756905Y-14088476D02*
X2737857Y-14078952D01*
X2737857Y-14078952D02*
X2728333Y-14069428D01*
X2728333Y-14069428D02*
X2718810Y-14050381D01*
X2718810Y-14050381D02*
X2709286Y-14012286D01*
X2709286Y-14012286D02*
X2709286Y-13964667D01*
X2709286Y-13964667D02*
X2718810Y-13926571D01*
X2718810Y-13926571D02*
X2728333Y-13907524D01*
X2728333Y-13907524D02*
X2737857Y-13898000D01*
X2737857Y-13898000D02*
X2756905Y-13888476D01*
X2947381Y-13888476D02*
X2966429Y-13888476D01*
X2966429Y-13888476D02*
X2985476Y-13898000D01*
X2985476Y-13898000D02*
X2995000Y-13907524D01*
X2995000Y-13907524D02*
X3004524Y-13926571D01*
X3004524Y-13926571D02*
X3014048Y-13964667D01*
X3014048Y-13964667D02*
X3014048Y-14012286D01*
X3014048Y-14012286D02*
X3004524Y-14050381D01*
X3004524Y-14050381D02*
X2995000Y-14069428D01*
X2995000Y-14069428D02*
X2985476Y-14078952D01*
X2985476Y-14078952D02*
X2966429Y-14088476D01*
X2966429Y-14088476D02*
X2947381Y-14088476D01*
X2947381Y-14088476D02*
X2928333Y-14078952D01*
X2928333Y-14078952D02*
X2918809Y-14069428D01*
X2918809Y-14069428D02*
X2909286Y-14050381D01*
X2909286Y-14050381D02*
X2899762Y-14012286D01*
X2899762Y-14012286D02*
X2899762Y-13964667D01*
X2899762Y-13964667D02*
X2909286Y-13926571D01*
X2909286Y-13926571D02*
X2918809Y-13907524D01*
X2918809Y-13907524D02*
X2928333Y-13898000D01*
X2928333Y-13898000D02*
X2947381Y-13888476D01*
X3099762Y-14088476D02*
X3099762Y-13955143D01*
X3099762Y-13974190D02*
X3109286Y-13964667D01*
X3109286Y-13964667D02*
X3128333Y-13955143D01*
X3128333Y-13955143D02*
X3156905Y-13955143D01*
X3156905Y-13955143D02*
X3175952Y-13964667D01*
X3175952Y-13964667D02*
X3185476Y-13983714D01*
X3185476Y-13983714D02*
X3185476Y-14088476D01*
X3185476Y-13983714D02*
X3195000Y-13964667D01*
X3195000Y-13964667D02*
X3214048Y-13955143D01*
X3214048Y-13955143D02*
X3242619Y-13955143D01*
X3242619Y-13955143D02*
X3261667Y-13964667D01*
X3261667Y-13964667D02*
X3271190Y-13983714D01*
X3271190Y-13983714D02*
X3271190Y-14088476D01*
X3366429Y-14088476D02*
X3366429Y-13955143D01*
X3366429Y-13974190D02*
X3375952Y-13964667D01*
X3375952Y-13964667D02*
X3395000Y-13955143D01*
X3395000Y-13955143D02*
X3423571Y-13955143D01*
X3423571Y-13955143D02*
X3442619Y-13964667D01*
X3442619Y-13964667D02*
X3452143Y-13983714D01*
X3452143Y-13983714D02*
X3452143Y-14088476D01*
X3452143Y-13983714D02*
X3461667Y-13964667D01*
X3461667Y-13964667D02*
X3480714Y-13955143D01*
X3480714Y-13955143D02*
X3509286Y-13955143D01*
X3509286Y-13955143D02*
X3528333Y-13964667D01*
X3528333Y-13964667D02*
X3537857Y-13983714D01*
X3537857Y-13983714D02*
X3537857Y-14088476D01*
X3895952Y-13878952D02*
X3724524Y-14136095D01*
X4120714Y-13888476D02*
X4139762Y-13888476D01*
X4139762Y-13888476D02*
X4158810Y-13898000D01*
X4158810Y-13898000D02*
X4168333Y-13907524D01*
X4168333Y-13907524D02*
X4177857Y-13926571D01*
X4177857Y-13926571D02*
X4187381Y-13964667D01*
X4187381Y-13964667D02*
X4187381Y-14012286D01*
X4187381Y-14012286D02*
X4177857Y-14050381D01*
X4177857Y-14050381D02*
X4168333Y-14069428D01*
X4168333Y-14069428D02*
X4158810Y-14078952D01*
X4158810Y-14078952D02*
X4139762Y-14088476D01*
X4139762Y-14088476D02*
X4120714Y-14088476D01*
X4120714Y-14088476D02*
X4101667Y-14078952D01*
X4101667Y-14078952D02*
X4092143Y-14069428D01*
X4092143Y-14069428D02*
X4082619Y-14050381D01*
X4082619Y-14050381D02*
X4073095Y-14012286D01*
X4073095Y-14012286D02*
X4073095Y-13964667D01*
X4073095Y-13964667D02*
X4082619Y-13926571D01*
X4082619Y-13926571D02*
X4092143Y-13907524D01*
X4092143Y-13907524D02*
X4101667Y-13898000D01*
X4101667Y-13898000D02*
X4120714Y-13888476D01*
X4273095Y-14069428D02*
X4282619Y-14078952D01*
X4282619Y-14078952D02*
X4273095Y-14088476D01*
X4273095Y-14088476D02*
X4263572Y-14078952D01*
X4263572Y-14078952D02*
X4273095Y-14069428D01*
X4273095Y-14069428D02*
X4273095Y-14088476D01*
X4406429Y-13888476D02*
X4425476Y-13888476D01*
X4425476Y-13888476D02*
X4444524Y-13898000D01*
X4444524Y-13898000D02*
X4454048Y-13907524D01*
X4454048Y-13907524D02*
X4463572Y-13926571D01*
X4463572Y-13926571D02*
X4473095Y-13964667D01*
X4473095Y-13964667D02*
X4473095Y-14012286D01*
X4473095Y-14012286D02*
X4463572Y-14050381D01*
X4463572Y-14050381D02*
X4454048Y-14069428D01*
X4454048Y-14069428D02*
X4444524Y-14078952D01*
X4444524Y-14078952D02*
X4425476Y-14088476D01*
X4425476Y-14088476D02*
X4406429Y-14088476D01*
X4406429Y-14088476D02*
X4387381Y-14078952D01*
X4387381Y-14078952D02*
X4377857Y-14069428D01*
X4377857Y-14069428D02*
X4368333Y-14050381D01*
X4368333Y-14050381D02*
X4358810Y-14012286D01*
X4358810Y-14012286D02*
X4358810Y-13964667D01*
X4358810Y-13964667D02*
X4368333Y-13926571D01*
X4368333Y-13926571D02*
X4377857Y-13907524D01*
X4377857Y-13907524D02*
X4387381Y-13898000D01*
X4387381Y-13898000D02*
X4406429Y-13888476D01*
X4644524Y-13888476D02*
X4606429Y-13888476D01*
X4606429Y-13888476D02*
X4587381Y-13898000D01*
X4587381Y-13898000D02*
X4577857Y-13907524D01*
X4577857Y-13907524D02*
X4558810Y-13936095D01*
X4558810Y-13936095D02*
X4549286Y-13974190D01*
X4549286Y-13974190D02*
X4549286Y-14050381D01*
X4549286Y-14050381D02*
X4558810Y-14069428D01*
X4558810Y-14069428D02*
X4568333Y-14078952D01*
X4568333Y-14078952D02*
X4587381Y-14088476D01*
X4587381Y-14088476D02*
X4625476Y-14088476D01*
X4625476Y-14088476D02*
X4644524Y-14078952D01*
X4644524Y-14078952D02*
X4654048Y-14069428D01*
X4654048Y-14069428D02*
X4663572Y-14050381D01*
X4663572Y-14050381D02*
X4663572Y-14002762D01*
X4663572Y-14002762D02*
X4654048Y-13983714D01*
X4654048Y-13983714D02*
X4644524Y-13974190D01*
X4644524Y-13974190D02*
X4625476Y-13964667D01*
X4625476Y-13964667D02*
X4587381Y-13964667D01*
X4587381Y-13964667D02*
X4568333Y-13974190D01*
X4568333Y-13974190D02*
X4558810Y-13983714D01*
X4558810Y-13983714D02*
X4549286Y-14002762D01*
X4835000Y-13888476D02*
X4796905Y-13888476D01*
X4796905Y-13888476D02*
X4777857Y-13898000D01*
X4777857Y-13898000D02*
X4768333Y-13907524D01*
X4768333Y-13907524D02*
X4749286Y-13936095D01*
X4749286Y-13936095D02*
X4739762Y-13974190D01*
X4739762Y-13974190D02*
X4739762Y-14050381D01*
X4739762Y-14050381D02*
X4749286Y-14069428D01*
X4749286Y-14069428D02*
X4758810Y-14078952D01*
X4758810Y-14078952D02*
X4777857Y-14088476D01*
X4777857Y-14088476D02*
X4815953Y-14088476D01*
X4815953Y-14088476D02*
X4835000Y-14078952D01*
X4835000Y-14078952D02*
X4844524Y-14069428D01*
X4844524Y-14069428D02*
X4854048Y-14050381D01*
X4854048Y-14050381D02*
X4854048Y-14002762D01*
X4854048Y-14002762D02*
X4844524Y-13983714D01*
X4844524Y-13983714D02*
X4835000Y-13974190D01*
X4835000Y-13974190D02*
X4815953Y-13964667D01*
X4815953Y-13964667D02*
X4777857Y-13964667D01*
X4777857Y-13964667D02*
X4758810Y-13974190D01*
X4758810Y-13974190D02*
X4749286Y-13983714D01*
X4749286Y-13983714D02*
X4739762Y-14002762D01*
X4949286Y-14088476D02*
X4987381Y-14088476D01*
X4987381Y-14088476D02*
X5006429Y-14078952D01*
X5006429Y-14078952D02*
X5015953Y-14069428D01*
X5015953Y-14069428D02*
X5035000Y-14040857D01*
X5035000Y-14040857D02*
X5044524Y-14002762D01*
X5044524Y-14002762D02*
X5044524Y-13926571D01*
X5044524Y-13926571D02*
X5035000Y-13907524D01*
X5035000Y-13907524D02*
X5025476Y-13898000D01*
X5025476Y-13898000D02*
X5006429Y-13888476D01*
X5006429Y-13888476D02*
X4968333Y-13888476D01*
X4968333Y-13888476D02*
X4949286Y-13898000D01*
X4949286Y-13898000D02*
X4939762Y-13907524D01*
X4939762Y-13907524D02*
X4930238Y-13926571D01*
X4930238Y-13926571D02*
X4930238Y-13974190D01*
X4930238Y-13974190D02*
X4939762Y-13993238D01*
X4939762Y-13993238D02*
X4949286Y-14002762D01*
X4949286Y-14002762D02*
X4968333Y-14012286D01*
X4968333Y-14012286D02*
X5006429Y-14012286D01*
X5006429Y-14012286D02*
X5025476Y-14002762D01*
X5025476Y-14002762D02*
X5035000Y-13993238D01*
X5035000Y-13993238D02*
X5044524Y-13974190D01*
X5120714Y-13888476D02*
X5120714Y-13926571D01*
X5196905Y-13888476D02*
X5196905Y-13926571D01*
X5459762Y-14164667D02*
X5450238Y-14155143D01*
X5450238Y-14155143D02*
X5431191Y-14126571D01*
X5431191Y-14126571D02*
X5421667Y-14107524D01*
X5421667Y-14107524D02*
X5412143Y-14078952D01*
X5412143Y-14078952D02*
X5402619Y-14031333D01*
X5402619Y-14031333D02*
X5402619Y-13993238D01*
X5402619Y-13993238D02*
X5412143Y-13945619D01*
X5412143Y-13945619D02*
X5421667Y-13917048D01*
X5421667Y-13917048D02*
X5431191Y-13898000D01*
X5431191Y-13898000D02*
X5450238Y-13869428D01*
X5450238Y-13869428D02*
X5459762Y-13859905D01*
X5621667Y-13955143D02*
X5621667Y-14088476D01*
X5574048Y-13878952D02*
X5526429Y-14021809D01*
X5526429Y-14021809D02*
X5650238Y-14021809D01*
X5846429Y-14088476D02*
X5846429Y-13888476D01*
X5932143Y-14088476D02*
X5932143Y-13983714D01*
X5932143Y-13983714D02*
X5922619Y-13964667D01*
X5922619Y-13964667D02*
X5903572Y-13955143D01*
X5903572Y-13955143D02*
X5875000Y-13955143D01*
X5875000Y-13955143D02*
X5855952Y-13964667D01*
X5855952Y-13964667D02*
X5846429Y-13974190D01*
X6055952Y-14088476D02*
X6036905Y-14078952D01*
X6036905Y-14078952D02*
X6027381Y-14069428D01*
X6027381Y-14069428D02*
X6017857Y-14050381D01*
X6017857Y-14050381D02*
X6017857Y-13993238D01*
X6017857Y-13993238D02*
X6027381Y-13974190D01*
X6027381Y-13974190D02*
X6036905Y-13964667D01*
X6036905Y-13964667D02*
X6055952Y-13955143D01*
X6055952Y-13955143D02*
X6084524Y-13955143D01*
X6084524Y-13955143D02*
X6103572Y-13964667D01*
X6103572Y-13964667D02*
X6113095Y-13974190D01*
X6113095Y-13974190D02*
X6122619Y-13993238D01*
X6122619Y-13993238D02*
X6122619Y-14050381D01*
X6122619Y-14050381D02*
X6113095Y-14069428D01*
X6113095Y-14069428D02*
X6103572Y-14078952D01*
X6103572Y-14078952D02*
X6084524Y-14088476D01*
X6084524Y-14088476D02*
X6055952Y-14088476D01*
X6236905Y-14088476D02*
X6217857Y-14078952D01*
X6217857Y-14078952D02*
X6208333Y-14059905D01*
X6208333Y-14059905D02*
X6208333Y-13888476D01*
X6389286Y-14078952D02*
X6370238Y-14088476D01*
X6370238Y-14088476D02*
X6332143Y-14088476D01*
X6332143Y-14088476D02*
X6313095Y-14078952D01*
X6313095Y-14078952D02*
X6303572Y-14059905D01*
X6303572Y-14059905D02*
X6303572Y-13983714D01*
X6303572Y-13983714D02*
X6313095Y-13964667D01*
X6313095Y-13964667D02*
X6332143Y-13955143D01*
X6332143Y-13955143D02*
X6370238Y-13955143D01*
X6370238Y-13955143D02*
X6389286Y-13964667D01*
X6389286Y-13964667D02*
X6398810Y-13983714D01*
X6398810Y-13983714D02*
X6398810Y-14002762D01*
X6398810Y-14002762D02*
X6303572Y-14021809D01*
X6475000Y-14078952D02*
X6494048Y-14088476D01*
X6494048Y-14088476D02*
X6532143Y-14088476D01*
X6532143Y-14088476D02*
X6551191Y-14078952D01*
X6551191Y-14078952D02*
X6560714Y-14059905D01*
X6560714Y-14059905D02*
X6560714Y-14050381D01*
X6560714Y-14050381D02*
X6551191Y-14031333D01*
X6551191Y-14031333D02*
X6532143Y-14021809D01*
X6532143Y-14021809D02*
X6503572Y-14021809D01*
X6503572Y-14021809D02*
X6484524Y-14012286D01*
X6484524Y-14012286D02*
X6475000Y-13993238D01*
X6475000Y-13993238D02*
X6475000Y-13983714D01*
X6475000Y-13983714D02*
X6484524Y-13964667D01*
X6484524Y-13964667D02*
X6503572Y-13955143D01*
X6503572Y-13955143D02*
X6532143Y-13955143D01*
X6532143Y-13955143D02*
X6551191Y-13964667D01*
X6627381Y-14164667D02*
X6636905Y-14155143D01*
X6636905Y-14155143D02*
X6655953Y-14126571D01*
X6655953Y-14126571D02*
X6665476Y-14107524D01*
X6665476Y-14107524D02*
X6675000Y-14078952D01*
X6675000Y-14078952D02*
X6684524Y-14031333D01*
X6684524Y-14031333D02*
X6684524Y-13993238D01*
X6684524Y-13993238D02*
X6675000Y-13945619D01*
X6675000Y-13945619D02*
X6665476Y-13917048D01*
X6665476Y-13917048D02*
X6655953Y-13898000D01*
X6655953Y-13898000D02*
X6636905Y-13869428D01*
X6636905Y-13869428D02*
X6627381Y-13859905D01*
X6956905Y-14164667D02*
X6947381Y-14155143D01*
X6947381Y-14155143D02*
X6928333Y-14126571D01*
X6928333Y-14126571D02*
X6918810Y-14107524D01*
X6918810Y-14107524D02*
X6909286Y-14078952D01*
X6909286Y-14078952D02*
X6899762Y-14031333D01*
X6899762Y-14031333D02*
X6899762Y-13993238D01*
X6899762Y-13993238D02*
X6909286Y-13945619D01*
X6909286Y-13945619D02*
X6918810Y-13917048D01*
X6918810Y-13917048D02*
X6928333Y-13898000D01*
X6928333Y-13898000D02*
X6947381Y-13869428D01*
X6947381Y-13869428D02*
X6956905Y-13859905D01*
X7033095Y-13955143D02*
X7033095Y-14088476D01*
X7033095Y-13974190D02*
X7042619Y-13964667D01*
X7042619Y-13964667D02*
X7061667Y-13955143D01*
X7061667Y-13955143D02*
X7090238Y-13955143D01*
X7090238Y-13955143D02*
X7109286Y-13964667D01*
X7109286Y-13964667D02*
X7118810Y-13983714D01*
X7118810Y-13983714D02*
X7118810Y-14088476D01*
X7242619Y-14088476D02*
X7223572Y-14078952D01*
X7223572Y-14078952D02*
X7214048Y-14069428D01*
X7214048Y-14069428D02*
X7204524Y-14050381D01*
X7204524Y-14050381D02*
X7204524Y-13993238D01*
X7204524Y-13993238D02*
X7214048Y-13974190D01*
X7214048Y-13974190D02*
X7223572Y-13964667D01*
X7223572Y-13964667D02*
X7242619Y-13955143D01*
X7242619Y-13955143D02*
X7271191Y-13955143D01*
X7271191Y-13955143D02*
X7290238Y-13964667D01*
X7290238Y-13964667D02*
X7299762Y-13974190D01*
X7299762Y-13974190D02*
X7309286Y-13993238D01*
X7309286Y-13993238D02*
X7309286Y-14050381D01*
X7309286Y-14050381D02*
X7299762Y-14069428D01*
X7299762Y-14069428D02*
X7290238Y-14078952D01*
X7290238Y-14078952D02*
X7271191Y-14088476D01*
X7271191Y-14088476D02*
X7242619Y-14088476D01*
X7366429Y-13955143D02*
X7442619Y-13955143D01*
X7395000Y-13888476D02*
X7395000Y-14059905D01*
X7395000Y-14059905D02*
X7404524Y-14078952D01*
X7404524Y-14078952D02*
X7423572Y-14088476D01*
X7423572Y-14088476D02*
X7442619Y-14088476D01*
X7629286Y-13955143D02*
X7629286Y-14155143D01*
X7629286Y-13964667D02*
X7648333Y-13955143D01*
X7648333Y-13955143D02*
X7686429Y-13955143D01*
X7686429Y-13955143D02*
X7705476Y-13964667D01*
X7705476Y-13964667D02*
X7715000Y-13974190D01*
X7715000Y-13974190D02*
X7724524Y-13993238D01*
X7724524Y-13993238D02*
X7724524Y-14050381D01*
X7724524Y-14050381D02*
X7715000Y-14069428D01*
X7715000Y-14069428D02*
X7705476Y-14078952D01*
X7705476Y-14078952D02*
X7686429Y-14088476D01*
X7686429Y-14088476D02*
X7648333Y-14088476D01*
X7648333Y-14088476D02*
X7629286Y-14078952D01*
X7838810Y-14088476D02*
X7819762Y-14078952D01*
X7819762Y-14078952D02*
X7810238Y-14059905D01*
X7810238Y-14059905D02*
X7810238Y-13888476D01*
X8000714Y-14088476D02*
X8000714Y-13983714D01*
X8000714Y-13983714D02*
X7991191Y-13964667D01*
X7991191Y-13964667D02*
X7972143Y-13955143D01*
X7972143Y-13955143D02*
X7934048Y-13955143D01*
X7934048Y-13955143D02*
X7915000Y-13964667D01*
X8000714Y-14078952D02*
X7981667Y-14088476D01*
X7981667Y-14088476D02*
X7934048Y-14088476D01*
X7934048Y-14088476D02*
X7915000Y-14078952D01*
X7915000Y-14078952D02*
X7905476Y-14059905D01*
X7905476Y-14059905D02*
X7905476Y-14040857D01*
X7905476Y-14040857D02*
X7915000Y-14021809D01*
X7915000Y-14021809D02*
X7934048Y-14012286D01*
X7934048Y-14012286D02*
X7981667Y-14012286D01*
X7981667Y-14012286D02*
X8000714Y-14002762D01*
X8067381Y-13955143D02*
X8143572Y-13955143D01*
X8095953Y-13888476D02*
X8095953Y-14059905D01*
X8095953Y-14059905D02*
X8105476Y-14078952D01*
X8105476Y-14078952D02*
X8124524Y-14088476D01*
X8124524Y-14088476D02*
X8143572Y-14088476D01*
X8286429Y-14078952D02*
X8267381Y-14088476D01*
X8267381Y-14088476D02*
X8229286Y-14088476D01*
X8229286Y-14088476D02*
X8210238Y-14078952D01*
X8210238Y-14078952D02*
X8200714Y-14059905D01*
X8200714Y-14059905D02*
X8200714Y-13983714D01*
X8200714Y-13983714D02*
X8210238Y-13964667D01*
X8210238Y-13964667D02*
X8229286Y-13955143D01*
X8229286Y-13955143D02*
X8267381Y-13955143D01*
X8267381Y-13955143D02*
X8286429Y-13964667D01*
X8286429Y-13964667D02*
X8295953Y-13983714D01*
X8295953Y-13983714D02*
X8295953Y-14002762D01*
X8295953Y-14002762D02*
X8200714Y-14021809D01*
X8467381Y-14088476D02*
X8467381Y-13888476D01*
X8467381Y-14078952D02*
X8448334Y-14088476D01*
X8448334Y-14088476D02*
X8410238Y-14088476D01*
X8410238Y-14088476D02*
X8391191Y-14078952D01*
X8391191Y-14078952D02*
X8381667Y-14069428D01*
X8381667Y-14069428D02*
X8372143Y-14050381D01*
X8372143Y-14050381D02*
X8372143Y-13993238D01*
X8372143Y-13993238D02*
X8381667Y-13974190D01*
X8381667Y-13974190D02*
X8391191Y-13964667D01*
X8391191Y-13964667D02*
X8410238Y-13955143D01*
X8410238Y-13955143D02*
X8448334Y-13955143D01*
X8448334Y-13955143D02*
X8467381Y-13964667D01*
X8543572Y-14164667D02*
X8553096Y-14155143D01*
X8553096Y-14155143D02*
X8572143Y-14126571D01*
X8572143Y-14126571D02*
X8581667Y-14107524D01*
X8581667Y-14107524D02*
X8591191Y-14078952D01*
X8591191Y-14078952D02*
X8600715Y-14031333D01*
X8600715Y-14031333D02*
X8600715Y-13993238D01*
X8600715Y-13993238D02*
X8591191Y-13945619D01*
X8591191Y-13945619D02*
X8581667Y-13917048D01*
X8581667Y-13917048D02*
X8572143Y-13898000D01*
X8572143Y-13898000D02*
X8553096Y-13869428D01*
X8553096Y-13869428D02*
X8543572Y-13859905D01*
D14*
X1905000Y-14215000D02*
X1905000Y-14395000D01*
X1815000Y-14305000D02*
X1995000Y-14305000D01*
D11*
X2347381Y-14378476D02*
X2233095Y-14378476D01*
X2290238Y-14378476D02*
X2290238Y-14178476D01*
X2290238Y-14178476D02*
X2271190Y-14207048D01*
X2271190Y-14207048D02*
X2252143Y-14226095D01*
X2252143Y-14226095D02*
X2233095Y-14235619D01*
X2433095Y-14359428D02*
X2442619Y-14368952D01*
X2442619Y-14368952D02*
X2433095Y-14378476D01*
X2433095Y-14378476D02*
X2423571Y-14368952D01*
X2423571Y-14368952D02*
X2433095Y-14359428D01*
X2433095Y-14359428D02*
X2433095Y-14378476D01*
X2556905Y-14264190D02*
X2537857Y-14254667D01*
X2537857Y-14254667D02*
X2528333Y-14245143D01*
X2528333Y-14245143D02*
X2518810Y-14226095D01*
X2518810Y-14226095D02*
X2518810Y-14216571D01*
X2518810Y-14216571D02*
X2528333Y-14197524D01*
X2528333Y-14197524D02*
X2537857Y-14188000D01*
X2537857Y-14188000D02*
X2556905Y-14178476D01*
X2556905Y-14178476D02*
X2595000Y-14178476D01*
X2595000Y-14178476D02*
X2614048Y-14188000D01*
X2614048Y-14188000D02*
X2623571Y-14197524D01*
X2623571Y-14197524D02*
X2633095Y-14216571D01*
X2633095Y-14216571D02*
X2633095Y-14226095D01*
X2633095Y-14226095D02*
X2623571Y-14245143D01*
X2623571Y-14245143D02*
X2614048Y-14254667D01*
X2614048Y-14254667D02*
X2595000Y-14264190D01*
X2595000Y-14264190D02*
X2556905Y-14264190D01*
X2556905Y-14264190D02*
X2537857Y-14273714D01*
X2537857Y-14273714D02*
X2528333Y-14283238D01*
X2528333Y-14283238D02*
X2518810Y-14302286D01*
X2518810Y-14302286D02*
X2518810Y-14340381D01*
X2518810Y-14340381D02*
X2528333Y-14359428D01*
X2528333Y-14359428D02*
X2537857Y-14368952D01*
X2537857Y-14368952D02*
X2556905Y-14378476D01*
X2556905Y-14378476D02*
X2595000Y-14378476D01*
X2595000Y-14378476D02*
X2614048Y-14368952D01*
X2614048Y-14368952D02*
X2623571Y-14359428D01*
X2623571Y-14359428D02*
X2633095Y-14340381D01*
X2633095Y-14340381D02*
X2633095Y-14302286D01*
X2633095Y-14302286D02*
X2623571Y-14283238D01*
X2623571Y-14283238D02*
X2614048Y-14273714D01*
X2614048Y-14273714D02*
X2595000Y-14264190D01*
X2756905Y-14178476D02*
X2775952Y-14178476D01*
X2775952Y-14178476D02*
X2795000Y-14188000D01*
X2795000Y-14188000D02*
X2804524Y-14197524D01*
X2804524Y-14197524D02*
X2814048Y-14216571D01*
X2814048Y-14216571D02*
X2823571Y-14254667D01*
X2823571Y-14254667D02*
X2823571Y-14302286D01*
X2823571Y-14302286D02*
X2814048Y-14340381D01*
X2814048Y-14340381D02*
X2804524Y-14359428D01*
X2804524Y-14359428D02*
X2795000Y-14368952D01*
X2795000Y-14368952D02*
X2775952Y-14378476D01*
X2775952Y-14378476D02*
X2756905Y-14378476D01*
X2756905Y-14378476D02*
X2737857Y-14368952D01*
X2737857Y-14368952D02*
X2728333Y-14359428D01*
X2728333Y-14359428D02*
X2718810Y-14340381D01*
X2718810Y-14340381D02*
X2709286Y-14302286D01*
X2709286Y-14302286D02*
X2709286Y-14254667D01*
X2709286Y-14254667D02*
X2718810Y-14216571D01*
X2718810Y-14216571D02*
X2728333Y-14197524D01*
X2728333Y-14197524D02*
X2737857Y-14188000D01*
X2737857Y-14188000D02*
X2756905Y-14178476D01*
X2947381Y-14178476D02*
X2966429Y-14178476D01*
X2966429Y-14178476D02*
X2985476Y-14188000D01*
X2985476Y-14188000D02*
X2995000Y-14197524D01*
X2995000Y-14197524D02*
X3004524Y-14216571D01*
X3004524Y-14216571D02*
X3014048Y-14254667D01*
X3014048Y-14254667D02*
X3014048Y-14302286D01*
X3014048Y-14302286D02*
X3004524Y-14340381D01*
X3004524Y-14340381D02*
X2995000Y-14359428D01*
X2995000Y-14359428D02*
X2985476Y-14368952D01*
X2985476Y-14368952D02*
X2966429Y-14378476D01*
X2966429Y-14378476D02*
X2947381Y-14378476D01*
X2947381Y-14378476D02*
X2928333Y-14368952D01*
X2928333Y-14368952D02*
X2918809Y-14359428D01*
X2918809Y-14359428D02*
X2909286Y-14340381D01*
X2909286Y-14340381D02*
X2899762Y-14302286D01*
X2899762Y-14302286D02*
X2899762Y-14254667D01*
X2899762Y-14254667D02*
X2909286Y-14216571D01*
X2909286Y-14216571D02*
X2918809Y-14197524D01*
X2918809Y-14197524D02*
X2928333Y-14188000D01*
X2928333Y-14188000D02*
X2947381Y-14178476D01*
X3099762Y-14378476D02*
X3099762Y-14245143D01*
X3099762Y-14264190D02*
X3109286Y-14254667D01*
X3109286Y-14254667D02*
X3128333Y-14245143D01*
X3128333Y-14245143D02*
X3156905Y-14245143D01*
X3156905Y-14245143D02*
X3175952Y-14254667D01*
X3175952Y-14254667D02*
X3185476Y-14273714D01*
X3185476Y-14273714D02*
X3185476Y-14378476D01*
X3185476Y-14273714D02*
X3195000Y-14254667D01*
X3195000Y-14254667D02*
X3214048Y-14245143D01*
X3214048Y-14245143D02*
X3242619Y-14245143D01*
X3242619Y-14245143D02*
X3261667Y-14254667D01*
X3261667Y-14254667D02*
X3271190Y-14273714D01*
X3271190Y-14273714D02*
X3271190Y-14378476D01*
X3366429Y-14378476D02*
X3366429Y-14245143D01*
X3366429Y-14264190D02*
X3375952Y-14254667D01*
X3375952Y-14254667D02*
X3395000Y-14245143D01*
X3395000Y-14245143D02*
X3423571Y-14245143D01*
X3423571Y-14245143D02*
X3442619Y-14254667D01*
X3442619Y-14254667D02*
X3452143Y-14273714D01*
X3452143Y-14273714D02*
X3452143Y-14378476D01*
X3452143Y-14273714D02*
X3461667Y-14254667D01*
X3461667Y-14254667D02*
X3480714Y-14245143D01*
X3480714Y-14245143D02*
X3509286Y-14245143D01*
X3509286Y-14245143D02*
X3528333Y-14254667D01*
X3528333Y-14254667D02*
X3537857Y-14273714D01*
X3537857Y-14273714D02*
X3537857Y-14378476D01*
X3895952Y-14168952D02*
X3724524Y-14426095D01*
X4120714Y-14178476D02*
X4139762Y-14178476D01*
X4139762Y-14178476D02*
X4158810Y-14188000D01*
X4158810Y-14188000D02*
X4168333Y-14197524D01*
X4168333Y-14197524D02*
X4177857Y-14216571D01*
X4177857Y-14216571D02*
X4187381Y-14254667D01*
X4187381Y-14254667D02*
X4187381Y-14302286D01*
X4187381Y-14302286D02*
X4177857Y-14340381D01*
X4177857Y-14340381D02*
X4168333Y-14359428D01*
X4168333Y-14359428D02*
X4158810Y-14368952D01*
X4158810Y-14368952D02*
X4139762Y-14378476D01*
X4139762Y-14378476D02*
X4120714Y-14378476D01*
X4120714Y-14378476D02*
X4101667Y-14368952D01*
X4101667Y-14368952D02*
X4092143Y-14359428D01*
X4092143Y-14359428D02*
X4082619Y-14340381D01*
X4082619Y-14340381D02*
X4073095Y-14302286D01*
X4073095Y-14302286D02*
X4073095Y-14254667D01*
X4073095Y-14254667D02*
X4082619Y-14216571D01*
X4082619Y-14216571D02*
X4092143Y-14197524D01*
X4092143Y-14197524D02*
X4101667Y-14188000D01*
X4101667Y-14188000D02*
X4120714Y-14178476D01*
X4273095Y-14359428D02*
X4282619Y-14368952D01*
X4282619Y-14368952D02*
X4273095Y-14378476D01*
X4273095Y-14378476D02*
X4263572Y-14368952D01*
X4263572Y-14368952D02*
X4273095Y-14359428D01*
X4273095Y-14359428D02*
X4273095Y-14378476D01*
X4406429Y-14178476D02*
X4425476Y-14178476D01*
X4425476Y-14178476D02*
X4444524Y-14188000D01*
X4444524Y-14188000D02*
X4454048Y-14197524D01*
X4454048Y-14197524D02*
X4463572Y-14216571D01*
X4463572Y-14216571D02*
X4473095Y-14254667D01*
X4473095Y-14254667D02*
X4473095Y-14302286D01*
X4473095Y-14302286D02*
X4463572Y-14340381D01*
X4463572Y-14340381D02*
X4454048Y-14359428D01*
X4454048Y-14359428D02*
X4444524Y-14368952D01*
X4444524Y-14368952D02*
X4425476Y-14378476D01*
X4425476Y-14378476D02*
X4406429Y-14378476D01*
X4406429Y-14378476D02*
X4387381Y-14368952D01*
X4387381Y-14368952D02*
X4377857Y-14359428D01*
X4377857Y-14359428D02*
X4368333Y-14340381D01*
X4368333Y-14340381D02*
X4358810Y-14302286D01*
X4358810Y-14302286D02*
X4358810Y-14254667D01*
X4358810Y-14254667D02*
X4368333Y-14216571D01*
X4368333Y-14216571D02*
X4377857Y-14197524D01*
X4377857Y-14197524D02*
X4387381Y-14188000D01*
X4387381Y-14188000D02*
X4406429Y-14178476D01*
X4539762Y-14178476D02*
X4673095Y-14178476D01*
X4673095Y-14178476D02*
X4587381Y-14378476D01*
X4787381Y-14178476D02*
X4806429Y-14178476D01*
X4806429Y-14178476D02*
X4825476Y-14188000D01*
X4825476Y-14188000D02*
X4835000Y-14197524D01*
X4835000Y-14197524D02*
X4844524Y-14216571D01*
X4844524Y-14216571D02*
X4854048Y-14254667D01*
X4854048Y-14254667D02*
X4854048Y-14302286D01*
X4854048Y-14302286D02*
X4844524Y-14340381D01*
X4844524Y-14340381D02*
X4835000Y-14359428D01*
X4835000Y-14359428D02*
X4825476Y-14368952D01*
X4825476Y-14368952D02*
X4806429Y-14378476D01*
X4806429Y-14378476D02*
X4787381Y-14378476D01*
X4787381Y-14378476D02*
X4768333Y-14368952D01*
X4768333Y-14368952D02*
X4758810Y-14359428D01*
X4758810Y-14359428D02*
X4749286Y-14340381D01*
X4749286Y-14340381D02*
X4739762Y-14302286D01*
X4739762Y-14302286D02*
X4739762Y-14254667D01*
X4739762Y-14254667D02*
X4749286Y-14216571D01*
X4749286Y-14216571D02*
X4758810Y-14197524D01*
X4758810Y-14197524D02*
X4768333Y-14188000D01*
X4768333Y-14188000D02*
X4787381Y-14178476D01*
X4949286Y-14378476D02*
X4987381Y-14378476D01*
X4987381Y-14378476D02*
X5006429Y-14368952D01*
X5006429Y-14368952D02*
X5015953Y-14359428D01*
X5015953Y-14359428D02*
X5035000Y-14330857D01*
X5035000Y-14330857D02*
X5044524Y-14292762D01*
X5044524Y-14292762D02*
X5044524Y-14216571D01*
X5044524Y-14216571D02*
X5035000Y-14197524D01*
X5035000Y-14197524D02*
X5025476Y-14188000D01*
X5025476Y-14188000D02*
X5006429Y-14178476D01*
X5006429Y-14178476D02*
X4968333Y-14178476D01*
X4968333Y-14178476D02*
X4949286Y-14188000D01*
X4949286Y-14188000D02*
X4939762Y-14197524D01*
X4939762Y-14197524D02*
X4930238Y-14216571D01*
X4930238Y-14216571D02*
X4930238Y-14264190D01*
X4930238Y-14264190D02*
X4939762Y-14283238D01*
X4939762Y-14283238D02*
X4949286Y-14292762D01*
X4949286Y-14292762D02*
X4968333Y-14302286D01*
X4968333Y-14302286D02*
X5006429Y-14302286D01*
X5006429Y-14302286D02*
X5025476Y-14292762D01*
X5025476Y-14292762D02*
X5035000Y-14283238D01*
X5035000Y-14283238D02*
X5044524Y-14264190D01*
X5120714Y-14178476D02*
X5120714Y-14216571D01*
X5196905Y-14178476D02*
X5196905Y-14216571D01*
X5459762Y-14454667D02*
X5450238Y-14445143D01*
X5450238Y-14445143D02*
X5431191Y-14416571D01*
X5431191Y-14416571D02*
X5421667Y-14397524D01*
X5421667Y-14397524D02*
X5412143Y-14368952D01*
X5412143Y-14368952D02*
X5402619Y-14321333D01*
X5402619Y-14321333D02*
X5402619Y-14283238D01*
X5402619Y-14283238D02*
X5412143Y-14235619D01*
X5412143Y-14235619D02*
X5421667Y-14207048D01*
X5421667Y-14207048D02*
X5431191Y-14188000D01*
X5431191Y-14188000D02*
X5450238Y-14159428D01*
X5450238Y-14159428D02*
X5459762Y-14149905D01*
X5526429Y-14197524D02*
X5535953Y-14188000D01*
X5535953Y-14188000D02*
X5555000Y-14178476D01*
X5555000Y-14178476D02*
X5602619Y-14178476D01*
X5602619Y-14178476D02*
X5621667Y-14188000D01*
X5621667Y-14188000D02*
X5631191Y-14197524D01*
X5631191Y-14197524D02*
X5640714Y-14216571D01*
X5640714Y-14216571D02*
X5640714Y-14235619D01*
X5640714Y-14235619D02*
X5631191Y-14264190D01*
X5631191Y-14264190D02*
X5516905Y-14378476D01*
X5516905Y-14378476D02*
X5640714Y-14378476D01*
X5846429Y-14378476D02*
X5846429Y-14178476D01*
X5932143Y-14378476D02*
X5932143Y-14273714D01*
X5932143Y-14273714D02*
X5922619Y-14254667D01*
X5922619Y-14254667D02*
X5903572Y-14245143D01*
X5903572Y-14245143D02*
X5875000Y-14245143D01*
X5875000Y-14245143D02*
X5855952Y-14254667D01*
X5855952Y-14254667D02*
X5846429Y-14264190D01*
X6055952Y-14378476D02*
X6036905Y-14368952D01*
X6036905Y-14368952D02*
X6027381Y-14359428D01*
X6027381Y-14359428D02*
X6017857Y-14340381D01*
X6017857Y-14340381D02*
X6017857Y-14283238D01*
X6017857Y-14283238D02*
X6027381Y-14264190D01*
X6027381Y-14264190D02*
X6036905Y-14254667D01*
X6036905Y-14254667D02*
X6055952Y-14245143D01*
X6055952Y-14245143D02*
X6084524Y-14245143D01*
X6084524Y-14245143D02*
X6103572Y-14254667D01*
X6103572Y-14254667D02*
X6113095Y-14264190D01*
X6113095Y-14264190D02*
X6122619Y-14283238D01*
X6122619Y-14283238D02*
X6122619Y-14340381D01*
X6122619Y-14340381D02*
X6113095Y-14359428D01*
X6113095Y-14359428D02*
X6103572Y-14368952D01*
X6103572Y-14368952D02*
X6084524Y-14378476D01*
X6084524Y-14378476D02*
X6055952Y-14378476D01*
X6236905Y-14378476D02*
X6217857Y-14368952D01*
X6217857Y-14368952D02*
X6208333Y-14349905D01*
X6208333Y-14349905D02*
X6208333Y-14178476D01*
X6389286Y-14368952D02*
X6370238Y-14378476D01*
X6370238Y-14378476D02*
X6332143Y-14378476D01*
X6332143Y-14378476D02*
X6313095Y-14368952D01*
X6313095Y-14368952D02*
X6303572Y-14349905D01*
X6303572Y-14349905D02*
X6303572Y-14273714D01*
X6303572Y-14273714D02*
X6313095Y-14254667D01*
X6313095Y-14254667D02*
X6332143Y-14245143D01*
X6332143Y-14245143D02*
X6370238Y-14245143D01*
X6370238Y-14245143D02*
X6389286Y-14254667D01*
X6389286Y-14254667D02*
X6398810Y-14273714D01*
X6398810Y-14273714D02*
X6398810Y-14292762D01*
X6398810Y-14292762D02*
X6303572Y-14311809D01*
X6475000Y-14368952D02*
X6494048Y-14378476D01*
X6494048Y-14378476D02*
X6532143Y-14378476D01*
X6532143Y-14378476D02*
X6551191Y-14368952D01*
X6551191Y-14368952D02*
X6560714Y-14349905D01*
X6560714Y-14349905D02*
X6560714Y-14340381D01*
X6560714Y-14340381D02*
X6551191Y-14321333D01*
X6551191Y-14321333D02*
X6532143Y-14311809D01*
X6532143Y-14311809D02*
X6503572Y-14311809D01*
X6503572Y-14311809D02*
X6484524Y-14302286D01*
X6484524Y-14302286D02*
X6475000Y-14283238D01*
X6475000Y-14283238D02*
X6475000Y-14273714D01*
X6475000Y-14273714D02*
X6484524Y-14254667D01*
X6484524Y-14254667D02*
X6503572Y-14245143D01*
X6503572Y-14245143D02*
X6532143Y-14245143D01*
X6532143Y-14245143D02*
X6551191Y-14254667D01*
X6627381Y-14454667D02*
X6636905Y-14445143D01*
X6636905Y-14445143D02*
X6655953Y-14416571D01*
X6655953Y-14416571D02*
X6665476Y-14397524D01*
X6665476Y-14397524D02*
X6675000Y-14368952D01*
X6675000Y-14368952D02*
X6684524Y-14321333D01*
X6684524Y-14321333D02*
X6684524Y-14283238D01*
X6684524Y-14283238D02*
X6675000Y-14235619D01*
X6675000Y-14235619D02*
X6665476Y-14207048D01*
X6665476Y-14207048D02*
X6655953Y-14188000D01*
X6655953Y-14188000D02*
X6636905Y-14159428D01*
X6636905Y-14159428D02*
X6627381Y-14149905D01*
X6956905Y-14454667D02*
X6947381Y-14445143D01*
X6947381Y-14445143D02*
X6928333Y-14416571D01*
X6928333Y-14416571D02*
X6918810Y-14397524D01*
X6918810Y-14397524D02*
X6909286Y-14368952D01*
X6909286Y-14368952D02*
X6899762Y-14321333D01*
X6899762Y-14321333D02*
X6899762Y-14283238D01*
X6899762Y-14283238D02*
X6909286Y-14235619D01*
X6909286Y-14235619D02*
X6918810Y-14207048D01*
X6918810Y-14207048D02*
X6928333Y-14188000D01*
X6928333Y-14188000D02*
X6947381Y-14159428D01*
X6947381Y-14159428D02*
X6956905Y-14149905D01*
X7033095Y-14245143D02*
X7033095Y-14378476D01*
X7033095Y-14264190D02*
X7042619Y-14254667D01*
X7042619Y-14254667D02*
X7061667Y-14245143D01*
X7061667Y-14245143D02*
X7090238Y-14245143D01*
X7090238Y-14245143D02*
X7109286Y-14254667D01*
X7109286Y-14254667D02*
X7118810Y-14273714D01*
X7118810Y-14273714D02*
X7118810Y-14378476D01*
X7242619Y-14378476D02*
X7223572Y-14368952D01*
X7223572Y-14368952D02*
X7214048Y-14359428D01*
X7214048Y-14359428D02*
X7204524Y-14340381D01*
X7204524Y-14340381D02*
X7204524Y-14283238D01*
X7204524Y-14283238D02*
X7214048Y-14264190D01*
X7214048Y-14264190D02*
X7223572Y-14254667D01*
X7223572Y-14254667D02*
X7242619Y-14245143D01*
X7242619Y-14245143D02*
X7271191Y-14245143D01*
X7271191Y-14245143D02*
X7290238Y-14254667D01*
X7290238Y-14254667D02*
X7299762Y-14264190D01*
X7299762Y-14264190D02*
X7309286Y-14283238D01*
X7309286Y-14283238D02*
X7309286Y-14340381D01*
X7309286Y-14340381D02*
X7299762Y-14359428D01*
X7299762Y-14359428D02*
X7290238Y-14368952D01*
X7290238Y-14368952D02*
X7271191Y-14378476D01*
X7271191Y-14378476D02*
X7242619Y-14378476D01*
X7366429Y-14245143D02*
X7442619Y-14245143D01*
X7395000Y-14178476D02*
X7395000Y-14349905D01*
X7395000Y-14349905D02*
X7404524Y-14368952D01*
X7404524Y-14368952D02*
X7423572Y-14378476D01*
X7423572Y-14378476D02*
X7442619Y-14378476D01*
X7629286Y-14245143D02*
X7629286Y-14445143D01*
X7629286Y-14254667D02*
X7648333Y-14245143D01*
X7648333Y-14245143D02*
X7686429Y-14245143D01*
X7686429Y-14245143D02*
X7705476Y-14254667D01*
X7705476Y-14254667D02*
X7715000Y-14264190D01*
X7715000Y-14264190D02*
X7724524Y-14283238D01*
X7724524Y-14283238D02*
X7724524Y-14340381D01*
X7724524Y-14340381D02*
X7715000Y-14359428D01*
X7715000Y-14359428D02*
X7705476Y-14368952D01*
X7705476Y-14368952D02*
X7686429Y-14378476D01*
X7686429Y-14378476D02*
X7648333Y-14378476D01*
X7648333Y-14378476D02*
X7629286Y-14368952D01*
X7838810Y-14378476D02*
X7819762Y-14368952D01*
X7819762Y-14368952D02*
X7810238Y-14349905D01*
X7810238Y-14349905D02*
X7810238Y-14178476D01*
X8000714Y-14378476D02*
X8000714Y-14273714D01*
X8000714Y-14273714D02*
X7991191Y-14254667D01*
X7991191Y-14254667D02*
X7972143Y-14245143D01*
X7972143Y-14245143D02*
X7934048Y-14245143D01*
X7934048Y-14245143D02*
X7915000Y-14254667D01*
X8000714Y-14368952D02*
X7981667Y-14378476D01*
X7981667Y-14378476D02*
X7934048Y-14378476D01*
X7934048Y-14378476D02*
X7915000Y-14368952D01*
X7915000Y-14368952D02*
X7905476Y-14349905D01*
X7905476Y-14349905D02*
X7905476Y-14330857D01*
X7905476Y-14330857D02*
X7915000Y-14311809D01*
X7915000Y-14311809D02*
X7934048Y-14302286D01*
X7934048Y-14302286D02*
X7981667Y-14302286D01*
X7981667Y-14302286D02*
X8000714Y-14292762D01*
X8067381Y-14245143D02*
X8143572Y-14245143D01*
X8095953Y-14178476D02*
X8095953Y-14349905D01*
X8095953Y-14349905D02*
X8105476Y-14368952D01*
X8105476Y-14368952D02*
X8124524Y-14378476D01*
X8124524Y-14378476D02*
X8143572Y-14378476D01*
X8286429Y-14368952D02*
X8267381Y-14378476D01*
X8267381Y-14378476D02*
X8229286Y-14378476D01*
X8229286Y-14378476D02*
X8210238Y-14368952D01*
X8210238Y-14368952D02*
X8200714Y-14349905D01*
X8200714Y-14349905D02*
X8200714Y-14273714D01*
X8200714Y-14273714D02*
X8210238Y-14254667D01*
X8210238Y-14254667D02*
X8229286Y-14245143D01*
X8229286Y-14245143D02*
X8267381Y-14245143D01*
X8267381Y-14245143D02*
X8286429Y-14254667D01*
X8286429Y-14254667D02*
X8295953Y-14273714D01*
X8295953Y-14273714D02*
X8295953Y-14292762D01*
X8295953Y-14292762D02*
X8200714Y-14311809D01*
X8467381Y-14378476D02*
X8467381Y-14178476D01*
X8467381Y-14368952D02*
X8448334Y-14378476D01*
X8448334Y-14378476D02*
X8410238Y-14378476D01*
X8410238Y-14378476D02*
X8391191Y-14368952D01*
X8391191Y-14368952D02*
X8381667Y-14359428D01*
X8381667Y-14359428D02*
X8372143Y-14340381D01*
X8372143Y-14340381D02*
X8372143Y-14283238D01*
X8372143Y-14283238D02*
X8381667Y-14264190D01*
X8381667Y-14264190D02*
X8391191Y-14254667D01*
X8391191Y-14254667D02*
X8410238Y-14245143D01*
X8410238Y-14245143D02*
X8448334Y-14245143D01*
X8448334Y-14245143D02*
X8467381Y-14254667D01*
X8543572Y-14454667D02*
X8553096Y-14445143D01*
X8553096Y-14445143D02*
X8572143Y-14416571D01*
X8572143Y-14416571D02*
X8581667Y-14397524D01*
X8581667Y-14397524D02*
X8591191Y-14368952D01*
X8591191Y-14368952D02*
X8600715Y-14321333D01*
X8600715Y-14321333D02*
X8600715Y-14283238D01*
X8600715Y-14283238D02*
X8591191Y-14235619D01*
X8591191Y-14235619D02*
X8581667Y-14207048D01*
X8581667Y-14207048D02*
X8572143Y-14188000D01*
X8572143Y-14188000D02*
X8553096Y-14159428D01*
X8553096Y-14159428D02*
X8543572Y-14149905D01*
X1965711Y-14675711D02*
X1965711Y-14534289D01*
X1824289Y-14534289D01*
X1824289Y-14675711D01*
X1965711Y-14675711D01*
X2223571Y-14478476D02*
X2347381Y-14478476D01*
X2347381Y-14478476D02*
X2280714Y-14554667D01*
X2280714Y-14554667D02*
X2309286Y-14554667D01*
X2309286Y-14554667D02*
X2328333Y-14564190D01*
X2328333Y-14564190D02*
X2337857Y-14573714D01*
X2337857Y-14573714D02*
X2347381Y-14592762D01*
X2347381Y-14592762D02*
X2347381Y-14640381D01*
X2347381Y-14640381D02*
X2337857Y-14659428D01*
X2337857Y-14659428D02*
X2328333Y-14668952D01*
X2328333Y-14668952D02*
X2309286Y-14678476D01*
X2309286Y-14678476D02*
X2252143Y-14678476D01*
X2252143Y-14678476D02*
X2233095Y-14668952D01*
X2233095Y-14668952D02*
X2223571Y-14659428D01*
X2433095Y-14659428D02*
X2442619Y-14668952D01*
X2442619Y-14668952D02*
X2433095Y-14678476D01*
X2433095Y-14678476D02*
X2423571Y-14668952D01*
X2423571Y-14668952D02*
X2433095Y-14659428D01*
X2433095Y-14659428D02*
X2433095Y-14678476D01*
X2518810Y-14497524D02*
X2528333Y-14488000D01*
X2528333Y-14488000D02*
X2547381Y-14478476D01*
X2547381Y-14478476D02*
X2595000Y-14478476D01*
X2595000Y-14478476D02*
X2614048Y-14488000D01*
X2614048Y-14488000D02*
X2623571Y-14497524D01*
X2623571Y-14497524D02*
X2633095Y-14516571D01*
X2633095Y-14516571D02*
X2633095Y-14535619D01*
X2633095Y-14535619D02*
X2623571Y-14564190D01*
X2623571Y-14564190D02*
X2509286Y-14678476D01*
X2509286Y-14678476D02*
X2633095Y-14678476D01*
X2756905Y-14478476D02*
X2775952Y-14478476D01*
X2775952Y-14478476D02*
X2795000Y-14488000D01*
X2795000Y-14488000D02*
X2804524Y-14497524D01*
X2804524Y-14497524D02*
X2814048Y-14516571D01*
X2814048Y-14516571D02*
X2823571Y-14554667D01*
X2823571Y-14554667D02*
X2823571Y-14602286D01*
X2823571Y-14602286D02*
X2814048Y-14640381D01*
X2814048Y-14640381D02*
X2804524Y-14659428D01*
X2804524Y-14659428D02*
X2795000Y-14668952D01*
X2795000Y-14668952D02*
X2775952Y-14678476D01*
X2775952Y-14678476D02*
X2756905Y-14678476D01*
X2756905Y-14678476D02*
X2737857Y-14668952D01*
X2737857Y-14668952D02*
X2728333Y-14659428D01*
X2728333Y-14659428D02*
X2718810Y-14640381D01*
X2718810Y-14640381D02*
X2709286Y-14602286D01*
X2709286Y-14602286D02*
X2709286Y-14554667D01*
X2709286Y-14554667D02*
X2718810Y-14516571D01*
X2718810Y-14516571D02*
X2728333Y-14497524D01*
X2728333Y-14497524D02*
X2737857Y-14488000D01*
X2737857Y-14488000D02*
X2756905Y-14478476D01*
X2947381Y-14478476D02*
X2966429Y-14478476D01*
X2966429Y-14478476D02*
X2985476Y-14488000D01*
X2985476Y-14488000D02*
X2995000Y-14497524D01*
X2995000Y-14497524D02*
X3004524Y-14516571D01*
X3004524Y-14516571D02*
X3014048Y-14554667D01*
X3014048Y-14554667D02*
X3014048Y-14602286D01*
X3014048Y-14602286D02*
X3004524Y-14640381D01*
X3004524Y-14640381D02*
X2995000Y-14659428D01*
X2995000Y-14659428D02*
X2985476Y-14668952D01*
X2985476Y-14668952D02*
X2966429Y-14678476D01*
X2966429Y-14678476D02*
X2947381Y-14678476D01*
X2947381Y-14678476D02*
X2928333Y-14668952D01*
X2928333Y-14668952D02*
X2918809Y-14659428D01*
X2918809Y-14659428D02*
X2909286Y-14640381D01*
X2909286Y-14640381D02*
X2899762Y-14602286D01*
X2899762Y-14602286D02*
X2899762Y-14554667D01*
X2899762Y-14554667D02*
X2909286Y-14516571D01*
X2909286Y-14516571D02*
X2918809Y-14497524D01*
X2918809Y-14497524D02*
X2928333Y-14488000D01*
X2928333Y-14488000D02*
X2947381Y-14478476D01*
X3099762Y-14678476D02*
X3099762Y-14545143D01*
X3099762Y-14564190D02*
X3109286Y-14554667D01*
X3109286Y-14554667D02*
X3128333Y-14545143D01*
X3128333Y-14545143D02*
X3156905Y-14545143D01*
X3156905Y-14545143D02*
X3175952Y-14554667D01*
X3175952Y-14554667D02*
X3185476Y-14573714D01*
X3185476Y-14573714D02*
X3185476Y-14678476D01*
X3185476Y-14573714D02*
X3195000Y-14554667D01*
X3195000Y-14554667D02*
X3214048Y-14545143D01*
X3214048Y-14545143D02*
X3242619Y-14545143D01*
X3242619Y-14545143D02*
X3261667Y-14554667D01*
X3261667Y-14554667D02*
X3271190Y-14573714D01*
X3271190Y-14573714D02*
X3271190Y-14678476D01*
X3366429Y-14678476D02*
X3366429Y-14545143D01*
X3366429Y-14564190D02*
X3375952Y-14554667D01*
X3375952Y-14554667D02*
X3395000Y-14545143D01*
X3395000Y-14545143D02*
X3423571Y-14545143D01*
X3423571Y-14545143D02*
X3442619Y-14554667D01*
X3442619Y-14554667D02*
X3452143Y-14573714D01*
X3452143Y-14573714D02*
X3452143Y-14678476D01*
X3452143Y-14573714D02*
X3461667Y-14554667D01*
X3461667Y-14554667D02*
X3480714Y-14545143D01*
X3480714Y-14545143D02*
X3509286Y-14545143D01*
X3509286Y-14545143D02*
X3528333Y-14554667D01*
X3528333Y-14554667D02*
X3537857Y-14573714D01*
X3537857Y-14573714D02*
X3537857Y-14678476D01*
X3895952Y-14468952D02*
X3724524Y-14726095D01*
X4120714Y-14478476D02*
X4139762Y-14478476D01*
X4139762Y-14478476D02*
X4158810Y-14488000D01*
X4158810Y-14488000D02*
X4168333Y-14497524D01*
X4168333Y-14497524D02*
X4177857Y-14516571D01*
X4177857Y-14516571D02*
X4187381Y-14554667D01*
X4187381Y-14554667D02*
X4187381Y-14602286D01*
X4187381Y-14602286D02*
X4177857Y-14640381D01*
X4177857Y-14640381D02*
X4168333Y-14659428D01*
X4168333Y-14659428D02*
X4158810Y-14668952D01*
X4158810Y-14668952D02*
X4139762Y-14678476D01*
X4139762Y-14678476D02*
X4120714Y-14678476D01*
X4120714Y-14678476D02*
X4101667Y-14668952D01*
X4101667Y-14668952D02*
X4092143Y-14659428D01*
X4092143Y-14659428D02*
X4082619Y-14640381D01*
X4082619Y-14640381D02*
X4073095Y-14602286D01*
X4073095Y-14602286D02*
X4073095Y-14554667D01*
X4073095Y-14554667D02*
X4082619Y-14516571D01*
X4082619Y-14516571D02*
X4092143Y-14497524D01*
X4092143Y-14497524D02*
X4101667Y-14488000D01*
X4101667Y-14488000D02*
X4120714Y-14478476D01*
X4273095Y-14659428D02*
X4282619Y-14668952D01*
X4282619Y-14668952D02*
X4273095Y-14678476D01*
X4273095Y-14678476D02*
X4263572Y-14668952D01*
X4263572Y-14668952D02*
X4273095Y-14659428D01*
X4273095Y-14659428D02*
X4273095Y-14678476D01*
X4473095Y-14678476D02*
X4358810Y-14678476D01*
X4415952Y-14678476D02*
X4415952Y-14478476D01*
X4415952Y-14478476D02*
X4396905Y-14507048D01*
X4396905Y-14507048D02*
X4377857Y-14526095D01*
X4377857Y-14526095D02*
X4358810Y-14535619D01*
X4549286Y-14497524D02*
X4558810Y-14488000D01*
X4558810Y-14488000D02*
X4577857Y-14478476D01*
X4577857Y-14478476D02*
X4625476Y-14478476D01*
X4625476Y-14478476D02*
X4644524Y-14488000D01*
X4644524Y-14488000D02*
X4654048Y-14497524D01*
X4654048Y-14497524D02*
X4663572Y-14516571D01*
X4663572Y-14516571D02*
X4663572Y-14535619D01*
X4663572Y-14535619D02*
X4654048Y-14564190D01*
X4654048Y-14564190D02*
X4539762Y-14678476D01*
X4539762Y-14678476D02*
X4663572Y-14678476D01*
X4835000Y-14478476D02*
X4796905Y-14478476D01*
X4796905Y-14478476D02*
X4777857Y-14488000D01*
X4777857Y-14488000D02*
X4768333Y-14497524D01*
X4768333Y-14497524D02*
X4749286Y-14526095D01*
X4749286Y-14526095D02*
X4739762Y-14564190D01*
X4739762Y-14564190D02*
X4739762Y-14640381D01*
X4739762Y-14640381D02*
X4749286Y-14659428D01*
X4749286Y-14659428D02*
X4758810Y-14668952D01*
X4758810Y-14668952D02*
X4777857Y-14678476D01*
X4777857Y-14678476D02*
X4815953Y-14678476D01*
X4815953Y-14678476D02*
X4835000Y-14668952D01*
X4835000Y-14668952D02*
X4844524Y-14659428D01*
X4844524Y-14659428D02*
X4854048Y-14640381D01*
X4854048Y-14640381D02*
X4854048Y-14592762D01*
X4854048Y-14592762D02*
X4844524Y-14573714D01*
X4844524Y-14573714D02*
X4835000Y-14564190D01*
X4835000Y-14564190D02*
X4815953Y-14554667D01*
X4815953Y-14554667D02*
X4777857Y-14554667D01*
X4777857Y-14554667D02*
X4758810Y-14564190D01*
X4758810Y-14564190D02*
X4749286Y-14573714D01*
X4749286Y-14573714D02*
X4739762Y-14592762D01*
X4977857Y-14478476D02*
X4996905Y-14478476D01*
X4996905Y-14478476D02*
X5015953Y-14488000D01*
X5015953Y-14488000D02*
X5025476Y-14497524D01*
X5025476Y-14497524D02*
X5035000Y-14516571D01*
X5035000Y-14516571D02*
X5044524Y-14554667D01*
X5044524Y-14554667D02*
X5044524Y-14602286D01*
X5044524Y-14602286D02*
X5035000Y-14640381D01*
X5035000Y-14640381D02*
X5025476Y-14659428D01*
X5025476Y-14659428D02*
X5015953Y-14668952D01*
X5015953Y-14668952D02*
X4996905Y-14678476D01*
X4996905Y-14678476D02*
X4977857Y-14678476D01*
X4977857Y-14678476D02*
X4958810Y-14668952D01*
X4958810Y-14668952D02*
X4949286Y-14659428D01*
X4949286Y-14659428D02*
X4939762Y-14640381D01*
X4939762Y-14640381D02*
X4930238Y-14602286D01*
X4930238Y-14602286D02*
X4930238Y-14554667D01*
X4930238Y-14554667D02*
X4939762Y-14516571D01*
X4939762Y-14516571D02*
X4949286Y-14497524D01*
X4949286Y-14497524D02*
X4958810Y-14488000D01*
X4958810Y-14488000D02*
X4977857Y-14478476D01*
X5120714Y-14478476D02*
X5120714Y-14516571D01*
X5196905Y-14478476D02*
X5196905Y-14516571D01*
X5459762Y-14754667D02*
X5450238Y-14745143D01*
X5450238Y-14745143D02*
X5431191Y-14716571D01*
X5431191Y-14716571D02*
X5421667Y-14697524D01*
X5421667Y-14697524D02*
X5412143Y-14668952D01*
X5412143Y-14668952D02*
X5402619Y-14621333D01*
X5402619Y-14621333D02*
X5402619Y-14583238D01*
X5402619Y-14583238D02*
X5412143Y-14535619D01*
X5412143Y-14535619D02*
X5421667Y-14507048D01*
X5421667Y-14507048D02*
X5431191Y-14488000D01*
X5431191Y-14488000D02*
X5450238Y-14459428D01*
X5450238Y-14459428D02*
X5459762Y-14449905D01*
X5621667Y-14545143D02*
X5621667Y-14678476D01*
X5574048Y-14468952D02*
X5526429Y-14611809D01*
X5526429Y-14611809D02*
X5650238Y-14611809D01*
X5846429Y-14678476D02*
X5846429Y-14478476D01*
X5932143Y-14678476D02*
X5932143Y-14573714D01*
X5932143Y-14573714D02*
X5922619Y-14554667D01*
X5922619Y-14554667D02*
X5903572Y-14545143D01*
X5903572Y-14545143D02*
X5875000Y-14545143D01*
X5875000Y-14545143D02*
X5855952Y-14554667D01*
X5855952Y-14554667D02*
X5846429Y-14564190D01*
X6055952Y-14678476D02*
X6036905Y-14668952D01*
X6036905Y-14668952D02*
X6027381Y-14659428D01*
X6027381Y-14659428D02*
X6017857Y-14640381D01*
X6017857Y-14640381D02*
X6017857Y-14583238D01*
X6017857Y-14583238D02*
X6027381Y-14564190D01*
X6027381Y-14564190D02*
X6036905Y-14554667D01*
X6036905Y-14554667D02*
X6055952Y-14545143D01*
X6055952Y-14545143D02*
X6084524Y-14545143D01*
X6084524Y-14545143D02*
X6103572Y-14554667D01*
X6103572Y-14554667D02*
X6113095Y-14564190D01*
X6113095Y-14564190D02*
X6122619Y-14583238D01*
X6122619Y-14583238D02*
X6122619Y-14640381D01*
X6122619Y-14640381D02*
X6113095Y-14659428D01*
X6113095Y-14659428D02*
X6103572Y-14668952D01*
X6103572Y-14668952D02*
X6084524Y-14678476D01*
X6084524Y-14678476D02*
X6055952Y-14678476D01*
X6236905Y-14678476D02*
X6217857Y-14668952D01*
X6217857Y-14668952D02*
X6208333Y-14649905D01*
X6208333Y-14649905D02*
X6208333Y-14478476D01*
X6389286Y-14668952D02*
X6370238Y-14678476D01*
X6370238Y-14678476D02*
X6332143Y-14678476D01*
X6332143Y-14678476D02*
X6313095Y-14668952D01*
X6313095Y-14668952D02*
X6303572Y-14649905D01*
X6303572Y-14649905D02*
X6303572Y-14573714D01*
X6303572Y-14573714D02*
X6313095Y-14554667D01*
X6313095Y-14554667D02*
X6332143Y-14545143D01*
X6332143Y-14545143D02*
X6370238Y-14545143D01*
X6370238Y-14545143D02*
X6389286Y-14554667D01*
X6389286Y-14554667D02*
X6398810Y-14573714D01*
X6398810Y-14573714D02*
X6398810Y-14592762D01*
X6398810Y-14592762D02*
X6303572Y-14611809D01*
X6475000Y-14668952D02*
X6494048Y-14678476D01*
X6494048Y-14678476D02*
X6532143Y-14678476D01*
X6532143Y-14678476D02*
X6551191Y-14668952D01*
X6551191Y-14668952D02*
X6560714Y-14649905D01*
X6560714Y-14649905D02*
X6560714Y-14640381D01*
X6560714Y-14640381D02*
X6551191Y-14621333D01*
X6551191Y-14621333D02*
X6532143Y-14611809D01*
X6532143Y-14611809D02*
X6503572Y-14611809D01*
X6503572Y-14611809D02*
X6484524Y-14602286D01*
X6484524Y-14602286D02*
X6475000Y-14583238D01*
X6475000Y-14583238D02*
X6475000Y-14573714D01*
X6475000Y-14573714D02*
X6484524Y-14554667D01*
X6484524Y-14554667D02*
X6503572Y-14545143D01*
X6503572Y-14545143D02*
X6532143Y-14545143D01*
X6532143Y-14545143D02*
X6551191Y-14554667D01*
X6627381Y-14754667D02*
X6636905Y-14745143D01*
X6636905Y-14745143D02*
X6655953Y-14716571D01*
X6655953Y-14716571D02*
X6665476Y-14697524D01*
X6665476Y-14697524D02*
X6675000Y-14668952D01*
X6675000Y-14668952D02*
X6684524Y-14621333D01*
X6684524Y-14621333D02*
X6684524Y-14583238D01*
X6684524Y-14583238D02*
X6675000Y-14535619D01*
X6675000Y-14535619D02*
X6665476Y-14507048D01*
X6665476Y-14507048D02*
X6655953Y-14488000D01*
X6655953Y-14488000D02*
X6636905Y-14459428D01*
X6636905Y-14459428D02*
X6627381Y-14449905D01*
X6956905Y-14754667D02*
X6947381Y-14745143D01*
X6947381Y-14745143D02*
X6928333Y-14716571D01*
X6928333Y-14716571D02*
X6918810Y-14697524D01*
X6918810Y-14697524D02*
X6909286Y-14668952D01*
X6909286Y-14668952D02*
X6899762Y-14621333D01*
X6899762Y-14621333D02*
X6899762Y-14583238D01*
X6899762Y-14583238D02*
X6909286Y-14535619D01*
X6909286Y-14535619D02*
X6918810Y-14507048D01*
X6918810Y-14507048D02*
X6928333Y-14488000D01*
X6928333Y-14488000D02*
X6947381Y-14459428D01*
X6947381Y-14459428D02*
X6956905Y-14449905D01*
X7033095Y-14545143D02*
X7033095Y-14678476D01*
X7033095Y-14564190D02*
X7042619Y-14554667D01*
X7042619Y-14554667D02*
X7061667Y-14545143D01*
X7061667Y-14545143D02*
X7090238Y-14545143D01*
X7090238Y-14545143D02*
X7109286Y-14554667D01*
X7109286Y-14554667D02*
X7118810Y-14573714D01*
X7118810Y-14573714D02*
X7118810Y-14678476D01*
X7242619Y-14678476D02*
X7223572Y-14668952D01*
X7223572Y-14668952D02*
X7214048Y-14659428D01*
X7214048Y-14659428D02*
X7204524Y-14640381D01*
X7204524Y-14640381D02*
X7204524Y-14583238D01*
X7204524Y-14583238D02*
X7214048Y-14564190D01*
X7214048Y-14564190D02*
X7223572Y-14554667D01*
X7223572Y-14554667D02*
X7242619Y-14545143D01*
X7242619Y-14545143D02*
X7271191Y-14545143D01*
X7271191Y-14545143D02*
X7290238Y-14554667D01*
X7290238Y-14554667D02*
X7299762Y-14564190D01*
X7299762Y-14564190D02*
X7309286Y-14583238D01*
X7309286Y-14583238D02*
X7309286Y-14640381D01*
X7309286Y-14640381D02*
X7299762Y-14659428D01*
X7299762Y-14659428D02*
X7290238Y-14668952D01*
X7290238Y-14668952D02*
X7271191Y-14678476D01*
X7271191Y-14678476D02*
X7242619Y-14678476D01*
X7366429Y-14545143D02*
X7442619Y-14545143D01*
X7395000Y-14478476D02*
X7395000Y-14649905D01*
X7395000Y-14649905D02*
X7404524Y-14668952D01*
X7404524Y-14668952D02*
X7423572Y-14678476D01*
X7423572Y-14678476D02*
X7442619Y-14678476D01*
X7629286Y-14545143D02*
X7629286Y-14745143D01*
X7629286Y-14554667D02*
X7648333Y-14545143D01*
X7648333Y-14545143D02*
X7686429Y-14545143D01*
X7686429Y-14545143D02*
X7705476Y-14554667D01*
X7705476Y-14554667D02*
X7715000Y-14564190D01*
X7715000Y-14564190D02*
X7724524Y-14583238D01*
X7724524Y-14583238D02*
X7724524Y-14640381D01*
X7724524Y-14640381D02*
X7715000Y-14659428D01*
X7715000Y-14659428D02*
X7705476Y-14668952D01*
X7705476Y-14668952D02*
X7686429Y-14678476D01*
X7686429Y-14678476D02*
X7648333Y-14678476D01*
X7648333Y-14678476D02*
X7629286Y-14668952D01*
X7838810Y-14678476D02*
X7819762Y-14668952D01*
X7819762Y-14668952D02*
X7810238Y-14649905D01*
X7810238Y-14649905D02*
X7810238Y-14478476D01*
X8000714Y-14678476D02*
X8000714Y-14573714D01*
X8000714Y-14573714D02*
X7991191Y-14554667D01*
X7991191Y-14554667D02*
X7972143Y-14545143D01*
X7972143Y-14545143D02*
X7934048Y-14545143D01*
X7934048Y-14545143D02*
X7915000Y-14554667D01*
X8000714Y-14668952D02*
X7981667Y-14678476D01*
X7981667Y-14678476D02*
X7934048Y-14678476D01*
X7934048Y-14678476D02*
X7915000Y-14668952D01*
X7915000Y-14668952D02*
X7905476Y-14649905D01*
X7905476Y-14649905D02*
X7905476Y-14630857D01*
X7905476Y-14630857D02*
X7915000Y-14611809D01*
X7915000Y-14611809D02*
X7934048Y-14602286D01*
X7934048Y-14602286D02*
X7981667Y-14602286D01*
X7981667Y-14602286D02*
X8000714Y-14592762D01*
X8067381Y-14545143D02*
X8143572Y-14545143D01*
X8095953Y-14478476D02*
X8095953Y-14649905D01*
X8095953Y-14649905D02*
X8105476Y-14668952D01*
X8105476Y-14668952D02*
X8124524Y-14678476D01*
X8124524Y-14678476D02*
X8143572Y-14678476D01*
X8286429Y-14668952D02*
X8267381Y-14678476D01*
X8267381Y-14678476D02*
X8229286Y-14678476D01*
X8229286Y-14678476D02*
X8210238Y-14668952D01*
X8210238Y-14668952D02*
X8200714Y-14649905D01*
X8200714Y-14649905D02*
X8200714Y-14573714D01*
X8200714Y-14573714D02*
X8210238Y-14554667D01*
X8210238Y-14554667D02*
X8229286Y-14545143D01*
X8229286Y-14545143D02*
X8267381Y-14545143D01*
X8267381Y-14545143D02*
X8286429Y-14554667D01*
X8286429Y-14554667D02*
X8295953Y-14573714D01*
X8295953Y-14573714D02*
X8295953Y-14592762D01*
X8295953Y-14592762D02*
X8200714Y-14611809D01*
X8467381Y-14678476D02*
X8467381Y-14478476D01*
X8467381Y-14668952D02*
X8448334Y-14678476D01*
X8448334Y-14678476D02*
X8410238Y-14678476D01*
X8410238Y-14678476D02*
X8391191Y-14668952D01*
X8391191Y-14668952D02*
X8381667Y-14659428D01*
X8381667Y-14659428D02*
X8372143Y-14640381D01*
X8372143Y-14640381D02*
X8372143Y-14583238D01*
X8372143Y-14583238D02*
X8381667Y-14564190D01*
X8381667Y-14564190D02*
X8391191Y-14554667D01*
X8391191Y-14554667D02*
X8410238Y-14545143D01*
X8410238Y-14545143D02*
X8448334Y-14545143D01*
X8448334Y-14545143D02*
X8467381Y-14554667D01*
X8543572Y-14754667D02*
X8553096Y-14745143D01*
X8553096Y-14745143D02*
X8572143Y-14716571D01*
X8572143Y-14716571D02*
X8581667Y-14697524D01*
X8581667Y-14697524D02*
X8591191Y-14668952D01*
X8591191Y-14668952D02*
X8600715Y-14621333D01*
X8600715Y-14621333D02*
X8600715Y-14583238D01*
X8600715Y-14583238D02*
X8591191Y-14535619D01*
X8591191Y-14535619D02*
X8581667Y-14507048D01*
X8581667Y-14507048D02*
X8572143Y-14488000D01*
X8572143Y-14488000D02*
X8553096Y-14459428D01*
X8553096Y-14459428D02*
X8543572Y-14449905D01*
M02*
