%TF.GenerationSoftware,KiCad,Pcbnew,(7.0.0)*%
%TF.CreationDate,2023-04-14T17:54:09+02:00*%
%TF.ProjectId,multi-tool-midi-board,6d756c74-692d-4746-9f6f-6c2d6d696469,rev?*%
%TF.SameCoordinates,Original*%
%TF.FileFunction,Drillmap*%
%TF.FilePolarity,Positive*%
%FSLAX45Y45*%
G04 Gerber Fmt 4.5, Leading zero omitted, Abs format (unit mm)*
G04 Created by KiCad (PCBNEW (7.0.0)) date 2023-04-14 17:54:09*
%MOMM*%
%LPD*%
G01*
G04 APERTURE LIST*
%ADD10C,0.100000*%
%ADD11C,0.200000*%
%ADD12C,0.033000*%
%ADD13C,0.040000*%
%ADD14C,0.080000*%
%ADD15C,0.085000*%
%ADD16C,0.090000*%
%ADD17C,0.102000*%
%ADD18C,0.110000*%
%ADD19C,0.140000*%
G04 APERTURE END LIST*
D10*
X2000000Y-2300000D02*
X20000000Y-2300000D01*
X20000000Y-2300000D02*
X20000000Y-13100000D01*
X20000000Y-13100000D02*
X2000000Y-13100000D01*
X2000000Y-13100000D02*
X2000000Y-2300000D01*
D11*
D12*
X12049500Y-11573500D02*
X12082500Y-11606500D01*
X12082500Y-11573500D02*
X12049500Y-11606500D01*
X12049500Y-11703500D02*
X12082500Y-11736500D01*
X12082500Y-11703500D02*
X12049500Y-11736500D01*
X12049500Y-11833500D02*
X12082500Y-11866500D01*
X12082500Y-11833500D02*
X12049500Y-11866500D01*
X12179500Y-11573500D02*
X12212500Y-11606500D01*
X12212500Y-11573500D02*
X12179500Y-11606500D01*
X12179500Y-11703500D02*
X12212500Y-11736500D01*
X12212500Y-11703500D02*
X12179500Y-11736500D01*
X12179500Y-11833500D02*
X12212500Y-11866500D01*
X12212500Y-11833500D02*
X12179500Y-11866500D01*
X13349500Y-11573500D02*
X13382500Y-11606500D01*
X13382500Y-11573500D02*
X13349500Y-11606500D01*
X13349500Y-11703500D02*
X13382500Y-11736500D01*
X13382500Y-11703500D02*
X13349500Y-11736500D01*
X13349500Y-11833500D02*
X13382500Y-11866500D01*
X13382500Y-11833500D02*
X13349500Y-11866500D01*
X13479500Y-11573500D02*
X13512500Y-11606500D01*
X13512500Y-11573500D02*
X13479500Y-11606500D01*
X13479500Y-11703500D02*
X13512500Y-11736500D01*
X13512500Y-11703500D02*
X13479500Y-11736500D01*
X13479500Y-11833500D02*
X13512500Y-11866500D01*
X13512500Y-11833500D02*
X13479500Y-11866500D01*
X14649500Y-11573500D02*
X14682500Y-11606500D01*
X14682500Y-11573500D02*
X14649500Y-11606500D01*
X14649500Y-11703500D02*
X14682500Y-11736500D01*
X14682500Y-11703500D02*
X14649500Y-11736500D01*
X14649500Y-11833500D02*
X14682500Y-11866500D01*
X14682500Y-11833500D02*
X14649500Y-11866500D01*
X14779500Y-11573500D02*
X14812500Y-11606500D01*
X14812500Y-11573500D02*
X14779500Y-11606500D01*
X14779500Y-11703500D02*
X14812500Y-11736500D01*
X14812500Y-11703500D02*
X14779500Y-11736500D01*
X14779500Y-11833500D02*
X14812500Y-11866500D01*
X14812500Y-11833500D02*
X14779500Y-11866500D01*
D13*
X3170000Y-11980000D02*
G75*
G03*
X3170000Y-11980000I-20000J0D01*
G01*
X3170000Y-12080000D02*
G75*
G03*
X3170000Y-12080000I-20000J0D01*
G01*
X3170000Y-12180000D02*
G75*
G03*
X3170000Y-12180000I-20000J0D01*
G01*
X3270000Y-11980000D02*
G75*
G03*
X3270000Y-11980000I-20000J0D01*
G01*
X3270000Y-12080000D02*
G75*
G03*
X3270000Y-12080000I-20000J0D01*
G01*
X3270000Y-12180000D02*
G75*
G03*
X3270000Y-12180000I-20000J0D01*
G01*
X3370000Y-11980000D02*
G75*
G03*
X3370000Y-11980000I-20000J0D01*
G01*
X3370000Y-12080000D02*
G75*
G03*
X3370000Y-12080000I-20000J0D01*
G01*
X3370000Y-12180000D02*
G75*
G03*
X3370000Y-12180000I-20000J0D01*
G01*
X3470000Y-11980000D02*
G75*
G03*
X3470000Y-11980000I-20000J0D01*
G01*
X3470000Y-12080000D02*
G75*
G03*
X3470000Y-12080000I-20000J0D01*
G01*
X3470000Y-12180000D02*
G75*
G03*
X3470000Y-12180000I-20000J0D01*
G01*
X4520000Y-12900000D02*
G75*
G03*
X4520000Y-12900000I-20000J0D01*
G01*
X4666270Y-11551270D02*
G75*
G03*
X4666270Y-11551270I-20000J0D01*
G01*
X5220000Y-11300000D02*
G75*
G03*
X5220000Y-11300000I-20000J0D01*
G01*
X5320000Y-12900000D02*
G75*
G03*
X5320000Y-12900000I-20000J0D01*
G01*
X5520000Y-11300000D02*
G75*
G03*
X5520000Y-11300000I-20000J0D01*
G01*
X5520000Y-12600000D02*
G75*
G03*
X5520000Y-12600000I-20000J0D01*
G01*
X5820000Y-12600000D02*
G75*
G03*
X5820000Y-12600000I-20000J0D01*
G01*
X5820000Y-12900000D02*
G75*
G03*
X5820000Y-12900000I-20000J0D01*
G01*
X5895000Y-7900000D02*
G75*
G03*
X5895000Y-7900000I-20000J0D01*
G01*
X6020000Y-11000000D02*
G75*
G03*
X6020000Y-11000000I-20000J0D01*
G01*
X6020000Y-11600000D02*
G75*
G03*
X6020000Y-11600000I-20000J0D01*
G01*
X6021500Y-8303500D02*
G75*
G03*
X6021500Y-8303500I-20000J0D01*
G01*
X6220000Y-11300000D02*
G75*
G03*
X6220000Y-11300000I-20000J0D01*
G01*
X6220000Y-12600000D02*
G75*
G03*
X6220000Y-12600000I-20000J0D01*
G01*
X6220000Y-12900000D02*
G75*
G03*
X6220000Y-12900000I-20000J0D01*
G01*
X6420000Y-11000000D02*
G75*
G03*
X6420000Y-11000000I-20000J0D01*
G01*
X6720000Y-11300000D02*
G75*
G03*
X6720000Y-11300000I-20000J0D01*
G01*
X6820000Y-11000000D02*
G75*
G03*
X6820000Y-11000000I-20000J0D01*
G01*
X6820000Y-11600000D02*
G75*
G03*
X6820000Y-11600000I-20000J0D01*
G01*
X6820000Y-12600000D02*
G75*
G03*
X6820000Y-12600000I-20000J0D01*
G01*
X6820000Y-12900000D02*
G75*
G03*
X6820000Y-12900000I-20000J0D01*
G01*
X6981500Y-8533500D02*
G75*
G03*
X6981500Y-8533500I-20000J0D01*
G01*
X7145000Y-8125000D02*
G75*
G03*
X7145000Y-8125000I-20000J0D01*
G01*
X7220000Y-5050000D02*
G75*
G03*
X7220000Y-5050000I-20000J0D01*
G01*
X7220000Y-5400000D02*
G75*
G03*
X7220000Y-5400000I-20000J0D01*
G01*
X7220000Y-12600000D02*
G75*
G03*
X7220000Y-12600000I-20000J0D01*
G01*
X7220000Y-12900000D02*
G75*
G03*
X7220000Y-12900000I-20000J0D01*
G01*
X7317550Y-6500000D02*
G75*
G03*
X7317550Y-6500000I-20000J0D01*
G01*
X7395000Y-6975000D02*
G75*
G03*
X7395000Y-6975000I-20000J0D01*
G01*
X7620000Y-6975000D02*
G75*
G03*
X7620000Y-6975000I-20000J0D01*
G01*
X7620000Y-12600000D02*
G75*
G03*
X7620000Y-12600000I-20000J0D01*
G01*
X7620000Y-12900000D02*
G75*
G03*
X7620000Y-12900000I-20000J0D01*
G01*
X7729900Y-6495000D02*
G75*
G03*
X7729900Y-6495000I-20000J0D01*
G01*
X7743500Y-7276500D02*
G75*
G03*
X7743500Y-7276500I-20000J0D01*
G01*
X7750000Y-6060000D02*
G75*
G03*
X7750000Y-6060000I-20000J0D01*
G01*
X7820000Y-6751000D02*
G75*
G03*
X7820000Y-6751000I-20000J0D01*
G01*
X7820000Y-8450000D02*
G75*
G03*
X7820000Y-8450000I-20000J0D01*
G01*
X7820000Y-12600000D02*
G75*
G03*
X7820000Y-12600000I-20000J0D01*
G01*
X7845000Y-7525000D02*
G75*
G03*
X7845000Y-7525000I-20000J0D01*
G01*
X7920000Y-5470000D02*
G75*
G03*
X7920000Y-5470000I-20000J0D01*
G01*
X8002298Y-7323767D02*
G75*
G03*
X8002298Y-7323767I-20000J0D01*
G01*
X8070000Y-9850000D02*
G75*
G03*
X8070000Y-9850000I-20000J0D01*
G01*
X8120000Y-5470000D02*
G75*
G03*
X8120000Y-5470000I-20000J0D01*
G01*
X8149946Y-7295054D02*
G75*
G03*
X8149946Y-7295054I-20000J0D01*
G01*
X8230000Y-6746000D02*
G75*
G03*
X8230000Y-6746000I-20000J0D01*
G01*
X8270000Y-5200000D02*
G75*
G03*
X8270000Y-5200000I-20000J0D01*
G01*
X8270000Y-5400000D02*
G75*
G03*
X8270000Y-5400000I-20000J0D01*
G01*
X8287500Y-6060000D02*
G75*
G03*
X8287500Y-6060000I-20000J0D01*
G01*
X8320000Y-12300000D02*
G75*
G03*
X8320000Y-12300000I-20000J0D01*
G01*
X8320000Y-12600000D02*
G75*
G03*
X8320000Y-12600000I-20000J0D01*
G01*
X8520000Y-7400000D02*
G75*
G03*
X8520000Y-7400000I-20000J0D01*
G01*
X8520000Y-7625000D02*
G75*
G03*
X8520000Y-7625000I-20000J0D01*
G01*
X8570000Y-5100000D02*
G75*
G03*
X8570000Y-5100000I-20000J0D01*
G01*
X8570000Y-5400000D02*
G75*
G03*
X8570000Y-5400000I-20000J0D01*
G01*
X8620000Y-12150000D02*
G75*
G03*
X8620000Y-12150000I-20000J0D01*
G01*
X8720000Y-5100000D02*
G75*
G03*
X8720000Y-5100000I-20000J0D01*
G01*
X8720000Y-5400000D02*
G75*
G03*
X8720000Y-5400000I-20000J0D01*
G01*
X8720000Y-12400000D02*
G75*
G03*
X8720000Y-12400000I-20000J0D01*
G01*
X8845000Y-6275000D02*
G75*
G03*
X8845000Y-6275000I-20000J0D01*
G01*
X8845000Y-6600000D02*
G75*
G03*
X8845000Y-6600000I-20000J0D01*
G01*
X9120000Y-9200000D02*
G75*
G03*
X9120000Y-9200000I-20000J0D01*
G01*
X9120000Y-9475000D02*
G75*
G03*
X9120000Y-9475000I-20000J0D01*
G01*
X9252500Y-6070000D02*
G75*
G03*
X9252500Y-6070000I-20000J0D01*
G01*
X9410000Y-5470000D02*
G75*
G03*
X9410000Y-5470000I-20000J0D01*
G01*
X9420000Y-9200000D02*
G75*
G03*
X9420000Y-9200000I-20000J0D01*
G01*
X9420000Y-9475000D02*
G75*
G03*
X9420000Y-9475000I-20000J0D01*
G01*
X9520000Y-7375000D02*
G75*
G03*
X9520000Y-7375000I-20000J0D01*
G01*
X9520000Y-7850000D02*
G75*
G03*
X9520000Y-7850000I-20000J0D01*
G01*
X9620000Y-5470000D02*
G75*
G03*
X9620000Y-5470000I-20000J0D01*
G01*
X9620000Y-11625000D02*
G75*
G03*
X9620000Y-11625000I-20000J0D01*
G01*
X9620000Y-12200000D02*
G75*
G03*
X9620000Y-12200000I-20000J0D01*
G01*
X9770000Y-5200000D02*
G75*
G03*
X9770000Y-5200000I-20000J0D01*
G01*
X9770000Y-5400000D02*
G75*
G03*
X9770000Y-5400000I-20000J0D01*
G01*
X9787500Y-6060000D02*
G75*
G03*
X9787500Y-6060000I-20000J0D01*
G01*
X10020000Y-5400000D02*
G75*
G03*
X10020000Y-5400000I-20000J0D01*
G01*
X10245000Y-7350000D02*
G75*
G03*
X10245000Y-7350000I-20000J0D01*
G01*
X10245000Y-7850000D02*
G75*
G03*
X10245000Y-7850000I-20000J0D01*
G01*
X10295000Y-5100000D02*
G75*
G03*
X10295000Y-5100000I-20000J0D01*
G01*
X10295000Y-5400000D02*
G75*
G03*
X10295000Y-5400000I-20000J0D01*
G01*
X10317550Y-6500000D02*
G75*
G03*
X10317550Y-6500000I-20000J0D01*
G01*
X10521230Y-8901230D02*
G75*
G03*
X10521230Y-8901230I-20000J0D01*
G01*
X10720000Y-6500000D02*
G75*
G03*
X10720000Y-6500000I-20000J0D01*
G01*
X10745000Y-10750000D02*
G75*
G03*
X10745000Y-10750000I-20000J0D01*
G01*
X10745000Y-11300000D02*
G75*
G03*
X10745000Y-11300000I-20000J0D01*
G01*
X10750000Y-6060000D02*
G75*
G03*
X10750000Y-6060000I-20000J0D01*
G01*
X10750000Y-7270000D02*
G75*
G03*
X10750000Y-7270000I-20000J0D01*
G01*
X10828000Y-6746000D02*
G75*
G03*
X10828000Y-6746000I-20000J0D01*
G01*
X10845000Y-7850000D02*
G75*
G03*
X10845000Y-7850000I-20000J0D01*
G01*
X10920000Y-5470000D02*
G75*
G03*
X10920000Y-5470000I-20000J0D01*
G01*
X10920000Y-7525000D02*
G75*
G03*
X10920000Y-7525000I-20000J0D01*
G01*
X10920000Y-7625000D02*
G75*
G03*
X10920000Y-7625000I-20000J0D01*
G01*
X10970000Y-7850000D02*
G75*
G03*
X10970000Y-7850000I-20000J0D01*
G01*
X10995000Y-10750000D02*
G75*
G03*
X10995000Y-10750000I-20000J0D01*
G01*
X10995000Y-11300000D02*
G75*
G03*
X10995000Y-11300000I-20000J0D01*
G01*
X10995000Y-12525000D02*
G75*
G03*
X10995000Y-12525000I-20000J0D01*
G01*
X10995000Y-12850000D02*
G75*
G03*
X10995000Y-12850000I-20000J0D01*
G01*
X11020000Y-7350000D02*
G75*
G03*
X11020000Y-7350000I-20000J0D01*
G01*
X11120000Y-5470000D02*
G75*
G03*
X11120000Y-5470000I-20000J0D01*
G01*
X11145000Y-7525000D02*
G75*
G03*
X11145000Y-7525000I-20000J0D01*
G01*
X11145000Y-7625000D02*
G75*
G03*
X11145000Y-7625000I-20000J0D01*
G01*
X11161446Y-7283554D02*
G75*
G03*
X11161446Y-7283554I-20000J0D01*
G01*
X11238000Y-6741000D02*
G75*
G03*
X11238000Y-6741000I-20000J0D01*
G01*
X11270000Y-5200000D02*
G75*
G03*
X11270000Y-5200000I-20000J0D01*
G01*
X11270000Y-5400000D02*
G75*
G03*
X11270000Y-5400000I-20000J0D01*
G01*
X11270000Y-10750000D02*
G75*
G03*
X11270000Y-10750000I-20000J0D01*
G01*
X11270000Y-11300000D02*
G75*
G03*
X11270000Y-11300000I-20000J0D01*
G01*
X11270000Y-12525000D02*
G75*
G03*
X11270000Y-12525000I-20000J0D01*
G01*
X11270000Y-12950000D02*
G75*
G03*
X11270000Y-12950000I-20000J0D01*
G01*
X11287500Y-6060000D02*
G75*
G03*
X11287500Y-6060000I-20000J0D01*
G01*
X11495000Y-11675000D02*
G75*
G03*
X11495000Y-11675000I-20000J0D01*
G01*
X11535000Y-7400000D02*
G75*
G03*
X11535000Y-7400000I-20000J0D01*
G01*
X12020000Y-5372450D02*
G75*
G03*
X12020000Y-5372450I-20000J0D01*
G01*
X12120000Y-9000000D02*
G75*
G03*
X12120000Y-9000000I-20000J0D01*
G01*
X12356000Y-10625000D02*
G75*
G03*
X12356000Y-10625000I-20000J0D01*
G01*
X12356000Y-10875000D02*
G75*
G03*
X12356000Y-10875000I-20000J0D01*
G01*
X12506000Y-10625000D02*
G75*
G03*
X12506000Y-10625000I-20000J0D01*
G01*
X12506000Y-10875000D02*
G75*
G03*
X12506000Y-10875000I-20000J0D01*
G01*
X12620000Y-5100000D02*
G75*
G03*
X12620000Y-5100000I-20000J0D01*
G01*
X12620000Y-5375000D02*
G75*
G03*
X12620000Y-5375000I-20000J0D01*
G01*
X12717550Y-6500000D02*
G75*
G03*
X12717550Y-6500000I-20000J0D01*
G01*
X12806000Y-11675000D02*
G75*
G03*
X12806000Y-11675000I-20000J0D01*
G01*
X12993500Y-12837500D02*
G75*
G03*
X12993500Y-12837500I-20000J0D01*
G01*
X13133700Y-6495000D02*
G75*
G03*
X13133700Y-6495000I-20000J0D01*
G01*
X13142500Y-7277500D02*
G75*
G03*
X13142500Y-7277500I-20000J0D01*
G01*
X13152500Y-6059047D02*
G75*
G03*
X13152500Y-6059047I-20000J0D01*
G01*
X13220000Y-6745000D02*
G75*
G03*
X13220000Y-6745000I-20000J0D01*
G01*
X13320000Y-5470000D02*
G75*
G03*
X13320000Y-5470000I-20000J0D01*
G01*
X13320000Y-7525000D02*
G75*
G03*
X13320000Y-7525000I-20000J0D01*
G01*
X13320000Y-7625000D02*
G75*
G03*
X13320000Y-7625000I-20000J0D01*
G01*
X13420000Y-7375000D02*
G75*
G03*
X13420000Y-7375000I-20000J0D01*
G01*
X13520000Y-5470000D02*
G75*
G03*
X13520000Y-5470000I-20000J0D01*
G01*
X13545000Y-7525000D02*
G75*
G03*
X13545000Y-7525000I-20000J0D01*
G01*
X13545000Y-7625000D02*
G75*
G03*
X13545000Y-7625000I-20000J0D01*
G01*
X13548946Y-7271054D02*
G75*
G03*
X13548946Y-7271054I-20000J0D01*
G01*
X13630000Y-6740000D02*
G75*
G03*
X13630000Y-6740000I-20000J0D01*
G01*
X13670000Y-5200000D02*
G75*
G03*
X13670000Y-5200000I-20000J0D01*
G01*
X13670000Y-5400000D02*
G75*
G03*
X13670000Y-5400000I-20000J0D01*
G01*
X13687500Y-6060000D02*
G75*
G03*
X13687500Y-6060000I-20000J0D01*
G01*
X13731000Y-10673550D02*
G75*
G03*
X13731000Y-10673550I-20000J0D01*
G01*
X13731000Y-10925000D02*
G75*
G03*
X13731000Y-10925000I-20000J0D01*
G01*
X13906000Y-10650000D02*
G75*
G03*
X13906000Y-10650000I-20000J0D01*
G01*
X13906000Y-10925000D02*
G75*
G03*
X13906000Y-10925000I-20000J0D01*
G01*
X13920000Y-7400000D02*
G75*
G03*
X13920000Y-7400000I-20000J0D01*
G01*
X13970000Y-5075000D02*
G75*
G03*
X13970000Y-5075000I-20000J0D01*
G01*
X13970000Y-5400000D02*
G75*
G03*
X13970000Y-5400000I-20000J0D01*
G01*
X14106000Y-11675000D02*
G75*
G03*
X14106000Y-11675000I-20000J0D01*
G01*
X14120000Y-9700000D02*
G75*
G03*
X14120000Y-9700000I-20000J0D01*
G01*
X14220000Y-5075000D02*
G75*
G03*
X14220000Y-5075000I-20000J0D01*
G01*
X14220000Y-5400000D02*
G75*
G03*
X14220000Y-5400000I-20000J0D01*
G01*
X14295000Y-6350000D02*
G75*
G03*
X14295000Y-6350000I-20000J0D01*
G01*
X14295000Y-6650000D02*
G75*
G03*
X14295000Y-6650000I-20000J0D01*
G01*
X14295000Y-7400000D02*
G75*
G03*
X14295000Y-7400000I-20000J0D01*
G01*
X14295000Y-7875000D02*
G75*
G03*
X14295000Y-7875000I-20000J0D01*
G01*
X14452000Y-12846000D02*
G75*
G03*
X14452000Y-12846000I-20000J0D01*
G01*
X14570000Y-7400000D02*
G75*
G03*
X14570000Y-7400000I-20000J0D01*
G01*
X14570000Y-7875000D02*
G75*
G03*
X14570000Y-7875000I-20000J0D01*
G01*
X14707500Y-6060000D02*
G75*
G03*
X14707500Y-6060000I-20000J0D01*
G01*
X14880000Y-5440000D02*
G75*
G03*
X14880000Y-5440000I-20000J0D01*
G01*
X15080000Y-5440000D02*
G75*
G03*
X15080000Y-5440000I-20000J0D01*
G01*
X15220000Y-5200000D02*
G75*
G03*
X15220000Y-5200000I-20000J0D01*
G01*
X15220000Y-5400000D02*
G75*
G03*
X15220000Y-5400000I-20000J0D01*
G01*
X15242500Y-6060000D02*
G75*
G03*
X15242500Y-6060000I-20000J0D01*
G01*
X15520000Y-5075000D02*
G75*
G03*
X15520000Y-5075000I-20000J0D01*
G01*
X15525000Y-5400000D02*
G75*
G03*
X15525000Y-5400000I-20000J0D01*
G01*
X15817550Y-6500000D02*
G75*
G03*
X15817550Y-6500000I-20000J0D01*
G01*
X15920000Y-5400000D02*
G75*
G03*
X15920000Y-5400000I-20000J0D01*
G01*
X16120000Y-9225000D02*
G75*
G03*
X16120000Y-9225000I-20000J0D01*
G01*
X16145000Y-10525000D02*
G75*
G03*
X16145000Y-10525000I-20000J0D01*
G01*
X16145000Y-11825000D02*
G75*
G03*
X16145000Y-11825000I-20000J0D01*
G01*
X16233700Y-6495000D02*
G75*
G03*
X16233700Y-6495000I-20000J0D01*
G01*
X16242500Y-7277500D02*
G75*
G03*
X16242500Y-7277500I-20000J0D01*
G01*
X16252500Y-6060000D02*
G75*
G03*
X16252500Y-6060000I-20000J0D01*
G01*
X16320000Y-6753000D02*
G75*
G03*
X16320000Y-6753000I-20000J0D01*
G01*
X16420000Y-5470000D02*
G75*
G03*
X16420000Y-5470000I-20000J0D01*
G01*
X16420000Y-7525000D02*
G75*
G03*
X16420000Y-7525000I-20000J0D01*
G01*
X16420000Y-7625000D02*
G75*
G03*
X16420000Y-7625000I-20000J0D01*
G01*
X16520000Y-7375000D02*
G75*
G03*
X16520000Y-7375000I-20000J0D01*
G01*
X16620000Y-5470000D02*
G75*
G03*
X16620000Y-5470000I-20000J0D01*
G01*
X16645000Y-7525000D02*
G75*
G03*
X16645000Y-7525000I-20000J0D01*
G01*
X16645000Y-7625000D02*
G75*
G03*
X16645000Y-7625000I-20000J0D01*
G01*
X16648946Y-7271054D02*
G75*
G03*
X16648946Y-7271054I-20000J0D01*
G01*
X16730000Y-6748000D02*
G75*
G03*
X16730000Y-6748000I-20000J0D01*
G01*
X16770000Y-5200000D02*
G75*
G03*
X16770000Y-5200000I-20000J0D01*
G01*
X16770000Y-5400000D02*
G75*
G03*
X16770000Y-5400000I-20000J0D01*
G01*
X16787500Y-6060000D02*
G75*
G03*
X16787500Y-6060000I-20000J0D01*
G01*
X16920000Y-5400000D02*
G75*
G03*
X16920000Y-5400000I-20000J0D01*
G01*
X17310000Y-11502500D02*
G75*
G03*
X17310000Y-11502500I-20000J0D01*
G01*
X17421270Y-11491230D02*
G75*
G03*
X17421270Y-11491230I-20000J0D01*
G01*
X17445000Y-6000000D02*
G75*
G03*
X17445000Y-6000000I-20000J0D01*
G01*
X17620000Y-5100000D02*
G75*
G03*
X17620000Y-5100000I-20000J0D01*
G01*
X17620000Y-5400000D02*
G75*
G03*
X17620000Y-5400000I-20000J0D01*
G01*
X17660000Y-11702500D02*
G75*
G03*
X17660000Y-11702500I-20000J0D01*
G01*
X17670000Y-6000000D02*
G75*
G03*
X17670000Y-6000000I-20000J0D01*
G01*
X17810000Y-11427500D02*
G75*
G03*
X17810000Y-11427500I-20000J0D01*
G01*
X17810000Y-11992500D02*
G75*
G03*
X17810000Y-11992500I-20000J0D01*
G01*
X17820000Y-9432500D02*
G75*
G03*
X17820000Y-9432500I-20000J0D01*
G01*
X17820000Y-9967500D02*
G75*
G03*
X17820000Y-9967500I-20000J0D01*
G01*
X17910000Y-10852500D02*
G75*
G03*
X17910000Y-10852500I-20000J0D01*
G01*
X17910000Y-11027500D02*
G75*
G03*
X17910000Y-11027500I-20000J0D01*
G01*
X17920000Y-8775000D02*
G75*
G03*
X17920000Y-8775000I-20000J0D01*
G01*
X17920000Y-8975000D02*
G75*
G03*
X17920000Y-8975000I-20000J0D01*
G01*
X18052500Y-6100000D02*
G75*
G03*
X18052500Y-6100000I-20000J0D01*
G01*
X18220000Y-5510000D02*
G75*
G03*
X18220000Y-5510000I-20000J0D01*
G01*
X18400000Y-11622500D02*
G75*
G03*
X18400000Y-11622500I-20000J0D01*
G01*
X18400000Y-11822500D02*
G75*
G03*
X18400000Y-11822500I-20000J0D01*
G01*
X18410000Y-5510000D02*
G75*
G03*
X18410000Y-5510000I-20000J0D01*
G01*
X18410000Y-9600000D02*
G75*
G03*
X18410000Y-9600000I-20000J0D01*
G01*
X18410000Y-9800000D02*
G75*
G03*
X18410000Y-9800000I-20000J0D01*
G01*
X18570000Y-5200000D02*
G75*
G03*
X18570000Y-5200000I-20000J0D01*
G01*
X18570000Y-5400000D02*
G75*
G03*
X18570000Y-5400000I-20000J0D01*
G01*
X18590000Y-6100000D02*
G75*
G03*
X18590000Y-6100000I-20000J0D01*
G01*
X19295000Y-6200000D02*
G75*
G03*
X19295000Y-6200000I-20000J0D01*
G01*
X19470000Y-5575000D02*
G75*
G03*
X19470000Y-5575000I-20000J0D01*
G01*
X19670000Y-8500000D02*
G75*
G03*
X19670000Y-8500000I-20000J0D01*
G01*
X19695000Y-9775000D02*
G75*
G03*
X19695000Y-9775000I-20000J0D01*
G01*
X19895000Y-8500000D02*
G75*
G03*
X19895000Y-8500000I-20000J0D01*
G01*
X19895000Y-9775000D02*
G75*
G03*
X19895000Y-9775000I-20000J0D01*
G01*
D14*
X19200000Y-6590000D02*
X19200000Y-6670000D01*
X19160000Y-6630000D02*
X19240000Y-6630000D01*
X19200000Y-6930000D02*
X19200000Y-7010000D01*
X19160000Y-6970000D02*
X19240000Y-6970000D01*
D15*
X5005052Y-11077052D02*
X5005052Y-11016948D01*
X4944948Y-11016948D01*
X4944948Y-11077052D01*
X5005052Y-11077052D01*
X5005052Y-11331052D02*
X5005052Y-11270948D01*
X4944948Y-11270948D01*
X4944948Y-11331052D01*
X5005052Y-11331052D01*
X5005052Y-11585052D02*
X5005052Y-11524948D01*
X4944948Y-11524948D01*
X4944948Y-11585052D01*
X5005052Y-11585052D01*
X5005052Y-11839052D02*
X5005052Y-11778948D01*
X4944948Y-11778948D01*
X4944948Y-11839052D01*
X5005052Y-11839052D01*
X5005052Y-12347052D02*
X5005052Y-12286948D01*
X4944948Y-12286948D01*
X4944948Y-12347052D01*
X5005052Y-12347052D01*
X5005052Y-12601052D02*
X5005052Y-12540948D01*
X4944948Y-12540948D01*
X4944948Y-12601052D01*
X5005052Y-12601052D01*
X5005052Y-12855052D02*
X5005052Y-12794948D01*
X4944948Y-12794948D01*
X4944948Y-12855052D01*
X5005052Y-12855052D01*
D16*
X10100000Y-12045000D02*
X10145000Y-12000000D01*
X10100000Y-11955000D01*
X10055000Y-12000000D01*
X10100000Y-12045000D01*
X10354000Y-12045000D02*
X10399000Y-12000000D01*
X10354000Y-11955000D01*
X10309000Y-12000000D01*
X10354000Y-12045000D01*
D10*
X6897500Y-9391500D02*
X6997500Y-9491500D01*
X6997500Y-9391500D02*
X6897500Y-9491500D01*
X6997500Y-9441500D02*
G75*
G03*
X6997500Y-9441500I-50000J0D01*
G01*
X6897500Y-9645500D02*
X6997500Y-9745500D01*
X6997500Y-9645500D02*
X6897500Y-9745500D01*
X6997500Y-9695500D02*
G75*
G03*
X6997500Y-9695500I-50000J0D01*
G01*
X6897500Y-9899500D02*
X6997500Y-9999500D01*
X6997500Y-9899500D02*
X6897500Y-9999500D01*
X6997500Y-9949500D02*
G75*
G03*
X6997500Y-9949500I-50000J0D01*
G01*
X6897500Y-10153500D02*
X6997500Y-10253500D01*
X6997500Y-10153500D02*
X6897500Y-10253500D01*
X6997500Y-10203500D02*
G75*
G03*
X6997500Y-10203500I-50000J0D01*
G01*
X6897500Y-10407500D02*
X6997500Y-10507500D01*
X6997500Y-10407500D02*
X6897500Y-10507500D01*
X6997500Y-10457500D02*
G75*
G03*
X6997500Y-10457500I-50000J0D01*
G01*
X7095000Y-3065000D02*
X7195000Y-3165000D01*
X7195000Y-3065000D02*
X7095000Y-3165000D01*
X7195000Y-3115000D02*
G75*
G03*
X7195000Y-3115000I-50000J0D01*
G01*
D11*
X7095000Y-3065000D02*
X7095000Y-3165000D01*
X7095000Y-3165000D02*
G75*
G03*
X7195000Y-3165000I50000J0D01*
G01*
X7195000Y-3165000D02*
X7195000Y-3065000D01*
X7195000Y-3065000D02*
G75*
G03*
X7095000Y-3065000I-50000J0D01*
G01*
D10*
X7151500Y-9391500D02*
X7251500Y-9491500D01*
X7251500Y-9391500D02*
X7151500Y-9491500D01*
X7251500Y-9441500D02*
G75*
G03*
X7251500Y-9441500I-50000J0D01*
G01*
X7151500Y-9645500D02*
X7251500Y-9745500D01*
X7251500Y-9645500D02*
X7151500Y-9745500D01*
X7251500Y-9695500D02*
G75*
G03*
X7251500Y-9695500I-50000J0D01*
G01*
X7151500Y-9899500D02*
X7251500Y-9999500D01*
X7251500Y-9899500D02*
X7151500Y-9999500D01*
X7251500Y-9949500D02*
G75*
G03*
X7251500Y-9949500I-50000J0D01*
G01*
X7151500Y-10153500D02*
X7251500Y-10253500D01*
X7251500Y-10153500D02*
X7151500Y-10253500D01*
X7251500Y-10203500D02*
G75*
G03*
X7251500Y-10203500I-50000J0D01*
G01*
X7151500Y-10407500D02*
X7251500Y-10507500D01*
X7251500Y-10407500D02*
X7151500Y-10507500D01*
X7251500Y-10457500D02*
G75*
G03*
X7251500Y-10457500I-50000J0D01*
G01*
X7450000Y-2745000D02*
X7550000Y-2845000D01*
X7550000Y-2745000D02*
X7450000Y-2845000D01*
X7550000Y-2795000D02*
G75*
G03*
X7550000Y-2795000I-50000J0D01*
G01*
D11*
X7450000Y-2845000D02*
X7550000Y-2845000D01*
X7550000Y-2845000D02*
G75*
G03*
X7550000Y-2745000I0J50000D01*
G01*
X7550000Y-2745000D02*
X7450000Y-2745000D01*
X7450000Y-2745000D02*
G75*
G03*
X7450000Y-2845000I0J-50000D01*
G01*
D10*
X7450000Y-3555000D02*
X7550000Y-3655000D01*
X7550000Y-3555000D02*
X7450000Y-3655000D01*
X7550000Y-3605000D02*
G75*
G03*
X7550000Y-3605000I-50000J0D01*
G01*
D11*
X7450000Y-3655000D02*
X7550000Y-3655000D01*
X7550000Y-3655000D02*
G75*
G03*
X7550000Y-3555000I0J50000D01*
G01*
X7550000Y-3555000D02*
X7450000Y-3555000D01*
X7450000Y-3555000D02*
G75*
G03*
X7450000Y-3655000I0J-50000D01*
G01*
D10*
X7805000Y-3065000D02*
X7905000Y-3165000D01*
X7905000Y-3065000D02*
X7805000Y-3165000D01*
X7905000Y-3115000D02*
G75*
G03*
X7905000Y-3115000I-50000J0D01*
G01*
D11*
X7805000Y-3065000D02*
X7805000Y-3165000D01*
X7805000Y-3165000D02*
G75*
G03*
X7905000Y-3165000I50000J0D01*
G01*
X7905000Y-3165000D02*
X7905000Y-3065000D01*
X7905000Y-3065000D02*
G75*
G03*
X7805000Y-3065000I-50000J0D01*
G01*
D10*
X8094000Y-3065000D02*
X8194000Y-3165000D01*
X8194000Y-3065000D02*
X8094000Y-3165000D01*
X8194000Y-3115000D02*
G75*
G03*
X8194000Y-3115000I-50000J0D01*
G01*
D11*
X8094000Y-3065000D02*
X8094000Y-3165000D01*
X8094000Y-3165000D02*
G75*
G03*
X8194000Y-3165000I50000J0D01*
G01*
X8194000Y-3165000D02*
X8194000Y-3065000D01*
X8194000Y-3065000D02*
G75*
G03*
X8094000Y-3065000I-50000J0D01*
G01*
D10*
X8449000Y-2745000D02*
X8549000Y-2845000D01*
X8549000Y-2745000D02*
X8449000Y-2845000D01*
X8549000Y-2795000D02*
G75*
G03*
X8549000Y-2795000I-50000J0D01*
G01*
D11*
X8449000Y-2845000D02*
X8549000Y-2845000D01*
X8549000Y-2845000D02*
G75*
G03*
X8549000Y-2745000I0J50000D01*
G01*
X8549000Y-2745000D02*
X8449000Y-2745000D01*
X8449000Y-2745000D02*
G75*
G03*
X8449000Y-2845000I0J-50000D01*
G01*
D10*
X8449000Y-3555000D02*
X8549000Y-3655000D01*
X8549000Y-3555000D02*
X8449000Y-3655000D01*
X8549000Y-3605000D02*
G75*
G03*
X8549000Y-3605000I-50000J0D01*
G01*
D11*
X8449000Y-3655000D02*
X8549000Y-3655000D01*
X8549000Y-3655000D02*
G75*
G03*
X8549000Y-3555000I0J50000D01*
G01*
X8549000Y-3555000D02*
X8449000Y-3555000D01*
X8449000Y-3555000D02*
G75*
G03*
X8449000Y-3655000I0J-50000D01*
G01*
D10*
X8804000Y-3065000D02*
X8904000Y-3165000D01*
X8904000Y-3065000D02*
X8804000Y-3165000D01*
X8904000Y-3115000D02*
G75*
G03*
X8904000Y-3115000I-50000J0D01*
G01*
D11*
X8804000Y-3065000D02*
X8804000Y-3165000D01*
X8804000Y-3165000D02*
G75*
G03*
X8904000Y-3165000I50000J0D01*
G01*
X8904000Y-3165000D02*
X8904000Y-3065000D01*
X8904000Y-3065000D02*
G75*
G03*
X8804000Y-3065000I-50000J0D01*
G01*
D10*
X9095000Y-3065000D02*
X9195000Y-3165000D01*
X9195000Y-3065000D02*
X9095000Y-3165000D01*
X9195000Y-3115000D02*
G75*
G03*
X9195000Y-3115000I-50000J0D01*
G01*
D11*
X9095000Y-3065000D02*
X9095000Y-3165000D01*
X9095000Y-3165000D02*
G75*
G03*
X9195000Y-3165000I50000J0D01*
G01*
X9195000Y-3165000D02*
X9195000Y-3065000D01*
X9195000Y-3065000D02*
G75*
G03*
X9095000Y-3065000I-50000J0D01*
G01*
D10*
X9450000Y-2745000D02*
X9550000Y-2845000D01*
X9550000Y-2745000D02*
X9450000Y-2845000D01*
X9550000Y-2795000D02*
G75*
G03*
X9550000Y-2795000I-50000J0D01*
G01*
D11*
X9450000Y-2845000D02*
X9550000Y-2845000D01*
X9550000Y-2845000D02*
G75*
G03*
X9550000Y-2745000I0J50000D01*
G01*
X9550000Y-2745000D02*
X9450000Y-2745000D01*
X9450000Y-2745000D02*
G75*
G03*
X9450000Y-2845000I0J-50000D01*
G01*
D10*
X9450000Y-3555000D02*
X9550000Y-3655000D01*
X9550000Y-3555000D02*
X9450000Y-3655000D01*
X9550000Y-3605000D02*
G75*
G03*
X9550000Y-3605000I-50000J0D01*
G01*
D11*
X9450000Y-3655000D02*
X9550000Y-3655000D01*
X9550000Y-3655000D02*
G75*
G03*
X9550000Y-3555000I0J50000D01*
G01*
X9550000Y-3555000D02*
X9450000Y-3555000D01*
X9450000Y-3555000D02*
G75*
G03*
X9450000Y-3655000I0J-50000D01*
G01*
D10*
X9595000Y-4465000D02*
X9695000Y-4565000D01*
X9695000Y-4465000D02*
X9595000Y-4565000D01*
X9695000Y-4515000D02*
G75*
G03*
X9695000Y-4515000I-50000J0D01*
G01*
D11*
X9595000Y-4465000D02*
X9595000Y-4565000D01*
X9595000Y-4565000D02*
G75*
G03*
X9695000Y-4565000I50000J0D01*
G01*
X9695000Y-4565000D02*
X9695000Y-4465000D01*
X9695000Y-4465000D02*
G75*
G03*
X9595000Y-4465000I-50000J0D01*
G01*
D10*
X9805000Y-3065000D02*
X9905000Y-3165000D01*
X9905000Y-3065000D02*
X9805000Y-3165000D01*
X9905000Y-3115000D02*
G75*
G03*
X9905000Y-3115000I-50000J0D01*
G01*
D11*
X9805000Y-3065000D02*
X9805000Y-3165000D01*
X9805000Y-3165000D02*
G75*
G03*
X9905000Y-3165000I50000J0D01*
G01*
X9905000Y-3165000D02*
X9905000Y-3065000D01*
X9905000Y-3065000D02*
G75*
G03*
X9805000Y-3065000I-50000J0D01*
G01*
D10*
X9950000Y-4145000D02*
X10050000Y-4245000D01*
X10050000Y-4145000D02*
X9950000Y-4245000D01*
X10050000Y-4195000D02*
G75*
G03*
X10050000Y-4195000I-50000J0D01*
G01*
D11*
X9950000Y-4245000D02*
X10050000Y-4245000D01*
X10050000Y-4245000D02*
G75*
G03*
X10050000Y-4145000I0J50000D01*
G01*
X10050000Y-4145000D02*
X9950000Y-4145000D01*
X9950000Y-4145000D02*
G75*
G03*
X9950000Y-4245000I0J-50000D01*
G01*
D10*
X9950000Y-4955000D02*
X10050000Y-5055000D01*
X10050000Y-4955000D02*
X9950000Y-5055000D01*
X10050000Y-5005000D02*
G75*
G03*
X10050000Y-5005000I-50000J0D01*
G01*
D11*
X9950000Y-5055000D02*
X10050000Y-5055000D01*
X10050000Y-5055000D02*
G75*
G03*
X10050000Y-4955000I0J50000D01*
G01*
X10050000Y-4955000D02*
X9950000Y-4955000D01*
X9950000Y-4955000D02*
G75*
G03*
X9950000Y-5055000I0J-50000D01*
G01*
D10*
X10305000Y-4465000D02*
X10405000Y-4565000D01*
X10405000Y-4465000D02*
X10305000Y-4565000D01*
X10405000Y-4515000D02*
G75*
G03*
X10405000Y-4515000I-50000J0D01*
G01*
D11*
X10305000Y-4465000D02*
X10305000Y-4565000D01*
X10305000Y-4565000D02*
G75*
G03*
X10405000Y-4565000I50000J0D01*
G01*
X10405000Y-4565000D02*
X10405000Y-4465000D01*
X10405000Y-4465000D02*
G75*
G03*
X10305000Y-4465000I-50000J0D01*
G01*
D10*
X10595000Y-4465000D02*
X10695000Y-4565000D01*
X10695000Y-4465000D02*
X10595000Y-4565000D01*
X10695000Y-4515000D02*
G75*
G03*
X10695000Y-4515000I-50000J0D01*
G01*
D11*
X10595000Y-4465000D02*
X10595000Y-4565000D01*
X10595000Y-4565000D02*
G75*
G03*
X10695000Y-4565000I50000J0D01*
G01*
X10695000Y-4565000D02*
X10695000Y-4465000D01*
X10695000Y-4465000D02*
G75*
G03*
X10595000Y-4465000I-50000J0D01*
G01*
D10*
X10950000Y-4145000D02*
X11050000Y-4245000D01*
X11050000Y-4145000D02*
X10950000Y-4245000D01*
X11050000Y-4195000D02*
G75*
G03*
X11050000Y-4195000I-50000J0D01*
G01*
D11*
X10950000Y-4245000D02*
X11050000Y-4245000D01*
X11050000Y-4245000D02*
G75*
G03*
X11050000Y-4145000I0J50000D01*
G01*
X11050000Y-4145000D02*
X10950000Y-4145000D01*
X10950000Y-4145000D02*
G75*
G03*
X10950000Y-4245000I0J-50000D01*
G01*
D10*
X10950000Y-4955000D02*
X11050000Y-5055000D01*
X11050000Y-4955000D02*
X10950000Y-5055000D01*
X11050000Y-5005000D02*
G75*
G03*
X11050000Y-5005000I-50000J0D01*
G01*
D11*
X10950000Y-5055000D02*
X11050000Y-5055000D01*
X11050000Y-5055000D02*
G75*
G03*
X11050000Y-4955000I0J50000D01*
G01*
X11050000Y-4955000D02*
X10950000Y-4955000D01*
X10950000Y-4955000D02*
G75*
G03*
X10950000Y-5055000I0J-50000D01*
G01*
D10*
X11305000Y-4465000D02*
X11405000Y-4565000D01*
X11405000Y-4465000D02*
X11305000Y-4565000D01*
X11405000Y-4515000D02*
G75*
G03*
X11405000Y-4515000I-50000J0D01*
G01*
D11*
X11305000Y-4465000D02*
X11305000Y-4565000D01*
X11305000Y-4565000D02*
G75*
G03*
X11405000Y-4565000I50000J0D01*
G01*
X11405000Y-4565000D02*
X11405000Y-4465000D01*
X11405000Y-4465000D02*
G75*
G03*
X11305000Y-4465000I-50000J0D01*
G01*
D10*
X11428500Y-12350000D02*
X11528500Y-12450000D01*
X11528500Y-12350000D02*
X11428500Y-12450000D01*
X11528500Y-12400000D02*
G75*
G03*
X11528500Y-12400000I-50000J0D01*
G01*
X11542000Y-7875000D02*
X11642000Y-7975000D01*
X11642000Y-7875000D02*
X11542000Y-7975000D01*
X11642000Y-7925000D02*
G75*
G03*
X11642000Y-7925000I-50000J0D01*
G01*
X11595000Y-4465000D02*
X11695000Y-4565000D01*
X11695000Y-4465000D02*
X11595000Y-4565000D01*
X11695000Y-4515000D02*
G75*
G03*
X11695000Y-4515000I-50000J0D01*
G01*
D11*
X11595000Y-4465000D02*
X11595000Y-4565000D01*
X11595000Y-4565000D02*
G75*
G03*
X11695000Y-4565000I50000J0D01*
G01*
X11695000Y-4565000D02*
X11695000Y-4465000D01*
X11695000Y-4465000D02*
G75*
G03*
X11595000Y-4465000I-50000J0D01*
G01*
D10*
X11682500Y-12350000D02*
X11782500Y-12450000D01*
X11782500Y-12350000D02*
X11682500Y-12450000D01*
X11782500Y-12400000D02*
G75*
G03*
X11782500Y-12400000I-50000J0D01*
G01*
X11796000Y-7875000D02*
X11896000Y-7975000D01*
X11896000Y-7875000D02*
X11796000Y-7975000D01*
X11896000Y-7925000D02*
G75*
G03*
X11896000Y-7925000I-50000J0D01*
G01*
X11936500Y-12350000D02*
X12036500Y-12450000D01*
X12036500Y-12350000D02*
X11936500Y-12450000D01*
X12036500Y-12400000D02*
G75*
G03*
X12036500Y-12400000I-50000J0D01*
G01*
X11950000Y-4145000D02*
X12050000Y-4245000D01*
X12050000Y-4145000D02*
X11950000Y-4245000D01*
X12050000Y-4195000D02*
G75*
G03*
X12050000Y-4195000I-50000J0D01*
G01*
D11*
X11950000Y-4245000D02*
X12050000Y-4245000D01*
X12050000Y-4245000D02*
G75*
G03*
X12050000Y-4145000I0J50000D01*
G01*
X12050000Y-4145000D02*
X11950000Y-4145000D01*
X11950000Y-4145000D02*
G75*
G03*
X11950000Y-4245000I0J-50000D01*
G01*
D10*
X11950000Y-4955000D02*
X12050000Y-5055000D01*
X12050000Y-4955000D02*
X11950000Y-5055000D01*
X12050000Y-5005000D02*
G75*
G03*
X12050000Y-5005000I-50000J0D01*
G01*
D11*
X11950000Y-5055000D02*
X12050000Y-5055000D01*
X12050000Y-5055000D02*
G75*
G03*
X12050000Y-4955000I0J50000D01*
G01*
X12050000Y-4955000D02*
X11950000Y-4955000D01*
X11950000Y-4955000D02*
G75*
G03*
X11950000Y-5055000I0J-50000D01*
G01*
D10*
X11995000Y-3065000D02*
X12095000Y-3165000D01*
X12095000Y-3065000D02*
X11995000Y-3165000D01*
X12095000Y-3115000D02*
G75*
G03*
X12095000Y-3115000I-50000J0D01*
G01*
D11*
X11995000Y-3065000D02*
X11995000Y-3165000D01*
X11995000Y-3165000D02*
G75*
G03*
X12095000Y-3165000I50000J0D01*
G01*
X12095000Y-3165000D02*
X12095000Y-3065000D01*
X12095000Y-3065000D02*
G75*
G03*
X11995000Y-3065000I-50000J0D01*
G01*
D10*
X12050000Y-7875000D02*
X12150000Y-7975000D01*
X12150000Y-7875000D02*
X12050000Y-7975000D01*
X12150000Y-7925000D02*
G75*
G03*
X12150000Y-7925000I-50000J0D01*
G01*
X12190500Y-12350000D02*
X12290500Y-12450000D01*
X12290500Y-12350000D02*
X12190500Y-12450000D01*
X12290500Y-12400000D02*
G75*
G03*
X12290500Y-12400000I-50000J0D01*
G01*
X12304000Y-7875000D02*
X12404000Y-7975000D01*
X12404000Y-7875000D02*
X12304000Y-7975000D01*
X12404000Y-7925000D02*
G75*
G03*
X12404000Y-7925000I-50000J0D01*
G01*
X12305000Y-4465000D02*
X12405000Y-4565000D01*
X12405000Y-4465000D02*
X12305000Y-4565000D01*
X12405000Y-4515000D02*
G75*
G03*
X12405000Y-4515000I-50000J0D01*
G01*
D11*
X12305000Y-4465000D02*
X12305000Y-4565000D01*
X12305000Y-4565000D02*
G75*
G03*
X12405000Y-4565000I50000J0D01*
G01*
X12405000Y-4565000D02*
X12405000Y-4465000D01*
X12405000Y-4465000D02*
G75*
G03*
X12305000Y-4465000I-50000J0D01*
G01*
D10*
X12350000Y-2745000D02*
X12450000Y-2845000D01*
X12450000Y-2745000D02*
X12350000Y-2845000D01*
X12450000Y-2795000D02*
G75*
G03*
X12450000Y-2795000I-50000J0D01*
G01*
D11*
X12350000Y-2845000D02*
X12450000Y-2845000D01*
X12450000Y-2845000D02*
G75*
G03*
X12450000Y-2745000I0J50000D01*
G01*
X12450000Y-2745000D02*
X12350000Y-2745000D01*
X12350000Y-2745000D02*
G75*
G03*
X12350000Y-2845000I0J-50000D01*
G01*
D10*
X12350000Y-3555000D02*
X12450000Y-3655000D01*
X12450000Y-3555000D02*
X12350000Y-3655000D01*
X12450000Y-3605000D02*
G75*
G03*
X12450000Y-3605000I-50000J0D01*
G01*
D11*
X12350000Y-3655000D02*
X12450000Y-3655000D01*
X12450000Y-3655000D02*
G75*
G03*
X12450000Y-3555000I0J50000D01*
G01*
X12450000Y-3555000D02*
X12350000Y-3555000D01*
X12350000Y-3555000D02*
G75*
G03*
X12350000Y-3655000I0J-50000D01*
G01*
D10*
X12444500Y-12350000D02*
X12544500Y-12450000D01*
X12544500Y-12350000D02*
X12444500Y-12450000D01*
X12544500Y-12400000D02*
G75*
G03*
X12544500Y-12400000I-50000J0D01*
G01*
X12558000Y-7875000D02*
X12658000Y-7975000D01*
X12658000Y-7875000D02*
X12558000Y-7975000D01*
X12658000Y-7925000D02*
G75*
G03*
X12658000Y-7925000I-50000J0D01*
G01*
X12705000Y-3065000D02*
X12805000Y-3165000D01*
X12805000Y-3065000D02*
X12705000Y-3165000D01*
X12805000Y-3115000D02*
G75*
G03*
X12805000Y-3115000I-50000J0D01*
G01*
D11*
X12705000Y-3065000D02*
X12705000Y-3165000D01*
X12705000Y-3165000D02*
G75*
G03*
X12805000Y-3165000I50000J0D01*
G01*
X12805000Y-3165000D02*
X12805000Y-3065000D01*
X12805000Y-3065000D02*
G75*
G03*
X12705000Y-3065000I-50000J0D01*
G01*
D10*
X12812000Y-7875000D02*
X12912000Y-7975000D01*
X12912000Y-7875000D02*
X12812000Y-7975000D01*
X12912000Y-7925000D02*
G75*
G03*
X12912000Y-7925000I-50000J0D01*
G01*
X12928000Y-12350000D02*
X13028000Y-12450000D01*
X13028000Y-12350000D02*
X12928000Y-12450000D01*
X13028000Y-12400000D02*
G75*
G03*
X13028000Y-12400000I-50000J0D01*
G01*
X12995000Y-3065000D02*
X13095000Y-3165000D01*
X13095000Y-3065000D02*
X12995000Y-3165000D01*
X13095000Y-3115000D02*
G75*
G03*
X13095000Y-3115000I-50000J0D01*
G01*
D11*
X12995000Y-3065000D02*
X12995000Y-3165000D01*
X12995000Y-3165000D02*
G75*
G03*
X13095000Y-3165000I50000J0D01*
G01*
X13095000Y-3165000D02*
X13095000Y-3065000D01*
X13095000Y-3065000D02*
G75*
G03*
X12995000Y-3065000I-50000J0D01*
G01*
D10*
X13066000Y-7875000D02*
X13166000Y-7975000D01*
X13166000Y-7875000D02*
X13066000Y-7975000D01*
X13166000Y-7925000D02*
G75*
G03*
X13166000Y-7925000I-50000J0D01*
G01*
X13182000Y-12350000D02*
X13282000Y-12450000D01*
X13282000Y-12350000D02*
X13182000Y-12450000D01*
X13282000Y-12400000D02*
G75*
G03*
X13282000Y-12400000I-50000J0D01*
G01*
X13350000Y-2745000D02*
X13450000Y-2845000D01*
X13450000Y-2745000D02*
X13350000Y-2845000D01*
X13450000Y-2795000D02*
G75*
G03*
X13450000Y-2795000I-50000J0D01*
G01*
D11*
X13350000Y-2845000D02*
X13450000Y-2845000D01*
X13450000Y-2845000D02*
G75*
G03*
X13450000Y-2745000I0J50000D01*
G01*
X13450000Y-2745000D02*
X13350000Y-2745000D01*
X13350000Y-2745000D02*
G75*
G03*
X13350000Y-2845000I0J-50000D01*
G01*
D10*
X13350000Y-3555000D02*
X13450000Y-3655000D01*
X13450000Y-3555000D02*
X13350000Y-3655000D01*
X13450000Y-3605000D02*
G75*
G03*
X13450000Y-3605000I-50000J0D01*
G01*
D11*
X13350000Y-3655000D02*
X13450000Y-3655000D01*
X13450000Y-3655000D02*
G75*
G03*
X13450000Y-3555000I0J50000D01*
G01*
X13450000Y-3555000D02*
X13350000Y-3555000D01*
X13350000Y-3555000D02*
G75*
G03*
X13350000Y-3655000I0J-50000D01*
G01*
D10*
X13436000Y-12350000D02*
X13536000Y-12450000D01*
X13536000Y-12350000D02*
X13436000Y-12450000D01*
X13536000Y-12400000D02*
G75*
G03*
X13536000Y-12400000I-50000J0D01*
G01*
X13690000Y-12350000D02*
X13790000Y-12450000D01*
X13790000Y-12350000D02*
X13690000Y-12450000D01*
X13790000Y-12400000D02*
G75*
G03*
X13790000Y-12400000I-50000J0D01*
G01*
X13705000Y-3065000D02*
X13805000Y-3165000D01*
X13805000Y-3065000D02*
X13705000Y-3165000D01*
X13805000Y-3115000D02*
G75*
G03*
X13805000Y-3115000I-50000J0D01*
G01*
D11*
X13705000Y-3065000D02*
X13705000Y-3165000D01*
X13705000Y-3165000D02*
G75*
G03*
X13805000Y-3165000I50000J0D01*
G01*
X13805000Y-3165000D02*
X13805000Y-3065000D01*
X13805000Y-3065000D02*
G75*
G03*
X13705000Y-3065000I-50000J0D01*
G01*
D10*
X13944000Y-12350000D02*
X14044000Y-12450000D01*
X14044000Y-12350000D02*
X13944000Y-12450000D01*
X14044000Y-12400000D02*
G75*
G03*
X14044000Y-12400000I-50000J0D01*
G01*
X13995000Y-3065000D02*
X14095000Y-3165000D01*
X14095000Y-3065000D02*
X13995000Y-3165000D01*
X14095000Y-3115000D02*
G75*
G03*
X14095000Y-3115000I-50000J0D01*
G01*
D11*
X13995000Y-3065000D02*
X13995000Y-3165000D01*
X13995000Y-3165000D02*
G75*
G03*
X14095000Y-3165000I50000J0D01*
G01*
X14095000Y-3165000D02*
X14095000Y-3065000D01*
X14095000Y-3065000D02*
G75*
G03*
X13995000Y-3065000I-50000J0D01*
G01*
D10*
X14350000Y-2745000D02*
X14450000Y-2845000D01*
X14450000Y-2745000D02*
X14350000Y-2845000D01*
X14450000Y-2795000D02*
G75*
G03*
X14450000Y-2795000I-50000J0D01*
G01*
D11*
X14350000Y-2845000D02*
X14450000Y-2845000D01*
X14450000Y-2845000D02*
G75*
G03*
X14450000Y-2745000I0J50000D01*
G01*
X14450000Y-2745000D02*
X14350000Y-2745000D01*
X14350000Y-2745000D02*
G75*
G03*
X14350000Y-2845000I0J-50000D01*
G01*
D10*
X14350000Y-3555000D02*
X14450000Y-3655000D01*
X14450000Y-3555000D02*
X14350000Y-3655000D01*
X14450000Y-3605000D02*
G75*
G03*
X14450000Y-3605000I-50000J0D01*
G01*
D11*
X14350000Y-3655000D02*
X14450000Y-3655000D01*
X14450000Y-3655000D02*
G75*
G03*
X14450000Y-3555000I0J50000D01*
G01*
X14450000Y-3555000D02*
X14350000Y-3555000D01*
X14350000Y-3555000D02*
G75*
G03*
X14350000Y-3655000I0J-50000D01*
G01*
D10*
X14382000Y-12350000D02*
X14482000Y-12450000D01*
X14482000Y-12350000D02*
X14382000Y-12450000D01*
X14482000Y-12400000D02*
G75*
G03*
X14482000Y-12400000I-50000J0D01*
G01*
X14495000Y-4465000D02*
X14595000Y-4565000D01*
X14595000Y-4465000D02*
X14495000Y-4565000D01*
X14595000Y-4515000D02*
G75*
G03*
X14595000Y-4515000I-50000J0D01*
G01*
D11*
X14495000Y-4465000D02*
X14495000Y-4565000D01*
X14495000Y-4565000D02*
G75*
G03*
X14595000Y-4565000I50000J0D01*
G01*
X14595000Y-4565000D02*
X14595000Y-4465000D01*
X14595000Y-4465000D02*
G75*
G03*
X14495000Y-4465000I-50000J0D01*
G01*
D10*
X14636000Y-12350000D02*
X14736000Y-12450000D01*
X14736000Y-12350000D02*
X14636000Y-12450000D01*
X14736000Y-12400000D02*
G75*
G03*
X14736000Y-12400000I-50000J0D01*
G01*
X14705000Y-3065000D02*
X14805000Y-3165000D01*
X14805000Y-3065000D02*
X14705000Y-3165000D01*
X14805000Y-3115000D02*
G75*
G03*
X14805000Y-3115000I-50000J0D01*
G01*
D11*
X14705000Y-3065000D02*
X14705000Y-3165000D01*
X14705000Y-3165000D02*
G75*
G03*
X14805000Y-3165000I50000J0D01*
G01*
X14805000Y-3165000D02*
X14805000Y-3065000D01*
X14805000Y-3065000D02*
G75*
G03*
X14705000Y-3065000I-50000J0D01*
G01*
D10*
X14850000Y-4145000D02*
X14950000Y-4245000D01*
X14950000Y-4145000D02*
X14850000Y-4245000D01*
X14950000Y-4195000D02*
G75*
G03*
X14950000Y-4195000I-50000J0D01*
G01*
D11*
X14850000Y-4245000D02*
X14950000Y-4245000D01*
X14950000Y-4245000D02*
G75*
G03*
X14950000Y-4145000I0J50000D01*
G01*
X14950000Y-4145000D02*
X14850000Y-4145000D01*
X14850000Y-4145000D02*
G75*
G03*
X14850000Y-4245000I0J-50000D01*
G01*
D10*
X14850000Y-4955000D02*
X14950000Y-5055000D01*
X14950000Y-4955000D02*
X14850000Y-5055000D01*
X14950000Y-5005000D02*
G75*
G03*
X14950000Y-5005000I-50000J0D01*
G01*
D11*
X14850000Y-5055000D02*
X14950000Y-5055000D01*
X14950000Y-5055000D02*
G75*
G03*
X14950000Y-4955000I0J50000D01*
G01*
X14950000Y-4955000D02*
X14850000Y-4955000D01*
X14850000Y-4955000D02*
G75*
G03*
X14850000Y-5055000I0J-50000D01*
G01*
D10*
X14890000Y-12350000D02*
X14990000Y-12450000D01*
X14990000Y-12350000D02*
X14890000Y-12450000D01*
X14990000Y-12400000D02*
G75*
G03*
X14990000Y-12400000I-50000J0D01*
G01*
X15144000Y-12350000D02*
X15244000Y-12450000D01*
X15244000Y-12350000D02*
X15144000Y-12450000D01*
X15244000Y-12400000D02*
G75*
G03*
X15244000Y-12400000I-50000J0D01*
G01*
X15205000Y-4465000D02*
X15305000Y-4565000D01*
X15305000Y-4465000D02*
X15205000Y-4565000D01*
X15305000Y-4515000D02*
G75*
G03*
X15305000Y-4515000I-50000J0D01*
G01*
D11*
X15205000Y-4465000D02*
X15205000Y-4565000D01*
X15205000Y-4565000D02*
G75*
G03*
X15305000Y-4565000I50000J0D01*
G01*
X15305000Y-4565000D02*
X15305000Y-4465000D01*
X15305000Y-4465000D02*
G75*
G03*
X15205000Y-4465000I-50000J0D01*
G01*
D10*
X15398000Y-12350000D02*
X15498000Y-12450000D01*
X15498000Y-12350000D02*
X15398000Y-12450000D01*
X15498000Y-12400000D02*
G75*
G03*
X15498000Y-12400000I-50000J0D01*
G01*
X15495000Y-4465000D02*
X15595000Y-4565000D01*
X15595000Y-4465000D02*
X15495000Y-4565000D01*
X15595000Y-4515000D02*
G75*
G03*
X15595000Y-4515000I-50000J0D01*
G01*
D11*
X15495000Y-4465000D02*
X15495000Y-4565000D01*
X15495000Y-4565000D02*
G75*
G03*
X15595000Y-4565000I50000J0D01*
G01*
X15595000Y-4565000D02*
X15595000Y-4465000D01*
X15595000Y-4465000D02*
G75*
G03*
X15495000Y-4465000I-50000J0D01*
G01*
D10*
X15677500Y-8923250D02*
X15777500Y-9023250D01*
X15777500Y-8923250D02*
X15677500Y-9023250D01*
X15777500Y-8973250D02*
G75*
G03*
X15777500Y-8973250I-50000J0D01*
G01*
X15677500Y-9173250D02*
X15777500Y-9273250D01*
X15777500Y-9173250D02*
X15677500Y-9273250D01*
X15777500Y-9223250D02*
G75*
G03*
X15777500Y-9223250I-50000J0D01*
G01*
X15677500Y-9423250D02*
X15777500Y-9523250D01*
X15777500Y-9423250D02*
X15677500Y-9523250D01*
X15777500Y-9473250D02*
G75*
G03*
X15777500Y-9473250I-50000J0D01*
G01*
X15677500Y-10233250D02*
X15777500Y-10333250D01*
X15777500Y-10233250D02*
X15677500Y-10333250D01*
X15777500Y-10283250D02*
G75*
G03*
X15777500Y-10283250I-50000J0D01*
G01*
X15677500Y-10483250D02*
X15777500Y-10583250D01*
X15777500Y-10483250D02*
X15677500Y-10583250D01*
X15777500Y-10533250D02*
G75*
G03*
X15777500Y-10533250I-50000J0D01*
G01*
X15677500Y-10733250D02*
X15777500Y-10833250D01*
X15777500Y-10733250D02*
X15677500Y-10833250D01*
X15777500Y-10783250D02*
G75*
G03*
X15777500Y-10783250I-50000J0D01*
G01*
X15677500Y-11533250D02*
X15777500Y-11633250D01*
X15777500Y-11533250D02*
X15677500Y-11633250D01*
X15777500Y-11583250D02*
G75*
G03*
X15777500Y-11583250I-50000J0D01*
G01*
X15677500Y-11783250D02*
X15777500Y-11883250D01*
X15777500Y-11783250D02*
X15677500Y-11883250D01*
X15777500Y-11833250D02*
G75*
G03*
X15777500Y-11833250I-50000J0D01*
G01*
X15677500Y-12033250D02*
X15777500Y-12133250D01*
X15777500Y-12033250D02*
X15677500Y-12133250D01*
X15777500Y-12083250D02*
G75*
G03*
X15777500Y-12083250I-50000J0D01*
G01*
X15850000Y-4145000D02*
X15950000Y-4245000D01*
X15950000Y-4145000D02*
X15850000Y-4245000D01*
X15950000Y-4195000D02*
G75*
G03*
X15950000Y-4195000I-50000J0D01*
G01*
D11*
X15850000Y-4245000D02*
X15950000Y-4245000D01*
X15950000Y-4245000D02*
G75*
G03*
X15950000Y-4145000I0J50000D01*
G01*
X15950000Y-4145000D02*
X15850000Y-4145000D01*
X15850000Y-4145000D02*
G75*
G03*
X15850000Y-4245000I0J-50000D01*
G01*
D10*
X15850000Y-4955000D02*
X15950000Y-5055000D01*
X15950000Y-4955000D02*
X15850000Y-5055000D01*
X15950000Y-5005000D02*
G75*
G03*
X15950000Y-5005000I-50000J0D01*
G01*
D11*
X15850000Y-5055000D02*
X15950000Y-5055000D01*
X15950000Y-5055000D02*
G75*
G03*
X15950000Y-4955000I0J50000D01*
G01*
X15950000Y-4955000D02*
X15850000Y-4955000D01*
X15850000Y-4955000D02*
G75*
G03*
X15850000Y-5055000I0J-50000D01*
G01*
D10*
X16205000Y-4465000D02*
X16305000Y-4565000D01*
X16305000Y-4465000D02*
X16205000Y-4565000D01*
X16305000Y-4515000D02*
G75*
G03*
X16305000Y-4515000I-50000J0D01*
G01*
D11*
X16205000Y-4465000D02*
X16205000Y-4565000D01*
X16205000Y-4565000D02*
G75*
G03*
X16305000Y-4565000I50000J0D01*
G01*
X16305000Y-4565000D02*
X16305000Y-4465000D01*
X16305000Y-4465000D02*
G75*
G03*
X16205000Y-4465000I-50000J0D01*
G01*
D10*
X16495000Y-4465000D02*
X16595000Y-4565000D01*
X16595000Y-4465000D02*
X16495000Y-4565000D01*
X16595000Y-4515000D02*
G75*
G03*
X16595000Y-4515000I-50000J0D01*
G01*
D11*
X16495000Y-4465000D02*
X16495000Y-4565000D01*
X16495000Y-4565000D02*
G75*
G03*
X16595000Y-4565000I50000J0D01*
G01*
X16595000Y-4565000D02*
X16595000Y-4465000D01*
X16595000Y-4465000D02*
G75*
G03*
X16495000Y-4465000I-50000J0D01*
G01*
D10*
X16850000Y-4145000D02*
X16950000Y-4245000D01*
X16950000Y-4145000D02*
X16850000Y-4245000D01*
X16950000Y-4195000D02*
G75*
G03*
X16950000Y-4195000I-50000J0D01*
G01*
D11*
X16850000Y-4245000D02*
X16950000Y-4245000D01*
X16950000Y-4245000D02*
G75*
G03*
X16950000Y-4145000I0J50000D01*
G01*
X16950000Y-4145000D02*
X16850000Y-4145000D01*
X16850000Y-4145000D02*
G75*
G03*
X16850000Y-4245000I0J-50000D01*
G01*
D10*
X16850000Y-4955000D02*
X16950000Y-5055000D01*
X16950000Y-4955000D02*
X16850000Y-5055000D01*
X16950000Y-5005000D02*
G75*
G03*
X16950000Y-5005000I-50000J0D01*
G01*
D11*
X16850000Y-5055000D02*
X16950000Y-5055000D01*
X16950000Y-5055000D02*
G75*
G03*
X16950000Y-4955000I0J50000D01*
G01*
X16950000Y-4955000D02*
X16850000Y-4955000D01*
X16850000Y-4955000D02*
G75*
G03*
X16850000Y-5055000I0J-50000D01*
G01*
D10*
X17205000Y-4465000D02*
X17305000Y-4565000D01*
X17305000Y-4465000D02*
X17205000Y-4565000D01*
X17305000Y-4515000D02*
G75*
G03*
X17305000Y-4515000I-50000J0D01*
G01*
D11*
X17205000Y-4465000D02*
X17205000Y-4565000D01*
X17205000Y-4565000D02*
G75*
G03*
X17305000Y-4565000I50000J0D01*
G01*
X17305000Y-4565000D02*
X17305000Y-4465000D01*
X17305000Y-4465000D02*
G75*
G03*
X17205000Y-4465000I-50000J0D01*
G01*
D10*
X17995000Y-3165000D02*
X18095000Y-3265000D01*
X18095000Y-3165000D02*
X17995000Y-3265000D01*
X18095000Y-3215000D02*
G75*
G03*
X18095000Y-3215000I-50000J0D01*
G01*
D11*
X17995000Y-3165000D02*
X17995000Y-3265000D01*
X17995000Y-3265000D02*
G75*
G03*
X18095000Y-3265000I50000J0D01*
G01*
X18095000Y-3265000D02*
X18095000Y-3165000D01*
X18095000Y-3165000D02*
G75*
G03*
X17995000Y-3165000I-50000J0D01*
G01*
D10*
X18350000Y-2845000D02*
X18450000Y-2945000D01*
X18450000Y-2845000D02*
X18350000Y-2945000D01*
X18450000Y-2895000D02*
G75*
G03*
X18450000Y-2895000I-50000J0D01*
G01*
D11*
X18350000Y-2945000D02*
X18450000Y-2945000D01*
X18450000Y-2945000D02*
G75*
G03*
X18450000Y-2845000I0J50000D01*
G01*
X18450000Y-2845000D02*
X18350000Y-2845000D01*
X18350000Y-2845000D02*
G75*
G03*
X18350000Y-2945000I0J-50000D01*
G01*
D10*
X18350000Y-3655000D02*
X18450000Y-3755000D01*
X18450000Y-3655000D02*
X18350000Y-3755000D01*
X18450000Y-3705000D02*
G75*
G03*
X18450000Y-3705000I-50000J0D01*
G01*
D11*
X18350000Y-3755000D02*
X18450000Y-3755000D01*
X18450000Y-3755000D02*
G75*
G03*
X18450000Y-3655000I0J50000D01*
G01*
X18450000Y-3655000D02*
X18350000Y-3655000D01*
X18350000Y-3655000D02*
G75*
G03*
X18350000Y-3755000I0J-50000D01*
G01*
D10*
X18635000Y-10460000D02*
X18735000Y-10560000D01*
X18735000Y-10460000D02*
X18635000Y-10560000D01*
X18735000Y-10510000D02*
G75*
G03*
X18735000Y-10510000I-50000J0D01*
G01*
D11*
X18635000Y-10460000D02*
X18635000Y-10560000D01*
X18635000Y-10560000D02*
G75*
G03*
X18735000Y-10560000I50000J0D01*
G01*
X18735000Y-10560000D02*
X18735000Y-10460000D01*
X18735000Y-10460000D02*
G75*
G03*
X18635000Y-10460000I-50000J0D01*
G01*
D10*
X18635000Y-11760000D02*
X18735000Y-11860000D01*
X18735000Y-11760000D02*
X18635000Y-11860000D01*
X18735000Y-11810000D02*
G75*
G03*
X18735000Y-11810000I-50000J0D01*
G01*
D11*
X18635000Y-11760000D02*
X18635000Y-11860000D01*
X18635000Y-11860000D02*
G75*
G03*
X18735000Y-11860000I50000J0D01*
G01*
X18735000Y-11860000D02*
X18735000Y-11760000D01*
X18735000Y-11760000D02*
G75*
G03*
X18635000Y-11760000I-50000J0D01*
G01*
D10*
X18645000Y-7750000D02*
X18745000Y-7850000D01*
X18745000Y-7750000D02*
X18645000Y-7850000D01*
X18745000Y-7800000D02*
G75*
G03*
X18745000Y-7800000I-50000J0D01*
G01*
D11*
X18645000Y-7750000D02*
X18645000Y-7850000D01*
X18645000Y-7850000D02*
G75*
G03*
X18745000Y-7850000I50000J0D01*
G01*
X18745000Y-7850000D02*
X18745000Y-7750000D01*
X18745000Y-7750000D02*
G75*
G03*
X18645000Y-7750000I-50000J0D01*
G01*
D10*
X18645000Y-9150000D02*
X18745000Y-9250000D01*
X18745000Y-9150000D02*
X18645000Y-9250000D01*
X18745000Y-9200000D02*
G75*
G03*
X18745000Y-9200000I-50000J0D01*
G01*
D11*
X18645000Y-9150000D02*
X18645000Y-9250000D01*
X18645000Y-9250000D02*
G75*
G03*
X18745000Y-9250000I50000J0D01*
G01*
X18745000Y-9250000D02*
X18745000Y-9150000D01*
X18745000Y-9150000D02*
G75*
G03*
X18645000Y-9150000I-50000J0D01*
G01*
D10*
X18705000Y-3165000D02*
X18805000Y-3265000D01*
X18805000Y-3165000D02*
X18705000Y-3265000D01*
X18805000Y-3215000D02*
G75*
G03*
X18805000Y-3215000I-50000J0D01*
G01*
D11*
X18705000Y-3165000D02*
X18705000Y-3265000D01*
X18705000Y-3265000D02*
G75*
G03*
X18805000Y-3265000I50000J0D01*
G01*
X18805000Y-3265000D02*
X18805000Y-3165000D01*
X18805000Y-3165000D02*
G75*
G03*
X18705000Y-3165000I-50000J0D01*
G01*
D10*
X18995000Y-3165000D02*
X19095000Y-3265000D01*
X19095000Y-3165000D02*
X18995000Y-3265000D01*
X19095000Y-3215000D02*
G75*
G03*
X19095000Y-3215000I-50000J0D01*
G01*
D11*
X18995000Y-3165000D02*
X18995000Y-3265000D01*
X18995000Y-3265000D02*
G75*
G03*
X19095000Y-3265000I50000J0D01*
G01*
X19095000Y-3265000D02*
X19095000Y-3165000D01*
X19095000Y-3165000D02*
G75*
G03*
X18995000Y-3165000I-50000J0D01*
G01*
D10*
X19125000Y-10105000D02*
X19225000Y-10205000D01*
X19225000Y-10105000D02*
X19125000Y-10205000D01*
X19225000Y-10155000D02*
G75*
G03*
X19225000Y-10155000I-50000J0D01*
G01*
D11*
X19225000Y-10105000D02*
X19125000Y-10105000D01*
X19125000Y-10105000D02*
G75*
G03*
X19125000Y-10205000I0J-50000D01*
G01*
X19125000Y-10205000D02*
X19225000Y-10205000D01*
X19225000Y-10205000D02*
G75*
G03*
X19225000Y-10105000I0J50000D01*
G01*
D10*
X19125000Y-10815000D02*
X19225000Y-10915000D01*
X19225000Y-10815000D02*
X19125000Y-10915000D01*
X19225000Y-10865000D02*
G75*
G03*
X19225000Y-10865000I-50000J0D01*
G01*
D11*
X19225000Y-10815000D02*
X19125000Y-10815000D01*
X19125000Y-10815000D02*
G75*
G03*
X19125000Y-10915000I0J-50000D01*
G01*
X19125000Y-10915000D02*
X19225000Y-10915000D01*
X19225000Y-10915000D02*
G75*
G03*
X19225000Y-10815000I0J50000D01*
G01*
D10*
X19125000Y-11405000D02*
X19225000Y-11505000D01*
X19225000Y-11405000D02*
X19125000Y-11505000D01*
X19225000Y-11455000D02*
G75*
G03*
X19225000Y-11455000I-50000J0D01*
G01*
D11*
X19225000Y-11405000D02*
X19125000Y-11405000D01*
X19125000Y-11405000D02*
G75*
G03*
X19125000Y-11505000I0J-50000D01*
G01*
X19125000Y-11505000D02*
X19225000Y-11505000D01*
X19225000Y-11505000D02*
G75*
G03*
X19225000Y-11405000I0J50000D01*
G01*
D10*
X19125000Y-12115000D02*
X19225000Y-12215000D01*
X19225000Y-12115000D02*
X19125000Y-12215000D01*
X19225000Y-12165000D02*
G75*
G03*
X19225000Y-12165000I-50000J0D01*
G01*
D11*
X19225000Y-12115000D02*
X19125000Y-12115000D01*
X19125000Y-12115000D02*
G75*
G03*
X19125000Y-12215000I0J-50000D01*
G01*
X19125000Y-12215000D02*
X19225000Y-12215000D01*
X19225000Y-12215000D02*
G75*
G03*
X19225000Y-12115000I0J50000D01*
G01*
D10*
X19135000Y-7395000D02*
X19235000Y-7495000D01*
X19235000Y-7395000D02*
X19135000Y-7495000D01*
X19235000Y-7445000D02*
G75*
G03*
X19235000Y-7445000I-50000J0D01*
G01*
D11*
X19235000Y-7395000D02*
X19135000Y-7395000D01*
X19135000Y-7395000D02*
G75*
G03*
X19135000Y-7495000I0J-50000D01*
G01*
X19135000Y-7495000D02*
X19235000Y-7495000D01*
X19235000Y-7495000D02*
G75*
G03*
X19235000Y-7395000I0J50000D01*
G01*
D10*
X19135000Y-8105000D02*
X19235000Y-8205000D01*
X19235000Y-8105000D02*
X19135000Y-8205000D01*
X19235000Y-8155000D02*
G75*
G03*
X19235000Y-8155000I-50000J0D01*
G01*
D11*
X19235000Y-8105000D02*
X19135000Y-8105000D01*
X19135000Y-8105000D02*
G75*
G03*
X19135000Y-8205000I0J-50000D01*
G01*
X19135000Y-8205000D02*
X19235000Y-8205000D01*
X19235000Y-8205000D02*
G75*
G03*
X19235000Y-8105000I0J50000D01*
G01*
D10*
X19135000Y-8795000D02*
X19235000Y-8895000D01*
X19235000Y-8795000D02*
X19135000Y-8895000D01*
X19235000Y-8845000D02*
G75*
G03*
X19235000Y-8845000I-50000J0D01*
G01*
D11*
X19235000Y-8795000D02*
X19135000Y-8795000D01*
X19135000Y-8795000D02*
G75*
G03*
X19135000Y-8895000I0J-50000D01*
G01*
X19135000Y-8895000D02*
X19235000Y-8895000D01*
X19235000Y-8895000D02*
G75*
G03*
X19235000Y-8795000I0J50000D01*
G01*
D10*
X19135000Y-9505000D02*
X19235000Y-9605000D01*
X19235000Y-9505000D02*
X19135000Y-9605000D01*
X19235000Y-9555000D02*
G75*
G03*
X19235000Y-9555000I-50000J0D01*
G01*
D11*
X19235000Y-9505000D02*
X19135000Y-9505000D01*
X19135000Y-9505000D02*
G75*
G03*
X19135000Y-9605000I0J-50000D01*
G01*
X19135000Y-9605000D02*
X19235000Y-9605000D01*
X19235000Y-9605000D02*
G75*
G03*
X19235000Y-9505000I0J50000D01*
G01*
D10*
X19350000Y-2845000D02*
X19450000Y-2945000D01*
X19450000Y-2845000D02*
X19350000Y-2945000D01*
X19450000Y-2895000D02*
G75*
G03*
X19450000Y-2895000I-50000J0D01*
G01*
D11*
X19350000Y-2945000D02*
X19450000Y-2945000D01*
X19450000Y-2945000D02*
G75*
G03*
X19450000Y-2845000I0J50000D01*
G01*
X19450000Y-2845000D02*
X19350000Y-2845000D01*
X19350000Y-2845000D02*
G75*
G03*
X19350000Y-2945000I0J-50000D01*
G01*
D10*
X19350000Y-3655000D02*
X19450000Y-3755000D01*
X19450000Y-3655000D02*
X19350000Y-3755000D01*
X19450000Y-3705000D02*
G75*
G03*
X19450000Y-3705000I-50000J0D01*
G01*
D11*
X19350000Y-3755000D02*
X19450000Y-3755000D01*
X19450000Y-3755000D02*
G75*
G03*
X19450000Y-3655000I0J50000D01*
G01*
X19450000Y-3655000D02*
X19350000Y-3655000D01*
X19350000Y-3655000D02*
G75*
G03*
X19350000Y-3755000I0J-50000D01*
G01*
D10*
X19445000Y-10460000D02*
X19545000Y-10560000D01*
X19545000Y-10460000D02*
X19445000Y-10560000D01*
X19545000Y-10510000D02*
G75*
G03*
X19545000Y-10510000I-50000J0D01*
G01*
D11*
X19445000Y-10460000D02*
X19445000Y-10560000D01*
X19445000Y-10560000D02*
G75*
G03*
X19545000Y-10560000I50000J0D01*
G01*
X19545000Y-10560000D02*
X19545000Y-10460000D01*
X19545000Y-10460000D02*
G75*
G03*
X19445000Y-10460000I-50000J0D01*
G01*
D10*
X19445000Y-11760000D02*
X19545000Y-11860000D01*
X19545000Y-11760000D02*
X19445000Y-11860000D01*
X19545000Y-11810000D02*
G75*
G03*
X19545000Y-11810000I-50000J0D01*
G01*
D11*
X19445000Y-11760000D02*
X19445000Y-11860000D01*
X19445000Y-11860000D02*
G75*
G03*
X19545000Y-11860000I50000J0D01*
G01*
X19545000Y-11860000D02*
X19545000Y-11760000D01*
X19545000Y-11760000D02*
G75*
G03*
X19445000Y-11760000I-50000J0D01*
G01*
D10*
X19455000Y-7750000D02*
X19555000Y-7850000D01*
X19555000Y-7750000D02*
X19455000Y-7850000D01*
X19555000Y-7800000D02*
G75*
G03*
X19555000Y-7800000I-50000J0D01*
G01*
D11*
X19455000Y-7750000D02*
X19455000Y-7850000D01*
X19455000Y-7850000D02*
G75*
G03*
X19555000Y-7850000I50000J0D01*
G01*
X19555000Y-7850000D02*
X19555000Y-7750000D01*
X19555000Y-7750000D02*
G75*
G03*
X19455000Y-7750000I-50000J0D01*
G01*
D10*
X19455000Y-9150000D02*
X19555000Y-9250000D01*
X19555000Y-9150000D02*
X19455000Y-9250000D01*
X19555000Y-9200000D02*
G75*
G03*
X19555000Y-9200000I-50000J0D01*
G01*
D11*
X19455000Y-9150000D02*
X19455000Y-9250000D01*
X19455000Y-9250000D02*
G75*
G03*
X19555000Y-9250000I50000J0D01*
G01*
X19555000Y-9250000D02*
X19555000Y-9150000D01*
X19555000Y-9150000D02*
G75*
G03*
X19455000Y-9150000I-50000J0D01*
G01*
D10*
X19705000Y-3165000D02*
X19805000Y-3265000D01*
X19805000Y-3165000D02*
X19705000Y-3265000D01*
X19805000Y-3215000D02*
G75*
G03*
X19805000Y-3215000I-50000J0D01*
G01*
D11*
X19705000Y-3165000D02*
X19705000Y-3265000D01*
X19705000Y-3265000D02*
G75*
G03*
X19805000Y-3265000I50000J0D01*
G01*
X19805000Y-3265000D02*
X19805000Y-3165000D01*
X19805000Y-3165000D02*
G75*
G03*
X19705000Y-3165000I-50000J0D01*
G01*
D17*
X9536000Y-8360000D02*
X9638000Y-8462000D01*
X9638000Y-8360000D02*
X9536000Y-8462000D01*
X9587000Y-8360000D02*
X9587000Y-8462000D01*
X9536000Y-8411000D02*
X9638000Y-8411000D01*
X9536000Y-10138000D02*
X9638000Y-10240000D01*
X9638000Y-10138000D02*
X9536000Y-10240000D01*
X9587000Y-10138000D02*
X9587000Y-10240000D01*
X9536000Y-10189000D02*
X9638000Y-10189000D01*
X9790000Y-8360000D02*
X9892000Y-8462000D01*
X9892000Y-8360000D02*
X9790000Y-8462000D01*
X9841000Y-8360000D02*
X9841000Y-8462000D01*
X9790000Y-8411000D02*
X9892000Y-8411000D01*
X9790000Y-10138000D02*
X9892000Y-10240000D01*
X9892000Y-10138000D02*
X9790000Y-10240000D01*
X9841000Y-10138000D02*
X9841000Y-10240000D01*
X9790000Y-10189000D02*
X9892000Y-10189000D01*
X10044000Y-8360000D02*
X10146000Y-8462000D01*
X10146000Y-8360000D02*
X10044000Y-8462000D01*
X10095000Y-8360000D02*
X10095000Y-8462000D01*
X10044000Y-8411000D02*
X10146000Y-8411000D01*
X10044000Y-10138000D02*
X10146000Y-10240000D01*
X10146000Y-10138000D02*
X10044000Y-10240000D01*
X10095000Y-10138000D02*
X10095000Y-10240000D01*
X10044000Y-10189000D02*
X10146000Y-10189000D01*
X10298000Y-8360000D02*
X10400000Y-8462000D01*
X10400000Y-8360000D02*
X10298000Y-8462000D01*
X10349000Y-8360000D02*
X10349000Y-8462000D01*
X10298000Y-8411000D02*
X10400000Y-8411000D01*
X10298000Y-10138000D02*
X10400000Y-10240000D01*
X10400000Y-10138000D02*
X10298000Y-10240000D01*
X10349000Y-10138000D02*
X10349000Y-10240000D01*
X10298000Y-10189000D02*
X10400000Y-10189000D01*
X10552000Y-8360000D02*
X10654000Y-8462000D01*
X10654000Y-8360000D02*
X10552000Y-8462000D01*
X10603000Y-8360000D02*
X10603000Y-8462000D01*
X10552000Y-8411000D02*
X10654000Y-8411000D01*
X10552000Y-10138000D02*
X10654000Y-10240000D01*
X10654000Y-10138000D02*
X10552000Y-10240000D01*
X10603000Y-10138000D02*
X10603000Y-10240000D01*
X10552000Y-10189000D02*
X10654000Y-10189000D01*
X10806000Y-8360000D02*
X10908000Y-8462000D01*
X10908000Y-8360000D02*
X10806000Y-8462000D01*
X10857000Y-8360000D02*
X10857000Y-8462000D01*
X10806000Y-8411000D02*
X10908000Y-8411000D01*
X10806000Y-10138000D02*
X10908000Y-10240000D01*
X10908000Y-10138000D02*
X10806000Y-10240000D01*
X10857000Y-10138000D02*
X10857000Y-10240000D01*
X10806000Y-10189000D02*
X10908000Y-10189000D01*
X11060000Y-8360000D02*
X11162000Y-8462000D01*
X11162000Y-8360000D02*
X11060000Y-8462000D01*
X11111000Y-8360000D02*
X11111000Y-8462000D01*
X11060000Y-8411000D02*
X11162000Y-8411000D01*
X11060000Y-10138000D02*
X11162000Y-10240000D01*
X11162000Y-10138000D02*
X11060000Y-10240000D01*
X11111000Y-10138000D02*
X11111000Y-10240000D01*
X11060000Y-10189000D02*
X11162000Y-10189000D01*
X11314000Y-8360000D02*
X11416000Y-8462000D01*
X11416000Y-8360000D02*
X11314000Y-8462000D01*
X11365000Y-8360000D02*
X11365000Y-8462000D01*
X11314000Y-8411000D02*
X11416000Y-8411000D01*
X11314000Y-10138000D02*
X11416000Y-10240000D01*
X11416000Y-10138000D02*
X11314000Y-10240000D01*
X11365000Y-10138000D02*
X11365000Y-10240000D01*
X11314000Y-10189000D02*
X11416000Y-10189000D01*
X11568000Y-8360000D02*
X11670000Y-8462000D01*
X11670000Y-8360000D02*
X11568000Y-8462000D01*
X11619000Y-8360000D02*
X11619000Y-8462000D01*
X11568000Y-8411000D02*
X11670000Y-8411000D01*
X11568000Y-10138000D02*
X11670000Y-10240000D01*
X11670000Y-10138000D02*
X11568000Y-10240000D01*
X11619000Y-10138000D02*
X11619000Y-10240000D01*
X11568000Y-10189000D02*
X11670000Y-10189000D01*
X11822000Y-8360000D02*
X11924000Y-8462000D01*
X11924000Y-8360000D02*
X11822000Y-8462000D01*
X11873000Y-8360000D02*
X11873000Y-8462000D01*
X11822000Y-8411000D02*
X11924000Y-8411000D01*
X11822000Y-10138000D02*
X11924000Y-10240000D01*
X11924000Y-10138000D02*
X11822000Y-10240000D01*
X11873000Y-10138000D02*
X11873000Y-10240000D01*
X11822000Y-10189000D02*
X11924000Y-10189000D01*
X12076000Y-8360000D02*
X12178000Y-8462000D01*
X12178000Y-8360000D02*
X12076000Y-8462000D01*
X12127000Y-8360000D02*
X12127000Y-8462000D01*
X12076000Y-8411000D02*
X12178000Y-8411000D01*
X12076000Y-10138000D02*
X12178000Y-10240000D01*
X12178000Y-10138000D02*
X12076000Y-10240000D01*
X12127000Y-10138000D02*
X12127000Y-10240000D01*
X12076000Y-10189000D02*
X12178000Y-10189000D01*
X12330000Y-8360000D02*
X12432000Y-8462000D01*
X12432000Y-8360000D02*
X12330000Y-8462000D01*
X12381000Y-8360000D02*
X12381000Y-8462000D01*
X12330000Y-8411000D02*
X12432000Y-8411000D01*
X12330000Y-10138000D02*
X12432000Y-10240000D01*
X12432000Y-10138000D02*
X12330000Y-10240000D01*
X12381000Y-10138000D02*
X12381000Y-10240000D01*
X12330000Y-10189000D02*
X12432000Y-10189000D01*
X12584000Y-8360000D02*
X12686000Y-8462000D01*
X12686000Y-8360000D02*
X12584000Y-8462000D01*
X12635000Y-8360000D02*
X12635000Y-8462000D01*
X12584000Y-8411000D02*
X12686000Y-8411000D01*
X12584000Y-10138000D02*
X12686000Y-10240000D01*
X12686000Y-10138000D02*
X12584000Y-10240000D01*
X12635000Y-10138000D02*
X12635000Y-10240000D01*
X12584000Y-10189000D02*
X12686000Y-10189000D01*
X12838000Y-8360000D02*
X12940000Y-8462000D01*
X12940000Y-8360000D02*
X12838000Y-8462000D01*
X12889000Y-8360000D02*
X12889000Y-8462000D01*
X12838000Y-8411000D02*
X12940000Y-8411000D01*
X12838000Y-10138000D02*
X12940000Y-10240000D01*
X12940000Y-10138000D02*
X12838000Y-10240000D01*
X12889000Y-10138000D02*
X12889000Y-10240000D01*
X12838000Y-10189000D02*
X12940000Y-10189000D01*
X13092000Y-8360000D02*
X13194000Y-8462000D01*
X13194000Y-8360000D02*
X13092000Y-8462000D01*
X13143000Y-8360000D02*
X13143000Y-8462000D01*
X13092000Y-8411000D02*
X13194000Y-8411000D01*
X13092000Y-10138000D02*
X13194000Y-10240000D01*
X13194000Y-10138000D02*
X13092000Y-10240000D01*
X13143000Y-10138000D02*
X13143000Y-10240000D01*
X13092000Y-10189000D02*
X13194000Y-10189000D01*
X13346000Y-8360000D02*
X13448000Y-8462000D01*
X13448000Y-8360000D02*
X13346000Y-8462000D01*
X13397000Y-8360000D02*
X13397000Y-8462000D01*
X13346000Y-8411000D02*
X13448000Y-8411000D01*
X13346000Y-10138000D02*
X13448000Y-10240000D01*
X13448000Y-10138000D02*
X13346000Y-10240000D01*
X13397000Y-10138000D02*
X13397000Y-10240000D01*
X13346000Y-10189000D02*
X13448000Y-10189000D01*
X13600000Y-8360000D02*
X13702000Y-8462000D01*
X13702000Y-8360000D02*
X13600000Y-8462000D01*
X13651000Y-8360000D02*
X13651000Y-8462000D01*
X13600000Y-8411000D02*
X13702000Y-8411000D01*
X13600000Y-10138000D02*
X13702000Y-10240000D01*
X13702000Y-10138000D02*
X13600000Y-10240000D01*
X13651000Y-10138000D02*
X13651000Y-10240000D01*
X13600000Y-10189000D02*
X13702000Y-10189000D01*
X13854000Y-8360000D02*
X13956000Y-8462000D01*
X13956000Y-8360000D02*
X13854000Y-8462000D01*
X13905000Y-8360000D02*
X13905000Y-8462000D01*
X13854000Y-8411000D02*
X13956000Y-8411000D01*
X13854000Y-10138000D02*
X13956000Y-10240000D01*
X13956000Y-10138000D02*
X13854000Y-10240000D01*
X13905000Y-10138000D02*
X13905000Y-10240000D01*
X13854000Y-10189000D02*
X13956000Y-10189000D01*
X14108000Y-8360000D02*
X14210000Y-8462000D01*
X14210000Y-8360000D02*
X14108000Y-8462000D01*
X14159000Y-8360000D02*
X14159000Y-8462000D01*
X14108000Y-8411000D02*
X14210000Y-8411000D01*
X14108000Y-10138000D02*
X14210000Y-10240000D01*
X14210000Y-10138000D02*
X14108000Y-10240000D01*
X14159000Y-10138000D02*
X14159000Y-10240000D01*
X14108000Y-10189000D02*
X14210000Y-10189000D01*
X14339000Y-8995000D02*
X14441000Y-9097000D01*
X14441000Y-8995000D02*
X14339000Y-9097000D01*
X14390000Y-8995000D02*
X14390000Y-9097000D01*
X14339000Y-9046000D02*
X14441000Y-9046000D01*
X14339000Y-9249000D02*
X14441000Y-9351000D01*
X14441000Y-9249000D02*
X14339000Y-9351000D01*
X14390000Y-9249000D02*
X14390000Y-9351000D01*
X14339000Y-9300000D02*
X14441000Y-9300000D01*
X14339000Y-9503000D02*
X14441000Y-9605000D01*
X14441000Y-9503000D02*
X14339000Y-9605000D01*
X14390000Y-9503000D02*
X14390000Y-9605000D01*
X14339000Y-9554000D02*
X14441000Y-9554000D01*
X14362000Y-8360000D02*
X14464000Y-8462000D01*
X14464000Y-8360000D02*
X14362000Y-8462000D01*
X14413000Y-8360000D02*
X14413000Y-8462000D01*
X14362000Y-8411000D02*
X14464000Y-8411000D01*
X14362000Y-10138000D02*
X14464000Y-10240000D01*
X14464000Y-10138000D02*
X14362000Y-10240000D01*
X14413000Y-10138000D02*
X14413000Y-10240000D01*
X14362000Y-10189000D02*
X14464000Y-10189000D01*
D18*
X16422500Y-8688250D02*
X16532500Y-8798250D01*
X16532500Y-8688250D02*
X16422500Y-8798250D01*
X16516391Y-8782141D02*
X16516391Y-8704359D01*
X16438609Y-8704359D01*
X16438609Y-8782141D01*
X16516391Y-8782141D01*
D11*
X16442500Y-8798250D02*
X16512500Y-8798250D01*
X16512500Y-8798250D02*
G75*
G03*
X16512500Y-8688250I0J55000D01*
G01*
X16512500Y-8688250D02*
X16442500Y-8688250D01*
X16442500Y-8688250D02*
G75*
G03*
X16442500Y-8798250I0J-55000D01*
G01*
D18*
X16422500Y-9648250D02*
X16532500Y-9758250D01*
X16532500Y-9648250D02*
X16422500Y-9758250D01*
X16516391Y-9742141D02*
X16516391Y-9664359D01*
X16438609Y-9664359D01*
X16438609Y-9742141D01*
X16516391Y-9742141D01*
D11*
X16442500Y-9758250D02*
X16512500Y-9758250D01*
X16512500Y-9758250D02*
G75*
G03*
X16512500Y-9648250I0J55000D01*
G01*
X16512500Y-9648250D02*
X16442500Y-9648250D01*
X16442500Y-9648250D02*
G75*
G03*
X16442500Y-9758250I0J-55000D01*
G01*
D18*
X16422500Y-9998250D02*
X16532500Y-10108250D01*
X16532500Y-9998250D02*
X16422500Y-10108250D01*
X16516391Y-10092141D02*
X16516391Y-10014359D01*
X16438609Y-10014359D01*
X16438609Y-10092141D01*
X16516391Y-10092141D01*
D11*
X16442500Y-10108250D02*
X16512500Y-10108250D01*
X16512500Y-10108250D02*
G75*
G03*
X16512500Y-9998250I0J55000D01*
G01*
X16512500Y-9998250D02*
X16442500Y-9998250D01*
X16442500Y-9998250D02*
G75*
G03*
X16442500Y-10108250I0J-55000D01*
G01*
D18*
X16422500Y-10958250D02*
X16532500Y-11068250D01*
X16532500Y-10958250D02*
X16422500Y-11068250D01*
X16516391Y-11052141D02*
X16516391Y-10974359D01*
X16438609Y-10974359D01*
X16438609Y-11052141D01*
X16516391Y-11052141D01*
D11*
X16442500Y-11068250D02*
X16512500Y-11068250D01*
X16512500Y-11068250D02*
G75*
G03*
X16512500Y-10958250I0J55000D01*
G01*
X16512500Y-10958250D02*
X16442500Y-10958250D01*
X16442500Y-10958250D02*
G75*
G03*
X16442500Y-11068250I0J-55000D01*
G01*
D18*
X16422500Y-11298250D02*
X16532500Y-11408250D01*
X16532500Y-11298250D02*
X16422500Y-11408250D01*
X16516391Y-11392141D02*
X16516391Y-11314359D01*
X16438609Y-11314359D01*
X16438609Y-11392141D01*
X16516391Y-11392141D01*
D11*
X16442500Y-11408250D02*
X16512500Y-11408250D01*
X16512500Y-11408250D02*
G75*
G03*
X16512500Y-11298250I0J55000D01*
G01*
X16512500Y-11298250D02*
X16442500Y-11298250D01*
X16442500Y-11298250D02*
G75*
G03*
X16442500Y-11408250I0J-55000D01*
G01*
D18*
X16422500Y-12258250D02*
X16532500Y-12368250D01*
X16532500Y-12258250D02*
X16422500Y-12368250D01*
X16516391Y-12352141D02*
X16516391Y-12274359D01*
X16438609Y-12274359D01*
X16438609Y-12352141D01*
X16516391Y-12352141D01*
D11*
X16442500Y-12368250D02*
X16512500Y-12368250D01*
X16512500Y-12368250D02*
G75*
G03*
X16512500Y-12258250I0J55000D01*
G01*
X16512500Y-12258250D02*
X16442500Y-12258250D01*
X16442500Y-12258250D02*
G75*
G03*
X16442500Y-12368250I0J-55000D01*
G01*
D19*
X2780000Y-8030000D02*
X2920000Y-8170000D01*
X2920000Y-8030000D02*
X2780000Y-8170000D01*
X2850000Y-8170000D02*
X2920000Y-8100000D01*
X2850000Y-8030000D01*
X2780000Y-8100000D01*
X2850000Y-8170000D01*
X2780000Y-10630000D02*
X2920000Y-10770000D01*
X2920000Y-10630000D02*
X2780000Y-10770000D01*
X2850000Y-10770000D02*
X2920000Y-10700000D01*
X2850000Y-10630000D01*
X2780000Y-10700000D01*
X2850000Y-10770000D01*
X2780836Y-5430000D02*
X2920836Y-5570000D01*
X2920836Y-5430000D02*
X2780836Y-5570000D01*
X2850836Y-5570000D02*
X2920836Y-5500000D01*
X2850836Y-5430000D01*
X2780836Y-5500000D01*
X2850836Y-5570000D01*
X2941000Y-8419000D02*
X3081000Y-8559000D01*
X3081000Y-8419000D02*
X2941000Y-8559000D01*
X3011000Y-8559000D02*
X3081000Y-8489000D01*
X3011000Y-8419000D01*
X2941000Y-8489000D01*
X3011000Y-8559000D01*
X2941000Y-11019000D02*
X3081000Y-11159000D01*
X3081000Y-11019000D02*
X2941000Y-11159000D01*
X3011000Y-11159000D02*
X3081000Y-11089000D01*
X3011000Y-11019000D01*
X2941000Y-11089000D01*
X3011000Y-11159000D01*
X2941836Y-5819000D02*
X3081836Y-5959000D01*
X3081836Y-5819000D02*
X2941836Y-5959000D01*
X3011836Y-5959000D02*
X3081836Y-5889000D01*
X3011836Y-5819000D01*
X2941836Y-5889000D01*
X3011836Y-5959000D01*
X3330000Y-7580000D02*
X3470000Y-7720000D01*
X3470000Y-7580000D02*
X3330000Y-7720000D01*
X3400000Y-7720000D02*
X3470000Y-7650000D01*
X3400000Y-7580000D01*
X3330000Y-7650000D01*
X3400000Y-7720000D01*
X3330000Y-8580000D02*
X3470000Y-8720000D01*
X3470000Y-8580000D02*
X3330000Y-8720000D01*
X3400000Y-8720000D02*
X3470000Y-8650000D01*
X3400000Y-8580000D01*
X3330000Y-8650000D01*
X3400000Y-8720000D01*
X3330000Y-10180000D02*
X3470000Y-10320000D01*
X3470000Y-10180000D02*
X3330000Y-10320000D01*
X3400000Y-10320000D02*
X3470000Y-10250000D01*
X3400000Y-10180000D01*
X3330000Y-10250000D01*
X3400000Y-10320000D01*
X3330000Y-11180000D02*
X3470000Y-11320000D01*
X3470000Y-11180000D02*
X3330000Y-11320000D01*
X3400000Y-11320000D02*
X3470000Y-11250000D01*
X3400000Y-11180000D01*
X3330000Y-11250000D01*
X3400000Y-11320000D01*
X3330836Y-4980000D02*
X3470836Y-5120000D01*
X3470836Y-4980000D02*
X3330836Y-5120000D01*
X3400836Y-5120000D02*
X3470836Y-5050000D01*
X3400836Y-4980000D01*
X3330836Y-5050000D01*
X3400836Y-5120000D01*
X3330836Y-5980000D02*
X3470836Y-6120000D01*
X3470836Y-5980000D02*
X3330836Y-6120000D01*
X3400836Y-6120000D02*
X3470836Y-6050000D01*
X3400836Y-5980000D01*
X3330836Y-6050000D01*
X3400836Y-6120000D01*
X3719000Y-8419000D02*
X3859000Y-8559000D01*
X3859000Y-8419000D02*
X3719000Y-8559000D01*
X3789000Y-8559000D02*
X3859000Y-8489000D01*
X3789000Y-8419000D01*
X3719000Y-8489000D01*
X3789000Y-8559000D01*
X3719000Y-11019000D02*
X3859000Y-11159000D01*
X3859000Y-11019000D02*
X3719000Y-11159000D01*
X3789000Y-11159000D02*
X3859000Y-11089000D01*
X3789000Y-11019000D01*
X3719000Y-11089000D01*
X3789000Y-11159000D01*
X3719836Y-5819000D02*
X3859836Y-5959000D01*
X3859836Y-5819000D02*
X3719836Y-5959000D01*
X3789836Y-5959000D02*
X3859836Y-5889000D01*
X3789836Y-5819000D01*
X3719836Y-5889000D01*
X3789836Y-5959000D01*
X3880000Y-3430000D02*
X4020000Y-3570000D01*
X4020000Y-3430000D02*
X3880000Y-3570000D01*
X3950000Y-3570000D02*
X4020000Y-3500000D01*
X3950000Y-3430000D01*
X3880000Y-3500000D01*
X3950000Y-3570000D01*
X3880000Y-8030000D02*
X4020000Y-8170000D01*
X4020000Y-8030000D02*
X3880000Y-8170000D01*
X3950000Y-8170000D02*
X4020000Y-8100000D01*
X3950000Y-8030000D01*
X3880000Y-8100000D01*
X3950000Y-8170000D01*
X3880000Y-10630000D02*
X4020000Y-10770000D01*
X4020000Y-10630000D02*
X3880000Y-10770000D01*
X3950000Y-10770000D02*
X4020000Y-10700000D01*
X3950000Y-10630000D01*
X3880000Y-10700000D01*
X3950000Y-10770000D01*
X3880836Y-5430000D02*
X4020836Y-5570000D01*
X4020836Y-5430000D02*
X3880836Y-5570000D01*
X3950836Y-5570000D02*
X4020836Y-5500000D01*
X3950836Y-5430000D01*
X3880836Y-5500000D01*
X3950836Y-5570000D01*
X4041000Y-3819000D02*
X4181000Y-3959000D01*
X4181000Y-3819000D02*
X4041000Y-3959000D01*
X4111000Y-3959000D02*
X4181000Y-3889000D01*
X4111000Y-3819000D01*
X4041000Y-3889000D01*
X4111000Y-3959000D01*
X4280000Y-9330000D02*
X4420000Y-9470000D01*
X4420000Y-9330000D02*
X4280000Y-9470000D01*
X4350000Y-9470000D02*
X4420000Y-9400000D01*
X4350000Y-9330000D01*
X4280000Y-9400000D01*
X4350000Y-9470000D01*
X4380000Y-6730000D02*
X4520000Y-6870000D01*
X4520000Y-6730000D02*
X4380000Y-6870000D01*
X4450000Y-6870000D02*
X4520000Y-6800000D01*
X4450000Y-6730000D01*
X4380000Y-6800000D01*
X4450000Y-6870000D01*
X4430000Y-2980000D02*
X4570000Y-3120000D01*
X4570000Y-2980000D02*
X4430000Y-3120000D01*
X4500000Y-3120000D02*
X4570000Y-3050000D01*
X4500000Y-2980000D01*
X4430000Y-3050000D01*
X4500000Y-3120000D01*
X4430000Y-3980000D02*
X4570000Y-4120000D01*
X4570000Y-3980000D02*
X4430000Y-4120000D01*
X4500000Y-4120000D02*
X4570000Y-4050000D01*
X4500000Y-3980000D01*
X4430000Y-4050000D01*
X4500000Y-4120000D01*
X4441000Y-9719000D02*
X4581000Y-9859000D01*
X4581000Y-9719000D02*
X4441000Y-9859000D01*
X4511000Y-9859000D02*
X4581000Y-9789000D01*
X4511000Y-9719000D01*
X4441000Y-9789000D01*
X4511000Y-9859000D01*
X4541000Y-7119000D02*
X4681000Y-7259000D01*
X4681000Y-7119000D02*
X4541000Y-7259000D01*
X4611000Y-7259000D02*
X4681000Y-7189000D01*
X4611000Y-7119000D01*
X4541000Y-7189000D01*
X4611000Y-7259000D01*
X4819000Y-3819000D02*
X4959000Y-3959000D01*
X4959000Y-3819000D02*
X4819000Y-3959000D01*
X4889000Y-3959000D02*
X4959000Y-3889000D01*
X4889000Y-3819000D01*
X4819000Y-3889000D01*
X4889000Y-3959000D01*
X4830000Y-8880000D02*
X4970000Y-9020000D01*
X4970000Y-8880000D02*
X4830000Y-9020000D01*
X4900000Y-9020000D02*
X4970000Y-8950000D01*
X4900000Y-8880000D01*
X4830000Y-8950000D01*
X4900000Y-9020000D01*
X4830000Y-9880000D02*
X4970000Y-10020000D01*
X4970000Y-9880000D02*
X4830000Y-10020000D01*
X4900000Y-10020000D02*
X4970000Y-9950000D01*
X4900000Y-9880000D01*
X4830000Y-9950000D01*
X4900000Y-10020000D01*
X4930000Y-6280000D02*
X5070000Y-6420000D01*
X5070000Y-6280000D02*
X4930000Y-6420000D01*
X5000000Y-6420000D02*
X5070000Y-6350000D01*
X5000000Y-6280000D01*
X4930000Y-6350000D01*
X5000000Y-6420000D01*
X4930000Y-7280000D02*
X5070000Y-7420000D01*
X5070000Y-7280000D02*
X4930000Y-7420000D01*
X5000000Y-7420000D02*
X5070000Y-7350000D01*
X5000000Y-7280000D01*
X4930000Y-7350000D01*
X5000000Y-7420000D01*
X4980000Y-3430000D02*
X5120000Y-3570000D01*
X5120000Y-3430000D02*
X4980000Y-3570000D01*
X5050000Y-3570000D02*
X5120000Y-3500000D01*
X5050000Y-3430000D01*
X4980000Y-3500000D01*
X5050000Y-3570000D01*
X5219000Y-9719000D02*
X5359000Y-9859000D01*
X5359000Y-9719000D02*
X5219000Y-9859000D01*
X5289000Y-9859000D02*
X5359000Y-9789000D01*
X5289000Y-9719000D01*
X5219000Y-9789000D01*
X5289000Y-9859000D01*
X5319000Y-7119000D02*
X5459000Y-7259000D01*
X5459000Y-7119000D02*
X5319000Y-7259000D01*
X5389000Y-7259000D02*
X5459000Y-7189000D01*
X5389000Y-7119000D01*
X5319000Y-7189000D01*
X5389000Y-7259000D01*
X5380000Y-9330000D02*
X5520000Y-9470000D01*
X5520000Y-9330000D02*
X5380000Y-9470000D01*
X5450000Y-9470000D02*
X5520000Y-9400000D01*
X5450000Y-9330000D01*
X5380000Y-9400000D01*
X5450000Y-9470000D01*
X5480000Y-6730000D02*
X5620000Y-6870000D01*
X5620000Y-6730000D02*
X5480000Y-6870000D01*
X5550000Y-6870000D02*
X5620000Y-6800000D01*
X5550000Y-6730000D01*
X5480000Y-6800000D01*
X5550000Y-6870000D01*
D11*
X2242619Y-13398476D02*
X2242619Y-13198476D01*
X2242619Y-13198476D02*
X2290238Y-13198476D01*
X2290238Y-13198476D02*
X2318810Y-13208000D01*
X2318810Y-13208000D02*
X2337857Y-13227048D01*
X2337857Y-13227048D02*
X2347381Y-13246095D01*
X2347381Y-13246095D02*
X2356905Y-13284190D01*
X2356905Y-13284190D02*
X2356905Y-13312762D01*
X2356905Y-13312762D02*
X2347381Y-13350857D01*
X2347381Y-13350857D02*
X2337857Y-13369905D01*
X2337857Y-13369905D02*
X2318810Y-13388952D01*
X2318810Y-13388952D02*
X2290238Y-13398476D01*
X2290238Y-13398476D02*
X2242619Y-13398476D01*
X2442619Y-13398476D02*
X2442619Y-13265143D01*
X2442619Y-13303238D02*
X2452143Y-13284190D01*
X2452143Y-13284190D02*
X2461667Y-13274667D01*
X2461667Y-13274667D02*
X2480714Y-13265143D01*
X2480714Y-13265143D02*
X2499762Y-13265143D01*
X2566429Y-13398476D02*
X2566429Y-13265143D01*
X2566429Y-13198476D02*
X2556905Y-13208000D01*
X2556905Y-13208000D02*
X2566429Y-13217524D01*
X2566429Y-13217524D02*
X2575952Y-13208000D01*
X2575952Y-13208000D02*
X2566429Y-13198476D01*
X2566429Y-13198476D02*
X2566429Y-13217524D01*
X2690238Y-13398476D02*
X2671190Y-13388952D01*
X2671190Y-13388952D02*
X2661667Y-13369905D01*
X2661667Y-13369905D02*
X2661667Y-13198476D01*
X2795000Y-13398476D02*
X2775952Y-13388952D01*
X2775952Y-13388952D02*
X2766429Y-13369905D01*
X2766429Y-13369905D02*
X2766429Y-13198476D01*
X2991190Y-13398476D02*
X2991190Y-13198476D01*
X2991190Y-13198476D02*
X3057857Y-13341333D01*
X3057857Y-13341333D02*
X3124524Y-13198476D01*
X3124524Y-13198476D02*
X3124524Y-13398476D01*
X3305476Y-13398476D02*
X3305476Y-13293714D01*
X3305476Y-13293714D02*
X3295952Y-13274667D01*
X3295952Y-13274667D02*
X3276905Y-13265143D01*
X3276905Y-13265143D02*
X3238809Y-13265143D01*
X3238809Y-13265143D02*
X3219762Y-13274667D01*
X3305476Y-13388952D02*
X3286428Y-13398476D01*
X3286428Y-13398476D02*
X3238809Y-13398476D01*
X3238809Y-13398476D02*
X3219762Y-13388952D01*
X3219762Y-13388952D02*
X3210238Y-13369905D01*
X3210238Y-13369905D02*
X3210238Y-13350857D01*
X3210238Y-13350857D02*
X3219762Y-13331809D01*
X3219762Y-13331809D02*
X3238809Y-13322286D01*
X3238809Y-13322286D02*
X3286428Y-13322286D01*
X3286428Y-13322286D02*
X3305476Y-13312762D01*
X3400714Y-13265143D02*
X3400714Y-13465143D01*
X3400714Y-13274667D02*
X3419762Y-13265143D01*
X3419762Y-13265143D02*
X3457857Y-13265143D01*
X3457857Y-13265143D02*
X3476905Y-13274667D01*
X3476905Y-13274667D02*
X3486428Y-13284190D01*
X3486428Y-13284190D02*
X3495952Y-13303238D01*
X3495952Y-13303238D02*
X3495952Y-13360381D01*
X3495952Y-13360381D02*
X3486428Y-13379428D01*
X3486428Y-13379428D02*
X3476905Y-13388952D01*
X3476905Y-13388952D02*
X3457857Y-13398476D01*
X3457857Y-13398476D02*
X3419762Y-13398476D01*
X3419762Y-13398476D02*
X3400714Y-13388952D01*
X3581667Y-13379428D02*
X3591190Y-13388952D01*
X3591190Y-13388952D02*
X3581667Y-13398476D01*
X3581667Y-13398476D02*
X3572143Y-13388952D01*
X3572143Y-13388952D02*
X3581667Y-13379428D01*
X3581667Y-13379428D02*
X3581667Y-13398476D01*
X3581667Y-13274667D02*
X3591190Y-13284190D01*
X3591190Y-13284190D02*
X3581667Y-13293714D01*
X3581667Y-13293714D02*
X3572143Y-13284190D01*
X3572143Y-13284190D02*
X3581667Y-13274667D01*
X3581667Y-13274667D02*
X3581667Y-13293714D01*
D12*
X1962000Y-13728500D02*
X1995000Y-13761500D01*
X1995000Y-13728500D02*
X1962000Y-13761500D01*
D11*
X2280714Y-13618476D02*
X2299762Y-13618476D01*
X2299762Y-13618476D02*
X2318810Y-13628000D01*
X2318810Y-13628000D02*
X2328333Y-13637524D01*
X2328333Y-13637524D02*
X2337857Y-13656571D01*
X2337857Y-13656571D02*
X2347381Y-13694667D01*
X2347381Y-13694667D02*
X2347381Y-13742286D01*
X2347381Y-13742286D02*
X2337857Y-13780381D01*
X2337857Y-13780381D02*
X2328333Y-13799428D01*
X2328333Y-13799428D02*
X2318810Y-13808952D01*
X2318810Y-13808952D02*
X2299762Y-13818476D01*
X2299762Y-13818476D02*
X2280714Y-13818476D01*
X2280714Y-13818476D02*
X2261667Y-13808952D01*
X2261667Y-13808952D02*
X2252143Y-13799428D01*
X2252143Y-13799428D02*
X2242619Y-13780381D01*
X2242619Y-13780381D02*
X2233095Y-13742286D01*
X2233095Y-13742286D02*
X2233095Y-13694667D01*
X2233095Y-13694667D02*
X2242619Y-13656571D01*
X2242619Y-13656571D02*
X2252143Y-13637524D01*
X2252143Y-13637524D02*
X2261667Y-13628000D01*
X2261667Y-13628000D02*
X2280714Y-13618476D01*
X2433095Y-13799428D02*
X2442619Y-13808952D01*
X2442619Y-13808952D02*
X2433095Y-13818476D01*
X2433095Y-13818476D02*
X2423571Y-13808952D01*
X2423571Y-13808952D02*
X2433095Y-13799428D01*
X2433095Y-13799428D02*
X2433095Y-13818476D01*
X2509286Y-13618476D02*
X2633095Y-13618476D01*
X2633095Y-13618476D02*
X2566429Y-13694667D01*
X2566429Y-13694667D02*
X2595000Y-13694667D01*
X2595000Y-13694667D02*
X2614048Y-13704190D01*
X2614048Y-13704190D02*
X2623571Y-13713714D01*
X2623571Y-13713714D02*
X2633095Y-13732762D01*
X2633095Y-13732762D02*
X2633095Y-13780381D01*
X2633095Y-13780381D02*
X2623571Y-13799428D01*
X2623571Y-13799428D02*
X2614048Y-13808952D01*
X2614048Y-13808952D02*
X2595000Y-13818476D01*
X2595000Y-13818476D02*
X2537857Y-13818476D01*
X2537857Y-13818476D02*
X2518810Y-13808952D01*
X2518810Y-13808952D02*
X2509286Y-13799428D01*
X2699762Y-13618476D02*
X2823571Y-13618476D01*
X2823571Y-13618476D02*
X2756905Y-13694667D01*
X2756905Y-13694667D02*
X2785476Y-13694667D01*
X2785476Y-13694667D02*
X2804524Y-13704190D01*
X2804524Y-13704190D02*
X2814048Y-13713714D01*
X2814048Y-13713714D02*
X2823571Y-13732762D01*
X2823571Y-13732762D02*
X2823571Y-13780381D01*
X2823571Y-13780381D02*
X2814048Y-13799428D01*
X2814048Y-13799428D02*
X2804524Y-13808952D01*
X2804524Y-13808952D02*
X2785476Y-13818476D01*
X2785476Y-13818476D02*
X2728333Y-13818476D01*
X2728333Y-13818476D02*
X2709286Y-13808952D01*
X2709286Y-13808952D02*
X2699762Y-13799428D01*
X2947381Y-13618476D02*
X2966429Y-13618476D01*
X2966429Y-13618476D02*
X2985476Y-13628000D01*
X2985476Y-13628000D02*
X2995000Y-13637524D01*
X2995000Y-13637524D02*
X3004524Y-13656571D01*
X3004524Y-13656571D02*
X3014048Y-13694667D01*
X3014048Y-13694667D02*
X3014048Y-13742286D01*
X3014048Y-13742286D02*
X3004524Y-13780381D01*
X3004524Y-13780381D02*
X2995000Y-13799428D01*
X2995000Y-13799428D02*
X2985476Y-13808952D01*
X2985476Y-13808952D02*
X2966429Y-13818476D01*
X2966429Y-13818476D02*
X2947381Y-13818476D01*
X2947381Y-13818476D02*
X2928333Y-13808952D01*
X2928333Y-13808952D02*
X2918809Y-13799428D01*
X2918809Y-13799428D02*
X2909286Y-13780381D01*
X2909286Y-13780381D02*
X2899762Y-13742286D01*
X2899762Y-13742286D02*
X2899762Y-13694667D01*
X2899762Y-13694667D02*
X2909286Y-13656571D01*
X2909286Y-13656571D02*
X2918809Y-13637524D01*
X2918809Y-13637524D02*
X2928333Y-13628000D01*
X2928333Y-13628000D02*
X2947381Y-13618476D01*
X3099762Y-13818476D02*
X3099762Y-13685143D01*
X3099762Y-13704190D02*
X3109286Y-13694667D01*
X3109286Y-13694667D02*
X3128333Y-13685143D01*
X3128333Y-13685143D02*
X3156905Y-13685143D01*
X3156905Y-13685143D02*
X3175952Y-13694667D01*
X3175952Y-13694667D02*
X3185476Y-13713714D01*
X3185476Y-13713714D02*
X3185476Y-13818476D01*
X3185476Y-13713714D02*
X3195000Y-13694667D01*
X3195000Y-13694667D02*
X3214048Y-13685143D01*
X3214048Y-13685143D02*
X3242619Y-13685143D01*
X3242619Y-13685143D02*
X3261667Y-13694667D01*
X3261667Y-13694667D02*
X3271190Y-13713714D01*
X3271190Y-13713714D02*
X3271190Y-13818476D01*
X3366429Y-13818476D02*
X3366429Y-13685143D01*
X3366429Y-13704190D02*
X3375952Y-13694667D01*
X3375952Y-13694667D02*
X3395000Y-13685143D01*
X3395000Y-13685143D02*
X3423571Y-13685143D01*
X3423571Y-13685143D02*
X3442619Y-13694667D01*
X3442619Y-13694667D02*
X3452143Y-13713714D01*
X3452143Y-13713714D02*
X3452143Y-13818476D01*
X3452143Y-13713714D02*
X3461667Y-13694667D01*
X3461667Y-13694667D02*
X3480714Y-13685143D01*
X3480714Y-13685143D02*
X3509286Y-13685143D01*
X3509286Y-13685143D02*
X3528333Y-13694667D01*
X3528333Y-13694667D02*
X3537857Y-13713714D01*
X3537857Y-13713714D02*
X3537857Y-13818476D01*
X3895952Y-13608952D02*
X3724524Y-13866095D01*
X4120714Y-13618476D02*
X4139762Y-13618476D01*
X4139762Y-13618476D02*
X4158810Y-13628000D01*
X4158810Y-13628000D02*
X4168333Y-13637524D01*
X4168333Y-13637524D02*
X4177857Y-13656571D01*
X4177857Y-13656571D02*
X4187381Y-13694667D01*
X4187381Y-13694667D02*
X4187381Y-13742286D01*
X4187381Y-13742286D02*
X4177857Y-13780381D01*
X4177857Y-13780381D02*
X4168333Y-13799428D01*
X4168333Y-13799428D02*
X4158810Y-13808952D01*
X4158810Y-13808952D02*
X4139762Y-13818476D01*
X4139762Y-13818476D02*
X4120714Y-13818476D01*
X4120714Y-13818476D02*
X4101667Y-13808952D01*
X4101667Y-13808952D02*
X4092143Y-13799428D01*
X4092143Y-13799428D02*
X4082619Y-13780381D01*
X4082619Y-13780381D02*
X4073095Y-13742286D01*
X4073095Y-13742286D02*
X4073095Y-13694667D01*
X4073095Y-13694667D02*
X4082619Y-13656571D01*
X4082619Y-13656571D02*
X4092143Y-13637524D01*
X4092143Y-13637524D02*
X4101667Y-13628000D01*
X4101667Y-13628000D02*
X4120714Y-13618476D01*
X4273095Y-13799428D02*
X4282619Y-13808952D01*
X4282619Y-13808952D02*
X4273095Y-13818476D01*
X4273095Y-13818476D02*
X4263572Y-13808952D01*
X4263572Y-13808952D02*
X4273095Y-13799428D01*
X4273095Y-13799428D02*
X4273095Y-13818476D01*
X4406429Y-13618476D02*
X4425476Y-13618476D01*
X4425476Y-13618476D02*
X4444524Y-13628000D01*
X4444524Y-13628000D02*
X4454048Y-13637524D01*
X4454048Y-13637524D02*
X4463572Y-13656571D01*
X4463572Y-13656571D02*
X4473095Y-13694667D01*
X4473095Y-13694667D02*
X4473095Y-13742286D01*
X4473095Y-13742286D02*
X4463572Y-13780381D01*
X4463572Y-13780381D02*
X4454048Y-13799428D01*
X4454048Y-13799428D02*
X4444524Y-13808952D01*
X4444524Y-13808952D02*
X4425476Y-13818476D01*
X4425476Y-13818476D02*
X4406429Y-13818476D01*
X4406429Y-13818476D02*
X4387381Y-13808952D01*
X4387381Y-13808952D02*
X4377857Y-13799428D01*
X4377857Y-13799428D02*
X4368333Y-13780381D01*
X4368333Y-13780381D02*
X4358810Y-13742286D01*
X4358810Y-13742286D02*
X4358810Y-13694667D01*
X4358810Y-13694667D02*
X4368333Y-13656571D01*
X4368333Y-13656571D02*
X4377857Y-13637524D01*
X4377857Y-13637524D02*
X4387381Y-13628000D01*
X4387381Y-13628000D02*
X4406429Y-13618476D01*
X4663572Y-13818476D02*
X4549286Y-13818476D01*
X4606429Y-13818476D02*
X4606429Y-13618476D01*
X4606429Y-13618476D02*
X4587381Y-13647048D01*
X4587381Y-13647048D02*
X4568333Y-13666095D01*
X4568333Y-13666095D02*
X4549286Y-13675619D01*
X4730238Y-13618476D02*
X4854048Y-13618476D01*
X4854048Y-13618476D02*
X4787381Y-13694667D01*
X4787381Y-13694667D02*
X4815953Y-13694667D01*
X4815953Y-13694667D02*
X4835000Y-13704190D01*
X4835000Y-13704190D02*
X4844524Y-13713714D01*
X4844524Y-13713714D02*
X4854048Y-13732762D01*
X4854048Y-13732762D02*
X4854048Y-13780381D01*
X4854048Y-13780381D02*
X4844524Y-13799428D01*
X4844524Y-13799428D02*
X4835000Y-13808952D01*
X4835000Y-13808952D02*
X4815953Y-13818476D01*
X4815953Y-13818476D02*
X4758810Y-13818476D01*
X4758810Y-13818476D02*
X4739762Y-13808952D01*
X4739762Y-13808952D02*
X4730238Y-13799428D01*
X4977857Y-13618476D02*
X4996905Y-13618476D01*
X4996905Y-13618476D02*
X5015953Y-13628000D01*
X5015953Y-13628000D02*
X5025476Y-13637524D01*
X5025476Y-13637524D02*
X5035000Y-13656571D01*
X5035000Y-13656571D02*
X5044524Y-13694667D01*
X5044524Y-13694667D02*
X5044524Y-13742286D01*
X5044524Y-13742286D02*
X5035000Y-13780381D01*
X5035000Y-13780381D02*
X5025476Y-13799428D01*
X5025476Y-13799428D02*
X5015953Y-13808952D01*
X5015953Y-13808952D02*
X4996905Y-13818476D01*
X4996905Y-13818476D02*
X4977857Y-13818476D01*
X4977857Y-13818476D02*
X4958810Y-13808952D01*
X4958810Y-13808952D02*
X4949286Y-13799428D01*
X4949286Y-13799428D02*
X4939762Y-13780381D01*
X4939762Y-13780381D02*
X4930238Y-13742286D01*
X4930238Y-13742286D02*
X4930238Y-13694667D01*
X4930238Y-13694667D02*
X4939762Y-13656571D01*
X4939762Y-13656571D02*
X4949286Y-13637524D01*
X4949286Y-13637524D02*
X4958810Y-13628000D01*
X4958810Y-13628000D02*
X4977857Y-13618476D01*
X5120714Y-13618476D02*
X5120714Y-13656571D01*
X5196905Y-13618476D02*
X5196905Y-13656571D01*
X5459762Y-13894667D02*
X5450238Y-13885143D01*
X5450238Y-13885143D02*
X5431191Y-13856571D01*
X5431191Y-13856571D02*
X5421667Y-13837524D01*
X5421667Y-13837524D02*
X5412143Y-13808952D01*
X5412143Y-13808952D02*
X5402619Y-13761333D01*
X5402619Y-13761333D02*
X5402619Y-13723238D01*
X5402619Y-13723238D02*
X5412143Y-13675619D01*
X5412143Y-13675619D02*
X5421667Y-13647048D01*
X5421667Y-13647048D02*
X5431191Y-13628000D01*
X5431191Y-13628000D02*
X5450238Y-13599428D01*
X5450238Y-13599428D02*
X5459762Y-13589905D01*
X5640714Y-13818476D02*
X5526429Y-13818476D01*
X5583572Y-13818476D02*
X5583572Y-13618476D01*
X5583572Y-13618476D02*
X5564524Y-13647048D01*
X5564524Y-13647048D02*
X5545476Y-13666095D01*
X5545476Y-13666095D02*
X5526429Y-13675619D01*
X5755000Y-13704190D02*
X5735952Y-13694667D01*
X5735952Y-13694667D02*
X5726429Y-13685143D01*
X5726429Y-13685143D02*
X5716905Y-13666095D01*
X5716905Y-13666095D02*
X5716905Y-13656571D01*
X5716905Y-13656571D02*
X5726429Y-13637524D01*
X5726429Y-13637524D02*
X5735952Y-13628000D01*
X5735952Y-13628000D02*
X5755000Y-13618476D01*
X5755000Y-13618476D02*
X5793095Y-13618476D01*
X5793095Y-13618476D02*
X5812143Y-13628000D01*
X5812143Y-13628000D02*
X5821667Y-13637524D01*
X5821667Y-13637524D02*
X5831191Y-13656571D01*
X5831191Y-13656571D02*
X5831191Y-13666095D01*
X5831191Y-13666095D02*
X5821667Y-13685143D01*
X5821667Y-13685143D02*
X5812143Y-13694667D01*
X5812143Y-13694667D02*
X5793095Y-13704190D01*
X5793095Y-13704190D02*
X5755000Y-13704190D01*
X5755000Y-13704190D02*
X5735952Y-13713714D01*
X5735952Y-13713714D02*
X5726429Y-13723238D01*
X5726429Y-13723238D02*
X5716905Y-13742286D01*
X5716905Y-13742286D02*
X5716905Y-13780381D01*
X5716905Y-13780381D02*
X5726429Y-13799428D01*
X5726429Y-13799428D02*
X5735952Y-13808952D01*
X5735952Y-13808952D02*
X5755000Y-13818476D01*
X5755000Y-13818476D02*
X5793095Y-13818476D01*
X5793095Y-13818476D02*
X5812143Y-13808952D01*
X5812143Y-13808952D02*
X5821667Y-13799428D01*
X5821667Y-13799428D02*
X5831191Y-13780381D01*
X5831191Y-13780381D02*
X5831191Y-13742286D01*
X5831191Y-13742286D02*
X5821667Y-13723238D01*
X5821667Y-13723238D02*
X5812143Y-13713714D01*
X5812143Y-13713714D02*
X5793095Y-13704190D01*
X6036905Y-13818476D02*
X6036905Y-13618476D01*
X6122619Y-13818476D02*
X6122619Y-13713714D01*
X6122619Y-13713714D02*
X6113095Y-13694667D01*
X6113095Y-13694667D02*
X6094048Y-13685143D01*
X6094048Y-13685143D02*
X6065476Y-13685143D01*
X6065476Y-13685143D02*
X6046429Y-13694667D01*
X6046429Y-13694667D02*
X6036905Y-13704190D01*
X6246429Y-13818476D02*
X6227381Y-13808952D01*
X6227381Y-13808952D02*
X6217857Y-13799428D01*
X6217857Y-13799428D02*
X6208333Y-13780381D01*
X6208333Y-13780381D02*
X6208333Y-13723238D01*
X6208333Y-13723238D02*
X6217857Y-13704190D01*
X6217857Y-13704190D02*
X6227381Y-13694667D01*
X6227381Y-13694667D02*
X6246429Y-13685143D01*
X6246429Y-13685143D02*
X6275000Y-13685143D01*
X6275000Y-13685143D02*
X6294048Y-13694667D01*
X6294048Y-13694667D02*
X6303572Y-13704190D01*
X6303572Y-13704190D02*
X6313095Y-13723238D01*
X6313095Y-13723238D02*
X6313095Y-13780381D01*
X6313095Y-13780381D02*
X6303572Y-13799428D01*
X6303572Y-13799428D02*
X6294048Y-13808952D01*
X6294048Y-13808952D02*
X6275000Y-13818476D01*
X6275000Y-13818476D02*
X6246429Y-13818476D01*
X6427381Y-13818476D02*
X6408333Y-13808952D01*
X6408333Y-13808952D02*
X6398810Y-13789905D01*
X6398810Y-13789905D02*
X6398810Y-13618476D01*
X6579762Y-13808952D02*
X6560714Y-13818476D01*
X6560714Y-13818476D02*
X6522619Y-13818476D01*
X6522619Y-13818476D02*
X6503572Y-13808952D01*
X6503572Y-13808952D02*
X6494048Y-13789905D01*
X6494048Y-13789905D02*
X6494048Y-13713714D01*
X6494048Y-13713714D02*
X6503572Y-13694667D01*
X6503572Y-13694667D02*
X6522619Y-13685143D01*
X6522619Y-13685143D02*
X6560714Y-13685143D01*
X6560714Y-13685143D02*
X6579762Y-13694667D01*
X6579762Y-13694667D02*
X6589286Y-13713714D01*
X6589286Y-13713714D02*
X6589286Y-13732762D01*
X6589286Y-13732762D02*
X6494048Y-13751809D01*
X6665476Y-13808952D02*
X6684524Y-13818476D01*
X6684524Y-13818476D02*
X6722619Y-13818476D01*
X6722619Y-13818476D02*
X6741667Y-13808952D01*
X6741667Y-13808952D02*
X6751191Y-13789905D01*
X6751191Y-13789905D02*
X6751191Y-13780381D01*
X6751191Y-13780381D02*
X6741667Y-13761333D01*
X6741667Y-13761333D02*
X6722619Y-13751809D01*
X6722619Y-13751809D02*
X6694048Y-13751809D01*
X6694048Y-13751809D02*
X6675000Y-13742286D01*
X6675000Y-13742286D02*
X6665476Y-13723238D01*
X6665476Y-13723238D02*
X6665476Y-13713714D01*
X6665476Y-13713714D02*
X6675000Y-13694667D01*
X6675000Y-13694667D02*
X6694048Y-13685143D01*
X6694048Y-13685143D02*
X6722619Y-13685143D01*
X6722619Y-13685143D02*
X6741667Y-13694667D01*
X6817857Y-13894667D02*
X6827381Y-13885143D01*
X6827381Y-13885143D02*
X6846429Y-13856571D01*
X6846429Y-13856571D02*
X6855953Y-13837524D01*
X6855953Y-13837524D02*
X6865476Y-13808952D01*
X6865476Y-13808952D02*
X6875000Y-13761333D01*
X6875000Y-13761333D02*
X6875000Y-13723238D01*
X6875000Y-13723238D02*
X6865476Y-13675619D01*
X6865476Y-13675619D02*
X6855953Y-13647048D01*
X6855953Y-13647048D02*
X6846429Y-13628000D01*
X6846429Y-13628000D02*
X6827381Y-13599428D01*
X6827381Y-13599428D02*
X6817857Y-13589905D01*
D13*
X1995000Y-14009000D02*
G75*
G03*
X1995000Y-14009000I-20000J0D01*
G01*
D11*
X2280714Y-13882476D02*
X2299762Y-13882476D01*
X2299762Y-13882476D02*
X2318810Y-13892000D01*
X2318810Y-13892000D02*
X2328333Y-13901524D01*
X2328333Y-13901524D02*
X2337857Y-13920571D01*
X2337857Y-13920571D02*
X2347381Y-13958667D01*
X2347381Y-13958667D02*
X2347381Y-14006286D01*
X2347381Y-14006286D02*
X2337857Y-14044381D01*
X2337857Y-14044381D02*
X2328333Y-14063428D01*
X2328333Y-14063428D02*
X2318810Y-14072952D01*
X2318810Y-14072952D02*
X2299762Y-14082476D01*
X2299762Y-14082476D02*
X2280714Y-14082476D01*
X2280714Y-14082476D02*
X2261667Y-14072952D01*
X2261667Y-14072952D02*
X2252143Y-14063428D01*
X2252143Y-14063428D02*
X2242619Y-14044381D01*
X2242619Y-14044381D02*
X2233095Y-14006286D01*
X2233095Y-14006286D02*
X2233095Y-13958667D01*
X2233095Y-13958667D02*
X2242619Y-13920571D01*
X2242619Y-13920571D02*
X2252143Y-13901524D01*
X2252143Y-13901524D02*
X2261667Y-13892000D01*
X2261667Y-13892000D02*
X2280714Y-13882476D01*
X2433095Y-14063428D02*
X2442619Y-14072952D01*
X2442619Y-14072952D02*
X2433095Y-14082476D01*
X2433095Y-14082476D02*
X2423571Y-14072952D01*
X2423571Y-14072952D02*
X2433095Y-14063428D01*
X2433095Y-14063428D02*
X2433095Y-14082476D01*
X2614048Y-13949143D02*
X2614048Y-14082476D01*
X2566429Y-13872952D02*
X2518810Y-14015809D01*
X2518810Y-14015809D02*
X2642619Y-14015809D01*
X2756905Y-13882476D02*
X2775952Y-13882476D01*
X2775952Y-13882476D02*
X2795000Y-13892000D01*
X2795000Y-13892000D02*
X2804524Y-13901524D01*
X2804524Y-13901524D02*
X2814048Y-13920571D01*
X2814048Y-13920571D02*
X2823571Y-13958667D01*
X2823571Y-13958667D02*
X2823571Y-14006286D01*
X2823571Y-14006286D02*
X2814048Y-14044381D01*
X2814048Y-14044381D02*
X2804524Y-14063428D01*
X2804524Y-14063428D02*
X2795000Y-14072952D01*
X2795000Y-14072952D02*
X2775952Y-14082476D01*
X2775952Y-14082476D02*
X2756905Y-14082476D01*
X2756905Y-14082476D02*
X2737857Y-14072952D01*
X2737857Y-14072952D02*
X2728333Y-14063428D01*
X2728333Y-14063428D02*
X2718810Y-14044381D01*
X2718810Y-14044381D02*
X2709286Y-14006286D01*
X2709286Y-14006286D02*
X2709286Y-13958667D01*
X2709286Y-13958667D02*
X2718810Y-13920571D01*
X2718810Y-13920571D02*
X2728333Y-13901524D01*
X2728333Y-13901524D02*
X2737857Y-13892000D01*
X2737857Y-13892000D02*
X2756905Y-13882476D01*
X2947381Y-13882476D02*
X2966429Y-13882476D01*
X2966429Y-13882476D02*
X2985476Y-13892000D01*
X2985476Y-13892000D02*
X2995000Y-13901524D01*
X2995000Y-13901524D02*
X3004524Y-13920571D01*
X3004524Y-13920571D02*
X3014048Y-13958667D01*
X3014048Y-13958667D02*
X3014048Y-14006286D01*
X3014048Y-14006286D02*
X3004524Y-14044381D01*
X3004524Y-14044381D02*
X2995000Y-14063428D01*
X2995000Y-14063428D02*
X2985476Y-14072952D01*
X2985476Y-14072952D02*
X2966429Y-14082476D01*
X2966429Y-14082476D02*
X2947381Y-14082476D01*
X2947381Y-14082476D02*
X2928333Y-14072952D01*
X2928333Y-14072952D02*
X2918809Y-14063428D01*
X2918809Y-14063428D02*
X2909286Y-14044381D01*
X2909286Y-14044381D02*
X2899762Y-14006286D01*
X2899762Y-14006286D02*
X2899762Y-13958667D01*
X2899762Y-13958667D02*
X2909286Y-13920571D01*
X2909286Y-13920571D02*
X2918809Y-13901524D01*
X2918809Y-13901524D02*
X2928333Y-13892000D01*
X2928333Y-13892000D02*
X2947381Y-13882476D01*
X3099762Y-14082476D02*
X3099762Y-13949143D01*
X3099762Y-13968190D02*
X3109286Y-13958667D01*
X3109286Y-13958667D02*
X3128333Y-13949143D01*
X3128333Y-13949143D02*
X3156905Y-13949143D01*
X3156905Y-13949143D02*
X3175952Y-13958667D01*
X3175952Y-13958667D02*
X3185476Y-13977714D01*
X3185476Y-13977714D02*
X3185476Y-14082476D01*
X3185476Y-13977714D02*
X3195000Y-13958667D01*
X3195000Y-13958667D02*
X3214048Y-13949143D01*
X3214048Y-13949143D02*
X3242619Y-13949143D01*
X3242619Y-13949143D02*
X3261667Y-13958667D01*
X3261667Y-13958667D02*
X3271190Y-13977714D01*
X3271190Y-13977714D02*
X3271190Y-14082476D01*
X3366429Y-14082476D02*
X3366429Y-13949143D01*
X3366429Y-13968190D02*
X3375952Y-13958667D01*
X3375952Y-13958667D02*
X3395000Y-13949143D01*
X3395000Y-13949143D02*
X3423571Y-13949143D01*
X3423571Y-13949143D02*
X3442619Y-13958667D01*
X3442619Y-13958667D02*
X3452143Y-13977714D01*
X3452143Y-13977714D02*
X3452143Y-14082476D01*
X3452143Y-13977714D02*
X3461667Y-13958667D01*
X3461667Y-13958667D02*
X3480714Y-13949143D01*
X3480714Y-13949143D02*
X3509286Y-13949143D01*
X3509286Y-13949143D02*
X3528333Y-13958667D01*
X3528333Y-13958667D02*
X3537857Y-13977714D01*
X3537857Y-13977714D02*
X3537857Y-14082476D01*
X3895952Y-13872952D02*
X3724524Y-14130095D01*
X4120714Y-13882476D02*
X4139762Y-13882476D01*
X4139762Y-13882476D02*
X4158810Y-13892000D01*
X4158810Y-13892000D02*
X4168333Y-13901524D01*
X4168333Y-13901524D02*
X4177857Y-13920571D01*
X4177857Y-13920571D02*
X4187381Y-13958667D01*
X4187381Y-13958667D02*
X4187381Y-14006286D01*
X4187381Y-14006286D02*
X4177857Y-14044381D01*
X4177857Y-14044381D02*
X4168333Y-14063428D01*
X4168333Y-14063428D02*
X4158810Y-14072952D01*
X4158810Y-14072952D02*
X4139762Y-14082476D01*
X4139762Y-14082476D02*
X4120714Y-14082476D01*
X4120714Y-14082476D02*
X4101667Y-14072952D01*
X4101667Y-14072952D02*
X4092143Y-14063428D01*
X4092143Y-14063428D02*
X4082619Y-14044381D01*
X4082619Y-14044381D02*
X4073095Y-14006286D01*
X4073095Y-14006286D02*
X4073095Y-13958667D01*
X4073095Y-13958667D02*
X4082619Y-13920571D01*
X4082619Y-13920571D02*
X4092143Y-13901524D01*
X4092143Y-13901524D02*
X4101667Y-13892000D01*
X4101667Y-13892000D02*
X4120714Y-13882476D01*
X4273095Y-14063428D02*
X4282619Y-14072952D01*
X4282619Y-14072952D02*
X4273095Y-14082476D01*
X4273095Y-14082476D02*
X4263572Y-14072952D01*
X4263572Y-14072952D02*
X4273095Y-14063428D01*
X4273095Y-14063428D02*
X4273095Y-14082476D01*
X4406429Y-13882476D02*
X4425476Y-13882476D01*
X4425476Y-13882476D02*
X4444524Y-13892000D01*
X4444524Y-13892000D02*
X4454048Y-13901524D01*
X4454048Y-13901524D02*
X4463572Y-13920571D01*
X4463572Y-13920571D02*
X4473095Y-13958667D01*
X4473095Y-13958667D02*
X4473095Y-14006286D01*
X4473095Y-14006286D02*
X4463572Y-14044381D01*
X4463572Y-14044381D02*
X4454048Y-14063428D01*
X4454048Y-14063428D02*
X4444524Y-14072952D01*
X4444524Y-14072952D02*
X4425476Y-14082476D01*
X4425476Y-14082476D02*
X4406429Y-14082476D01*
X4406429Y-14082476D02*
X4387381Y-14072952D01*
X4387381Y-14072952D02*
X4377857Y-14063428D01*
X4377857Y-14063428D02*
X4368333Y-14044381D01*
X4368333Y-14044381D02*
X4358810Y-14006286D01*
X4358810Y-14006286D02*
X4358810Y-13958667D01*
X4358810Y-13958667D02*
X4368333Y-13920571D01*
X4368333Y-13920571D02*
X4377857Y-13901524D01*
X4377857Y-13901524D02*
X4387381Y-13892000D01*
X4387381Y-13892000D02*
X4406429Y-13882476D01*
X4663572Y-14082476D02*
X4549286Y-14082476D01*
X4606429Y-14082476D02*
X4606429Y-13882476D01*
X4606429Y-13882476D02*
X4587381Y-13911048D01*
X4587381Y-13911048D02*
X4568333Y-13930095D01*
X4568333Y-13930095D02*
X4549286Y-13939619D01*
X4844524Y-13882476D02*
X4749286Y-13882476D01*
X4749286Y-13882476D02*
X4739762Y-13977714D01*
X4739762Y-13977714D02*
X4749286Y-13968190D01*
X4749286Y-13968190D02*
X4768333Y-13958667D01*
X4768333Y-13958667D02*
X4815953Y-13958667D01*
X4815953Y-13958667D02*
X4835000Y-13968190D01*
X4835000Y-13968190D02*
X4844524Y-13977714D01*
X4844524Y-13977714D02*
X4854048Y-13996762D01*
X4854048Y-13996762D02*
X4854048Y-14044381D01*
X4854048Y-14044381D02*
X4844524Y-14063428D01*
X4844524Y-14063428D02*
X4835000Y-14072952D01*
X4835000Y-14072952D02*
X4815953Y-14082476D01*
X4815953Y-14082476D02*
X4768333Y-14082476D01*
X4768333Y-14082476D02*
X4749286Y-14072952D01*
X4749286Y-14072952D02*
X4739762Y-14063428D01*
X4920714Y-13882476D02*
X5054048Y-13882476D01*
X5054048Y-13882476D02*
X4968333Y-14082476D01*
X5120714Y-13882476D02*
X5120714Y-13920571D01*
X5196905Y-13882476D02*
X5196905Y-13920571D01*
X5459762Y-14158667D02*
X5450238Y-14149143D01*
X5450238Y-14149143D02*
X5431191Y-14120571D01*
X5431191Y-14120571D02*
X5421667Y-14101524D01*
X5421667Y-14101524D02*
X5412143Y-14072952D01*
X5412143Y-14072952D02*
X5402619Y-14025333D01*
X5402619Y-14025333D02*
X5402619Y-13987238D01*
X5402619Y-13987238D02*
X5412143Y-13939619D01*
X5412143Y-13939619D02*
X5421667Y-13911048D01*
X5421667Y-13911048D02*
X5431191Y-13892000D01*
X5431191Y-13892000D02*
X5450238Y-13863428D01*
X5450238Y-13863428D02*
X5459762Y-13853905D01*
X5526429Y-13901524D02*
X5535953Y-13892000D01*
X5535953Y-13892000D02*
X5555000Y-13882476D01*
X5555000Y-13882476D02*
X5602619Y-13882476D01*
X5602619Y-13882476D02*
X5621667Y-13892000D01*
X5621667Y-13892000D02*
X5631191Y-13901524D01*
X5631191Y-13901524D02*
X5640714Y-13920571D01*
X5640714Y-13920571D02*
X5640714Y-13939619D01*
X5640714Y-13939619D02*
X5631191Y-13968190D01*
X5631191Y-13968190D02*
X5516905Y-14082476D01*
X5516905Y-14082476D02*
X5640714Y-14082476D01*
X5716905Y-13901524D02*
X5726429Y-13892000D01*
X5726429Y-13892000D02*
X5745476Y-13882476D01*
X5745476Y-13882476D02*
X5793095Y-13882476D01*
X5793095Y-13882476D02*
X5812143Y-13892000D01*
X5812143Y-13892000D02*
X5821667Y-13901524D01*
X5821667Y-13901524D02*
X5831191Y-13920571D01*
X5831191Y-13920571D02*
X5831191Y-13939619D01*
X5831191Y-13939619D02*
X5821667Y-13968190D01*
X5821667Y-13968190D02*
X5707381Y-14082476D01*
X5707381Y-14082476D02*
X5831191Y-14082476D01*
X5926429Y-14082476D02*
X5964524Y-14082476D01*
X5964524Y-14082476D02*
X5983572Y-14072952D01*
X5983572Y-14072952D02*
X5993095Y-14063428D01*
X5993095Y-14063428D02*
X6012143Y-14034857D01*
X6012143Y-14034857D02*
X6021667Y-13996762D01*
X6021667Y-13996762D02*
X6021667Y-13920571D01*
X6021667Y-13920571D02*
X6012143Y-13901524D01*
X6012143Y-13901524D02*
X6002619Y-13892000D01*
X6002619Y-13892000D02*
X5983572Y-13882476D01*
X5983572Y-13882476D02*
X5945476Y-13882476D01*
X5945476Y-13882476D02*
X5926429Y-13892000D01*
X5926429Y-13892000D02*
X5916905Y-13901524D01*
X5916905Y-13901524D02*
X5907381Y-13920571D01*
X5907381Y-13920571D02*
X5907381Y-13968190D01*
X5907381Y-13968190D02*
X5916905Y-13987238D01*
X5916905Y-13987238D02*
X5926429Y-13996762D01*
X5926429Y-13996762D02*
X5945476Y-14006286D01*
X5945476Y-14006286D02*
X5983572Y-14006286D01*
X5983572Y-14006286D02*
X6002619Y-13996762D01*
X6002619Y-13996762D02*
X6012143Y-13987238D01*
X6012143Y-13987238D02*
X6021667Y-13968190D01*
X6227381Y-14082476D02*
X6227381Y-13882476D01*
X6313095Y-14082476D02*
X6313095Y-13977714D01*
X6313095Y-13977714D02*
X6303572Y-13958667D01*
X6303572Y-13958667D02*
X6284524Y-13949143D01*
X6284524Y-13949143D02*
X6255952Y-13949143D01*
X6255952Y-13949143D02*
X6236905Y-13958667D01*
X6236905Y-13958667D02*
X6227381Y-13968190D01*
X6436905Y-14082476D02*
X6417857Y-14072952D01*
X6417857Y-14072952D02*
X6408333Y-14063428D01*
X6408333Y-14063428D02*
X6398810Y-14044381D01*
X6398810Y-14044381D02*
X6398810Y-13987238D01*
X6398810Y-13987238D02*
X6408333Y-13968190D01*
X6408333Y-13968190D02*
X6417857Y-13958667D01*
X6417857Y-13958667D02*
X6436905Y-13949143D01*
X6436905Y-13949143D02*
X6465476Y-13949143D01*
X6465476Y-13949143D02*
X6484524Y-13958667D01*
X6484524Y-13958667D02*
X6494048Y-13968190D01*
X6494048Y-13968190D02*
X6503572Y-13987238D01*
X6503572Y-13987238D02*
X6503572Y-14044381D01*
X6503572Y-14044381D02*
X6494048Y-14063428D01*
X6494048Y-14063428D02*
X6484524Y-14072952D01*
X6484524Y-14072952D02*
X6465476Y-14082476D01*
X6465476Y-14082476D02*
X6436905Y-14082476D01*
X6617857Y-14082476D02*
X6598810Y-14072952D01*
X6598810Y-14072952D02*
X6589286Y-14053905D01*
X6589286Y-14053905D02*
X6589286Y-13882476D01*
X6770238Y-14072952D02*
X6751191Y-14082476D01*
X6751191Y-14082476D02*
X6713095Y-14082476D01*
X6713095Y-14082476D02*
X6694048Y-14072952D01*
X6694048Y-14072952D02*
X6684524Y-14053905D01*
X6684524Y-14053905D02*
X6684524Y-13977714D01*
X6684524Y-13977714D02*
X6694048Y-13958667D01*
X6694048Y-13958667D02*
X6713095Y-13949143D01*
X6713095Y-13949143D02*
X6751191Y-13949143D01*
X6751191Y-13949143D02*
X6770238Y-13958667D01*
X6770238Y-13958667D02*
X6779762Y-13977714D01*
X6779762Y-13977714D02*
X6779762Y-13996762D01*
X6779762Y-13996762D02*
X6684524Y-14015809D01*
X6855953Y-14072952D02*
X6875000Y-14082476D01*
X6875000Y-14082476D02*
X6913095Y-14082476D01*
X6913095Y-14082476D02*
X6932143Y-14072952D01*
X6932143Y-14072952D02*
X6941667Y-14053905D01*
X6941667Y-14053905D02*
X6941667Y-14044381D01*
X6941667Y-14044381D02*
X6932143Y-14025333D01*
X6932143Y-14025333D02*
X6913095Y-14015809D01*
X6913095Y-14015809D02*
X6884524Y-14015809D01*
X6884524Y-14015809D02*
X6865476Y-14006286D01*
X6865476Y-14006286D02*
X6855953Y-13987238D01*
X6855953Y-13987238D02*
X6855953Y-13977714D01*
X6855953Y-13977714D02*
X6865476Y-13958667D01*
X6865476Y-13958667D02*
X6884524Y-13949143D01*
X6884524Y-13949143D02*
X6913095Y-13949143D01*
X6913095Y-13949143D02*
X6932143Y-13958667D01*
X7008334Y-14158667D02*
X7017857Y-14149143D01*
X7017857Y-14149143D02*
X7036905Y-14120571D01*
X7036905Y-14120571D02*
X7046429Y-14101524D01*
X7046429Y-14101524D02*
X7055953Y-14072952D01*
X7055953Y-14072952D02*
X7065476Y-14025333D01*
X7065476Y-14025333D02*
X7065476Y-13987238D01*
X7065476Y-13987238D02*
X7055953Y-13939619D01*
X7055953Y-13939619D02*
X7046429Y-13911048D01*
X7046429Y-13911048D02*
X7036905Y-13892000D01*
X7036905Y-13892000D02*
X7017857Y-13863428D01*
X7017857Y-13863428D02*
X7008334Y-13853905D01*
D14*
X1955000Y-14233000D02*
X1955000Y-14313000D01*
X1915000Y-14273000D02*
X1995000Y-14273000D01*
D11*
X2280714Y-14146476D02*
X2299762Y-14146476D01*
X2299762Y-14146476D02*
X2318810Y-14156000D01*
X2318810Y-14156000D02*
X2328333Y-14165524D01*
X2328333Y-14165524D02*
X2337857Y-14184571D01*
X2337857Y-14184571D02*
X2347381Y-14222667D01*
X2347381Y-14222667D02*
X2347381Y-14270286D01*
X2347381Y-14270286D02*
X2337857Y-14308381D01*
X2337857Y-14308381D02*
X2328333Y-14327428D01*
X2328333Y-14327428D02*
X2318810Y-14336952D01*
X2318810Y-14336952D02*
X2299762Y-14346476D01*
X2299762Y-14346476D02*
X2280714Y-14346476D01*
X2280714Y-14346476D02*
X2261667Y-14336952D01*
X2261667Y-14336952D02*
X2252143Y-14327428D01*
X2252143Y-14327428D02*
X2242619Y-14308381D01*
X2242619Y-14308381D02*
X2233095Y-14270286D01*
X2233095Y-14270286D02*
X2233095Y-14222667D01*
X2233095Y-14222667D02*
X2242619Y-14184571D01*
X2242619Y-14184571D02*
X2252143Y-14165524D01*
X2252143Y-14165524D02*
X2261667Y-14156000D01*
X2261667Y-14156000D02*
X2280714Y-14146476D01*
X2433095Y-14327428D02*
X2442619Y-14336952D01*
X2442619Y-14336952D02*
X2433095Y-14346476D01*
X2433095Y-14346476D02*
X2423571Y-14336952D01*
X2423571Y-14336952D02*
X2433095Y-14327428D01*
X2433095Y-14327428D02*
X2433095Y-14346476D01*
X2556905Y-14232190D02*
X2537857Y-14222667D01*
X2537857Y-14222667D02*
X2528333Y-14213143D01*
X2528333Y-14213143D02*
X2518810Y-14194095D01*
X2518810Y-14194095D02*
X2518810Y-14184571D01*
X2518810Y-14184571D02*
X2528333Y-14165524D01*
X2528333Y-14165524D02*
X2537857Y-14156000D01*
X2537857Y-14156000D02*
X2556905Y-14146476D01*
X2556905Y-14146476D02*
X2595000Y-14146476D01*
X2595000Y-14146476D02*
X2614048Y-14156000D01*
X2614048Y-14156000D02*
X2623571Y-14165524D01*
X2623571Y-14165524D02*
X2633095Y-14184571D01*
X2633095Y-14184571D02*
X2633095Y-14194095D01*
X2633095Y-14194095D02*
X2623571Y-14213143D01*
X2623571Y-14213143D02*
X2614048Y-14222667D01*
X2614048Y-14222667D02*
X2595000Y-14232190D01*
X2595000Y-14232190D02*
X2556905Y-14232190D01*
X2556905Y-14232190D02*
X2537857Y-14241714D01*
X2537857Y-14241714D02*
X2528333Y-14251238D01*
X2528333Y-14251238D02*
X2518810Y-14270286D01*
X2518810Y-14270286D02*
X2518810Y-14308381D01*
X2518810Y-14308381D02*
X2528333Y-14327428D01*
X2528333Y-14327428D02*
X2537857Y-14336952D01*
X2537857Y-14336952D02*
X2556905Y-14346476D01*
X2556905Y-14346476D02*
X2595000Y-14346476D01*
X2595000Y-14346476D02*
X2614048Y-14336952D01*
X2614048Y-14336952D02*
X2623571Y-14327428D01*
X2623571Y-14327428D02*
X2633095Y-14308381D01*
X2633095Y-14308381D02*
X2633095Y-14270286D01*
X2633095Y-14270286D02*
X2623571Y-14251238D01*
X2623571Y-14251238D02*
X2614048Y-14241714D01*
X2614048Y-14241714D02*
X2595000Y-14232190D01*
X2756905Y-14146476D02*
X2775952Y-14146476D01*
X2775952Y-14146476D02*
X2795000Y-14156000D01*
X2795000Y-14156000D02*
X2804524Y-14165524D01*
X2804524Y-14165524D02*
X2814048Y-14184571D01*
X2814048Y-14184571D02*
X2823571Y-14222667D01*
X2823571Y-14222667D02*
X2823571Y-14270286D01*
X2823571Y-14270286D02*
X2814048Y-14308381D01*
X2814048Y-14308381D02*
X2804524Y-14327428D01*
X2804524Y-14327428D02*
X2795000Y-14336952D01*
X2795000Y-14336952D02*
X2775952Y-14346476D01*
X2775952Y-14346476D02*
X2756905Y-14346476D01*
X2756905Y-14346476D02*
X2737857Y-14336952D01*
X2737857Y-14336952D02*
X2728333Y-14327428D01*
X2728333Y-14327428D02*
X2718810Y-14308381D01*
X2718810Y-14308381D02*
X2709286Y-14270286D01*
X2709286Y-14270286D02*
X2709286Y-14222667D01*
X2709286Y-14222667D02*
X2718810Y-14184571D01*
X2718810Y-14184571D02*
X2728333Y-14165524D01*
X2728333Y-14165524D02*
X2737857Y-14156000D01*
X2737857Y-14156000D02*
X2756905Y-14146476D01*
X2947381Y-14146476D02*
X2966429Y-14146476D01*
X2966429Y-14146476D02*
X2985476Y-14156000D01*
X2985476Y-14156000D02*
X2995000Y-14165524D01*
X2995000Y-14165524D02*
X3004524Y-14184571D01*
X3004524Y-14184571D02*
X3014048Y-14222667D01*
X3014048Y-14222667D02*
X3014048Y-14270286D01*
X3014048Y-14270286D02*
X3004524Y-14308381D01*
X3004524Y-14308381D02*
X2995000Y-14327428D01*
X2995000Y-14327428D02*
X2985476Y-14336952D01*
X2985476Y-14336952D02*
X2966429Y-14346476D01*
X2966429Y-14346476D02*
X2947381Y-14346476D01*
X2947381Y-14346476D02*
X2928333Y-14336952D01*
X2928333Y-14336952D02*
X2918809Y-14327428D01*
X2918809Y-14327428D02*
X2909286Y-14308381D01*
X2909286Y-14308381D02*
X2899762Y-14270286D01*
X2899762Y-14270286D02*
X2899762Y-14222667D01*
X2899762Y-14222667D02*
X2909286Y-14184571D01*
X2909286Y-14184571D02*
X2918809Y-14165524D01*
X2918809Y-14165524D02*
X2928333Y-14156000D01*
X2928333Y-14156000D02*
X2947381Y-14146476D01*
X3099762Y-14346476D02*
X3099762Y-14213143D01*
X3099762Y-14232190D02*
X3109286Y-14222667D01*
X3109286Y-14222667D02*
X3128333Y-14213143D01*
X3128333Y-14213143D02*
X3156905Y-14213143D01*
X3156905Y-14213143D02*
X3175952Y-14222667D01*
X3175952Y-14222667D02*
X3185476Y-14241714D01*
X3185476Y-14241714D02*
X3185476Y-14346476D01*
X3185476Y-14241714D02*
X3195000Y-14222667D01*
X3195000Y-14222667D02*
X3214048Y-14213143D01*
X3214048Y-14213143D02*
X3242619Y-14213143D01*
X3242619Y-14213143D02*
X3261667Y-14222667D01*
X3261667Y-14222667D02*
X3271190Y-14241714D01*
X3271190Y-14241714D02*
X3271190Y-14346476D01*
X3366429Y-14346476D02*
X3366429Y-14213143D01*
X3366429Y-14232190D02*
X3375952Y-14222667D01*
X3375952Y-14222667D02*
X3395000Y-14213143D01*
X3395000Y-14213143D02*
X3423571Y-14213143D01*
X3423571Y-14213143D02*
X3442619Y-14222667D01*
X3442619Y-14222667D02*
X3452143Y-14241714D01*
X3452143Y-14241714D02*
X3452143Y-14346476D01*
X3452143Y-14241714D02*
X3461667Y-14222667D01*
X3461667Y-14222667D02*
X3480714Y-14213143D01*
X3480714Y-14213143D02*
X3509286Y-14213143D01*
X3509286Y-14213143D02*
X3528333Y-14222667D01*
X3528333Y-14222667D02*
X3537857Y-14241714D01*
X3537857Y-14241714D02*
X3537857Y-14346476D01*
X3895952Y-14136952D02*
X3724524Y-14394095D01*
X4120714Y-14146476D02*
X4139762Y-14146476D01*
X4139762Y-14146476D02*
X4158810Y-14156000D01*
X4158810Y-14156000D02*
X4168333Y-14165524D01*
X4168333Y-14165524D02*
X4177857Y-14184571D01*
X4177857Y-14184571D02*
X4187381Y-14222667D01*
X4187381Y-14222667D02*
X4187381Y-14270286D01*
X4187381Y-14270286D02*
X4177857Y-14308381D01*
X4177857Y-14308381D02*
X4168333Y-14327428D01*
X4168333Y-14327428D02*
X4158810Y-14336952D01*
X4158810Y-14336952D02*
X4139762Y-14346476D01*
X4139762Y-14346476D02*
X4120714Y-14346476D01*
X4120714Y-14346476D02*
X4101667Y-14336952D01*
X4101667Y-14336952D02*
X4092143Y-14327428D01*
X4092143Y-14327428D02*
X4082619Y-14308381D01*
X4082619Y-14308381D02*
X4073095Y-14270286D01*
X4073095Y-14270286D02*
X4073095Y-14222667D01*
X4073095Y-14222667D02*
X4082619Y-14184571D01*
X4082619Y-14184571D02*
X4092143Y-14165524D01*
X4092143Y-14165524D02*
X4101667Y-14156000D01*
X4101667Y-14156000D02*
X4120714Y-14146476D01*
X4273095Y-14327428D02*
X4282619Y-14336952D01*
X4282619Y-14336952D02*
X4273095Y-14346476D01*
X4273095Y-14346476D02*
X4263572Y-14336952D01*
X4263572Y-14336952D02*
X4273095Y-14327428D01*
X4273095Y-14327428D02*
X4273095Y-14346476D01*
X4406429Y-14146476D02*
X4425476Y-14146476D01*
X4425476Y-14146476D02*
X4444524Y-14156000D01*
X4444524Y-14156000D02*
X4454048Y-14165524D01*
X4454048Y-14165524D02*
X4463572Y-14184571D01*
X4463572Y-14184571D02*
X4473095Y-14222667D01*
X4473095Y-14222667D02*
X4473095Y-14270286D01*
X4473095Y-14270286D02*
X4463572Y-14308381D01*
X4463572Y-14308381D02*
X4454048Y-14327428D01*
X4454048Y-14327428D02*
X4444524Y-14336952D01*
X4444524Y-14336952D02*
X4425476Y-14346476D01*
X4425476Y-14346476D02*
X4406429Y-14346476D01*
X4406429Y-14346476D02*
X4387381Y-14336952D01*
X4387381Y-14336952D02*
X4377857Y-14327428D01*
X4377857Y-14327428D02*
X4368333Y-14308381D01*
X4368333Y-14308381D02*
X4358810Y-14270286D01*
X4358810Y-14270286D02*
X4358810Y-14222667D01*
X4358810Y-14222667D02*
X4368333Y-14184571D01*
X4368333Y-14184571D02*
X4377857Y-14165524D01*
X4377857Y-14165524D02*
X4387381Y-14156000D01*
X4387381Y-14156000D02*
X4406429Y-14146476D01*
X4539762Y-14146476D02*
X4663572Y-14146476D01*
X4663572Y-14146476D02*
X4596905Y-14222667D01*
X4596905Y-14222667D02*
X4625476Y-14222667D01*
X4625476Y-14222667D02*
X4644524Y-14232190D01*
X4644524Y-14232190D02*
X4654048Y-14241714D01*
X4654048Y-14241714D02*
X4663572Y-14260762D01*
X4663572Y-14260762D02*
X4663572Y-14308381D01*
X4663572Y-14308381D02*
X4654048Y-14327428D01*
X4654048Y-14327428D02*
X4644524Y-14336952D01*
X4644524Y-14336952D02*
X4625476Y-14346476D01*
X4625476Y-14346476D02*
X4568333Y-14346476D01*
X4568333Y-14346476D02*
X4549286Y-14336952D01*
X4549286Y-14336952D02*
X4539762Y-14327428D01*
X4854048Y-14346476D02*
X4739762Y-14346476D01*
X4796905Y-14346476D02*
X4796905Y-14146476D01*
X4796905Y-14146476D02*
X4777857Y-14175048D01*
X4777857Y-14175048D02*
X4758810Y-14194095D01*
X4758810Y-14194095D02*
X4739762Y-14203619D01*
X5035000Y-14146476D02*
X4939762Y-14146476D01*
X4939762Y-14146476D02*
X4930238Y-14241714D01*
X4930238Y-14241714D02*
X4939762Y-14232190D01*
X4939762Y-14232190D02*
X4958810Y-14222667D01*
X4958810Y-14222667D02*
X5006429Y-14222667D01*
X5006429Y-14222667D02*
X5025476Y-14232190D01*
X5025476Y-14232190D02*
X5035000Y-14241714D01*
X5035000Y-14241714D02*
X5044524Y-14260762D01*
X5044524Y-14260762D02*
X5044524Y-14308381D01*
X5044524Y-14308381D02*
X5035000Y-14327428D01*
X5035000Y-14327428D02*
X5025476Y-14336952D01*
X5025476Y-14336952D02*
X5006429Y-14346476D01*
X5006429Y-14346476D02*
X4958810Y-14346476D01*
X4958810Y-14346476D02*
X4939762Y-14336952D01*
X4939762Y-14336952D02*
X4930238Y-14327428D01*
X5120714Y-14146476D02*
X5120714Y-14184571D01*
X5196905Y-14146476D02*
X5196905Y-14184571D01*
X5459762Y-14422667D02*
X5450238Y-14413143D01*
X5450238Y-14413143D02*
X5431191Y-14384571D01*
X5431191Y-14384571D02*
X5421667Y-14365524D01*
X5421667Y-14365524D02*
X5412143Y-14336952D01*
X5412143Y-14336952D02*
X5402619Y-14289333D01*
X5402619Y-14289333D02*
X5402619Y-14251238D01*
X5402619Y-14251238D02*
X5412143Y-14203619D01*
X5412143Y-14203619D02*
X5421667Y-14175048D01*
X5421667Y-14175048D02*
X5431191Y-14156000D01*
X5431191Y-14156000D02*
X5450238Y-14127428D01*
X5450238Y-14127428D02*
X5459762Y-14117905D01*
X5526429Y-14165524D02*
X5535953Y-14156000D01*
X5535953Y-14156000D02*
X5555000Y-14146476D01*
X5555000Y-14146476D02*
X5602619Y-14146476D01*
X5602619Y-14146476D02*
X5621667Y-14156000D01*
X5621667Y-14156000D02*
X5631191Y-14165524D01*
X5631191Y-14165524D02*
X5640714Y-14184571D01*
X5640714Y-14184571D02*
X5640714Y-14203619D01*
X5640714Y-14203619D02*
X5631191Y-14232190D01*
X5631191Y-14232190D02*
X5516905Y-14346476D01*
X5516905Y-14346476D02*
X5640714Y-14346476D01*
X5846429Y-14346476D02*
X5846429Y-14146476D01*
X5932143Y-14346476D02*
X5932143Y-14241714D01*
X5932143Y-14241714D02*
X5922619Y-14222667D01*
X5922619Y-14222667D02*
X5903572Y-14213143D01*
X5903572Y-14213143D02*
X5875000Y-14213143D01*
X5875000Y-14213143D02*
X5855952Y-14222667D01*
X5855952Y-14222667D02*
X5846429Y-14232190D01*
X6055952Y-14346476D02*
X6036905Y-14336952D01*
X6036905Y-14336952D02*
X6027381Y-14327428D01*
X6027381Y-14327428D02*
X6017857Y-14308381D01*
X6017857Y-14308381D02*
X6017857Y-14251238D01*
X6017857Y-14251238D02*
X6027381Y-14232190D01*
X6027381Y-14232190D02*
X6036905Y-14222667D01*
X6036905Y-14222667D02*
X6055952Y-14213143D01*
X6055952Y-14213143D02*
X6084524Y-14213143D01*
X6084524Y-14213143D02*
X6103572Y-14222667D01*
X6103572Y-14222667D02*
X6113095Y-14232190D01*
X6113095Y-14232190D02*
X6122619Y-14251238D01*
X6122619Y-14251238D02*
X6122619Y-14308381D01*
X6122619Y-14308381D02*
X6113095Y-14327428D01*
X6113095Y-14327428D02*
X6103572Y-14336952D01*
X6103572Y-14336952D02*
X6084524Y-14346476D01*
X6084524Y-14346476D02*
X6055952Y-14346476D01*
X6236905Y-14346476D02*
X6217857Y-14336952D01*
X6217857Y-14336952D02*
X6208333Y-14317905D01*
X6208333Y-14317905D02*
X6208333Y-14146476D01*
X6389286Y-14336952D02*
X6370238Y-14346476D01*
X6370238Y-14346476D02*
X6332143Y-14346476D01*
X6332143Y-14346476D02*
X6313095Y-14336952D01*
X6313095Y-14336952D02*
X6303572Y-14317905D01*
X6303572Y-14317905D02*
X6303572Y-14241714D01*
X6303572Y-14241714D02*
X6313095Y-14222667D01*
X6313095Y-14222667D02*
X6332143Y-14213143D01*
X6332143Y-14213143D02*
X6370238Y-14213143D01*
X6370238Y-14213143D02*
X6389286Y-14222667D01*
X6389286Y-14222667D02*
X6398810Y-14241714D01*
X6398810Y-14241714D02*
X6398810Y-14260762D01*
X6398810Y-14260762D02*
X6303572Y-14279809D01*
X6475000Y-14336952D02*
X6494048Y-14346476D01*
X6494048Y-14346476D02*
X6532143Y-14346476D01*
X6532143Y-14346476D02*
X6551191Y-14336952D01*
X6551191Y-14336952D02*
X6560714Y-14317905D01*
X6560714Y-14317905D02*
X6560714Y-14308381D01*
X6560714Y-14308381D02*
X6551191Y-14289333D01*
X6551191Y-14289333D02*
X6532143Y-14279809D01*
X6532143Y-14279809D02*
X6503572Y-14279809D01*
X6503572Y-14279809D02*
X6484524Y-14270286D01*
X6484524Y-14270286D02*
X6475000Y-14251238D01*
X6475000Y-14251238D02*
X6475000Y-14241714D01*
X6475000Y-14241714D02*
X6484524Y-14222667D01*
X6484524Y-14222667D02*
X6503572Y-14213143D01*
X6503572Y-14213143D02*
X6532143Y-14213143D01*
X6532143Y-14213143D02*
X6551191Y-14222667D01*
X6627381Y-14422667D02*
X6636905Y-14413143D01*
X6636905Y-14413143D02*
X6655953Y-14384571D01*
X6655953Y-14384571D02*
X6665476Y-14365524D01*
X6665476Y-14365524D02*
X6675000Y-14336952D01*
X6675000Y-14336952D02*
X6684524Y-14289333D01*
X6684524Y-14289333D02*
X6684524Y-14251238D01*
X6684524Y-14251238D02*
X6675000Y-14203619D01*
X6675000Y-14203619D02*
X6665476Y-14175048D01*
X6665476Y-14175048D02*
X6655953Y-14156000D01*
X6655953Y-14156000D02*
X6636905Y-14127428D01*
X6636905Y-14127428D02*
X6627381Y-14117905D01*
D15*
X1982552Y-14567052D02*
X1982552Y-14506948D01*
X1922448Y-14506948D01*
X1922448Y-14567052D01*
X1982552Y-14567052D01*
D11*
X2280714Y-14410476D02*
X2299762Y-14410476D01*
X2299762Y-14410476D02*
X2318810Y-14420000D01*
X2318810Y-14420000D02*
X2328333Y-14429524D01*
X2328333Y-14429524D02*
X2337857Y-14448571D01*
X2337857Y-14448571D02*
X2347381Y-14486667D01*
X2347381Y-14486667D02*
X2347381Y-14534286D01*
X2347381Y-14534286D02*
X2337857Y-14572381D01*
X2337857Y-14572381D02*
X2328333Y-14591428D01*
X2328333Y-14591428D02*
X2318810Y-14600952D01*
X2318810Y-14600952D02*
X2299762Y-14610476D01*
X2299762Y-14610476D02*
X2280714Y-14610476D01*
X2280714Y-14610476D02*
X2261667Y-14600952D01*
X2261667Y-14600952D02*
X2252143Y-14591428D01*
X2252143Y-14591428D02*
X2242619Y-14572381D01*
X2242619Y-14572381D02*
X2233095Y-14534286D01*
X2233095Y-14534286D02*
X2233095Y-14486667D01*
X2233095Y-14486667D02*
X2242619Y-14448571D01*
X2242619Y-14448571D02*
X2252143Y-14429524D01*
X2252143Y-14429524D02*
X2261667Y-14420000D01*
X2261667Y-14420000D02*
X2280714Y-14410476D01*
X2433095Y-14591428D02*
X2442619Y-14600952D01*
X2442619Y-14600952D02*
X2433095Y-14610476D01*
X2433095Y-14610476D02*
X2423571Y-14600952D01*
X2423571Y-14600952D02*
X2433095Y-14591428D01*
X2433095Y-14591428D02*
X2433095Y-14610476D01*
X2556905Y-14496190D02*
X2537857Y-14486667D01*
X2537857Y-14486667D02*
X2528333Y-14477143D01*
X2528333Y-14477143D02*
X2518810Y-14458095D01*
X2518810Y-14458095D02*
X2518810Y-14448571D01*
X2518810Y-14448571D02*
X2528333Y-14429524D01*
X2528333Y-14429524D02*
X2537857Y-14420000D01*
X2537857Y-14420000D02*
X2556905Y-14410476D01*
X2556905Y-14410476D02*
X2595000Y-14410476D01*
X2595000Y-14410476D02*
X2614048Y-14420000D01*
X2614048Y-14420000D02*
X2623571Y-14429524D01*
X2623571Y-14429524D02*
X2633095Y-14448571D01*
X2633095Y-14448571D02*
X2633095Y-14458095D01*
X2633095Y-14458095D02*
X2623571Y-14477143D01*
X2623571Y-14477143D02*
X2614048Y-14486667D01*
X2614048Y-14486667D02*
X2595000Y-14496190D01*
X2595000Y-14496190D02*
X2556905Y-14496190D01*
X2556905Y-14496190D02*
X2537857Y-14505714D01*
X2537857Y-14505714D02*
X2528333Y-14515238D01*
X2528333Y-14515238D02*
X2518810Y-14534286D01*
X2518810Y-14534286D02*
X2518810Y-14572381D01*
X2518810Y-14572381D02*
X2528333Y-14591428D01*
X2528333Y-14591428D02*
X2537857Y-14600952D01*
X2537857Y-14600952D02*
X2556905Y-14610476D01*
X2556905Y-14610476D02*
X2595000Y-14610476D01*
X2595000Y-14610476D02*
X2614048Y-14600952D01*
X2614048Y-14600952D02*
X2623571Y-14591428D01*
X2623571Y-14591428D02*
X2633095Y-14572381D01*
X2633095Y-14572381D02*
X2633095Y-14534286D01*
X2633095Y-14534286D02*
X2623571Y-14515238D01*
X2623571Y-14515238D02*
X2614048Y-14505714D01*
X2614048Y-14505714D02*
X2595000Y-14496190D01*
X2814048Y-14410476D02*
X2718810Y-14410476D01*
X2718810Y-14410476D02*
X2709286Y-14505714D01*
X2709286Y-14505714D02*
X2718810Y-14496190D01*
X2718810Y-14496190D02*
X2737857Y-14486667D01*
X2737857Y-14486667D02*
X2785476Y-14486667D01*
X2785476Y-14486667D02*
X2804524Y-14496190D01*
X2804524Y-14496190D02*
X2814048Y-14505714D01*
X2814048Y-14505714D02*
X2823571Y-14524762D01*
X2823571Y-14524762D02*
X2823571Y-14572381D01*
X2823571Y-14572381D02*
X2814048Y-14591428D01*
X2814048Y-14591428D02*
X2804524Y-14600952D01*
X2804524Y-14600952D02*
X2785476Y-14610476D01*
X2785476Y-14610476D02*
X2737857Y-14610476D01*
X2737857Y-14610476D02*
X2718810Y-14600952D01*
X2718810Y-14600952D02*
X2709286Y-14591428D01*
X2947381Y-14410476D02*
X2966429Y-14410476D01*
X2966429Y-14410476D02*
X2985476Y-14420000D01*
X2985476Y-14420000D02*
X2995000Y-14429524D01*
X2995000Y-14429524D02*
X3004524Y-14448571D01*
X3004524Y-14448571D02*
X3014048Y-14486667D01*
X3014048Y-14486667D02*
X3014048Y-14534286D01*
X3014048Y-14534286D02*
X3004524Y-14572381D01*
X3004524Y-14572381D02*
X2995000Y-14591428D01*
X2995000Y-14591428D02*
X2985476Y-14600952D01*
X2985476Y-14600952D02*
X2966429Y-14610476D01*
X2966429Y-14610476D02*
X2947381Y-14610476D01*
X2947381Y-14610476D02*
X2928333Y-14600952D01*
X2928333Y-14600952D02*
X2918809Y-14591428D01*
X2918809Y-14591428D02*
X2909286Y-14572381D01*
X2909286Y-14572381D02*
X2899762Y-14534286D01*
X2899762Y-14534286D02*
X2899762Y-14486667D01*
X2899762Y-14486667D02*
X2909286Y-14448571D01*
X2909286Y-14448571D02*
X2918809Y-14429524D01*
X2918809Y-14429524D02*
X2928333Y-14420000D01*
X2928333Y-14420000D02*
X2947381Y-14410476D01*
X3099762Y-14610476D02*
X3099762Y-14477143D01*
X3099762Y-14496190D02*
X3109286Y-14486667D01*
X3109286Y-14486667D02*
X3128333Y-14477143D01*
X3128333Y-14477143D02*
X3156905Y-14477143D01*
X3156905Y-14477143D02*
X3175952Y-14486667D01*
X3175952Y-14486667D02*
X3185476Y-14505714D01*
X3185476Y-14505714D02*
X3185476Y-14610476D01*
X3185476Y-14505714D02*
X3195000Y-14486667D01*
X3195000Y-14486667D02*
X3214048Y-14477143D01*
X3214048Y-14477143D02*
X3242619Y-14477143D01*
X3242619Y-14477143D02*
X3261667Y-14486667D01*
X3261667Y-14486667D02*
X3271190Y-14505714D01*
X3271190Y-14505714D02*
X3271190Y-14610476D01*
X3366429Y-14610476D02*
X3366429Y-14477143D01*
X3366429Y-14496190D02*
X3375952Y-14486667D01*
X3375952Y-14486667D02*
X3395000Y-14477143D01*
X3395000Y-14477143D02*
X3423571Y-14477143D01*
X3423571Y-14477143D02*
X3442619Y-14486667D01*
X3442619Y-14486667D02*
X3452143Y-14505714D01*
X3452143Y-14505714D02*
X3452143Y-14610476D01*
X3452143Y-14505714D02*
X3461667Y-14486667D01*
X3461667Y-14486667D02*
X3480714Y-14477143D01*
X3480714Y-14477143D02*
X3509286Y-14477143D01*
X3509286Y-14477143D02*
X3528333Y-14486667D01*
X3528333Y-14486667D02*
X3537857Y-14505714D01*
X3537857Y-14505714D02*
X3537857Y-14610476D01*
X3895952Y-14400952D02*
X3724524Y-14658095D01*
X4120714Y-14410476D02*
X4139762Y-14410476D01*
X4139762Y-14410476D02*
X4158810Y-14420000D01*
X4158810Y-14420000D02*
X4168333Y-14429524D01*
X4168333Y-14429524D02*
X4177857Y-14448571D01*
X4177857Y-14448571D02*
X4187381Y-14486667D01*
X4187381Y-14486667D02*
X4187381Y-14534286D01*
X4187381Y-14534286D02*
X4177857Y-14572381D01*
X4177857Y-14572381D02*
X4168333Y-14591428D01*
X4168333Y-14591428D02*
X4158810Y-14600952D01*
X4158810Y-14600952D02*
X4139762Y-14610476D01*
X4139762Y-14610476D02*
X4120714Y-14610476D01*
X4120714Y-14610476D02*
X4101667Y-14600952D01*
X4101667Y-14600952D02*
X4092143Y-14591428D01*
X4092143Y-14591428D02*
X4082619Y-14572381D01*
X4082619Y-14572381D02*
X4073095Y-14534286D01*
X4073095Y-14534286D02*
X4073095Y-14486667D01*
X4073095Y-14486667D02*
X4082619Y-14448571D01*
X4082619Y-14448571D02*
X4092143Y-14429524D01*
X4092143Y-14429524D02*
X4101667Y-14420000D01*
X4101667Y-14420000D02*
X4120714Y-14410476D01*
X4273095Y-14591428D02*
X4282619Y-14600952D01*
X4282619Y-14600952D02*
X4273095Y-14610476D01*
X4273095Y-14610476D02*
X4263572Y-14600952D01*
X4263572Y-14600952D02*
X4273095Y-14591428D01*
X4273095Y-14591428D02*
X4273095Y-14610476D01*
X4406429Y-14410476D02*
X4425476Y-14410476D01*
X4425476Y-14410476D02*
X4444524Y-14420000D01*
X4444524Y-14420000D02*
X4454048Y-14429524D01*
X4454048Y-14429524D02*
X4463572Y-14448571D01*
X4463572Y-14448571D02*
X4473095Y-14486667D01*
X4473095Y-14486667D02*
X4473095Y-14534286D01*
X4473095Y-14534286D02*
X4463572Y-14572381D01*
X4463572Y-14572381D02*
X4454048Y-14591428D01*
X4454048Y-14591428D02*
X4444524Y-14600952D01*
X4444524Y-14600952D02*
X4425476Y-14610476D01*
X4425476Y-14610476D02*
X4406429Y-14610476D01*
X4406429Y-14610476D02*
X4387381Y-14600952D01*
X4387381Y-14600952D02*
X4377857Y-14591428D01*
X4377857Y-14591428D02*
X4368333Y-14572381D01*
X4368333Y-14572381D02*
X4358810Y-14534286D01*
X4358810Y-14534286D02*
X4358810Y-14486667D01*
X4358810Y-14486667D02*
X4368333Y-14448571D01*
X4368333Y-14448571D02*
X4377857Y-14429524D01*
X4377857Y-14429524D02*
X4387381Y-14420000D01*
X4387381Y-14420000D02*
X4406429Y-14410476D01*
X4539762Y-14410476D02*
X4663572Y-14410476D01*
X4663572Y-14410476D02*
X4596905Y-14486667D01*
X4596905Y-14486667D02*
X4625476Y-14486667D01*
X4625476Y-14486667D02*
X4644524Y-14496190D01*
X4644524Y-14496190D02*
X4654048Y-14505714D01*
X4654048Y-14505714D02*
X4663572Y-14524762D01*
X4663572Y-14524762D02*
X4663572Y-14572381D01*
X4663572Y-14572381D02*
X4654048Y-14591428D01*
X4654048Y-14591428D02*
X4644524Y-14600952D01*
X4644524Y-14600952D02*
X4625476Y-14610476D01*
X4625476Y-14610476D02*
X4568333Y-14610476D01*
X4568333Y-14610476D02*
X4549286Y-14600952D01*
X4549286Y-14600952D02*
X4539762Y-14591428D01*
X4730238Y-14410476D02*
X4854048Y-14410476D01*
X4854048Y-14410476D02*
X4787381Y-14486667D01*
X4787381Y-14486667D02*
X4815953Y-14486667D01*
X4815953Y-14486667D02*
X4835000Y-14496190D01*
X4835000Y-14496190D02*
X4844524Y-14505714D01*
X4844524Y-14505714D02*
X4854048Y-14524762D01*
X4854048Y-14524762D02*
X4854048Y-14572381D01*
X4854048Y-14572381D02*
X4844524Y-14591428D01*
X4844524Y-14591428D02*
X4835000Y-14600952D01*
X4835000Y-14600952D02*
X4815953Y-14610476D01*
X4815953Y-14610476D02*
X4758810Y-14610476D01*
X4758810Y-14610476D02*
X4739762Y-14600952D01*
X4739762Y-14600952D02*
X4730238Y-14591428D01*
X5035000Y-14410476D02*
X4939762Y-14410476D01*
X4939762Y-14410476D02*
X4930238Y-14505714D01*
X4930238Y-14505714D02*
X4939762Y-14496190D01*
X4939762Y-14496190D02*
X4958810Y-14486667D01*
X4958810Y-14486667D02*
X5006429Y-14486667D01*
X5006429Y-14486667D02*
X5025476Y-14496190D01*
X5025476Y-14496190D02*
X5035000Y-14505714D01*
X5035000Y-14505714D02*
X5044524Y-14524762D01*
X5044524Y-14524762D02*
X5044524Y-14572381D01*
X5044524Y-14572381D02*
X5035000Y-14591428D01*
X5035000Y-14591428D02*
X5025476Y-14600952D01*
X5025476Y-14600952D02*
X5006429Y-14610476D01*
X5006429Y-14610476D02*
X4958810Y-14610476D01*
X4958810Y-14610476D02*
X4939762Y-14600952D01*
X4939762Y-14600952D02*
X4930238Y-14591428D01*
X5120714Y-14410476D02*
X5120714Y-14448571D01*
X5196905Y-14410476D02*
X5196905Y-14448571D01*
X5459762Y-14686667D02*
X5450238Y-14677143D01*
X5450238Y-14677143D02*
X5431191Y-14648571D01*
X5431191Y-14648571D02*
X5421667Y-14629524D01*
X5421667Y-14629524D02*
X5412143Y-14600952D01*
X5412143Y-14600952D02*
X5402619Y-14553333D01*
X5402619Y-14553333D02*
X5402619Y-14515238D01*
X5402619Y-14515238D02*
X5412143Y-14467619D01*
X5412143Y-14467619D02*
X5421667Y-14439048D01*
X5421667Y-14439048D02*
X5431191Y-14420000D01*
X5431191Y-14420000D02*
X5450238Y-14391428D01*
X5450238Y-14391428D02*
X5459762Y-14381905D01*
X5516905Y-14410476D02*
X5650238Y-14410476D01*
X5650238Y-14410476D02*
X5564524Y-14610476D01*
X5846429Y-14610476D02*
X5846429Y-14410476D01*
X5932143Y-14610476D02*
X5932143Y-14505714D01*
X5932143Y-14505714D02*
X5922619Y-14486667D01*
X5922619Y-14486667D02*
X5903572Y-14477143D01*
X5903572Y-14477143D02*
X5875000Y-14477143D01*
X5875000Y-14477143D02*
X5855952Y-14486667D01*
X5855952Y-14486667D02*
X5846429Y-14496190D01*
X6055952Y-14610476D02*
X6036905Y-14600952D01*
X6036905Y-14600952D02*
X6027381Y-14591428D01*
X6027381Y-14591428D02*
X6017857Y-14572381D01*
X6017857Y-14572381D02*
X6017857Y-14515238D01*
X6017857Y-14515238D02*
X6027381Y-14496190D01*
X6027381Y-14496190D02*
X6036905Y-14486667D01*
X6036905Y-14486667D02*
X6055952Y-14477143D01*
X6055952Y-14477143D02*
X6084524Y-14477143D01*
X6084524Y-14477143D02*
X6103572Y-14486667D01*
X6103572Y-14486667D02*
X6113095Y-14496190D01*
X6113095Y-14496190D02*
X6122619Y-14515238D01*
X6122619Y-14515238D02*
X6122619Y-14572381D01*
X6122619Y-14572381D02*
X6113095Y-14591428D01*
X6113095Y-14591428D02*
X6103572Y-14600952D01*
X6103572Y-14600952D02*
X6084524Y-14610476D01*
X6084524Y-14610476D02*
X6055952Y-14610476D01*
X6236905Y-14610476D02*
X6217857Y-14600952D01*
X6217857Y-14600952D02*
X6208333Y-14581905D01*
X6208333Y-14581905D02*
X6208333Y-14410476D01*
X6389286Y-14600952D02*
X6370238Y-14610476D01*
X6370238Y-14610476D02*
X6332143Y-14610476D01*
X6332143Y-14610476D02*
X6313095Y-14600952D01*
X6313095Y-14600952D02*
X6303572Y-14581905D01*
X6303572Y-14581905D02*
X6303572Y-14505714D01*
X6303572Y-14505714D02*
X6313095Y-14486667D01*
X6313095Y-14486667D02*
X6332143Y-14477143D01*
X6332143Y-14477143D02*
X6370238Y-14477143D01*
X6370238Y-14477143D02*
X6389286Y-14486667D01*
X6389286Y-14486667D02*
X6398810Y-14505714D01*
X6398810Y-14505714D02*
X6398810Y-14524762D01*
X6398810Y-14524762D02*
X6303572Y-14543809D01*
X6475000Y-14600952D02*
X6494048Y-14610476D01*
X6494048Y-14610476D02*
X6532143Y-14610476D01*
X6532143Y-14610476D02*
X6551191Y-14600952D01*
X6551191Y-14600952D02*
X6560714Y-14581905D01*
X6560714Y-14581905D02*
X6560714Y-14572381D01*
X6560714Y-14572381D02*
X6551191Y-14553333D01*
X6551191Y-14553333D02*
X6532143Y-14543809D01*
X6532143Y-14543809D02*
X6503572Y-14543809D01*
X6503572Y-14543809D02*
X6484524Y-14534286D01*
X6484524Y-14534286D02*
X6475000Y-14515238D01*
X6475000Y-14515238D02*
X6475000Y-14505714D01*
X6475000Y-14505714D02*
X6484524Y-14486667D01*
X6484524Y-14486667D02*
X6503572Y-14477143D01*
X6503572Y-14477143D02*
X6532143Y-14477143D01*
X6532143Y-14477143D02*
X6551191Y-14486667D01*
X6627381Y-14686667D02*
X6636905Y-14677143D01*
X6636905Y-14677143D02*
X6655953Y-14648571D01*
X6655953Y-14648571D02*
X6665476Y-14629524D01*
X6665476Y-14629524D02*
X6675000Y-14600952D01*
X6675000Y-14600952D02*
X6684524Y-14553333D01*
X6684524Y-14553333D02*
X6684524Y-14515238D01*
X6684524Y-14515238D02*
X6675000Y-14467619D01*
X6675000Y-14467619D02*
X6665476Y-14439048D01*
X6665476Y-14439048D02*
X6655953Y-14420000D01*
X6655953Y-14420000D02*
X6636905Y-14391428D01*
X6636905Y-14391428D02*
X6627381Y-14381905D01*
D16*
X1950000Y-14846000D02*
X1995000Y-14801000D01*
X1950000Y-14756000D01*
X1905000Y-14801000D01*
X1950000Y-14846000D01*
D11*
X2280714Y-14674476D02*
X2299762Y-14674476D01*
X2299762Y-14674476D02*
X2318810Y-14684000D01*
X2318810Y-14684000D02*
X2328333Y-14693524D01*
X2328333Y-14693524D02*
X2337857Y-14712571D01*
X2337857Y-14712571D02*
X2347381Y-14750667D01*
X2347381Y-14750667D02*
X2347381Y-14798286D01*
X2347381Y-14798286D02*
X2337857Y-14836381D01*
X2337857Y-14836381D02*
X2328333Y-14855428D01*
X2328333Y-14855428D02*
X2318810Y-14864952D01*
X2318810Y-14864952D02*
X2299762Y-14874476D01*
X2299762Y-14874476D02*
X2280714Y-14874476D01*
X2280714Y-14874476D02*
X2261667Y-14864952D01*
X2261667Y-14864952D02*
X2252143Y-14855428D01*
X2252143Y-14855428D02*
X2242619Y-14836381D01*
X2242619Y-14836381D02*
X2233095Y-14798286D01*
X2233095Y-14798286D02*
X2233095Y-14750667D01*
X2233095Y-14750667D02*
X2242619Y-14712571D01*
X2242619Y-14712571D02*
X2252143Y-14693524D01*
X2252143Y-14693524D02*
X2261667Y-14684000D01*
X2261667Y-14684000D02*
X2280714Y-14674476D01*
X2433095Y-14855428D02*
X2442619Y-14864952D01*
X2442619Y-14864952D02*
X2433095Y-14874476D01*
X2433095Y-14874476D02*
X2423571Y-14864952D01*
X2423571Y-14864952D02*
X2433095Y-14855428D01*
X2433095Y-14855428D02*
X2433095Y-14874476D01*
X2537857Y-14874476D02*
X2575952Y-14874476D01*
X2575952Y-14874476D02*
X2595000Y-14864952D01*
X2595000Y-14864952D02*
X2604524Y-14855428D01*
X2604524Y-14855428D02*
X2623571Y-14826857D01*
X2623571Y-14826857D02*
X2633095Y-14788762D01*
X2633095Y-14788762D02*
X2633095Y-14712571D01*
X2633095Y-14712571D02*
X2623571Y-14693524D01*
X2623571Y-14693524D02*
X2614048Y-14684000D01*
X2614048Y-14684000D02*
X2595000Y-14674476D01*
X2595000Y-14674476D02*
X2556905Y-14674476D01*
X2556905Y-14674476D02*
X2537857Y-14684000D01*
X2537857Y-14684000D02*
X2528333Y-14693524D01*
X2528333Y-14693524D02*
X2518810Y-14712571D01*
X2518810Y-14712571D02*
X2518810Y-14760190D01*
X2518810Y-14760190D02*
X2528333Y-14779238D01*
X2528333Y-14779238D02*
X2537857Y-14788762D01*
X2537857Y-14788762D02*
X2556905Y-14798286D01*
X2556905Y-14798286D02*
X2595000Y-14798286D01*
X2595000Y-14798286D02*
X2614048Y-14788762D01*
X2614048Y-14788762D02*
X2623571Y-14779238D01*
X2623571Y-14779238D02*
X2633095Y-14760190D01*
X2756905Y-14674476D02*
X2775952Y-14674476D01*
X2775952Y-14674476D02*
X2795000Y-14684000D01*
X2795000Y-14684000D02*
X2804524Y-14693524D01*
X2804524Y-14693524D02*
X2814048Y-14712571D01*
X2814048Y-14712571D02*
X2823571Y-14750667D01*
X2823571Y-14750667D02*
X2823571Y-14798286D01*
X2823571Y-14798286D02*
X2814048Y-14836381D01*
X2814048Y-14836381D02*
X2804524Y-14855428D01*
X2804524Y-14855428D02*
X2795000Y-14864952D01*
X2795000Y-14864952D02*
X2775952Y-14874476D01*
X2775952Y-14874476D02*
X2756905Y-14874476D01*
X2756905Y-14874476D02*
X2737857Y-14864952D01*
X2737857Y-14864952D02*
X2728333Y-14855428D01*
X2728333Y-14855428D02*
X2718810Y-14836381D01*
X2718810Y-14836381D02*
X2709286Y-14798286D01*
X2709286Y-14798286D02*
X2709286Y-14750667D01*
X2709286Y-14750667D02*
X2718810Y-14712571D01*
X2718810Y-14712571D02*
X2728333Y-14693524D01*
X2728333Y-14693524D02*
X2737857Y-14684000D01*
X2737857Y-14684000D02*
X2756905Y-14674476D01*
X2947381Y-14674476D02*
X2966429Y-14674476D01*
X2966429Y-14674476D02*
X2985476Y-14684000D01*
X2985476Y-14684000D02*
X2995000Y-14693524D01*
X2995000Y-14693524D02*
X3004524Y-14712571D01*
X3004524Y-14712571D02*
X3014048Y-14750667D01*
X3014048Y-14750667D02*
X3014048Y-14798286D01*
X3014048Y-14798286D02*
X3004524Y-14836381D01*
X3004524Y-14836381D02*
X2995000Y-14855428D01*
X2995000Y-14855428D02*
X2985476Y-14864952D01*
X2985476Y-14864952D02*
X2966429Y-14874476D01*
X2966429Y-14874476D02*
X2947381Y-14874476D01*
X2947381Y-14874476D02*
X2928333Y-14864952D01*
X2928333Y-14864952D02*
X2918809Y-14855428D01*
X2918809Y-14855428D02*
X2909286Y-14836381D01*
X2909286Y-14836381D02*
X2899762Y-14798286D01*
X2899762Y-14798286D02*
X2899762Y-14750667D01*
X2899762Y-14750667D02*
X2909286Y-14712571D01*
X2909286Y-14712571D02*
X2918809Y-14693524D01*
X2918809Y-14693524D02*
X2928333Y-14684000D01*
X2928333Y-14684000D02*
X2947381Y-14674476D01*
X3099762Y-14874476D02*
X3099762Y-14741143D01*
X3099762Y-14760190D02*
X3109286Y-14750667D01*
X3109286Y-14750667D02*
X3128333Y-14741143D01*
X3128333Y-14741143D02*
X3156905Y-14741143D01*
X3156905Y-14741143D02*
X3175952Y-14750667D01*
X3175952Y-14750667D02*
X3185476Y-14769714D01*
X3185476Y-14769714D02*
X3185476Y-14874476D01*
X3185476Y-14769714D02*
X3195000Y-14750667D01*
X3195000Y-14750667D02*
X3214048Y-14741143D01*
X3214048Y-14741143D02*
X3242619Y-14741143D01*
X3242619Y-14741143D02*
X3261667Y-14750667D01*
X3261667Y-14750667D02*
X3271190Y-14769714D01*
X3271190Y-14769714D02*
X3271190Y-14874476D01*
X3366429Y-14874476D02*
X3366429Y-14741143D01*
X3366429Y-14760190D02*
X3375952Y-14750667D01*
X3375952Y-14750667D02*
X3395000Y-14741143D01*
X3395000Y-14741143D02*
X3423571Y-14741143D01*
X3423571Y-14741143D02*
X3442619Y-14750667D01*
X3442619Y-14750667D02*
X3452143Y-14769714D01*
X3452143Y-14769714D02*
X3452143Y-14874476D01*
X3452143Y-14769714D02*
X3461667Y-14750667D01*
X3461667Y-14750667D02*
X3480714Y-14741143D01*
X3480714Y-14741143D02*
X3509286Y-14741143D01*
X3509286Y-14741143D02*
X3528333Y-14750667D01*
X3528333Y-14750667D02*
X3537857Y-14769714D01*
X3537857Y-14769714D02*
X3537857Y-14874476D01*
X3895952Y-14664952D02*
X3724524Y-14922095D01*
X4120714Y-14674476D02*
X4139762Y-14674476D01*
X4139762Y-14674476D02*
X4158810Y-14684000D01*
X4158810Y-14684000D02*
X4168333Y-14693524D01*
X4168333Y-14693524D02*
X4177857Y-14712571D01*
X4177857Y-14712571D02*
X4187381Y-14750667D01*
X4187381Y-14750667D02*
X4187381Y-14798286D01*
X4187381Y-14798286D02*
X4177857Y-14836381D01*
X4177857Y-14836381D02*
X4168333Y-14855428D01*
X4168333Y-14855428D02*
X4158810Y-14864952D01*
X4158810Y-14864952D02*
X4139762Y-14874476D01*
X4139762Y-14874476D02*
X4120714Y-14874476D01*
X4120714Y-14874476D02*
X4101667Y-14864952D01*
X4101667Y-14864952D02*
X4092143Y-14855428D01*
X4092143Y-14855428D02*
X4082619Y-14836381D01*
X4082619Y-14836381D02*
X4073095Y-14798286D01*
X4073095Y-14798286D02*
X4073095Y-14750667D01*
X4073095Y-14750667D02*
X4082619Y-14712571D01*
X4082619Y-14712571D02*
X4092143Y-14693524D01*
X4092143Y-14693524D02*
X4101667Y-14684000D01*
X4101667Y-14684000D02*
X4120714Y-14674476D01*
X4273095Y-14855428D02*
X4282619Y-14864952D01*
X4282619Y-14864952D02*
X4273095Y-14874476D01*
X4273095Y-14874476D02*
X4263572Y-14864952D01*
X4263572Y-14864952D02*
X4273095Y-14855428D01*
X4273095Y-14855428D02*
X4273095Y-14874476D01*
X4406429Y-14674476D02*
X4425476Y-14674476D01*
X4425476Y-14674476D02*
X4444524Y-14684000D01*
X4444524Y-14684000D02*
X4454048Y-14693524D01*
X4454048Y-14693524D02*
X4463572Y-14712571D01*
X4463572Y-14712571D02*
X4473095Y-14750667D01*
X4473095Y-14750667D02*
X4473095Y-14798286D01*
X4473095Y-14798286D02*
X4463572Y-14836381D01*
X4463572Y-14836381D02*
X4454048Y-14855428D01*
X4454048Y-14855428D02*
X4444524Y-14864952D01*
X4444524Y-14864952D02*
X4425476Y-14874476D01*
X4425476Y-14874476D02*
X4406429Y-14874476D01*
X4406429Y-14874476D02*
X4387381Y-14864952D01*
X4387381Y-14864952D02*
X4377857Y-14855428D01*
X4377857Y-14855428D02*
X4368333Y-14836381D01*
X4368333Y-14836381D02*
X4358810Y-14798286D01*
X4358810Y-14798286D02*
X4358810Y-14750667D01*
X4358810Y-14750667D02*
X4368333Y-14712571D01*
X4368333Y-14712571D02*
X4377857Y-14693524D01*
X4377857Y-14693524D02*
X4387381Y-14684000D01*
X4387381Y-14684000D02*
X4406429Y-14674476D01*
X4539762Y-14674476D02*
X4663572Y-14674476D01*
X4663572Y-14674476D02*
X4596905Y-14750667D01*
X4596905Y-14750667D02*
X4625476Y-14750667D01*
X4625476Y-14750667D02*
X4644524Y-14760190D01*
X4644524Y-14760190D02*
X4654048Y-14769714D01*
X4654048Y-14769714D02*
X4663572Y-14788762D01*
X4663572Y-14788762D02*
X4663572Y-14836381D01*
X4663572Y-14836381D02*
X4654048Y-14855428D01*
X4654048Y-14855428D02*
X4644524Y-14864952D01*
X4644524Y-14864952D02*
X4625476Y-14874476D01*
X4625476Y-14874476D02*
X4568333Y-14874476D01*
X4568333Y-14874476D02*
X4549286Y-14864952D01*
X4549286Y-14864952D02*
X4539762Y-14855428D01*
X4844524Y-14674476D02*
X4749286Y-14674476D01*
X4749286Y-14674476D02*
X4739762Y-14769714D01*
X4739762Y-14769714D02*
X4749286Y-14760190D01*
X4749286Y-14760190D02*
X4768333Y-14750667D01*
X4768333Y-14750667D02*
X4815953Y-14750667D01*
X4815953Y-14750667D02*
X4835000Y-14760190D01*
X4835000Y-14760190D02*
X4844524Y-14769714D01*
X4844524Y-14769714D02*
X4854048Y-14788762D01*
X4854048Y-14788762D02*
X4854048Y-14836381D01*
X4854048Y-14836381D02*
X4844524Y-14855428D01*
X4844524Y-14855428D02*
X4835000Y-14864952D01*
X4835000Y-14864952D02*
X4815953Y-14874476D01*
X4815953Y-14874476D02*
X4768333Y-14874476D01*
X4768333Y-14874476D02*
X4749286Y-14864952D01*
X4749286Y-14864952D02*
X4739762Y-14855428D01*
X5025476Y-14741143D02*
X5025476Y-14874476D01*
X4977857Y-14664952D02*
X4930238Y-14807809D01*
X4930238Y-14807809D02*
X5054048Y-14807809D01*
X5120714Y-14674476D02*
X5120714Y-14712571D01*
X5196905Y-14674476D02*
X5196905Y-14712571D01*
X5459762Y-14950667D02*
X5450238Y-14941143D01*
X5450238Y-14941143D02*
X5431191Y-14912571D01*
X5431191Y-14912571D02*
X5421667Y-14893524D01*
X5421667Y-14893524D02*
X5412143Y-14864952D01*
X5412143Y-14864952D02*
X5402619Y-14817333D01*
X5402619Y-14817333D02*
X5402619Y-14779238D01*
X5402619Y-14779238D02*
X5412143Y-14731619D01*
X5412143Y-14731619D02*
X5421667Y-14703048D01*
X5421667Y-14703048D02*
X5431191Y-14684000D01*
X5431191Y-14684000D02*
X5450238Y-14655428D01*
X5450238Y-14655428D02*
X5459762Y-14645905D01*
X5526429Y-14693524D02*
X5535953Y-14684000D01*
X5535953Y-14684000D02*
X5555000Y-14674476D01*
X5555000Y-14674476D02*
X5602619Y-14674476D01*
X5602619Y-14674476D02*
X5621667Y-14684000D01*
X5621667Y-14684000D02*
X5631191Y-14693524D01*
X5631191Y-14693524D02*
X5640714Y-14712571D01*
X5640714Y-14712571D02*
X5640714Y-14731619D01*
X5640714Y-14731619D02*
X5631191Y-14760190D01*
X5631191Y-14760190D02*
X5516905Y-14874476D01*
X5516905Y-14874476D02*
X5640714Y-14874476D01*
X5846429Y-14874476D02*
X5846429Y-14674476D01*
X5932143Y-14874476D02*
X5932143Y-14769714D01*
X5932143Y-14769714D02*
X5922619Y-14750667D01*
X5922619Y-14750667D02*
X5903572Y-14741143D01*
X5903572Y-14741143D02*
X5875000Y-14741143D01*
X5875000Y-14741143D02*
X5855952Y-14750667D01*
X5855952Y-14750667D02*
X5846429Y-14760190D01*
X6055952Y-14874476D02*
X6036905Y-14864952D01*
X6036905Y-14864952D02*
X6027381Y-14855428D01*
X6027381Y-14855428D02*
X6017857Y-14836381D01*
X6017857Y-14836381D02*
X6017857Y-14779238D01*
X6017857Y-14779238D02*
X6027381Y-14760190D01*
X6027381Y-14760190D02*
X6036905Y-14750667D01*
X6036905Y-14750667D02*
X6055952Y-14741143D01*
X6055952Y-14741143D02*
X6084524Y-14741143D01*
X6084524Y-14741143D02*
X6103572Y-14750667D01*
X6103572Y-14750667D02*
X6113095Y-14760190D01*
X6113095Y-14760190D02*
X6122619Y-14779238D01*
X6122619Y-14779238D02*
X6122619Y-14836381D01*
X6122619Y-14836381D02*
X6113095Y-14855428D01*
X6113095Y-14855428D02*
X6103572Y-14864952D01*
X6103572Y-14864952D02*
X6084524Y-14874476D01*
X6084524Y-14874476D02*
X6055952Y-14874476D01*
X6236905Y-14874476D02*
X6217857Y-14864952D01*
X6217857Y-14864952D02*
X6208333Y-14845905D01*
X6208333Y-14845905D02*
X6208333Y-14674476D01*
X6389286Y-14864952D02*
X6370238Y-14874476D01*
X6370238Y-14874476D02*
X6332143Y-14874476D01*
X6332143Y-14874476D02*
X6313095Y-14864952D01*
X6313095Y-14864952D02*
X6303572Y-14845905D01*
X6303572Y-14845905D02*
X6303572Y-14769714D01*
X6303572Y-14769714D02*
X6313095Y-14750667D01*
X6313095Y-14750667D02*
X6332143Y-14741143D01*
X6332143Y-14741143D02*
X6370238Y-14741143D01*
X6370238Y-14741143D02*
X6389286Y-14750667D01*
X6389286Y-14750667D02*
X6398810Y-14769714D01*
X6398810Y-14769714D02*
X6398810Y-14788762D01*
X6398810Y-14788762D02*
X6303572Y-14807809D01*
X6475000Y-14864952D02*
X6494048Y-14874476D01*
X6494048Y-14874476D02*
X6532143Y-14874476D01*
X6532143Y-14874476D02*
X6551191Y-14864952D01*
X6551191Y-14864952D02*
X6560714Y-14845905D01*
X6560714Y-14845905D02*
X6560714Y-14836381D01*
X6560714Y-14836381D02*
X6551191Y-14817333D01*
X6551191Y-14817333D02*
X6532143Y-14807809D01*
X6532143Y-14807809D02*
X6503572Y-14807809D01*
X6503572Y-14807809D02*
X6484524Y-14798286D01*
X6484524Y-14798286D02*
X6475000Y-14779238D01*
X6475000Y-14779238D02*
X6475000Y-14769714D01*
X6475000Y-14769714D02*
X6484524Y-14750667D01*
X6484524Y-14750667D02*
X6503572Y-14741143D01*
X6503572Y-14741143D02*
X6532143Y-14741143D01*
X6532143Y-14741143D02*
X6551191Y-14750667D01*
X6627381Y-14950667D02*
X6636905Y-14941143D01*
X6636905Y-14941143D02*
X6655953Y-14912571D01*
X6655953Y-14912571D02*
X6665476Y-14893524D01*
X6665476Y-14893524D02*
X6675000Y-14864952D01*
X6675000Y-14864952D02*
X6684524Y-14817333D01*
X6684524Y-14817333D02*
X6684524Y-14779238D01*
X6684524Y-14779238D02*
X6675000Y-14731619D01*
X6675000Y-14731619D02*
X6665476Y-14703048D01*
X6665476Y-14703048D02*
X6655953Y-14684000D01*
X6655953Y-14684000D02*
X6636905Y-14655428D01*
X6636905Y-14655428D02*
X6627381Y-14645905D01*
D10*
X1895000Y-15015000D02*
X1995000Y-15115000D01*
X1995000Y-15015000D02*
X1895000Y-15115000D01*
X1995000Y-15065000D02*
G75*
G03*
X1995000Y-15065000I-50000J0D01*
G01*
D11*
X2347381Y-15138476D02*
X2233095Y-15138476D01*
X2290238Y-15138476D02*
X2290238Y-14938476D01*
X2290238Y-14938476D02*
X2271190Y-14967048D01*
X2271190Y-14967048D02*
X2252143Y-14986095D01*
X2252143Y-14986095D02*
X2233095Y-14995619D01*
X2433095Y-15119428D02*
X2442619Y-15128952D01*
X2442619Y-15128952D02*
X2433095Y-15138476D01*
X2433095Y-15138476D02*
X2423571Y-15128952D01*
X2423571Y-15128952D02*
X2433095Y-15119428D01*
X2433095Y-15119428D02*
X2433095Y-15138476D01*
X2566429Y-14938476D02*
X2585476Y-14938476D01*
X2585476Y-14938476D02*
X2604524Y-14948000D01*
X2604524Y-14948000D02*
X2614048Y-14957524D01*
X2614048Y-14957524D02*
X2623571Y-14976571D01*
X2623571Y-14976571D02*
X2633095Y-15014667D01*
X2633095Y-15014667D02*
X2633095Y-15062286D01*
X2633095Y-15062286D02*
X2623571Y-15100381D01*
X2623571Y-15100381D02*
X2614048Y-15119428D01*
X2614048Y-15119428D02*
X2604524Y-15128952D01*
X2604524Y-15128952D02*
X2585476Y-15138476D01*
X2585476Y-15138476D02*
X2566429Y-15138476D01*
X2566429Y-15138476D02*
X2547381Y-15128952D01*
X2547381Y-15128952D02*
X2537857Y-15119428D01*
X2537857Y-15119428D02*
X2528333Y-15100381D01*
X2528333Y-15100381D02*
X2518810Y-15062286D01*
X2518810Y-15062286D02*
X2518810Y-15014667D01*
X2518810Y-15014667D02*
X2528333Y-14976571D01*
X2528333Y-14976571D02*
X2537857Y-14957524D01*
X2537857Y-14957524D02*
X2547381Y-14948000D01*
X2547381Y-14948000D02*
X2566429Y-14938476D01*
X2756905Y-14938476D02*
X2775952Y-14938476D01*
X2775952Y-14938476D02*
X2795000Y-14948000D01*
X2795000Y-14948000D02*
X2804524Y-14957524D01*
X2804524Y-14957524D02*
X2814048Y-14976571D01*
X2814048Y-14976571D02*
X2823571Y-15014667D01*
X2823571Y-15014667D02*
X2823571Y-15062286D01*
X2823571Y-15062286D02*
X2814048Y-15100381D01*
X2814048Y-15100381D02*
X2804524Y-15119428D01*
X2804524Y-15119428D02*
X2795000Y-15128952D01*
X2795000Y-15128952D02*
X2775952Y-15138476D01*
X2775952Y-15138476D02*
X2756905Y-15138476D01*
X2756905Y-15138476D02*
X2737857Y-15128952D01*
X2737857Y-15128952D02*
X2728333Y-15119428D01*
X2728333Y-15119428D02*
X2718810Y-15100381D01*
X2718810Y-15100381D02*
X2709286Y-15062286D01*
X2709286Y-15062286D02*
X2709286Y-15014667D01*
X2709286Y-15014667D02*
X2718810Y-14976571D01*
X2718810Y-14976571D02*
X2728333Y-14957524D01*
X2728333Y-14957524D02*
X2737857Y-14948000D01*
X2737857Y-14948000D02*
X2756905Y-14938476D01*
X2947381Y-14938476D02*
X2966429Y-14938476D01*
X2966429Y-14938476D02*
X2985476Y-14948000D01*
X2985476Y-14948000D02*
X2995000Y-14957524D01*
X2995000Y-14957524D02*
X3004524Y-14976571D01*
X3004524Y-14976571D02*
X3014048Y-15014667D01*
X3014048Y-15014667D02*
X3014048Y-15062286D01*
X3014048Y-15062286D02*
X3004524Y-15100381D01*
X3004524Y-15100381D02*
X2995000Y-15119428D01*
X2995000Y-15119428D02*
X2985476Y-15128952D01*
X2985476Y-15128952D02*
X2966429Y-15138476D01*
X2966429Y-15138476D02*
X2947381Y-15138476D01*
X2947381Y-15138476D02*
X2928333Y-15128952D01*
X2928333Y-15128952D02*
X2918809Y-15119428D01*
X2918809Y-15119428D02*
X2909286Y-15100381D01*
X2909286Y-15100381D02*
X2899762Y-15062286D01*
X2899762Y-15062286D02*
X2899762Y-15014667D01*
X2899762Y-15014667D02*
X2909286Y-14976571D01*
X2909286Y-14976571D02*
X2918809Y-14957524D01*
X2918809Y-14957524D02*
X2928333Y-14948000D01*
X2928333Y-14948000D02*
X2947381Y-14938476D01*
X3099762Y-15138476D02*
X3099762Y-15005143D01*
X3099762Y-15024190D02*
X3109286Y-15014667D01*
X3109286Y-15014667D02*
X3128333Y-15005143D01*
X3128333Y-15005143D02*
X3156905Y-15005143D01*
X3156905Y-15005143D02*
X3175952Y-15014667D01*
X3175952Y-15014667D02*
X3185476Y-15033714D01*
X3185476Y-15033714D02*
X3185476Y-15138476D01*
X3185476Y-15033714D02*
X3195000Y-15014667D01*
X3195000Y-15014667D02*
X3214048Y-15005143D01*
X3214048Y-15005143D02*
X3242619Y-15005143D01*
X3242619Y-15005143D02*
X3261667Y-15014667D01*
X3261667Y-15014667D02*
X3271190Y-15033714D01*
X3271190Y-15033714D02*
X3271190Y-15138476D01*
X3366429Y-15138476D02*
X3366429Y-15005143D01*
X3366429Y-15024190D02*
X3375952Y-15014667D01*
X3375952Y-15014667D02*
X3395000Y-15005143D01*
X3395000Y-15005143D02*
X3423571Y-15005143D01*
X3423571Y-15005143D02*
X3442619Y-15014667D01*
X3442619Y-15014667D02*
X3452143Y-15033714D01*
X3452143Y-15033714D02*
X3452143Y-15138476D01*
X3452143Y-15033714D02*
X3461667Y-15014667D01*
X3461667Y-15014667D02*
X3480714Y-15005143D01*
X3480714Y-15005143D02*
X3509286Y-15005143D01*
X3509286Y-15005143D02*
X3528333Y-15014667D01*
X3528333Y-15014667D02*
X3537857Y-15033714D01*
X3537857Y-15033714D02*
X3537857Y-15138476D01*
X3895952Y-14928952D02*
X3724524Y-15186095D01*
X4120714Y-14938476D02*
X4139762Y-14938476D01*
X4139762Y-14938476D02*
X4158810Y-14948000D01*
X4158810Y-14948000D02*
X4168333Y-14957524D01*
X4168333Y-14957524D02*
X4177857Y-14976571D01*
X4177857Y-14976571D02*
X4187381Y-15014667D01*
X4187381Y-15014667D02*
X4187381Y-15062286D01*
X4187381Y-15062286D02*
X4177857Y-15100381D01*
X4177857Y-15100381D02*
X4168333Y-15119428D01*
X4168333Y-15119428D02*
X4158810Y-15128952D01*
X4158810Y-15128952D02*
X4139762Y-15138476D01*
X4139762Y-15138476D02*
X4120714Y-15138476D01*
X4120714Y-15138476D02*
X4101667Y-15128952D01*
X4101667Y-15128952D02*
X4092143Y-15119428D01*
X4092143Y-15119428D02*
X4082619Y-15100381D01*
X4082619Y-15100381D02*
X4073095Y-15062286D01*
X4073095Y-15062286D02*
X4073095Y-15014667D01*
X4073095Y-15014667D02*
X4082619Y-14976571D01*
X4082619Y-14976571D02*
X4092143Y-14957524D01*
X4092143Y-14957524D02*
X4101667Y-14948000D01*
X4101667Y-14948000D02*
X4120714Y-14938476D01*
X4273095Y-15119428D02*
X4282619Y-15128952D01*
X4282619Y-15128952D02*
X4273095Y-15138476D01*
X4273095Y-15138476D02*
X4263572Y-15128952D01*
X4263572Y-15128952D02*
X4273095Y-15119428D01*
X4273095Y-15119428D02*
X4273095Y-15138476D01*
X4406429Y-14938476D02*
X4425476Y-14938476D01*
X4425476Y-14938476D02*
X4444524Y-14948000D01*
X4444524Y-14948000D02*
X4454048Y-14957524D01*
X4454048Y-14957524D02*
X4463572Y-14976571D01*
X4463572Y-14976571D02*
X4473095Y-15014667D01*
X4473095Y-15014667D02*
X4473095Y-15062286D01*
X4473095Y-15062286D02*
X4463572Y-15100381D01*
X4463572Y-15100381D02*
X4454048Y-15119428D01*
X4454048Y-15119428D02*
X4444524Y-15128952D01*
X4444524Y-15128952D02*
X4425476Y-15138476D01*
X4425476Y-15138476D02*
X4406429Y-15138476D01*
X4406429Y-15138476D02*
X4387381Y-15128952D01*
X4387381Y-15128952D02*
X4377857Y-15119428D01*
X4377857Y-15119428D02*
X4368333Y-15100381D01*
X4368333Y-15100381D02*
X4358810Y-15062286D01*
X4358810Y-15062286D02*
X4358810Y-15014667D01*
X4358810Y-15014667D02*
X4368333Y-14976571D01*
X4368333Y-14976571D02*
X4377857Y-14957524D01*
X4377857Y-14957524D02*
X4387381Y-14948000D01*
X4387381Y-14948000D02*
X4406429Y-14938476D01*
X4539762Y-14938476D02*
X4663572Y-14938476D01*
X4663572Y-14938476D02*
X4596905Y-15014667D01*
X4596905Y-15014667D02*
X4625476Y-15014667D01*
X4625476Y-15014667D02*
X4644524Y-15024190D01*
X4644524Y-15024190D02*
X4654048Y-15033714D01*
X4654048Y-15033714D02*
X4663572Y-15052762D01*
X4663572Y-15052762D02*
X4663572Y-15100381D01*
X4663572Y-15100381D02*
X4654048Y-15119428D01*
X4654048Y-15119428D02*
X4644524Y-15128952D01*
X4644524Y-15128952D02*
X4625476Y-15138476D01*
X4625476Y-15138476D02*
X4568333Y-15138476D01*
X4568333Y-15138476D02*
X4549286Y-15128952D01*
X4549286Y-15128952D02*
X4539762Y-15119428D01*
X4758810Y-15138476D02*
X4796905Y-15138476D01*
X4796905Y-15138476D02*
X4815953Y-15128952D01*
X4815953Y-15128952D02*
X4825476Y-15119428D01*
X4825476Y-15119428D02*
X4844524Y-15090857D01*
X4844524Y-15090857D02*
X4854048Y-15052762D01*
X4854048Y-15052762D02*
X4854048Y-14976571D01*
X4854048Y-14976571D02*
X4844524Y-14957524D01*
X4844524Y-14957524D02*
X4835000Y-14948000D01*
X4835000Y-14948000D02*
X4815953Y-14938476D01*
X4815953Y-14938476D02*
X4777857Y-14938476D01*
X4777857Y-14938476D02*
X4758810Y-14948000D01*
X4758810Y-14948000D02*
X4749286Y-14957524D01*
X4749286Y-14957524D02*
X4739762Y-14976571D01*
X4739762Y-14976571D02*
X4739762Y-15024190D01*
X4739762Y-15024190D02*
X4749286Y-15043238D01*
X4749286Y-15043238D02*
X4758810Y-15052762D01*
X4758810Y-15052762D02*
X4777857Y-15062286D01*
X4777857Y-15062286D02*
X4815953Y-15062286D01*
X4815953Y-15062286D02*
X4835000Y-15052762D01*
X4835000Y-15052762D02*
X4844524Y-15043238D01*
X4844524Y-15043238D02*
X4854048Y-15024190D01*
X5025476Y-15005143D02*
X5025476Y-15138476D01*
X4977857Y-14928952D02*
X4930238Y-15071809D01*
X4930238Y-15071809D02*
X5054048Y-15071809D01*
X5120714Y-14938476D02*
X5120714Y-14976571D01*
X5196905Y-14938476D02*
X5196905Y-14976571D01*
X5459762Y-15214667D02*
X5450238Y-15205143D01*
X5450238Y-15205143D02*
X5431191Y-15176571D01*
X5431191Y-15176571D02*
X5421667Y-15157524D01*
X5421667Y-15157524D02*
X5412143Y-15128952D01*
X5412143Y-15128952D02*
X5402619Y-15081333D01*
X5402619Y-15081333D02*
X5402619Y-15043238D01*
X5402619Y-15043238D02*
X5412143Y-14995619D01*
X5412143Y-14995619D02*
X5421667Y-14967048D01*
X5421667Y-14967048D02*
X5431191Y-14948000D01*
X5431191Y-14948000D02*
X5450238Y-14919428D01*
X5450238Y-14919428D02*
X5459762Y-14909905D01*
X5621667Y-15005143D02*
X5621667Y-15138476D01*
X5574048Y-14928952D02*
X5526429Y-15071809D01*
X5526429Y-15071809D02*
X5650238Y-15071809D01*
X5831191Y-15138476D02*
X5716905Y-15138476D01*
X5774048Y-15138476D02*
X5774048Y-14938476D01*
X5774048Y-14938476D02*
X5755000Y-14967048D01*
X5755000Y-14967048D02*
X5735952Y-14986095D01*
X5735952Y-14986095D02*
X5716905Y-14995619D01*
X6036905Y-15138476D02*
X6036905Y-14938476D01*
X6122619Y-15138476D02*
X6122619Y-15033714D01*
X6122619Y-15033714D02*
X6113095Y-15014667D01*
X6113095Y-15014667D02*
X6094048Y-15005143D01*
X6094048Y-15005143D02*
X6065476Y-15005143D01*
X6065476Y-15005143D02*
X6046429Y-15014667D01*
X6046429Y-15014667D02*
X6036905Y-15024190D01*
X6246429Y-15138476D02*
X6227381Y-15128952D01*
X6227381Y-15128952D02*
X6217857Y-15119428D01*
X6217857Y-15119428D02*
X6208333Y-15100381D01*
X6208333Y-15100381D02*
X6208333Y-15043238D01*
X6208333Y-15043238D02*
X6217857Y-15024190D01*
X6217857Y-15024190D02*
X6227381Y-15014667D01*
X6227381Y-15014667D02*
X6246429Y-15005143D01*
X6246429Y-15005143D02*
X6275000Y-15005143D01*
X6275000Y-15005143D02*
X6294048Y-15014667D01*
X6294048Y-15014667D02*
X6303572Y-15024190D01*
X6303572Y-15024190D02*
X6313095Y-15043238D01*
X6313095Y-15043238D02*
X6313095Y-15100381D01*
X6313095Y-15100381D02*
X6303572Y-15119428D01*
X6303572Y-15119428D02*
X6294048Y-15128952D01*
X6294048Y-15128952D02*
X6275000Y-15138476D01*
X6275000Y-15138476D02*
X6246429Y-15138476D01*
X6427381Y-15138476D02*
X6408333Y-15128952D01*
X6408333Y-15128952D02*
X6398810Y-15109905D01*
X6398810Y-15109905D02*
X6398810Y-14938476D01*
X6579762Y-15128952D02*
X6560714Y-15138476D01*
X6560714Y-15138476D02*
X6522619Y-15138476D01*
X6522619Y-15138476D02*
X6503572Y-15128952D01*
X6503572Y-15128952D02*
X6494048Y-15109905D01*
X6494048Y-15109905D02*
X6494048Y-15033714D01*
X6494048Y-15033714D02*
X6503572Y-15014667D01*
X6503572Y-15014667D02*
X6522619Y-15005143D01*
X6522619Y-15005143D02*
X6560714Y-15005143D01*
X6560714Y-15005143D02*
X6579762Y-15014667D01*
X6579762Y-15014667D02*
X6589286Y-15033714D01*
X6589286Y-15033714D02*
X6589286Y-15052762D01*
X6589286Y-15052762D02*
X6494048Y-15071809D01*
X6665476Y-15128952D02*
X6684524Y-15138476D01*
X6684524Y-15138476D02*
X6722619Y-15138476D01*
X6722619Y-15138476D02*
X6741667Y-15128952D01*
X6741667Y-15128952D02*
X6751191Y-15109905D01*
X6751191Y-15109905D02*
X6751191Y-15100381D01*
X6751191Y-15100381D02*
X6741667Y-15081333D01*
X6741667Y-15081333D02*
X6722619Y-15071809D01*
X6722619Y-15071809D02*
X6694048Y-15071809D01*
X6694048Y-15071809D02*
X6675000Y-15062286D01*
X6675000Y-15062286D02*
X6665476Y-15043238D01*
X6665476Y-15043238D02*
X6665476Y-15033714D01*
X6665476Y-15033714D02*
X6675000Y-15014667D01*
X6675000Y-15014667D02*
X6694048Y-15005143D01*
X6694048Y-15005143D02*
X6722619Y-15005143D01*
X6722619Y-15005143D02*
X6741667Y-15014667D01*
X6956905Y-15062286D02*
X7109286Y-15062286D01*
X7033095Y-15138476D02*
X7033095Y-14986095D01*
X7305476Y-14938476D02*
X7438810Y-14938476D01*
X7438810Y-14938476D02*
X7353095Y-15138476D01*
X7505476Y-14957524D02*
X7515000Y-14948000D01*
X7515000Y-14948000D02*
X7534048Y-14938476D01*
X7534048Y-14938476D02*
X7581667Y-14938476D01*
X7581667Y-14938476D02*
X7600714Y-14948000D01*
X7600714Y-14948000D02*
X7610238Y-14957524D01*
X7610238Y-14957524D02*
X7619762Y-14976571D01*
X7619762Y-14976571D02*
X7619762Y-14995619D01*
X7619762Y-14995619D02*
X7610238Y-15024190D01*
X7610238Y-15024190D02*
X7495953Y-15138476D01*
X7495953Y-15138476D02*
X7619762Y-15138476D01*
X7815953Y-15128952D02*
X7835000Y-15138476D01*
X7835000Y-15138476D02*
X7873095Y-15138476D01*
X7873095Y-15138476D02*
X7892143Y-15128952D01*
X7892143Y-15128952D02*
X7901667Y-15109905D01*
X7901667Y-15109905D02*
X7901667Y-15100381D01*
X7901667Y-15100381D02*
X7892143Y-15081333D01*
X7892143Y-15081333D02*
X7873095Y-15071809D01*
X7873095Y-15071809D02*
X7844524Y-15071809D01*
X7844524Y-15071809D02*
X7825476Y-15062286D01*
X7825476Y-15062286D02*
X7815953Y-15043238D01*
X7815953Y-15043238D02*
X7815953Y-15033714D01*
X7815953Y-15033714D02*
X7825476Y-15014667D01*
X7825476Y-15014667D02*
X7844524Y-15005143D01*
X7844524Y-15005143D02*
X7873095Y-15005143D01*
X7873095Y-15005143D02*
X7892143Y-15014667D01*
X8015953Y-15138476D02*
X7996905Y-15128952D01*
X7996905Y-15128952D02*
X7987381Y-15109905D01*
X7987381Y-15109905D02*
X7987381Y-14938476D01*
X8120714Y-15138476D02*
X8101667Y-15128952D01*
X8101667Y-15128952D02*
X8092143Y-15119428D01*
X8092143Y-15119428D02*
X8082619Y-15100381D01*
X8082619Y-15100381D02*
X8082619Y-15043238D01*
X8082619Y-15043238D02*
X8092143Y-15024190D01*
X8092143Y-15024190D02*
X8101667Y-15014667D01*
X8101667Y-15014667D02*
X8120714Y-15005143D01*
X8120714Y-15005143D02*
X8149286Y-15005143D01*
X8149286Y-15005143D02*
X8168334Y-15014667D01*
X8168334Y-15014667D02*
X8177857Y-15024190D01*
X8177857Y-15024190D02*
X8187381Y-15043238D01*
X8187381Y-15043238D02*
X8187381Y-15100381D01*
X8187381Y-15100381D02*
X8177857Y-15119428D01*
X8177857Y-15119428D02*
X8168334Y-15128952D01*
X8168334Y-15128952D02*
X8149286Y-15138476D01*
X8149286Y-15138476D02*
X8120714Y-15138476D01*
X8244524Y-15005143D02*
X8320714Y-15005143D01*
X8273095Y-14938476D02*
X8273095Y-15109905D01*
X8273095Y-15109905D02*
X8282619Y-15128952D01*
X8282619Y-15128952D02*
X8301667Y-15138476D01*
X8301667Y-15138476D02*
X8320714Y-15138476D01*
X8377857Y-15128952D02*
X8396905Y-15138476D01*
X8396905Y-15138476D02*
X8435000Y-15138476D01*
X8435000Y-15138476D02*
X8454048Y-15128952D01*
X8454048Y-15128952D02*
X8463572Y-15109905D01*
X8463572Y-15109905D02*
X8463572Y-15100381D01*
X8463572Y-15100381D02*
X8454048Y-15081333D01*
X8454048Y-15081333D02*
X8435000Y-15071809D01*
X8435000Y-15071809D02*
X8406429Y-15071809D01*
X8406429Y-15071809D02*
X8387381Y-15062286D01*
X8387381Y-15062286D02*
X8377857Y-15043238D01*
X8377857Y-15043238D02*
X8377857Y-15033714D01*
X8377857Y-15033714D02*
X8387381Y-15014667D01*
X8387381Y-15014667D02*
X8406429Y-15005143D01*
X8406429Y-15005143D02*
X8435000Y-15005143D01*
X8435000Y-15005143D02*
X8454048Y-15014667D01*
X8530238Y-15214667D02*
X8539762Y-15205143D01*
X8539762Y-15205143D02*
X8558810Y-15176571D01*
X8558810Y-15176571D02*
X8568334Y-15157524D01*
X8568334Y-15157524D02*
X8577857Y-15128952D01*
X8577857Y-15128952D02*
X8587381Y-15081333D01*
X8587381Y-15081333D02*
X8587381Y-15043238D01*
X8587381Y-15043238D02*
X8577857Y-14995619D01*
X8577857Y-14995619D02*
X8568334Y-14967048D01*
X8568334Y-14967048D02*
X8558810Y-14948000D01*
X8558810Y-14948000D02*
X8539762Y-14919428D01*
X8539762Y-14919428D02*
X8530238Y-14909905D01*
D17*
X1893000Y-15278000D02*
X1995000Y-15380000D01*
X1995000Y-15278000D02*
X1893000Y-15380000D01*
X1944000Y-15278000D02*
X1944000Y-15380000D01*
X1893000Y-15329000D02*
X1995000Y-15329000D01*
D11*
X2347381Y-15402476D02*
X2233095Y-15402476D01*
X2290238Y-15402476D02*
X2290238Y-15202476D01*
X2290238Y-15202476D02*
X2271190Y-15231048D01*
X2271190Y-15231048D02*
X2252143Y-15250095D01*
X2252143Y-15250095D02*
X2233095Y-15259619D01*
X2433095Y-15383428D02*
X2442619Y-15392952D01*
X2442619Y-15392952D02*
X2433095Y-15402476D01*
X2433095Y-15402476D02*
X2423571Y-15392952D01*
X2423571Y-15392952D02*
X2433095Y-15383428D01*
X2433095Y-15383428D02*
X2433095Y-15402476D01*
X2566429Y-15202476D02*
X2585476Y-15202476D01*
X2585476Y-15202476D02*
X2604524Y-15212000D01*
X2604524Y-15212000D02*
X2614048Y-15221524D01*
X2614048Y-15221524D02*
X2623571Y-15240571D01*
X2623571Y-15240571D02*
X2633095Y-15278667D01*
X2633095Y-15278667D02*
X2633095Y-15326286D01*
X2633095Y-15326286D02*
X2623571Y-15364381D01*
X2623571Y-15364381D02*
X2614048Y-15383428D01*
X2614048Y-15383428D02*
X2604524Y-15392952D01*
X2604524Y-15392952D02*
X2585476Y-15402476D01*
X2585476Y-15402476D02*
X2566429Y-15402476D01*
X2566429Y-15402476D02*
X2547381Y-15392952D01*
X2547381Y-15392952D02*
X2537857Y-15383428D01*
X2537857Y-15383428D02*
X2528333Y-15364381D01*
X2528333Y-15364381D02*
X2518810Y-15326286D01*
X2518810Y-15326286D02*
X2518810Y-15278667D01*
X2518810Y-15278667D02*
X2528333Y-15240571D01*
X2528333Y-15240571D02*
X2537857Y-15221524D01*
X2537857Y-15221524D02*
X2547381Y-15212000D01*
X2547381Y-15212000D02*
X2566429Y-15202476D01*
X2709286Y-15221524D02*
X2718810Y-15212000D01*
X2718810Y-15212000D02*
X2737857Y-15202476D01*
X2737857Y-15202476D02*
X2785476Y-15202476D01*
X2785476Y-15202476D02*
X2804524Y-15212000D01*
X2804524Y-15212000D02*
X2814048Y-15221524D01*
X2814048Y-15221524D02*
X2823571Y-15240571D01*
X2823571Y-15240571D02*
X2823571Y-15259619D01*
X2823571Y-15259619D02*
X2814048Y-15288190D01*
X2814048Y-15288190D02*
X2699762Y-15402476D01*
X2699762Y-15402476D02*
X2823571Y-15402476D01*
X2947381Y-15202476D02*
X2966429Y-15202476D01*
X2966429Y-15202476D02*
X2985476Y-15212000D01*
X2985476Y-15212000D02*
X2995000Y-15221524D01*
X2995000Y-15221524D02*
X3004524Y-15240571D01*
X3004524Y-15240571D02*
X3014048Y-15278667D01*
X3014048Y-15278667D02*
X3014048Y-15326286D01*
X3014048Y-15326286D02*
X3004524Y-15364381D01*
X3004524Y-15364381D02*
X2995000Y-15383428D01*
X2995000Y-15383428D02*
X2985476Y-15392952D01*
X2985476Y-15392952D02*
X2966429Y-15402476D01*
X2966429Y-15402476D02*
X2947381Y-15402476D01*
X2947381Y-15402476D02*
X2928333Y-15392952D01*
X2928333Y-15392952D02*
X2918809Y-15383428D01*
X2918809Y-15383428D02*
X2909286Y-15364381D01*
X2909286Y-15364381D02*
X2899762Y-15326286D01*
X2899762Y-15326286D02*
X2899762Y-15278667D01*
X2899762Y-15278667D02*
X2909286Y-15240571D01*
X2909286Y-15240571D02*
X2918809Y-15221524D01*
X2918809Y-15221524D02*
X2928333Y-15212000D01*
X2928333Y-15212000D02*
X2947381Y-15202476D01*
X3099762Y-15402476D02*
X3099762Y-15269143D01*
X3099762Y-15288190D02*
X3109286Y-15278667D01*
X3109286Y-15278667D02*
X3128333Y-15269143D01*
X3128333Y-15269143D02*
X3156905Y-15269143D01*
X3156905Y-15269143D02*
X3175952Y-15278667D01*
X3175952Y-15278667D02*
X3185476Y-15297714D01*
X3185476Y-15297714D02*
X3185476Y-15402476D01*
X3185476Y-15297714D02*
X3195000Y-15278667D01*
X3195000Y-15278667D02*
X3214048Y-15269143D01*
X3214048Y-15269143D02*
X3242619Y-15269143D01*
X3242619Y-15269143D02*
X3261667Y-15278667D01*
X3261667Y-15278667D02*
X3271190Y-15297714D01*
X3271190Y-15297714D02*
X3271190Y-15402476D01*
X3366429Y-15402476D02*
X3366429Y-15269143D01*
X3366429Y-15288190D02*
X3375952Y-15278667D01*
X3375952Y-15278667D02*
X3395000Y-15269143D01*
X3395000Y-15269143D02*
X3423571Y-15269143D01*
X3423571Y-15269143D02*
X3442619Y-15278667D01*
X3442619Y-15278667D02*
X3452143Y-15297714D01*
X3452143Y-15297714D02*
X3452143Y-15402476D01*
X3452143Y-15297714D02*
X3461667Y-15278667D01*
X3461667Y-15278667D02*
X3480714Y-15269143D01*
X3480714Y-15269143D02*
X3509286Y-15269143D01*
X3509286Y-15269143D02*
X3528333Y-15278667D01*
X3528333Y-15278667D02*
X3537857Y-15297714D01*
X3537857Y-15297714D02*
X3537857Y-15402476D01*
X3895952Y-15192952D02*
X3724524Y-15450095D01*
X4120714Y-15202476D02*
X4139762Y-15202476D01*
X4139762Y-15202476D02*
X4158810Y-15212000D01*
X4158810Y-15212000D02*
X4168333Y-15221524D01*
X4168333Y-15221524D02*
X4177857Y-15240571D01*
X4177857Y-15240571D02*
X4187381Y-15278667D01*
X4187381Y-15278667D02*
X4187381Y-15326286D01*
X4187381Y-15326286D02*
X4177857Y-15364381D01*
X4177857Y-15364381D02*
X4168333Y-15383428D01*
X4168333Y-15383428D02*
X4158810Y-15392952D01*
X4158810Y-15392952D02*
X4139762Y-15402476D01*
X4139762Y-15402476D02*
X4120714Y-15402476D01*
X4120714Y-15402476D02*
X4101667Y-15392952D01*
X4101667Y-15392952D02*
X4092143Y-15383428D01*
X4092143Y-15383428D02*
X4082619Y-15364381D01*
X4082619Y-15364381D02*
X4073095Y-15326286D01*
X4073095Y-15326286D02*
X4073095Y-15278667D01*
X4073095Y-15278667D02*
X4082619Y-15240571D01*
X4082619Y-15240571D02*
X4092143Y-15221524D01*
X4092143Y-15221524D02*
X4101667Y-15212000D01*
X4101667Y-15212000D02*
X4120714Y-15202476D01*
X4273095Y-15383428D02*
X4282619Y-15392952D01*
X4282619Y-15392952D02*
X4273095Y-15402476D01*
X4273095Y-15402476D02*
X4263572Y-15392952D01*
X4263572Y-15392952D02*
X4273095Y-15383428D01*
X4273095Y-15383428D02*
X4273095Y-15402476D01*
X4406429Y-15202476D02*
X4425476Y-15202476D01*
X4425476Y-15202476D02*
X4444524Y-15212000D01*
X4444524Y-15212000D02*
X4454048Y-15221524D01*
X4454048Y-15221524D02*
X4463572Y-15240571D01*
X4463572Y-15240571D02*
X4473095Y-15278667D01*
X4473095Y-15278667D02*
X4473095Y-15326286D01*
X4473095Y-15326286D02*
X4463572Y-15364381D01*
X4463572Y-15364381D02*
X4454048Y-15383428D01*
X4454048Y-15383428D02*
X4444524Y-15392952D01*
X4444524Y-15392952D02*
X4425476Y-15402476D01*
X4425476Y-15402476D02*
X4406429Y-15402476D01*
X4406429Y-15402476D02*
X4387381Y-15392952D01*
X4387381Y-15392952D02*
X4377857Y-15383428D01*
X4377857Y-15383428D02*
X4368333Y-15364381D01*
X4368333Y-15364381D02*
X4358810Y-15326286D01*
X4358810Y-15326286D02*
X4358810Y-15278667D01*
X4358810Y-15278667D02*
X4368333Y-15240571D01*
X4368333Y-15240571D02*
X4377857Y-15221524D01*
X4377857Y-15221524D02*
X4387381Y-15212000D01*
X4387381Y-15212000D02*
X4406429Y-15202476D01*
X4644524Y-15269143D02*
X4644524Y-15402476D01*
X4596905Y-15192952D02*
X4549286Y-15335809D01*
X4549286Y-15335809D02*
X4673095Y-15335809D01*
X4787381Y-15202476D02*
X4806429Y-15202476D01*
X4806429Y-15202476D02*
X4825476Y-15212000D01*
X4825476Y-15212000D02*
X4835000Y-15221524D01*
X4835000Y-15221524D02*
X4844524Y-15240571D01*
X4844524Y-15240571D02*
X4854048Y-15278667D01*
X4854048Y-15278667D02*
X4854048Y-15326286D01*
X4854048Y-15326286D02*
X4844524Y-15364381D01*
X4844524Y-15364381D02*
X4835000Y-15383428D01*
X4835000Y-15383428D02*
X4825476Y-15392952D01*
X4825476Y-15392952D02*
X4806429Y-15402476D01*
X4806429Y-15402476D02*
X4787381Y-15402476D01*
X4787381Y-15402476D02*
X4768333Y-15392952D01*
X4768333Y-15392952D02*
X4758810Y-15383428D01*
X4758810Y-15383428D02*
X4749286Y-15364381D01*
X4749286Y-15364381D02*
X4739762Y-15326286D01*
X4739762Y-15326286D02*
X4739762Y-15278667D01*
X4739762Y-15278667D02*
X4749286Y-15240571D01*
X4749286Y-15240571D02*
X4758810Y-15221524D01*
X4758810Y-15221524D02*
X4768333Y-15212000D01*
X4768333Y-15212000D02*
X4787381Y-15202476D01*
X4930238Y-15221524D02*
X4939762Y-15212000D01*
X4939762Y-15212000D02*
X4958810Y-15202476D01*
X4958810Y-15202476D02*
X5006429Y-15202476D01*
X5006429Y-15202476D02*
X5025476Y-15212000D01*
X5025476Y-15212000D02*
X5035000Y-15221524D01*
X5035000Y-15221524D02*
X5044524Y-15240571D01*
X5044524Y-15240571D02*
X5044524Y-15259619D01*
X5044524Y-15259619D02*
X5035000Y-15288190D01*
X5035000Y-15288190D02*
X4920714Y-15402476D01*
X4920714Y-15402476D02*
X5044524Y-15402476D01*
X5120714Y-15202476D02*
X5120714Y-15240571D01*
X5196905Y-15202476D02*
X5196905Y-15240571D01*
X5459762Y-15478667D02*
X5450238Y-15469143D01*
X5450238Y-15469143D02*
X5431191Y-15440571D01*
X5431191Y-15440571D02*
X5421667Y-15421524D01*
X5421667Y-15421524D02*
X5412143Y-15392952D01*
X5412143Y-15392952D02*
X5402619Y-15345333D01*
X5402619Y-15345333D02*
X5402619Y-15307238D01*
X5402619Y-15307238D02*
X5412143Y-15259619D01*
X5412143Y-15259619D02*
X5421667Y-15231048D01*
X5421667Y-15231048D02*
X5431191Y-15212000D01*
X5431191Y-15212000D02*
X5450238Y-15183428D01*
X5450238Y-15183428D02*
X5459762Y-15173905D01*
X5621667Y-15269143D02*
X5621667Y-15402476D01*
X5574048Y-15192952D02*
X5526429Y-15335809D01*
X5526429Y-15335809D02*
X5650238Y-15335809D01*
X5707381Y-15202476D02*
X5831191Y-15202476D01*
X5831191Y-15202476D02*
X5764524Y-15278667D01*
X5764524Y-15278667D02*
X5793095Y-15278667D01*
X5793095Y-15278667D02*
X5812143Y-15288190D01*
X5812143Y-15288190D02*
X5821667Y-15297714D01*
X5821667Y-15297714D02*
X5831191Y-15316762D01*
X5831191Y-15316762D02*
X5831191Y-15364381D01*
X5831191Y-15364381D02*
X5821667Y-15383428D01*
X5821667Y-15383428D02*
X5812143Y-15392952D01*
X5812143Y-15392952D02*
X5793095Y-15402476D01*
X5793095Y-15402476D02*
X5735952Y-15402476D01*
X5735952Y-15402476D02*
X5716905Y-15392952D01*
X5716905Y-15392952D02*
X5707381Y-15383428D01*
X6036905Y-15402476D02*
X6036905Y-15202476D01*
X6122619Y-15402476D02*
X6122619Y-15297714D01*
X6122619Y-15297714D02*
X6113095Y-15278667D01*
X6113095Y-15278667D02*
X6094048Y-15269143D01*
X6094048Y-15269143D02*
X6065476Y-15269143D01*
X6065476Y-15269143D02*
X6046429Y-15278667D01*
X6046429Y-15278667D02*
X6036905Y-15288190D01*
X6246429Y-15402476D02*
X6227381Y-15392952D01*
X6227381Y-15392952D02*
X6217857Y-15383428D01*
X6217857Y-15383428D02*
X6208333Y-15364381D01*
X6208333Y-15364381D02*
X6208333Y-15307238D01*
X6208333Y-15307238D02*
X6217857Y-15288190D01*
X6217857Y-15288190D02*
X6227381Y-15278667D01*
X6227381Y-15278667D02*
X6246429Y-15269143D01*
X6246429Y-15269143D02*
X6275000Y-15269143D01*
X6275000Y-15269143D02*
X6294048Y-15278667D01*
X6294048Y-15278667D02*
X6303572Y-15288190D01*
X6303572Y-15288190D02*
X6313095Y-15307238D01*
X6313095Y-15307238D02*
X6313095Y-15364381D01*
X6313095Y-15364381D02*
X6303572Y-15383428D01*
X6303572Y-15383428D02*
X6294048Y-15392952D01*
X6294048Y-15392952D02*
X6275000Y-15402476D01*
X6275000Y-15402476D02*
X6246429Y-15402476D01*
X6427381Y-15402476D02*
X6408333Y-15392952D01*
X6408333Y-15392952D02*
X6398810Y-15373905D01*
X6398810Y-15373905D02*
X6398810Y-15202476D01*
X6579762Y-15392952D02*
X6560714Y-15402476D01*
X6560714Y-15402476D02*
X6522619Y-15402476D01*
X6522619Y-15402476D02*
X6503572Y-15392952D01*
X6503572Y-15392952D02*
X6494048Y-15373905D01*
X6494048Y-15373905D02*
X6494048Y-15297714D01*
X6494048Y-15297714D02*
X6503572Y-15278667D01*
X6503572Y-15278667D02*
X6522619Y-15269143D01*
X6522619Y-15269143D02*
X6560714Y-15269143D01*
X6560714Y-15269143D02*
X6579762Y-15278667D01*
X6579762Y-15278667D02*
X6589286Y-15297714D01*
X6589286Y-15297714D02*
X6589286Y-15316762D01*
X6589286Y-15316762D02*
X6494048Y-15335809D01*
X6665476Y-15392952D02*
X6684524Y-15402476D01*
X6684524Y-15402476D02*
X6722619Y-15402476D01*
X6722619Y-15402476D02*
X6741667Y-15392952D01*
X6741667Y-15392952D02*
X6751191Y-15373905D01*
X6751191Y-15373905D02*
X6751191Y-15364381D01*
X6751191Y-15364381D02*
X6741667Y-15345333D01*
X6741667Y-15345333D02*
X6722619Y-15335809D01*
X6722619Y-15335809D02*
X6694048Y-15335809D01*
X6694048Y-15335809D02*
X6675000Y-15326286D01*
X6675000Y-15326286D02*
X6665476Y-15307238D01*
X6665476Y-15307238D02*
X6665476Y-15297714D01*
X6665476Y-15297714D02*
X6675000Y-15278667D01*
X6675000Y-15278667D02*
X6694048Y-15269143D01*
X6694048Y-15269143D02*
X6722619Y-15269143D01*
X6722619Y-15269143D02*
X6741667Y-15278667D01*
X6817857Y-15478667D02*
X6827381Y-15469143D01*
X6827381Y-15469143D02*
X6846429Y-15440571D01*
X6846429Y-15440571D02*
X6855953Y-15421524D01*
X6855953Y-15421524D02*
X6865476Y-15392952D01*
X6865476Y-15392952D02*
X6875000Y-15345333D01*
X6875000Y-15345333D02*
X6875000Y-15307238D01*
X6875000Y-15307238D02*
X6865476Y-15259619D01*
X6865476Y-15259619D02*
X6855953Y-15231048D01*
X6855953Y-15231048D02*
X6846429Y-15212000D01*
X6846429Y-15212000D02*
X6827381Y-15183428D01*
X6827381Y-15183428D02*
X6817857Y-15173905D01*
D18*
X1885000Y-15538000D02*
X1995000Y-15648000D01*
X1995000Y-15538000D02*
X1885000Y-15648000D01*
X1978891Y-15631891D02*
X1978891Y-15554109D01*
X1901109Y-15554109D01*
X1901109Y-15631891D01*
X1978891Y-15631891D01*
D11*
X2347381Y-15666476D02*
X2233095Y-15666476D01*
X2290238Y-15666476D02*
X2290238Y-15466476D01*
X2290238Y-15466476D02*
X2271190Y-15495048D01*
X2271190Y-15495048D02*
X2252143Y-15514095D01*
X2252143Y-15514095D02*
X2233095Y-15523619D01*
X2433095Y-15647428D02*
X2442619Y-15656952D01*
X2442619Y-15656952D02*
X2433095Y-15666476D01*
X2433095Y-15666476D02*
X2423571Y-15656952D01*
X2423571Y-15656952D02*
X2433095Y-15647428D01*
X2433095Y-15647428D02*
X2433095Y-15666476D01*
X2633095Y-15666476D02*
X2518810Y-15666476D01*
X2575952Y-15666476D02*
X2575952Y-15466476D01*
X2575952Y-15466476D02*
X2556905Y-15495048D01*
X2556905Y-15495048D02*
X2537857Y-15514095D01*
X2537857Y-15514095D02*
X2518810Y-15523619D01*
X2756905Y-15466476D02*
X2775952Y-15466476D01*
X2775952Y-15466476D02*
X2795000Y-15476000D01*
X2795000Y-15476000D02*
X2804524Y-15485524D01*
X2804524Y-15485524D02*
X2814048Y-15504571D01*
X2814048Y-15504571D02*
X2823571Y-15542667D01*
X2823571Y-15542667D02*
X2823571Y-15590286D01*
X2823571Y-15590286D02*
X2814048Y-15628381D01*
X2814048Y-15628381D02*
X2804524Y-15647428D01*
X2804524Y-15647428D02*
X2795000Y-15656952D01*
X2795000Y-15656952D02*
X2775952Y-15666476D01*
X2775952Y-15666476D02*
X2756905Y-15666476D01*
X2756905Y-15666476D02*
X2737857Y-15656952D01*
X2737857Y-15656952D02*
X2728333Y-15647428D01*
X2728333Y-15647428D02*
X2718810Y-15628381D01*
X2718810Y-15628381D02*
X2709286Y-15590286D01*
X2709286Y-15590286D02*
X2709286Y-15542667D01*
X2709286Y-15542667D02*
X2718810Y-15504571D01*
X2718810Y-15504571D02*
X2728333Y-15485524D01*
X2728333Y-15485524D02*
X2737857Y-15476000D01*
X2737857Y-15476000D02*
X2756905Y-15466476D01*
X2947381Y-15466476D02*
X2966429Y-15466476D01*
X2966429Y-15466476D02*
X2985476Y-15476000D01*
X2985476Y-15476000D02*
X2995000Y-15485524D01*
X2995000Y-15485524D02*
X3004524Y-15504571D01*
X3004524Y-15504571D02*
X3014048Y-15542667D01*
X3014048Y-15542667D02*
X3014048Y-15590286D01*
X3014048Y-15590286D02*
X3004524Y-15628381D01*
X3004524Y-15628381D02*
X2995000Y-15647428D01*
X2995000Y-15647428D02*
X2985476Y-15656952D01*
X2985476Y-15656952D02*
X2966429Y-15666476D01*
X2966429Y-15666476D02*
X2947381Y-15666476D01*
X2947381Y-15666476D02*
X2928333Y-15656952D01*
X2928333Y-15656952D02*
X2918809Y-15647428D01*
X2918809Y-15647428D02*
X2909286Y-15628381D01*
X2909286Y-15628381D02*
X2899762Y-15590286D01*
X2899762Y-15590286D02*
X2899762Y-15542667D01*
X2899762Y-15542667D02*
X2909286Y-15504571D01*
X2909286Y-15504571D02*
X2918809Y-15485524D01*
X2918809Y-15485524D02*
X2928333Y-15476000D01*
X2928333Y-15476000D02*
X2947381Y-15466476D01*
X3099762Y-15666476D02*
X3099762Y-15533143D01*
X3099762Y-15552190D02*
X3109286Y-15542667D01*
X3109286Y-15542667D02*
X3128333Y-15533143D01*
X3128333Y-15533143D02*
X3156905Y-15533143D01*
X3156905Y-15533143D02*
X3175952Y-15542667D01*
X3175952Y-15542667D02*
X3185476Y-15561714D01*
X3185476Y-15561714D02*
X3185476Y-15666476D01*
X3185476Y-15561714D02*
X3195000Y-15542667D01*
X3195000Y-15542667D02*
X3214048Y-15533143D01*
X3214048Y-15533143D02*
X3242619Y-15533143D01*
X3242619Y-15533143D02*
X3261667Y-15542667D01*
X3261667Y-15542667D02*
X3271190Y-15561714D01*
X3271190Y-15561714D02*
X3271190Y-15666476D01*
X3366429Y-15666476D02*
X3366429Y-15533143D01*
X3366429Y-15552190D02*
X3375952Y-15542667D01*
X3375952Y-15542667D02*
X3395000Y-15533143D01*
X3395000Y-15533143D02*
X3423571Y-15533143D01*
X3423571Y-15533143D02*
X3442619Y-15542667D01*
X3442619Y-15542667D02*
X3452143Y-15561714D01*
X3452143Y-15561714D02*
X3452143Y-15666476D01*
X3452143Y-15561714D02*
X3461667Y-15542667D01*
X3461667Y-15542667D02*
X3480714Y-15533143D01*
X3480714Y-15533143D02*
X3509286Y-15533143D01*
X3509286Y-15533143D02*
X3528333Y-15542667D01*
X3528333Y-15542667D02*
X3537857Y-15561714D01*
X3537857Y-15561714D02*
X3537857Y-15666476D01*
X3895952Y-15456952D02*
X3724524Y-15714095D01*
X4120714Y-15466476D02*
X4139762Y-15466476D01*
X4139762Y-15466476D02*
X4158810Y-15476000D01*
X4158810Y-15476000D02*
X4168333Y-15485524D01*
X4168333Y-15485524D02*
X4177857Y-15504571D01*
X4177857Y-15504571D02*
X4187381Y-15542667D01*
X4187381Y-15542667D02*
X4187381Y-15590286D01*
X4187381Y-15590286D02*
X4177857Y-15628381D01*
X4177857Y-15628381D02*
X4168333Y-15647428D01*
X4168333Y-15647428D02*
X4158810Y-15656952D01*
X4158810Y-15656952D02*
X4139762Y-15666476D01*
X4139762Y-15666476D02*
X4120714Y-15666476D01*
X4120714Y-15666476D02*
X4101667Y-15656952D01*
X4101667Y-15656952D02*
X4092143Y-15647428D01*
X4092143Y-15647428D02*
X4082619Y-15628381D01*
X4082619Y-15628381D02*
X4073095Y-15590286D01*
X4073095Y-15590286D02*
X4073095Y-15542667D01*
X4073095Y-15542667D02*
X4082619Y-15504571D01*
X4082619Y-15504571D02*
X4092143Y-15485524D01*
X4092143Y-15485524D02*
X4101667Y-15476000D01*
X4101667Y-15476000D02*
X4120714Y-15466476D01*
X4273095Y-15647428D02*
X4282619Y-15656952D01*
X4282619Y-15656952D02*
X4273095Y-15666476D01*
X4273095Y-15666476D02*
X4263572Y-15656952D01*
X4263572Y-15656952D02*
X4273095Y-15647428D01*
X4273095Y-15647428D02*
X4273095Y-15666476D01*
X4406429Y-15466476D02*
X4425476Y-15466476D01*
X4425476Y-15466476D02*
X4444524Y-15476000D01*
X4444524Y-15476000D02*
X4454048Y-15485524D01*
X4454048Y-15485524D02*
X4463572Y-15504571D01*
X4463572Y-15504571D02*
X4473095Y-15542667D01*
X4473095Y-15542667D02*
X4473095Y-15590286D01*
X4473095Y-15590286D02*
X4463572Y-15628381D01*
X4463572Y-15628381D02*
X4454048Y-15647428D01*
X4454048Y-15647428D02*
X4444524Y-15656952D01*
X4444524Y-15656952D02*
X4425476Y-15666476D01*
X4425476Y-15666476D02*
X4406429Y-15666476D01*
X4406429Y-15666476D02*
X4387381Y-15656952D01*
X4387381Y-15656952D02*
X4377857Y-15647428D01*
X4377857Y-15647428D02*
X4368333Y-15628381D01*
X4368333Y-15628381D02*
X4358810Y-15590286D01*
X4358810Y-15590286D02*
X4358810Y-15542667D01*
X4358810Y-15542667D02*
X4368333Y-15504571D01*
X4368333Y-15504571D02*
X4377857Y-15485524D01*
X4377857Y-15485524D02*
X4387381Y-15476000D01*
X4387381Y-15476000D02*
X4406429Y-15466476D01*
X4644524Y-15533143D02*
X4644524Y-15666476D01*
X4596905Y-15456952D02*
X4549286Y-15599809D01*
X4549286Y-15599809D02*
X4673095Y-15599809D01*
X4730238Y-15466476D02*
X4854048Y-15466476D01*
X4854048Y-15466476D02*
X4787381Y-15542667D01*
X4787381Y-15542667D02*
X4815953Y-15542667D01*
X4815953Y-15542667D02*
X4835000Y-15552190D01*
X4835000Y-15552190D02*
X4844524Y-15561714D01*
X4844524Y-15561714D02*
X4854048Y-15580762D01*
X4854048Y-15580762D02*
X4854048Y-15628381D01*
X4854048Y-15628381D02*
X4844524Y-15647428D01*
X4844524Y-15647428D02*
X4835000Y-15656952D01*
X4835000Y-15656952D02*
X4815953Y-15666476D01*
X4815953Y-15666476D02*
X4758810Y-15666476D01*
X4758810Y-15666476D02*
X4739762Y-15656952D01*
X4739762Y-15656952D02*
X4730238Y-15647428D01*
X4920714Y-15466476D02*
X5044524Y-15466476D01*
X5044524Y-15466476D02*
X4977857Y-15542667D01*
X4977857Y-15542667D02*
X5006429Y-15542667D01*
X5006429Y-15542667D02*
X5025476Y-15552190D01*
X5025476Y-15552190D02*
X5035000Y-15561714D01*
X5035000Y-15561714D02*
X5044524Y-15580762D01*
X5044524Y-15580762D02*
X5044524Y-15628381D01*
X5044524Y-15628381D02*
X5035000Y-15647428D01*
X5035000Y-15647428D02*
X5025476Y-15656952D01*
X5025476Y-15656952D02*
X5006429Y-15666476D01*
X5006429Y-15666476D02*
X4949286Y-15666476D01*
X4949286Y-15666476D02*
X4930238Y-15656952D01*
X4930238Y-15656952D02*
X4920714Y-15647428D01*
X5120714Y-15466476D02*
X5120714Y-15504571D01*
X5196905Y-15466476D02*
X5196905Y-15504571D01*
X5459762Y-15742667D02*
X5450238Y-15733143D01*
X5450238Y-15733143D02*
X5431191Y-15704571D01*
X5431191Y-15704571D02*
X5421667Y-15685524D01*
X5421667Y-15685524D02*
X5412143Y-15656952D01*
X5412143Y-15656952D02*
X5402619Y-15609333D01*
X5402619Y-15609333D02*
X5402619Y-15571238D01*
X5402619Y-15571238D02*
X5412143Y-15523619D01*
X5412143Y-15523619D02*
X5421667Y-15495048D01*
X5421667Y-15495048D02*
X5431191Y-15476000D01*
X5431191Y-15476000D02*
X5450238Y-15447428D01*
X5450238Y-15447428D02*
X5459762Y-15437905D01*
X5574048Y-15466476D02*
X5593095Y-15466476D01*
X5593095Y-15466476D02*
X5612143Y-15476000D01*
X5612143Y-15476000D02*
X5621667Y-15485524D01*
X5621667Y-15485524D02*
X5631191Y-15504571D01*
X5631191Y-15504571D02*
X5640714Y-15542667D01*
X5640714Y-15542667D02*
X5640714Y-15590286D01*
X5640714Y-15590286D02*
X5631191Y-15628381D01*
X5631191Y-15628381D02*
X5621667Y-15647428D01*
X5621667Y-15647428D02*
X5612143Y-15656952D01*
X5612143Y-15656952D02*
X5593095Y-15666476D01*
X5593095Y-15666476D02*
X5574048Y-15666476D01*
X5574048Y-15666476D02*
X5555000Y-15656952D01*
X5555000Y-15656952D02*
X5545476Y-15647428D01*
X5545476Y-15647428D02*
X5535953Y-15628381D01*
X5535953Y-15628381D02*
X5526429Y-15590286D01*
X5526429Y-15590286D02*
X5526429Y-15542667D01*
X5526429Y-15542667D02*
X5535953Y-15504571D01*
X5535953Y-15504571D02*
X5545476Y-15485524D01*
X5545476Y-15485524D02*
X5555000Y-15476000D01*
X5555000Y-15476000D02*
X5574048Y-15466476D01*
X5846429Y-15666476D02*
X5846429Y-15466476D01*
X5932143Y-15666476D02*
X5932143Y-15561714D01*
X5932143Y-15561714D02*
X5922619Y-15542667D01*
X5922619Y-15542667D02*
X5903572Y-15533143D01*
X5903572Y-15533143D02*
X5875000Y-15533143D01*
X5875000Y-15533143D02*
X5855952Y-15542667D01*
X5855952Y-15542667D02*
X5846429Y-15552190D01*
X6055952Y-15666476D02*
X6036905Y-15656952D01*
X6036905Y-15656952D02*
X6027381Y-15647428D01*
X6027381Y-15647428D02*
X6017857Y-15628381D01*
X6017857Y-15628381D02*
X6017857Y-15571238D01*
X6017857Y-15571238D02*
X6027381Y-15552190D01*
X6027381Y-15552190D02*
X6036905Y-15542667D01*
X6036905Y-15542667D02*
X6055952Y-15533143D01*
X6055952Y-15533143D02*
X6084524Y-15533143D01*
X6084524Y-15533143D02*
X6103572Y-15542667D01*
X6103572Y-15542667D02*
X6113095Y-15552190D01*
X6113095Y-15552190D02*
X6122619Y-15571238D01*
X6122619Y-15571238D02*
X6122619Y-15628381D01*
X6122619Y-15628381D02*
X6113095Y-15647428D01*
X6113095Y-15647428D02*
X6103572Y-15656952D01*
X6103572Y-15656952D02*
X6084524Y-15666476D01*
X6084524Y-15666476D02*
X6055952Y-15666476D01*
X6236905Y-15666476D02*
X6217857Y-15656952D01*
X6217857Y-15656952D02*
X6208333Y-15637905D01*
X6208333Y-15637905D02*
X6208333Y-15466476D01*
X6389286Y-15656952D02*
X6370238Y-15666476D01*
X6370238Y-15666476D02*
X6332143Y-15666476D01*
X6332143Y-15666476D02*
X6313095Y-15656952D01*
X6313095Y-15656952D02*
X6303572Y-15637905D01*
X6303572Y-15637905D02*
X6303572Y-15561714D01*
X6303572Y-15561714D02*
X6313095Y-15542667D01*
X6313095Y-15542667D02*
X6332143Y-15533143D01*
X6332143Y-15533143D02*
X6370238Y-15533143D01*
X6370238Y-15533143D02*
X6389286Y-15542667D01*
X6389286Y-15542667D02*
X6398810Y-15561714D01*
X6398810Y-15561714D02*
X6398810Y-15580762D01*
X6398810Y-15580762D02*
X6303572Y-15599809D01*
X6475000Y-15656952D02*
X6494048Y-15666476D01*
X6494048Y-15666476D02*
X6532143Y-15666476D01*
X6532143Y-15666476D02*
X6551191Y-15656952D01*
X6551191Y-15656952D02*
X6560714Y-15637905D01*
X6560714Y-15637905D02*
X6560714Y-15628381D01*
X6560714Y-15628381D02*
X6551191Y-15609333D01*
X6551191Y-15609333D02*
X6532143Y-15599809D01*
X6532143Y-15599809D02*
X6503572Y-15599809D01*
X6503572Y-15599809D02*
X6484524Y-15590286D01*
X6484524Y-15590286D02*
X6475000Y-15571238D01*
X6475000Y-15571238D02*
X6475000Y-15561714D01*
X6475000Y-15561714D02*
X6484524Y-15542667D01*
X6484524Y-15542667D02*
X6503572Y-15533143D01*
X6503572Y-15533143D02*
X6532143Y-15533143D01*
X6532143Y-15533143D02*
X6551191Y-15542667D01*
X6766429Y-15590286D02*
X6918810Y-15590286D01*
X6842619Y-15666476D02*
X6842619Y-15514095D01*
X7219762Y-15466476D02*
X7181667Y-15466476D01*
X7181667Y-15466476D02*
X7162619Y-15476000D01*
X7162619Y-15476000D02*
X7153095Y-15485524D01*
X7153095Y-15485524D02*
X7134048Y-15514095D01*
X7134048Y-15514095D02*
X7124524Y-15552190D01*
X7124524Y-15552190D02*
X7124524Y-15628381D01*
X7124524Y-15628381D02*
X7134048Y-15647428D01*
X7134048Y-15647428D02*
X7143572Y-15656952D01*
X7143572Y-15656952D02*
X7162619Y-15666476D01*
X7162619Y-15666476D02*
X7200714Y-15666476D01*
X7200714Y-15666476D02*
X7219762Y-15656952D01*
X7219762Y-15656952D02*
X7229286Y-15647428D01*
X7229286Y-15647428D02*
X7238810Y-15628381D01*
X7238810Y-15628381D02*
X7238810Y-15580762D01*
X7238810Y-15580762D02*
X7229286Y-15561714D01*
X7229286Y-15561714D02*
X7219762Y-15552190D01*
X7219762Y-15552190D02*
X7200714Y-15542667D01*
X7200714Y-15542667D02*
X7162619Y-15542667D01*
X7162619Y-15542667D02*
X7143572Y-15552190D01*
X7143572Y-15552190D02*
X7134048Y-15561714D01*
X7134048Y-15561714D02*
X7124524Y-15580762D01*
X7435000Y-15656952D02*
X7454048Y-15666476D01*
X7454048Y-15666476D02*
X7492143Y-15666476D01*
X7492143Y-15666476D02*
X7511191Y-15656952D01*
X7511191Y-15656952D02*
X7520714Y-15637905D01*
X7520714Y-15637905D02*
X7520714Y-15628381D01*
X7520714Y-15628381D02*
X7511191Y-15609333D01*
X7511191Y-15609333D02*
X7492143Y-15599809D01*
X7492143Y-15599809D02*
X7463572Y-15599809D01*
X7463572Y-15599809D02*
X7444524Y-15590286D01*
X7444524Y-15590286D02*
X7435000Y-15571238D01*
X7435000Y-15571238D02*
X7435000Y-15561714D01*
X7435000Y-15561714D02*
X7444524Y-15542667D01*
X7444524Y-15542667D02*
X7463572Y-15533143D01*
X7463572Y-15533143D02*
X7492143Y-15533143D01*
X7492143Y-15533143D02*
X7511191Y-15542667D01*
X7635000Y-15666476D02*
X7615953Y-15656952D01*
X7615953Y-15656952D02*
X7606429Y-15637905D01*
X7606429Y-15637905D02*
X7606429Y-15466476D01*
X7739762Y-15666476D02*
X7720714Y-15656952D01*
X7720714Y-15656952D02*
X7711191Y-15647428D01*
X7711191Y-15647428D02*
X7701667Y-15628381D01*
X7701667Y-15628381D02*
X7701667Y-15571238D01*
X7701667Y-15571238D02*
X7711191Y-15552190D01*
X7711191Y-15552190D02*
X7720714Y-15542667D01*
X7720714Y-15542667D02*
X7739762Y-15533143D01*
X7739762Y-15533143D02*
X7768334Y-15533143D01*
X7768334Y-15533143D02*
X7787381Y-15542667D01*
X7787381Y-15542667D02*
X7796905Y-15552190D01*
X7796905Y-15552190D02*
X7806429Y-15571238D01*
X7806429Y-15571238D02*
X7806429Y-15628381D01*
X7806429Y-15628381D02*
X7796905Y-15647428D01*
X7796905Y-15647428D02*
X7787381Y-15656952D01*
X7787381Y-15656952D02*
X7768334Y-15666476D01*
X7768334Y-15666476D02*
X7739762Y-15666476D01*
X7863572Y-15533143D02*
X7939762Y-15533143D01*
X7892143Y-15466476D02*
X7892143Y-15637905D01*
X7892143Y-15637905D02*
X7901667Y-15656952D01*
X7901667Y-15656952D02*
X7920714Y-15666476D01*
X7920714Y-15666476D02*
X7939762Y-15666476D01*
X7996905Y-15656952D02*
X8015953Y-15666476D01*
X8015953Y-15666476D02*
X8054048Y-15666476D01*
X8054048Y-15666476D02*
X8073095Y-15656952D01*
X8073095Y-15656952D02*
X8082619Y-15637905D01*
X8082619Y-15637905D02*
X8082619Y-15628381D01*
X8082619Y-15628381D02*
X8073095Y-15609333D01*
X8073095Y-15609333D02*
X8054048Y-15599809D01*
X8054048Y-15599809D02*
X8025476Y-15599809D01*
X8025476Y-15599809D02*
X8006429Y-15590286D01*
X8006429Y-15590286D02*
X7996905Y-15571238D01*
X7996905Y-15571238D02*
X7996905Y-15561714D01*
X7996905Y-15561714D02*
X8006429Y-15542667D01*
X8006429Y-15542667D02*
X8025476Y-15533143D01*
X8025476Y-15533143D02*
X8054048Y-15533143D01*
X8054048Y-15533143D02*
X8073095Y-15542667D01*
X8149286Y-15742667D02*
X8158810Y-15733143D01*
X8158810Y-15733143D02*
X8177857Y-15704571D01*
X8177857Y-15704571D02*
X8187381Y-15685524D01*
X8187381Y-15685524D02*
X8196905Y-15656952D01*
X8196905Y-15656952D02*
X8206429Y-15609333D01*
X8206429Y-15609333D02*
X8206429Y-15571238D01*
X8206429Y-15571238D02*
X8196905Y-15523619D01*
X8196905Y-15523619D02*
X8187381Y-15495048D01*
X8187381Y-15495048D02*
X8177857Y-15476000D01*
X8177857Y-15476000D02*
X8158810Y-15447428D01*
X8158810Y-15447428D02*
X8149286Y-15437905D01*
D19*
X1855000Y-15787000D02*
X1995000Y-15927000D01*
X1995000Y-15787000D02*
X1855000Y-15927000D01*
X1925000Y-15927000D02*
X1995000Y-15857000D01*
X1925000Y-15787000D01*
X1855000Y-15857000D01*
X1925000Y-15927000D01*
D11*
X2347381Y-15930476D02*
X2233095Y-15930476D01*
X2290238Y-15930476D02*
X2290238Y-15730476D01*
X2290238Y-15730476D02*
X2271190Y-15759048D01*
X2271190Y-15759048D02*
X2252143Y-15778095D01*
X2252143Y-15778095D02*
X2233095Y-15787619D01*
X2433095Y-15911428D02*
X2442619Y-15920952D01*
X2442619Y-15920952D02*
X2433095Y-15930476D01*
X2433095Y-15930476D02*
X2423571Y-15920952D01*
X2423571Y-15920952D02*
X2433095Y-15911428D01*
X2433095Y-15911428D02*
X2433095Y-15930476D01*
X2614048Y-15797143D02*
X2614048Y-15930476D01*
X2566429Y-15720952D02*
X2518810Y-15863809D01*
X2518810Y-15863809D02*
X2642619Y-15863809D01*
X2756905Y-15730476D02*
X2775952Y-15730476D01*
X2775952Y-15730476D02*
X2795000Y-15740000D01*
X2795000Y-15740000D02*
X2804524Y-15749524D01*
X2804524Y-15749524D02*
X2814048Y-15768571D01*
X2814048Y-15768571D02*
X2823571Y-15806667D01*
X2823571Y-15806667D02*
X2823571Y-15854286D01*
X2823571Y-15854286D02*
X2814048Y-15892381D01*
X2814048Y-15892381D02*
X2804524Y-15911428D01*
X2804524Y-15911428D02*
X2795000Y-15920952D01*
X2795000Y-15920952D02*
X2775952Y-15930476D01*
X2775952Y-15930476D02*
X2756905Y-15930476D01*
X2756905Y-15930476D02*
X2737857Y-15920952D01*
X2737857Y-15920952D02*
X2728333Y-15911428D01*
X2728333Y-15911428D02*
X2718810Y-15892381D01*
X2718810Y-15892381D02*
X2709286Y-15854286D01*
X2709286Y-15854286D02*
X2709286Y-15806667D01*
X2709286Y-15806667D02*
X2718810Y-15768571D01*
X2718810Y-15768571D02*
X2728333Y-15749524D01*
X2728333Y-15749524D02*
X2737857Y-15740000D01*
X2737857Y-15740000D02*
X2756905Y-15730476D01*
X2947381Y-15730476D02*
X2966429Y-15730476D01*
X2966429Y-15730476D02*
X2985476Y-15740000D01*
X2985476Y-15740000D02*
X2995000Y-15749524D01*
X2995000Y-15749524D02*
X3004524Y-15768571D01*
X3004524Y-15768571D02*
X3014048Y-15806667D01*
X3014048Y-15806667D02*
X3014048Y-15854286D01*
X3014048Y-15854286D02*
X3004524Y-15892381D01*
X3004524Y-15892381D02*
X2995000Y-15911428D01*
X2995000Y-15911428D02*
X2985476Y-15920952D01*
X2985476Y-15920952D02*
X2966429Y-15930476D01*
X2966429Y-15930476D02*
X2947381Y-15930476D01*
X2947381Y-15930476D02*
X2928333Y-15920952D01*
X2928333Y-15920952D02*
X2918809Y-15911428D01*
X2918809Y-15911428D02*
X2909286Y-15892381D01*
X2909286Y-15892381D02*
X2899762Y-15854286D01*
X2899762Y-15854286D02*
X2899762Y-15806667D01*
X2899762Y-15806667D02*
X2909286Y-15768571D01*
X2909286Y-15768571D02*
X2918809Y-15749524D01*
X2918809Y-15749524D02*
X2928333Y-15740000D01*
X2928333Y-15740000D02*
X2947381Y-15730476D01*
X3099762Y-15930476D02*
X3099762Y-15797143D01*
X3099762Y-15816190D02*
X3109286Y-15806667D01*
X3109286Y-15806667D02*
X3128333Y-15797143D01*
X3128333Y-15797143D02*
X3156905Y-15797143D01*
X3156905Y-15797143D02*
X3175952Y-15806667D01*
X3175952Y-15806667D02*
X3185476Y-15825714D01*
X3185476Y-15825714D02*
X3185476Y-15930476D01*
X3185476Y-15825714D02*
X3195000Y-15806667D01*
X3195000Y-15806667D02*
X3214048Y-15797143D01*
X3214048Y-15797143D02*
X3242619Y-15797143D01*
X3242619Y-15797143D02*
X3261667Y-15806667D01*
X3261667Y-15806667D02*
X3271190Y-15825714D01*
X3271190Y-15825714D02*
X3271190Y-15930476D01*
X3366429Y-15930476D02*
X3366429Y-15797143D01*
X3366429Y-15816190D02*
X3375952Y-15806667D01*
X3375952Y-15806667D02*
X3395000Y-15797143D01*
X3395000Y-15797143D02*
X3423571Y-15797143D01*
X3423571Y-15797143D02*
X3442619Y-15806667D01*
X3442619Y-15806667D02*
X3452143Y-15825714D01*
X3452143Y-15825714D02*
X3452143Y-15930476D01*
X3452143Y-15825714D02*
X3461667Y-15806667D01*
X3461667Y-15806667D02*
X3480714Y-15797143D01*
X3480714Y-15797143D02*
X3509286Y-15797143D01*
X3509286Y-15797143D02*
X3528333Y-15806667D01*
X3528333Y-15806667D02*
X3537857Y-15825714D01*
X3537857Y-15825714D02*
X3537857Y-15930476D01*
X3895952Y-15720952D02*
X3724524Y-15978095D01*
X4120714Y-15730476D02*
X4139762Y-15730476D01*
X4139762Y-15730476D02*
X4158810Y-15740000D01*
X4158810Y-15740000D02*
X4168333Y-15749524D01*
X4168333Y-15749524D02*
X4177857Y-15768571D01*
X4177857Y-15768571D02*
X4187381Y-15806667D01*
X4187381Y-15806667D02*
X4187381Y-15854286D01*
X4187381Y-15854286D02*
X4177857Y-15892381D01*
X4177857Y-15892381D02*
X4168333Y-15911428D01*
X4168333Y-15911428D02*
X4158810Y-15920952D01*
X4158810Y-15920952D02*
X4139762Y-15930476D01*
X4139762Y-15930476D02*
X4120714Y-15930476D01*
X4120714Y-15930476D02*
X4101667Y-15920952D01*
X4101667Y-15920952D02*
X4092143Y-15911428D01*
X4092143Y-15911428D02*
X4082619Y-15892381D01*
X4082619Y-15892381D02*
X4073095Y-15854286D01*
X4073095Y-15854286D02*
X4073095Y-15806667D01*
X4073095Y-15806667D02*
X4082619Y-15768571D01*
X4082619Y-15768571D02*
X4092143Y-15749524D01*
X4092143Y-15749524D02*
X4101667Y-15740000D01*
X4101667Y-15740000D02*
X4120714Y-15730476D01*
X4273095Y-15911428D02*
X4282619Y-15920952D01*
X4282619Y-15920952D02*
X4273095Y-15930476D01*
X4273095Y-15930476D02*
X4263572Y-15920952D01*
X4263572Y-15920952D02*
X4273095Y-15911428D01*
X4273095Y-15911428D02*
X4273095Y-15930476D01*
X4406429Y-15730476D02*
X4425476Y-15730476D01*
X4425476Y-15730476D02*
X4444524Y-15740000D01*
X4444524Y-15740000D02*
X4454048Y-15749524D01*
X4454048Y-15749524D02*
X4463572Y-15768571D01*
X4463572Y-15768571D02*
X4473095Y-15806667D01*
X4473095Y-15806667D02*
X4473095Y-15854286D01*
X4473095Y-15854286D02*
X4463572Y-15892381D01*
X4463572Y-15892381D02*
X4454048Y-15911428D01*
X4454048Y-15911428D02*
X4444524Y-15920952D01*
X4444524Y-15920952D02*
X4425476Y-15930476D01*
X4425476Y-15930476D02*
X4406429Y-15930476D01*
X4406429Y-15930476D02*
X4387381Y-15920952D01*
X4387381Y-15920952D02*
X4377857Y-15911428D01*
X4377857Y-15911428D02*
X4368333Y-15892381D01*
X4368333Y-15892381D02*
X4358810Y-15854286D01*
X4358810Y-15854286D02*
X4358810Y-15806667D01*
X4358810Y-15806667D02*
X4368333Y-15768571D01*
X4368333Y-15768571D02*
X4377857Y-15749524D01*
X4377857Y-15749524D02*
X4387381Y-15740000D01*
X4387381Y-15740000D02*
X4406429Y-15730476D01*
X4654048Y-15730476D02*
X4558810Y-15730476D01*
X4558810Y-15730476D02*
X4549286Y-15825714D01*
X4549286Y-15825714D02*
X4558810Y-15816190D01*
X4558810Y-15816190D02*
X4577857Y-15806667D01*
X4577857Y-15806667D02*
X4625476Y-15806667D01*
X4625476Y-15806667D02*
X4644524Y-15816190D01*
X4644524Y-15816190D02*
X4654048Y-15825714D01*
X4654048Y-15825714D02*
X4663572Y-15844762D01*
X4663572Y-15844762D02*
X4663572Y-15892381D01*
X4663572Y-15892381D02*
X4654048Y-15911428D01*
X4654048Y-15911428D02*
X4644524Y-15920952D01*
X4644524Y-15920952D02*
X4625476Y-15930476D01*
X4625476Y-15930476D02*
X4577857Y-15930476D01*
X4577857Y-15930476D02*
X4558810Y-15920952D01*
X4558810Y-15920952D02*
X4549286Y-15911428D01*
X4844524Y-15730476D02*
X4749286Y-15730476D01*
X4749286Y-15730476D02*
X4739762Y-15825714D01*
X4739762Y-15825714D02*
X4749286Y-15816190D01*
X4749286Y-15816190D02*
X4768333Y-15806667D01*
X4768333Y-15806667D02*
X4815953Y-15806667D01*
X4815953Y-15806667D02*
X4835000Y-15816190D01*
X4835000Y-15816190D02*
X4844524Y-15825714D01*
X4844524Y-15825714D02*
X4854048Y-15844762D01*
X4854048Y-15844762D02*
X4854048Y-15892381D01*
X4854048Y-15892381D02*
X4844524Y-15911428D01*
X4844524Y-15911428D02*
X4835000Y-15920952D01*
X4835000Y-15920952D02*
X4815953Y-15930476D01*
X4815953Y-15930476D02*
X4768333Y-15930476D01*
X4768333Y-15930476D02*
X4749286Y-15920952D01*
X4749286Y-15920952D02*
X4739762Y-15911428D01*
X5044524Y-15930476D02*
X4930238Y-15930476D01*
X4987381Y-15930476D02*
X4987381Y-15730476D01*
X4987381Y-15730476D02*
X4968333Y-15759048D01*
X4968333Y-15759048D02*
X4949286Y-15778095D01*
X4949286Y-15778095D02*
X4930238Y-15787619D01*
X5120714Y-15730476D02*
X5120714Y-15768571D01*
X5196905Y-15730476D02*
X5196905Y-15768571D01*
X5459762Y-16006667D02*
X5450238Y-15997143D01*
X5450238Y-15997143D02*
X5431191Y-15968571D01*
X5431191Y-15968571D02*
X5421667Y-15949524D01*
X5421667Y-15949524D02*
X5412143Y-15920952D01*
X5412143Y-15920952D02*
X5402619Y-15873333D01*
X5402619Y-15873333D02*
X5402619Y-15835238D01*
X5402619Y-15835238D02*
X5412143Y-15787619D01*
X5412143Y-15787619D02*
X5421667Y-15759048D01*
X5421667Y-15759048D02*
X5431191Y-15740000D01*
X5431191Y-15740000D02*
X5450238Y-15711428D01*
X5450238Y-15711428D02*
X5459762Y-15701905D01*
X5516905Y-15730476D02*
X5640714Y-15730476D01*
X5640714Y-15730476D02*
X5574048Y-15806667D01*
X5574048Y-15806667D02*
X5602619Y-15806667D01*
X5602619Y-15806667D02*
X5621667Y-15816190D01*
X5621667Y-15816190D02*
X5631191Y-15825714D01*
X5631191Y-15825714D02*
X5640714Y-15844762D01*
X5640714Y-15844762D02*
X5640714Y-15892381D01*
X5640714Y-15892381D02*
X5631191Y-15911428D01*
X5631191Y-15911428D02*
X5621667Y-15920952D01*
X5621667Y-15920952D02*
X5602619Y-15930476D01*
X5602619Y-15930476D02*
X5545476Y-15930476D01*
X5545476Y-15930476D02*
X5526429Y-15920952D01*
X5526429Y-15920952D02*
X5516905Y-15911428D01*
X5812143Y-15730476D02*
X5774048Y-15730476D01*
X5774048Y-15730476D02*
X5755000Y-15740000D01*
X5755000Y-15740000D02*
X5745476Y-15749524D01*
X5745476Y-15749524D02*
X5726429Y-15778095D01*
X5726429Y-15778095D02*
X5716905Y-15816190D01*
X5716905Y-15816190D02*
X5716905Y-15892381D01*
X5716905Y-15892381D02*
X5726429Y-15911428D01*
X5726429Y-15911428D02*
X5735952Y-15920952D01*
X5735952Y-15920952D02*
X5755000Y-15930476D01*
X5755000Y-15930476D02*
X5793095Y-15930476D01*
X5793095Y-15930476D02*
X5812143Y-15920952D01*
X5812143Y-15920952D02*
X5821667Y-15911428D01*
X5821667Y-15911428D02*
X5831191Y-15892381D01*
X5831191Y-15892381D02*
X5831191Y-15844762D01*
X5831191Y-15844762D02*
X5821667Y-15825714D01*
X5821667Y-15825714D02*
X5812143Y-15816190D01*
X5812143Y-15816190D02*
X5793095Y-15806667D01*
X5793095Y-15806667D02*
X5755000Y-15806667D01*
X5755000Y-15806667D02*
X5735952Y-15816190D01*
X5735952Y-15816190D02*
X5726429Y-15825714D01*
X5726429Y-15825714D02*
X5716905Y-15844762D01*
X6036905Y-15930476D02*
X6036905Y-15730476D01*
X6122619Y-15930476D02*
X6122619Y-15825714D01*
X6122619Y-15825714D02*
X6113095Y-15806667D01*
X6113095Y-15806667D02*
X6094048Y-15797143D01*
X6094048Y-15797143D02*
X6065476Y-15797143D01*
X6065476Y-15797143D02*
X6046429Y-15806667D01*
X6046429Y-15806667D02*
X6036905Y-15816190D01*
X6246429Y-15930476D02*
X6227381Y-15920952D01*
X6227381Y-15920952D02*
X6217857Y-15911428D01*
X6217857Y-15911428D02*
X6208333Y-15892381D01*
X6208333Y-15892381D02*
X6208333Y-15835238D01*
X6208333Y-15835238D02*
X6217857Y-15816190D01*
X6217857Y-15816190D02*
X6227381Y-15806667D01*
X6227381Y-15806667D02*
X6246429Y-15797143D01*
X6246429Y-15797143D02*
X6275000Y-15797143D01*
X6275000Y-15797143D02*
X6294048Y-15806667D01*
X6294048Y-15806667D02*
X6303572Y-15816190D01*
X6303572Y-15816190D02*
X6313095Y-15835238D01*
X6313095Y-15835238D02*
X6313095Y-15892381D01*
X6313095Y-15892381D02*
X6303572Y-15911428D01*
X6303572Y-15911428D02*
X6294048Y-15920952D01*
X6294048Y-15920952D02*
X6275000Y-15930476D01*
X6275000Y-15930476D02*
X6246429Y-15930476D01*
X6427381Y-15930476D02*
X6408333Y-15920952D01*
X6408333Y-15920952D02*
X6398810Y-15901905D01*
X6398810Y-15901905D02*
X6398810Y-15730476D01*
X6579762Y-15920952D02*
X6560714Y-15930476D01*
X6560714Y-15930476D02*
X6522619Y-15930476D01*
X6522619Y-15930476D02*
X6503572Y-15920952D01*
X6503572Y-15920952D02*
X6494048Y-15901905D01*
X6494048Y-15901905D02*
X6494048Y-15825714D01*
X6494048Y-15825714D02*
X6503572Y-15806667D01*
X6503572Y-15806667D02*
X6522619Y-15797143D01*
X6522619Y-15797143D02*
X6560714Y-15797143D01*
X6560714Y-15797143D02*
X6579762Y-15806667D01*
X6579762Y-15806667D02*
X6589286Y-15825714D01*
X6589286Y-15825714D02*
X6589286Y-15844762D01*
X6589286Y-15844762D02*
X6494048Y-15863809D01*
X6665476Y-15920952D02*
X6684524Y-15930476D01*
X6684524Y-15930476D02*
X6722619Y-15930476D01*
X6722619Y-15930476D02*
X6741667Y-15920952D01*
X6741667Y-15920952D02*
X6751191Y-15901905D01*
X6751191Y-15901905D02*
X6751191Y-15892381D01*
X6751191Y-15892381D02*
X6741667Y-15873333D01*
X6741667Y-15873333D02*
X6722619Y-15863809D01*
X6722619Y-15863809D02*
X6694048Y-15863809D01*
X6694048Y-15863809D02*
X6675000Y-15854286D01*
X6675000Y-15854286D02*
X6665476Y-15835238D01*
X6665476Y-15835238D02*
X6665476Y-15825714D01*
X6665476Y-15825714D02*
X6675000Y-15806667D01*
X6675000Y-15806667D02*
X6694048Y-15797143D01*
X6694048Y-15797143D02*
X6722619Y-15797143D01*
X6722619Y-15797143D02*
X6741667Y-15806667D01*
X6817857Y-16006667D02*
X6827381Y-15997143D01*
X6827381Y-15997143D02*
X6846429Y-15968571D01*
X6846429Y-15968571D02*
X6855953Y-15949524D01*
X6855953Y-15949524D02*
X6865476Y-15920952D01*
X6865476Y-15920952D02*
X6875000Y-15873333D01*
X6875000Y-15873333D02*
X6875000Y-15835238D01*
X6875000Y-15835238D02*
X6865476Y-15787619D01*
X6865476Y-15787619D02*
X6855953Y-15759048D01*
X6855953Y-15759048D02*
X6846429Y-15740000D01*
X6846429Y-15740000D02*
X6827381Y-15711428D01*
X6827381Y-15711428D02*
X6817857Y-15701905D01*
M02*
