%TF.GenerationSoftware,KiCad,Pcbnew,(7.0.0)*%
%TF.CreationDate,2023-04-14T17:54:00+02:00*%
%TF.ProjectId,multi-tool-midi-board,6d756c74-692d-4746-9f6f-6c2d6d696469,rev?*%
%TF.SameCoordinates,Original*%
%TF.FileFunction,Soldermask,Bot*%
%TF.FilePolarity,Negative*%
%FSLAX46Y46*%
G04 Gerber Fmt 4.6, Leading zero omitted, Abs format (unit mm)*
G04 Created by KiCad (PCBNEW (7.0.0)) date 2023-04-14 17:54:00*
%MOMM*%
%LPD*%
G01*
G04 APERTURE LIST*
%ADD10O,1.508000X3.016000*%
%ADD11O,3.016000X1.508000*%
%ADD12R,1.700000X1.700000*%
%ADD13O,1.700000X1.700000*%
%ADD14C,3.200000*%
%ADD15R,2.100000X2.100000*%
%ADD16C,2.100000*%
%ADD17O,3.240000X2.720000*%
%ADD18R,1.800000X1.800000*%
%ADD19C,1.800000*%
%ADD20C,1.600000*%
%ADD21C,0.770000*%
%ADD22C,1.700000*%
%ADD23R,1.850000X1.850000*%
%ADD24C,1.850000*%
%ADD25R,6.350000X3.810000*%
%ADD26R,4.060000X3.300000*%
%ADD27R,6.350000X3.300000*%
%ADD28O,1.800000X1.800000*%
%ADD29O,1.500000X1.500000*%
%ADD30R,1.700000X3.500000*%
%ADD31R,3.500000X1.700000*%
G04 APERTURE END LIST*
D10*
%TO.C,J11*%
X172549999Y-45149999D03*
D11*
X168999999Y-41949999D03*
D10*
X165449999Y-45149999D03*
D11*
X168999999Y-50049999D03*
%TD*%
D12*
%TO.C,J1*%
X115919999Y-79249999D03*
D13*
X118459999Y-79249999D03*
X120999999Y-79249999D03*
X123539999Y-79249999D03*
X126079999Y-79249999D03*
X128619999Y-79249999D03*
X131159999Y-79249999D03*
%TD*%
D14*
%TO.C,REF\u002A\u002A*%
X62000000Y-29000000D03*
%TD*%
D12*
%TO.C,J18*%
X129779999Y-123999999D03*
D13*
X132319999Y-123999999D03*
X134859999Y-123999999D03*
X137399999Y-123999999D03*
X139939999Y-123999999D03*
%TD*%
D14*
%TO.C,REF\u002A\u002A*%
X31000000Y-94000000D03*
%TD*%
D15*
%TO.C,J27*%
X54499999Y-93999999D03*
D16*
X49000000Y-99500000D03*
X43500000Y-94000000D03*
X52890000Y-97890000D03*
X45110000Y-97890000D03*
X49000000Y-89500000D03*
%TD*%
D10*
%TO.C,J12*%
X162549999Y-45149999D03*
D11*
X158999999Y-41949999D03*
D10*
X155449999Y-45149999D03*
D11*
X158999999Y-50049999D03*
%TD*%
%TO.C,J15*%
X191749999Y-108649999D03*
D10*
X194949999Y-105099999D03*
D11*
X191749999Y-101549999D03*
D10*
X186849999Y-105099999D03*
%TD*%
%TO.C,J5*%
X123549999Y-45149999D03*
D11*
X119999999Y-41949999D03*
D10*
X116449999Y-45149999D03*
D11*
X119999999Y-50049999D03*
%TD*%
%TO.C,J16*%
X191749999Y-121649999D03*
D10*
X194949999Y-118099999D03*
D11*
X191749999Y-114549999D03*
D10*
X186849999Y-118099999D03*
%TD*%
D11*
%TO.C,J22*%
X191849999Y-81549999D03*
D10*
X195049999Y-77999999D03*
D11*
X191849999Y-74449999D03*
D10*
X186949999Y-77999999D03*
%TD*%
D11*
%TO.C,J14*%
X191849999Y-95549999D03*
D10*
X195049999Y-91999999D03*
D11*
X191849999Y-88449999D03*
D10*
X186949999Y-91999999D03*
%TD*%
D17*
%TO.C,RV5*%
X164774999Y-113532499D03*
X164774999Y-123132499D03*
D18*
X157274999Y-115832499D03*
D19*
X157275000Y-118332500D03*
X157275000Y-120832500D03*
%TD*%
D15*
%TO.C,J23*%
X50499999Y-34999999D03*
D16*
X45000000Y-40500000D03*
X39500000Y-35000000D03*
X48890000Y-38890000D03*
X41110000Y-38890000D03*
X45000000Y-30500000D03*
%TD*%
D10*
%TO.C,J10*%
X127549999Y-31149999D03*
D11*
X123999999Y-27949999D03*
D10*
X120449999Y-31149999D03*
D11*
X123999999Y-36049999D03*
%TD*%
D10*
%TO.C,J13*%
X152549999Y-45149999D03*
D11*
X148999999Y-41949999D03*
D10*
X145449999Y-45149999D03*
D11*
X148999999Y-50049999D03*
%TD*%
D10*
%TO.C,J3*%
X88539999Y-31149999D03*
D11*
X84989999Y-27949999D03*
D10*
X81439999Y-31149999D03*
D11*
X84989999Y-36049999D03*
%TD*%
D18*
%TO.C,D5*%
X100999999Y-119999999D03*
D19*
X103540000Y-120000000D03*
%TD*%
D10*
%TO.C,J8*%
X147549999Y-31149999D03*
D11*
X143999999Y-27949999D03*
D10*
X140449999Y-31149999D03*
D11*
X143999999Y-36049999D03*
%TD*%
D10*
%TO.C,J20*%
X197549999Y-32149999D03*
D11*
X193999999Y-28949999D03*
D10*
X190449999Y-32149999D03*
D11*
X193999999Y-37049999D03*
%TD*%
D10*
%TO.C,J21*%
X187549999Y-32149999D03*
D11*
X183999999Y-28949999D03*
D10*
X180449999Y-32149999D03*
D11*
X183999999Y-37049999D03*
%TD*%
D10*
%TO.C,J7*%
X103549999Y-45149999D03*
D11*
X99999999Y-41949999D03*
D10*
X96449999Y-45149999D03*
D11*
X99999999Y-50049999D03*
%TD*%
D20*
%TO.C,R1*%
X192000000Y-69700000D03*
X192000000Y-66300000D03*
%TD*%
D21*
%TO.C,U14*%
X121960000Y-115900000D03*
X121960000Y-118500000D03*
X121960000Y-117200000D03*
X120660000Y-117200000D03*
X120660000Y-118500000D03*
X120660000Y-115900000D03*
%TD*%
D15*
%TO.C,J24*%
X55499999Y-67999999D03*
D16*
X50000000Y-73500000D03*
X44500000Y-68000000D03*
X53890000Y-71890000D03*
X46110000Y-71890000D03*
X50000000Y-63500000D03*
%TD*%
D22*
%TO.C,S1*%
X86000000Y-88056425D03*
%TD*%
D12*
%TO.C,J19*%
X144319999Y-123999999D03*
D13*
X146859999Y-123999999D03*
X149399999Y-123999999D03*
X151939999Y-123999999D03*
X154479999Y-123999999D03*
%TD*%
D10*
%TO.C,J4*%
X78549999Y-31149999D03*
D11*
X74999999Y-27949999D03*
D10*
X71449999Y-31149999D03*
D11*
X74999999Y-36049999D03*
%TD*%
D21*
%TO.C,U15*%
X134960000Y-117200000D03*
X133660000Y-117200000D03*
X133660000Y-118500000D03*
X133660000Y-115900000D03*
X134960000Y-115900000D03*
X134960000Y-118500000D03*
%TD*%
D22*
%TO.C,S3*%
X110000000Y-95000000D03*
%TD*%
D12*
%TO.C,J17*%
X114784999Y-123999999D03*
D13*
X117324999Y-123999999D03*
X119864999Y-123999999D03*
X122404999Y-123999999D03*
X124944999Y-123999999D03*
%TD*%
D15*
%TO.C,J26*%
X39499999Y-80999999D03*
D16*
X34000000Y-86500000D03*
X28500000Y-81000000D03*
X37890000Y-84890000D03*
X30110000Y-84890000D03*
X34000000Y-76500000D03*
%TD*%
D22*
%TO.C,S2*%
X86000000Y-104056425D03*
%TD*%
D14*
%TO.C,REF\u002A\u002A*%
X194000000Y-44000000D03*
%TD*%
D10*
%TO.C,J2*%
X98549999Y-31149999D03*
D11*
X94999999Y-27949999D03*
D10*
X91449999Y-31149999D03*
D11*
X94999999Y-36049999D03*
%TD*%
D17*
%TO.C,RV3*%
X164774999Y-97032499D03*
X164774999Y-87432499D03*
D18*
X157274999Y-89732499D03*
D19*
X157275000Y-92232500D03*
X157275000Y-94732500D03*
%TD*%
D15*
%TO.C,J25*%
X39508357Y-54999999D03*
D16*
X34008358Y-60500000D03*
X28508358Y-55000000D03*
X37898358Y-58890000D03*
X30118358Y-58890000D03*
X34008358Y-50500000D03*
%TD*%
D21*
%TO.C,U16*%
X146660000Y-115900000D03*
X147960000Y-115900000D03*
X147960000Y-118500000D03*
X146660000Y-117200000D03*
X147960000Y-117200000D03*
X146660000Y-118500000D03*
%TD*%
D10*
%TO.C,J9*%
X137549999Y-31149999D03*
D11*
X133999999Y-27949999D03*
D10*
X130449999Y-31149999D03*
D11*
X133999999Y-36049999D03*
%TD*%
D10*
%TO.C,J6*%
X113549999Y-45149999D03*
D11*
X109999999Y-41949999D03*
D10*
X106449999Y-45149999D03*
D11*
X109999999Y-50049999D03*
%TD*%
D14*
%TO.C,REF\u002A\u002A*%
X175000000Y-125000000D03*
%TD*%
D15*
%TO.C,J28*%
X39499999Y-106999999D03*
D16*
X34000000Y-112500000D03*
X28500000Y-107000000D03*
X37890000Y-110890000D03*
X30110000Y-110890000D03*
X34000000Y-102500000D03*
%TD*%
D22*
%TO.C,S4*%
X127000000Y-95000000D03*
%TD*%
D17*
%TO.C,RV4*%
X164774999Y-100532499D03*
X164774999Y-110132499D03*
D18*
X157274999Y-102832499D03*
D19*
X157275000Y-105332500D03*
X157275000Y-107832500D03*
%TD*%
D12*
%TO.C,J29*%
X69474999Y-104574999D03*
D13*
X72014999Y-104574999D03*
X69474999Y-102034999D03*
X72014999Y-102034999D03*
X69474999Y-99494999D03*
X72014999Y-99494999D03*
X69474999Y-96954999D03*
X72014999Y-96954999D03*
X69474999Y-94414999D03*
X72014999Y-94414999D03*
%TD*%
D23*
%TO.C,PS1*%
X49749999Y-128249999D03*
D24*
X49750000Y-125710000D03*
X49750000Y-123170000D03*
X49750000Y-118090000D03*
X49750000Y-115550000D03*
X49750000Y-113010000D03*
X49750000Y-110470000D03*
%TD*%
D25*
%TO.C,J30*%
X23799999Y-127999999D03*
D26*
X32939999Y-120809999D03*
D27*
X23799999Y-114709999D03*
%TD*%
D28*
%TO.C,U1*%
X95999999Y-95724999D03*
D29*
X99029999Y-90574999D03*
X99029999Y-95424999D03*
D28*
X95999999Y-90274999D03*
D13*
X95869999Y-84109999D03*
D30*
X95869999Y-83209999D03*
X98409999Y-83209999D03*
D13*
X98409999Y-84109999D03*
D12*
X100949999Y-84109999D03*
D30*
X100949999Y-83209999D03*
D13*
X103489999Y-84109999D03*
D30*
X103489999Y-83209999D03*
X106029999Y-83209999D03*
D13*
X106029999Y-84109999D03*
D30*
X108569999Y-83209999D03*
D13*
X108569999Y-84109999D03*
X111109999Y-84109999D03*
D30*
X111109999Y-83209999D03*
D12*
X113649999Y-84109999D03*
D30*
X113649999Y-83209999D03*
D13*
X116189999Y-84109999D03*
D30*
X116189999Y-83209999D03*
X118729999Y-83209999D03*
D13*
X118729999Y-84109999D03*
D30*
X121269999Y-83209999D03*
D13*
X121269999Y-84109999D03*
D30*
X123809999Y-83209999D03*
D13*
X123809999Y-84109999D03*
D30*
X126349999Y-83209999D03*
D12*
X126349999Y-84109999D03*
D13*
X128889999Y-84109999D03*
D30*
X128889999Y-83209999D03*
D13*
X131429999Y-84109999D03*
D30*
X131429999Y-83209999D03*
D13*
X133969999Y-84109999D03*
D30*
X133969999Y-83209999D03*
X136509999Y-83209999D03*
D13*
X136509999Y-84109999D03*
D12*
X139049999Y-84109999D03*
D30*
X139049999Y-83209999D03*
D13*
X141589999Y-84109999D03*
D30*
X141589999Y-83209999D03*
D13*
X144129999Y-84109999D03*
D30*
X144129999Y-83209999D03*
X144129999Y-102789999D03*
D13*
X144129999Y-101889999D03*
X141589999Y-101889999D03*
D30*
X141589999Y-102789999D03*
D12*
X139049999Y-101889999D03*
D30*
X139049999Y-102789999D03*
X136509999Y-102789999D03*
D13*
X136509999Y-101889999D03*
D30*
X133969999Y-102789999D03*
D13*
X133969999Y-101889999D03*
X131429999Y-101889999D03*
D30*
X131429999Y-102789999D03*
D13*
X128889999Y-101889999D03*
D30*
X128889999Y-102789999D03*
X126349999Y-102789999D03*
D12*
X126349999Y-101889999D03*
D13*
X123809999Y-101889999D03*
D30*
X123809999Y-102789999D03*
X121269999Y-102789999D03*
D13*
X121269999Y-101889999D03*
X118729999Y-101889999D03*
D30*
X118729999Y-102789999D03*
D13*
X116189999Y-101889999D03*
D30*
X116189999Y-102789999D03*
X113649999Y-102789999D03*
D12*
X113649999Y-101889999D03*
D13*
X111109999Y-101889999D03*
D30*
X111109999Y-102789999D03*
X108569999Y-102789999D03*
D13*
X108569999Y-101889999D03*
D30*
X106029999Y-102789999D03*
D13*
X106029999Y-101889999D03*
X103489999Y-101889999D03*
D30*
X103489999Y-102789999D03*
X100949999Y-102789999D03*
D12*
X100949999Y-101889999D03*
D30*
X98409999Y-102789999D03*
D13*
X98409999Y-101889999D03*
D30*
X95869999Y-102789999D03*
D13*
X95869999Y-101889999D03*
D31*
X144799999Y-90459999D03*
D13*
X143899999Y-90459999D03*
D12*
X143899999Y-92999999D03*
D31*
X144799999Y-92999999D03*
D13*
X143899999Y-95539999D03*
D31*
X144799999Y-95539999D03*
%TD*%
M02*
